<svg xmlns="http://www.w3.org/2000/svg" xmlns:xlink="http://www.w3.org/1999/xlink" xmlns:lucid="lucid" width="804.5" height="1184.67"><g transform="translate(-295.5 20)" lucid:page-tab-id="0_0"><g filter="url(#a)"><path d="M637.78 962.28h124.44v124.44H637.78z" stroke="#fff" stroke-opacity="0" fill="#3b48cc"/><path d="M760 964.5v119.98H640V964.5h120m4.5-4.5h-129v129h129V960z" stroke="#fff" stroke-opacity="0" fill="#fff"/><path d="M700.75 985.8c-15.2 0-26.75 4.9-26.75 11.36v56.1c0 6.56 11.56 11.46 26.75 11.46 15.2 0 26.75-4.9 26.75-11.37v-56.1c0-6.56-11.5-11.45-26.75-11.45zm0 3c13.96 0 23.7 4.42 23.7 8.36 0 3.95-9.74 8.37-23.7 8.37-13.96 0-23.7-4.34-23.7-8.3 0-3.93 9.74-8.43 23.7-8.43zm0 72.92c-13.96 0-23.7-4.42-23.7-8.37v-11.83c4.4 3.63 13.1 6 23.7 6 10.65 0 19.3-2.37 23.7-6v11.83c0 3.95-9.74 8.37-23.7 8.37zm0-17.28c-13.96 0-23.7-4.34-23.7-8.3v-13.88c4.4 3.55 13.1 5.92 23.7 5.92 10.65 0 19.3-2.37 23.7-5.92v13.9c0 3.94-9.74 8.28-23.7 8.28zm0-19.34c-13.96 0-23.7-4.34-23.7-8.3v-14.27c4.4 3.63 13.1 6 23.7 6 10.65 0 19.3-2.37 23.7-6v14.2c0 3.95-9.74 8.37-23.7 8.37z" stroke="#fff" stroke-opacity="0" fill="#fff"/><use xlink:href="#b" transform="matrix(1,0,0,1,605.5,1098) translate(34.438271604938265 17.77777777777778)"/><use xlink:href="#c" transform="matrix(1,0,0,1,605.5,1098) translate(47 44.44444444444444)"/></g><path d="M400 480h120v120H400V480z" stroke="#fff" stroke-opacity="0" stroke-width="2" fill="#d86613"/><path d="M439.66 538.24c.14.14.22.27.4.36.23.23.45.4.72.58l.18.14.8.4.5.22h.36l.4.18c.76.27 1.57.58 2.5.9l1.5.4.75.22c4.2 1.03 7.88 1.47 12.23 1.43 6.6.13 12.2-.94 18.23-3.5 2.6-1.2 4.13-3.56 4.17-6.42V510.2c0-1-.54-1.84-1.43-2.28l-19.9-9.25c-.67-.36-1.43-.36-2.1 0l-19.94 9.25c-.9.44-1.43 1.3-1.43 2.27v23.04c0 1.8.58 3.3 1.75 4.7.1.13.18.22.3.3zm8.15.23l-1.33-.4c-.85-.27-1.57-.54-2.24-.76l-.58-.26-.54-.22c-.17-.1-.35-.18-.53-.27l-.4-.32-.18-.22-.14-.12-.14-.14c-.63-.76-.94-1.56-.94-2.54v-21.1l17.6 8.28v19.56c-3.5-.04-6.44-.44-9.85-1.25zm29.13-1.7c-5.1 2.2-9.8 3.17-15.36 3.22v-19.3l17.6-8.05v20.5c.05 1.6-.8 2.95-2.24 3.62zM460 501.67l17.7 8.26-17.43 7.8-.1-.08-17.2-8z" stroke="#fff" stroke-opacity="0" stroke-width="2" fill="#fff"/><path d="M487.62 524.3l-.83 3.05c7.15 2.13 11.64 5.14 11.64 7.85 0 5.3-15.8 11.2-38.44 11.2-22.63 0-38.44-5.9-38.44-11.2 0-2.7 4.5-5.72 11.65-7.85l-.82-3.06c-9 2.62-13.98 6.52-13.98 10.9 0 9.34 21.47 14.4 41.6 14.4 20.13 0 41.6-5.06 41.6-14.4 0-4.38-5-8.25-13.98-10.9zM487.54 554.63l-7.44-3.2c-.6-.28-1.2-.28-1.8 0l-7.6 3.26c-.7.36-1.1 1-1.1 1.75v8.25l-7.1-3.1c-.6-.3-1.2-.3-1.8 0l-7.17 3.1v-8.28c0-.8-.44-1.48-1.14-1.8l-7.5-3.2c-.56-.27-1.2-.27-1.8 0l-7.6 3.27c-.72.36-1.1 1-1.1 1.75v9.74c0 .8.43 1.48 1.2 1.8l7.44 3.2h.16c.27.1.5.18.82.18.27 0 .54-.03.76-.2l7.22-3.08v8.25c0 .8.44 1.46 1.15 1.8l7.44 3.2h.1c.27.13.54.2.87.2.27 0 .54-.07.8-.2l7.62-3.27c.7-.37 1.08-1 1.13-1.8v-8.18l7.06 3.1h.2c.28.1.56.18.88.2.27-.02.5-.1.7-.2l7.67-3.2c.7-.32 1.1-1 1.1-1.75v-9.83c0-.8-.45-1.48-1.2-1.8zm-8.37-.15l4.35 1.88-4.08 1.67-4.23-1.82zm-17.6 10.22l4.34 1.85-4.06 1.6-4.24-1.75zm-17.6-10.22l4.34 1.88-4.07 1.6-4.23-1.75zm-6.42 4.2l4.84 2.02v6.73l-4.85-2.06zm8.04 8.72V561l4.77-1.97v6.4zm9.56 1.46l4.83 2.06v6.67l-4.84-2.07zm7.98 8.76v-6.43l4.84-1.98v6.4zm9.62-18.95l4.78 2.03v6.73l-4.78-2.06zm8 8.76v-6.4l4.82-2v6.4z" stroke="#fff" stroke-opacity="0" stroke-width="2" fill="#fff"/><use xlink:href="#d" transform="matrix(1,0,0,1,370,609) translate(31.450617283950606 17.77777777777778)"/><path d="M520 720h120v120H520V720z" stroke="#fff" stroke-opacity="0" stroke-width="2" fill="#d86613"/><path d="M559.66 778.24c.14.14.22.27.4.36.23.23.45.4.72.58l.18.14.8.4.5.22h.36l.4.18c.76.27 1.57.58 2.5.9l1.5.4.75.22c4.2 1.03 7.88 1.47 12.23 1.43 6.6.13 12.2-.94 18.23-3.5 2.6-1.2 4.13-3.56 4.17-6.42V750.2c0-1-.54-1.84-1.43-2.28l-19.9-9.25c-.67-.36-1.43-.36-2.1 0l-19.94 9.25c-.9.44-1.43 1.3-1.43 2.27v23.04c0 1.8.58 3.3 1.75 4.7.1.13.18.22.3.3zm8.15.23l-1.33-.4c-.85-.27-1.57-.54-2.24-.76l-.58-.26-.54-.22c-.17-.1-.35-.18-.53-.27l-.4-.32-.18-.22-.14-.12-.14-.14c-.63-.76-.94-1.56-.94-2.54v-21.1l17.6 8.28v19.56c-3.5-.04-6.44-.44-9.85-1.25zm29.13-1.7c-5.1 2.2-9.8 3.17-15.36 3.22v-19.3l17.6-8.05v20.5c.05 1.6-.8 2.95-2.24 3.62zM580 741.67l17.7 8.26-17.43 7.8-.1-.08-17.2-8z" stroke="#fff" stroke-opacity="0" stroke-width="2" fill="#fff"/><path d="M607.62 764.3l-.83 3.05c7.15 2.13 11.64 5.14 11.64 7.85 0 5.3-15.8 11.2-38.44 11.2-22.63 0-38.44-5.9-38.44-11.2 0-2.7 4.5-5.72 11.65-7.85l-.82-3.06c-9 2.62-13.98 6.52-13.98 10.9 0 9.34 21.47 14.4 41.6 14.4 20.13 0 41.6-5.06 41.6-14.4 0-4.38-5-8.25-13.98-10.9zM607.54 794.63l-7.44-3.2c-.6-.28-1.2-.28-1.8 0l-7.6 3.26c-.7.36-1.1 1-1.1 1.75v8.25l-7.1-3.1c-.6-.3-1.2-.3-1.8 0l-7.17 3.1v-8.28c0-.8-.44-1.48-1.14-1.8l-7.5-3.2c-.56-.27-1.2-.27-1.8 0l-7.6 3.27c-.72.36-1.1 1-1.1 1.75v9.74c0 .8.43 1.48 1.2 1.8l7.44 3.2h.16c.27.1.5.18.82.18.27 0 .54-.03.76-.2l7.22-3.08v8.25c0 .8.44 1.46 1.15 1.8l7.44 3.2h.1c.27.13.54.2.87.2.27 0 .54-.07.8-.2l7.62-3.27c.7-.37 1.08-1 1.13-1.8v-8.18l7.06 3.1h.2c.28.1.56.18.88.2.27-.02.5-.1.7-.2l7.67-3.2c.7-.32 1.1-1 1.1-1.75v-9.83c0-.8-.45-1.48-1.2-1.8zm-8.37-.15l4.35 1.88-4.08 1.67-4.23-1.82zm-17.6 10.22l4.34 1.85-4.06 1.6-4.24-1.75zm-17.6-10.22l4.34 1.88-4.07 1.6-4.23-1.75zm-6.42 4.2l4.84 2.02v6.73l-4.85-2.06zm8.04 8.72V801l4.77-1.97v6.4zm9.56 1.46l4.83 2.06v6.67l-4.84-2.07zm7.98 8.76v-6.43l4.84-1.98v6.4zm9.62-18.95l4.78 2.03v6.73l-4.78-2.06zm8 8.76v-6.4l4.82-2v6.4z" stroke="#fff" stroke-opacity="0" stroke-width="2" fill="#fff"/><use xlink:href="#e" transform="matrix(1,0,0,1,490,849) translate(45.648148148148145 17.77777777777778)"/><path d="M640 480h120v120H640V480z" stroke="#fff" stroke-opacity="0" stroke-width="2" fill="#d86613"/><path d="M679.66 538.24c.14.14.22.27.4.36.23.23.45.4.72.58l.18.14.8.4.5.22h.36l.4.18c.76.27 1.57.58 2.5.9l1.5.4.75.22c4.2 1.03 7.88 1.47 12.23 1.43 6.6.13 12.2-.94 18.23-3.5 2.6-1.2 4.13-3.56 4.17-6.42V510.2c0-1-.54-1.84-1.43-2.28l-19.9-9.25c-.67-.36-1.43-.36-2.1 0l-19.94 9.25c-.9.44-1.43 1.3-1.43 2.27v23.04c0 1.8.58 3.3 1.75 4.7.1.13.18.22.3.3zm8.15.23l-1.33-.4c-.85-.27-1.57-.54-2.24-.76l-.58-.26-.54-.22c-.17-.1-.35-.18-.53-.27l-.4-.32-.18-.22-.14-.12-.14-.14c-.63-.76-.94-1.56-.94-2.54v-21.1l17.6 8.28v19.56c-3.5-.04-6.44-.44-9.85-1.25zm29.13-1.7c-5.1 2.2-9.8 3.17-15.36 3.22v-19.3l17.6-8.05v20.5c.05 1.6-.8 2.95-2.24 3.62zM700 501.67l17.7 8.26-17.43 7.8-.1-.08-17.2-8z" stroke="#fff" stroke-opacity="0" stroke-width="2" fill="#fff"/><path d="M727.62 524.3l-.83 3.05c7.15 2.13 11.64 5.14 11.64 7.85 0 5.3-15.8 11.2-38.44 11.2-22.63 0-38.44-5.9-38.44-11.2 0-2.7 4.5-5.72 11.65-7.85l-.82-3.06c-9 2.62-13.98 6.52-13.98 10.9 0 9.34 21.47 14.4 41.6 14.4 20.13 0 41.6-5.06 41.6-14.4 0-4.38-5-8.25-13.98-10.9zM727.54 554.63l-7.44-3.2c-.6-.28-1.2-.28-1.8 0l-7.6 3.26c-.7.36-1.1 1-1.1 1.75v8.25l-7.1-3.1c-.6-.3-1.2-.3-1.8 0l-7.17 3.1v-8.28c0-.8-.44-1.48-1.14-1.8l-7.5-3.2c-.56-.27-1.2-.27-1.8 0l-7.6 3.27c-.72.36-1.1 1-1.1 1.75v9.74c0 .8.43 1.48 1.2 1.8l7.44 3.2h.16c.27.1.5.18.82.18.27 0 .54-.03.76-.2l7.22-3.08v8.25c0 .8.44 1.46 1.15 1.8l7.44 3.2h.1c.27.13.54.2.87.2.27 0 .54-.07.8-.2l7.62-3.27c.7-.37 1.08-1 1.13-1.8v-8.18l7.06 3.1h.2c.28.1.56.18.88.2.27-.02.5-.1.7-.2l7.67-3.2c.7-.32 1.1-1 1.1-1.75v-9.83c0-.8-.45-1.48-1.2-1.8zm-8.37-.15l4.35 1.88-4.08 1.67-4.23-1.82zm-17.6 10.22l4.34 1.85-4.06 1.6-4.24-1.75zm-17.6-10.22l4.34 1.88-4.07 1.6-4.23-1.75zm-6.42 4.2l4.84 2.02v6.73l-4.85-2.06zm8.04 8.72V561l4.77-1.97v6.4zm9.56 1.46l4.83 2.06v6.67l-4.84-2.07zm7.98 8.76v-6.43l4.84-1.98v6.4zm9.62-18.95l4.78 2.03v6.73l-4.78-2.06zm8 8.76v-6.4l4.82-2v6.4z" stroke="#fff" stroke-opacity="0" stroke-width="2" fill="#fff"/><use xlink:href="#f" transform="matrix(1,0,0,1,610,609) translate(31.450617283950606 17.77777777777778)"/><path d="M400 280h120v120H400V280z" stroke="#fff" stroke-opacity="0" stroke-width="2" fill="#d86613"/><path d="M439.66 338.24c.14.14.22.27.4.36.23.23.45.4.72.58l.18.14.8.4.5.22h.36l.4.18c.76.27 1.57.58 2.5.9l1.5.4.75.22c4.2 1.03 7.88 1.47 12.23 1.43 6.6.13 12.2-.94 18.23-3.5 2.6-1.2 4.13-3.56 4.17-6.42V310.2c0-1-.54-1.84-1.43-2.28l-19.9-9.25c-.67-.36-1.43-.36-2.1 0l-19.94 9.25c-.9.44-1.43 1.3-1.43 2.27v23.04c0 1.8.58 3.3 1.75 4.7.1.13.18.22.3.3zm8.15.23l-1.33-.4c-.85-.27-1.57-.54-2.24-.76l-.58-.26-.54-.22c-.17-.1-.35-.18-.53-.27l-.4-.32-.18-.22-.14-.12-.14-.14c-.63-.76-.94-1.56-.94-2.54v-21.1l17.6 8.28v19.56c-3.5-.04-6.44-.44-9.85-1.25zm29.13-1.7c-5.1 2.2-9.8 3.17-15.36 3.22v-19.3l17.6-8.05v20.5c.05 1.6-.8 2.95-2.24 3.62zM460 301.67l17.7 8.26-17.43 7.8-.1-.08-17.2-8z" stroke="#fff" stroke-opacity="0" stroke-width="2" fill="#fff"/><path d="M487.62 324.3l-.83 3.05c7.15 2.13 11.64 5.14 11.64 7.85 0 5.3-15.8 11.2-38.44 11.2-22.63 0-38.44-5.9-38.44-11.2 0-2.7 4.5-5.72 11.65-7.85l-.82-3.06c-9 2.62-13.98 6.52-13.98 10.9 0 9.34 21.47 14.4 41.6 14.4 20.13 0 41.6-5.06 41.6-14.4 0-4.38-5-8.25-13.98-10.9zM487.54 354.63l-7.44-3.2c-.6-.28-1.2-.28-1.8 0l-7.6 3.26c-.7.36-1.1 1-1.1 1.75v8.25l-7.1-3.1c-.6-.3-1.2-.3-1.8 0l-7.17 3.1v-8.28c0-.8-.44-1.48-1.14-1.8l-7.5-3.2c-.56-.27-1.2-.27-1.8 0l-7.6 3.27c-.72.36-1.1 1-1.1 1.75v9.74c0 .8.43 1.48 1.2 1.8l7.44 3.2h.16c.27.1.5.18.82.18.27 0 .54-.03.76-.2l7.22-3.08v8.25c0 .8.44 1.46 1.15 1.8l7.44 3.2h.1c.27.13.54.2.87.2.27 0 .54-.07.8-.2l7.62-3.27c.7-.37 1.08-1 1.13-1.8v-8.18l7.06 3.1h.2c.28.1.56.18.88.2.27-.02.5-.1.7-.2l7.67-3.2c.7-.32 1.1-1 1.1-1.75v-9.83c0-.8-.45-1.48-1.2-1.8zm-8.37-.15l4.35 1.88-4.08 1.67-4.23-1.82zm-17.6 10.22l4.34 1.85-4.06 1.6-4.24-1.75zm-17.6-10.22l4.34 1.88-4.07 1.6-4.23-1.75zm-6.42 4.2l4.84 2.02v6.73l-4.85-2.06zm8.04 8.72V361l4.77-1.97v6.4zm9.56 1.46l4.83 2.06v6.67l-4.84-2.07zm7.98 8.76v-6.43l4.84-1.98v6.4zm9.62-18.95l4.78 2.03v6.73l-4.78-2.06zm8 8.76v-6.4l4.82-2v6.4z" stroke="#fff" stroke-opacity="0" stroke-width="2" fill="#fff"/><use xlink:href="#g" transform="matrix(1,0,0,1,370,409) translate(36.388888888888886 17.77777777777778)"/><path d="M760 720h120v120H760V720z" stroke="#fff" stroke-opacity="0" stroke-width="2" fill="#d86613"/><path d="M799.66 778.24c.14.14.22.27.4.36.23.23.45.4.72.58l.18.14.8.4.5.22h.36l.4.18c.76.27 1.57.58 2.5.9l1.5.4.75.22c4.2 1.03 7.88 1.47 12.23 1.43 6.6.13 12.2-.94 18.23-3.5 2.6-1.2 4.13-3.56 4.17-6.42V750.2c0-1-.54-1.84-1.43-2.28l-19.9-9.25c-.67-.36-1.43-.36-2.1 0l-19.94 9.25c-.9.44-1.43 1.3-1.43 2.27v23.04c0 1.8.58 3.3 1.75 4.7.1.13.18.22.3.3zm8.15.23l-1.33-.4c-.85-.27-1.57-.54-2.24-.76l-.58-.26-.54-.22c-.17-.1-.35-.18-.53-.27l-.4-.32-.18-.22-.14-.12-.14-.14c-.63-.76-.94-1.56-.94-2.54v-21.1l17.6 8.28v19.56c-3.5-.04-6.44-.44-9.85-1.25zm29.13-1.7c-5.1 2.2-9.8 3.17-15.36 3.22v-19.3l17.6-8.05v20.5c.05 1.6-.8 2.95-2.24 3.62zM820 741.67l17.7 8.26-17.43 7.8-.1-.08-17.2-8z" stroke="#fff" stroke-opacity="0" stroke-width="2" fill="#fff"/><path d="M847.62 764.3l-.83 3.05c7.15 2.13 11.64 5.14 11.64 7.85 0 5.3-15.8 11.2-38.44 11.2-22.63 0-38.44-5.9-38.44-11.2 0-2.7 4.5-5.72 11.65-7.85l-.82-3.06c-9 2.62-13.98 6.52-13.98 10.9 0 9.34 21.47 14.4 41.6 14.4 20.13 0 41.6-5.06 41.6-14.4 0-4.38-5-8.25-13.98-10.9zM847.54 794.63l-7.44-3.2c-.6-.28-1.2-.28-1.8 0l-7.6 3.26c-.7.36-1.1 1-1.1 1.75v8.25l-7.1-3.1c-.6-.3-1.2-.3-1.8 0l-7.17 3.1v-8.28c0-.8-.44-1.48-1.14-1.8l-7.5-3.2c-.56-.27-1.2-.27-1.8 0l-7.6 3.27c-.72.36-1.1 1-1.1 1.75v9.74c0 .8.43 1.48 1.2 1.8l7.44 3.2h.16c.27.1.5.18.82.18.27 0 .54-.03.76-.2l7.22-3.08v8.25c0 .8.44 1.46 1.15 1.8l7.44 3.2h.1c.27.13.54.2.87.2.27 0 .54-.07.8-.2l7.62-3.27c.7-.37 1.08-1 1.13-1.8v-8.18l7.06 3.1h.2c.28.1.56.18.88.2.27-.02.5-.1.7-.2l7.67-3.2c.7-.32 1.1-1 1.1-1.75v-9.83c0-.8-.45-1.48-1.2-1.8zm-8.37-.15l4.35 1.88-4.08 1.67-4.23-1.82zm-17.6 10.22l4.34 1.85-4.06 1.6-4.24-1.75zm-17.6-10.22l4.34 1.88-4.07 1.6-4.23-1.75zm-6.42 4.2l4.84 2.02v6.73l-4.85-2.06zm8.04 8.72V801l4.77-1.97v6.4zm9.56 1.46l4.83 2.06v6.67l-4.84-2.07zm7.98 8.76v-6.43l4.84-1.98v6.4zm9.62-18.95l4.78 2.03v6.73l-4.78-2.06zm8 8.76v-6.4l4.82-2v6.4z" stroke="#fff" stroke-opacity="0" stroke-width="2" fill="#fff"/><use xlink:href="#h" transform="matrix(1,0,0,1,730,849) translate(45.648148148148145 17.77777777777778)"/><path d="M640 280h120v120H640V280z" stroke="#fff" stroke-opacity="0" stroke-width="2" fill="#d86613"/><path d="M679.66 338.24c.14.14.22.27.4.36.23.23.45.4.72.58l.18.14.8.4.5.22h.36l.4.18c.76.27 1.57.58 2.5.9l1.5.4.75.22c4.2 1.03 7.88 1.47 12.23 1.43 6.6.13 12.2-.94 18.23-3.5 2.6-1.2 4.13-3.56 4.17-6.42V310.2c0-1-.54-1.84-1.43-2.28l-19.9-9.25c-.67-.36-1.43-.36-2.1 0l-19.94 9.25c-.9.44-1.43 1.3-1.43 2.27v23.04c0 1.8.58 3.3 1.75 4.7.1.13.18.22.3.3zm8.15.23l-1.33-.4c-.85-.27-1.57-.54-2.24-.76l-.58-.26-.54-.22c-.17-.1-.35-.18-.53-.27l-.4-.32-.18-.22-.14-.12-.14-.14c-.63-.76-.94-1.56-.94-2.54v-21.1l17.6 8.28v19.56c-3.5-.04-6.44-.44-9.85-1.25zm29.13-1.7c-5.1 2.2-9.8 3.17-15.36 3.22v-19.3l17.6-8.05v20.5c.05 1.6-.8 2.95-2.24 3.62zM700 301.67l17.7 8.26-17.43 7.8-.1-.08-17.2-8z" stroke="#fff" stroke-opacity="0" stroke-width="2" fill="#fff"/><path d="M727.62 324.3l-.83 3.05c7.15 2.13 11.64 5.14 11.64 7.85 0 5.3-15.8 11.2-38.44 11.2-22.63 0-38.44-5.9-38.44-11.2 0-2.7 4.5-5.72 11.65-7.85l-.82-3.06c-9 2.62-13.98 6.52-13.98 10.9 0 9.34 21.47 14.4 41.6 14.4 20.13 0 41.6-5.06 41.6-14.4 0-4.38-5-8.25-13.98-10.9zM727.54 354.63l-7.44-3.2c-.6-.28-1.2-.28-1.8 0l-7.6 3.26c-.7.36-1.1 1-1.1 1.75v8.25l-7.1-3.1c-.6-.3-1.2-.3-1.8 0l-7.17 3.1v-8.28c0-.8-.44-1.48-1.14-1.8l-7.5-3.2c-.56-.27-1.2-.27-1.8 0l-7.6 3.27c-.72.36-1.1 1-1.1 1.75v9.74c0 .8.43 1.48 1.2 1.8l7.44 3.2h.16c.27.1.5.18.82.18.27 0 .54-.03.76-.2l7.22-3.08v8.25c0 .8.44 1.46 1.15 1.8l7.44 3.2h.1c.27.13.54.2.87.2.27 0 .54-.07.8-.2l7.62-3.27c.7-.37 1.08-1 1.13-1.8v-8.18l7.06 3.1h.2c.28.1.56.18.88.2.27-.02.5-.1.7-.2l7.67-3.2c.7-.32 1.1-1 1.1-1.75v-9.83c0-.8-.45-1.48-1.2-1.8zm-8.37-.15l4.35 1.88-4.08 1.67-4.23-1.82zm-17.6 10.22l4.34 1.85-4.06 1.6-4.24-1.75zm-17.6-10.22l4.34 1.88-4.07 1.6-4.23-1.75zm-6.42 4.2l4.84 2.02v6.73l-4.85-2.06zm8.04 8.72V361l4.77-1.97v6.4zm9.56 1.46l4.83 2.06v6.67l-4.84-2.07zm7.98 8.76v-6.43l4.84-1.98v6.4zm9.62-18.95l4.78 2.03v6.73l-4.78-2.06zm8 8.76v-6.4l4.82-2v6.4z" stroke="#fff" stroke-opacity="0" stroke-width="2" fill="#fff"/><use xlink:href="#i" transform="matrix(1,0,0,1,610,409) translate(36.388888888888886 17.77777777777778)"/><path d="M880 480h120v120H880V480z" stroke="#fff" stroke-opacity="0" stroke-width="2" fill="#d86613"/><path d="M919.66 538.24c.14.14.22.27.4.36.23.23.45.4.72.58l.18.14.8.4.5.22h.36l.4.18c.76.27 1.57.58 2.5.9l1.5.4.75.22c4.2 1.03 7.88 1.47 12.23 1.43 6.6.13 12.2-.94 18.23-3.5 2.6-1.2 4.13-3.56 4.17-6.42V510.2c0-1-.54-1.84-1.43-2.28l-19.9-9.25c-.67-.36-1.43-.36-2.1 0l-19.94 9.25c-.9.44-1.43 1.3-1.43 2.27v23.04c0 1.8.58 3.3 1.75 4.7.1.13.18.22.3.3zm8.15.23l-1.33-.4c-.85-.27-1.57-.54-2.24-.76l-.58-.26-.54-.22c-.17-.1-.35-.18-.53-.27l-.4-.32-.18-.22-.14-.12-.14-.14c-.63-.76-.94-1.56-.94-2.54v-21.1l17.6 8.28v19.56c-3.5-.04-6.44-.44-9.85-1.25zm29.13-1.7c-5.1 2.2-9.8 3.17-15.36 3.22v-19.3l17.6-8.05v20.5c.05 1.6-.8 2.95-2.24 3.62zM940 501.67l17.7 8.26-17.43 7.8-.1-.08-17.2-8z" stroke="#fff" stroke-opacity="0" stroke-width="2" fill="#fff"/><path d="M967.62 524.3l-.83 3.05c7.15 2.13 11.64 5.14 11.64 7.85 0 5.3-15.8 11.2-38.44 11.2-22.63 0-38.44-5.9-38.44-11.2 0-2.7 4.5-5.72 11.65-7.85l-.82-3.06c-9 2.62-13.98 6.52-13.98 10.9 0 9.34 21.47 14.4 41.6 14.4 20.13 0 41.6-5.06 41.6-14.4 0-4.38-5-8.25-13.98-10.9zM967.54 554.63l-7.44-3.2c-.6-.28-1.2-.28-1.8 0l-7.6 3.26c-.7.36-1.1 1-1.1 1.75v8.25l-7.1-3.1c-.6-.3-1.2-.3-1.8 0l-7.17 3.1v-8.28c0-.8-.44-1.48-1.14-1.8l-7.5-3.2c-.56-.27-1.2-.27-1.8 0l-7.6 3.27c-.72.36-1.1 1-1.1 1.75v9.74c0 .8.43 1.48 1.2 1.8l7.44 3.2h.16c.27.1.5.18.82.18.27 0 .54-.03.76-.2l7.22-3.08v8.25c0 .8.44 1.46 1.15 1.8l7.44 3.2h.1c.27.13.54.2.87.2.27 0 .54-.07.8-.2l7.62-3.27c.7-.37 1.08-1 1.13-1.8v-8.18l7.06 3.1h.2c.28.1.56.18.88.2.27-.02.5-.1.7-.2l7.67-3.2c.7-.32 1.1-1 1.1-1.75v-9.83c0-.8-.45-1.48-1.2-1.8zm-8.37-.15l4.35 1.88-4.08 1.67-4.23-1.82zm-17.6 10.22l4.34 1.85-4.06 1.6-4.24-1.75zm-17.6-10.22l4.34 1.88-4.07 1.6-4.23-1.75zm-6.42 4.2l4.84 2.02v6.73l-4.85-2.06zm8.04 8.72V561l4.77-1.97v6.4zm9.56 1.46l4.83 2.06v6.67l-4.84-2.07zm7.98 8.76v-6.43l4.84-1.98v6.4zm9.62-18.95l4.78 2.03v6.73l-4.78-2.06zm8 8.76v-6.4l4.82-2v6.4z" stroke="#fff" stroke-opacity="0" stroke-width="2" fill="#fff"/><use xlink:href="#j" transform="matrix(1,0,0,1,850,609) translate(31.450617283950606 17.77777777777778)"/><path d="M880 280h120v120H880V280z" stroke="#fff" stroke-opacity="0" stroke-width="2" fill="#d86613"/><path d="M919.66 338.24c.14.14.22.27.4.36.23.23.45.4.72.58l.18.14.8.4.5.22h.36l.4.18c.76.27 1.57.58 2.5.9l1.5.4.75.22c4.2 1.03 7.88 1.47 12.23 1.43 6.6.13 12.2-.94 18.23-3.5 2.6-1.2 4.13-3.56 4.17-6.42V310.2c0-1-.54-1.84-1.43-2.28l-19.9-9.25c-.67-.36-1.43-.36-2.1 0l-19.94 9.25c-.9.44-1.43 1.3-1.43 2.27v23.04c0 1.8.58 3.3 1.75 4.7.1.13.18.22.3.3zm8.15.23l-1.33-.4c-.85-.27-1.57-.54-2.24-.76l-.58-.26-.54-.22c-.17-.1-.35-.18-.53-.27l-.4-.32-.18-.22-.14-.12-.14-.14c-.63-.76-.94-1.56-.94-2.54v-21.1l17.6 8.28v19.56c-3.5-.04-6.44-.44-9.85-1.25zm29.13-1.7c-5.1 2.2-9.8 3.17-15.36 3.22v-19.3l17.6-8.05v20.5c.05 1.6-.8 2.95-2.24 3.62zM940 301.67l17.7 8.26-17.43 7.8-.1-.08-17.2-8z" stroke="#fff" stroke-opacity="0" stroke-width="2" fill="#fff"/><path d="M967.62 324.3l-.83 3.05c7.15 2.13 11.64 5.14 11.64 7.85 0 5.3-15.8 11.2-38.44 11.2-22.63 0-38.44-5.9-38.44-11.2 0-2.7 4.5-5.72 11.65-7.85l-.82-3.06c-9 2.62-13.98 6.52-13.98 10.9 0 9.34 21.47 14.4 41.6 14.4 20.13 0 41.6-5.06 41.6-14.4 0-4.38-5-8.25-13.98-10.9zM967.54 354.63l-7.44-3.2c-.6-.28-1.2-.28-1.8 0l-7.6 3.26c-.7.36-1.1 1-1.1 1.75v8.25l-7.1-3.1c-.6-.3-1.2-.3-1.8 0l-7.17 3.1v-8.28c0-.8-.44-1.48-1.14-1.8l-7.5-3.2c-.56-.27-1.2-.27-1.8 0l-7.6 3.27c-.72.36-1.1 1-1.1 1.75v9.74c0 .8.43 1.48 1.2 1.8l7.44 3.2h.16c.27.1.5.18.82.18.27 0 .54-.03.76-.2l7.22-3.08v8.25c0 .8.44 1.46 1.15 1.8l7.44 3.2h.1c.27.13.54.2.87.2.27 0 .54-.07.8-.2l7.62-3.27c.7-.37 1.08-1 1.13-1.8v-8.18l7.06 3.1h.2c.28.1.56.18.88.2.27-.02.5-.1.7-.2l7.67-3.2c.7-.32 1.1-1 1.1-1.75v-9.83c0-.8-.45-1.48-1.2-1.8zm-8.37-.15l4.35 1.88-4.08 1.67-4.23-1.82zm-17.6 10.22l4.34 1.85-4.06 1.6-4.24-1.75zm-17.6-10.22l4.34 1.88-4.07 1.6-4.23-1.75zm-6.42 4.2l4.84 2.02v6.73l-4.85-2.06zm8.04 8.72V361l4.77-1.97v6.4zm9.56 1.46l4.83 2.06v6.67l-4.84-2.07zm7.98 8.76v-6.43l4.84-1.98v6.4zm9.62-18.95l4.78 2.03v6.73l-4.78-2.06zm8 8.76v-6.4l4.82-2v6.4z" stroke="#fff" stroke-opacity="0" stroke-width="2" fill="#fff"/><use xlink:href="#k" transform="matrix(1,0,0,1,850,409) translate(36.388888888888886 17.77777777777778)"/><path d="M580 841v53c0 3.3 2.7 6 6 6h108c3.3 0 6 2.7 6 6v35.5" stroke="#5e5e5e" stroke-width="2" fill="none"/><path d="M581 841.03h-2V840h2z" fill="#5e5e5e"/><path d="M700 956.76l-4.64-14.26h9.28z" stroke="#5e5e5e" stroke-width="2" fill="#5e5e5e"/><path d="M820 841v53c0 3.3-2.7 6-6 6H706c-3.3 0-6 2.7-6 6v35.5" stroke="#5e5e5e" stroke-width="2" fill="none"/><path d="M821 841.03h-2V840h2z" fill="#5e5e5e"/><path d="M700 956.76l-4.64-14.26h9.28z" stroke="#5e5e5e" stroke-width="2" fill="#5e5e5e"/><path d="M1001 540h33c3.3 0 6 2.7 6 6v472.5c0 3.3-2.7 6-6 6H783" stroke="#5e5e5e" stroke-width="2" fill="none"/><path d="M1001.03 541H1000v-2h1.03z" fill="#5e5e5e"/><path d="M767.74 1024.5l14.26-4.64v9.28z" stroke="#5e5e5e" stroke-width="2" fill="#5e5e5e"/><path d="M399 540h-33c-3.3 0-6 2.7-6 6v472.5c0 3.3 2.7 6 6 6h251" stroke="#5e5e5e" stroke-width="2" fill="none"/><path d="M400 541h-1.03v-2H400z" fill="#5e5e5e"/><path d="M632.26 1024.5l-14.26 4.64v-9.28z" stroke="#5e5e5e" stroke-width="2" fill="#5e5e5e"/><path d="M700 601v340.5" stroke="#5e5e5e" stroke-width="2" fill="none"/><path d="M701 601.03h-2V600h2z" fill="#5e5e5e"/><path d="M700 956.76l-4.64-14.26h9.28z" stroke="#5e5e5e" stroke-width="2" fill="#5e5e5e"/><path d="M521 540h53c3.3 0 6 2.7 6 6v155.5" stroke="#5e5e5e" stroke-width="2" fill="none"/><path d="M521.03 541H520v-2h1.03z" fill="#5e5e5e"/><path d="M580 716.76l-4.64-14.26h9.28z" stroke="#5e5e5e" stroke-width="2" fill="#5e5e5e"/><path d="M639 540h-53c-3.3 0-6 2.7-6 6v155.5" stroke="#5e5e5e" stroke-width="2" fill="none"/><path d="M640 541h-1.03v-2H640z" fill="#5e5e5e"/><path d="M580 716.76l-4.64-14.26h9.28z" stroke="#5e5e5e" stroke-width="2" fill="#5e5e5e"/><path d="M761 540h53c3.3 0 6 2.7 6 6v155.5" stroke="#5e5e5e" stroke-width="2" fill="none"/><path d="M761.03 541H760v-2h1.03z" fill="#5e5e5e"/><path d="M820 716.76l-4.64-14.26h9.28z" stroke="#5e5e5e" stroke-width="2" fill="#5e5e5e"/><path d="M879 540h-53c-3.3 0-6 2.7-6 6v155.5" stroke="#5e5e5e" stroke-width="2" fill="none"/><path d="M880 541h-1.03v-2H880z" fill="#5e5e5e"/><path d="M820 716.76l-4.64-14.26h9.28z" stroke="#5e5e5e" stroke-width="2" fill="#5e5e5e"/><path d="M315.5 226c0-3.3 2.7-6 6-6H1074c3.3 0 6 2.7 6 6v688c0 3.3-2.7 6-6 6H321.5c-3.3 0-6-2.7-6-6z" fill="#fff" fill-opacity="0"/><path d="M339.7 220h12.14m12.14 0h12.14m12.13 0h12.14m12.13 0h12.14m12.13 0h12.14m12.14 0h12.13m12.15 0h12.14m12.12 0h12.14m12.14 0h12.14m12.13 0h12.14m12.15 0h12.13m12.14 0h12.14m12.14 0h12.13m12.14 0h12.14m12.14 0h12.14m12.14 0h12.14m12.13 0h12.13m12.14 0h12.13m12.14 0h12.14m12.14 0h12.13m12.14 0h12.13m12.13 0h12.14m12.14 0h12.13m12.14 0h12.15m12.14 0h12.12m12.14 0h12.14m12.13 0h12.14m12.14 0h12.15m12.13 0h12.14m12.14 0h12.13m12.13 0h6.07l3.03.82 2.15 2.15.82 3.03v5.93m0 11.86v11.86m0 11.86v11.86m0 11.86v11.86m0 11.87v11.86m0 11.86v11.85m0 11.86v11.88m0 11.86V398m0 11.86v11.86m0 11.87v11.85m0 11.86v11.87m0 11.86v11.87m0 11.86v11.86m0 11.86v11.86m0 11.87v11.87m0 11.86v11.86m0 11.86v11.86m0 11.86v11.86m0 11.86v11.87m0 11.86v11.86m0 11.85v11.86m0 11.88v11.86m0 11.86v11.86m0 11.86v11.87m0 11.85v11.86m0 11.87v11.86m0 11.87v11.86m0 11.86v11.86m0 11.86v11.87m0 11.87V914l-.82 3.03-2.15 2.15-3.03.82h-6.07m-12.14 0h-12.14m-12.14 0h-12.14m-12.13 0H995.1m-12.13 0h-12.14m-12.13 0h-12.14m-12.14 0H922.3m-12.15 0H898m-12.12 0h-12.14m-12.14 0h-12.14m-12.13 0H825.2m-12.15 0h-12.13m-12.14 0h-12.14m-12.14 0h-12.13m-12.14 0H728.1m-12.14 0h-12.14m-12.14 0h-12.14m-12.13 0h-12.13m-12.14 0H631m-12.14 0h-12.14m-12.14 0h-12.13m-12.14 0h-12.13m-12.13 0H533.9m-12.14 0h-12.13m-12.14 0h-12.15m-12.14 0H461.1m-12.14 0H436.8m-12.13 0h-12.14m-12.14 0h-12.15m-12.13 0h-12.14m-12.14 0H339.7m-12.13 0h-6.07l-3.03-.82-2.15-2.15-.82-3.03v-5.93m0-11.86v-11.86m0-11.86v-11.86m0-11.86V836.9m0-11.87v-11.86m0-11.86v-11.85m0-11.86V765.7m0-11.86V742m0-11.86v-11.86m0-11.87v-11.85m0-11.86v-11.87m0-11.86V647.1m0-11.86v-11.86m0-11.86v-11.86m0-11.87v-11.87m0-11.86V552.2m0-11.86v-11.86m0-11.86v-11.86m0-11.86v-11.87m0-11.86V457.3m0-11.85V433.6m0-11.88v-11.86m0-11.86v-11.86m0-11.86V362.4m0-11.85V338.7m0-11.87v-11.86m0-11.87v-11.86m0-11.86v-11.86m0-11.86V243.8m0-11.87V226l.82-3.03 2.15-2.15 3.03-.82h6.07" stroke="#d86613" stroke-width="3" fill="none"/><path d="M315.5 220h56v56h-56v-56z" stroke="#fff" stroke-opacity="0" stroke-width="2" fill="#d86613"/><path d="M334 247.18c.07.06.1.13.2.17.1.1.2.2.33.27l.08.06.4.2.22.1h.18l.18.08c.35.12.73.27 1.17.4l.7.2.34.1c1.96.48 3.67.7 5.7.67 3.07.06 5.7-.44 8.5-1.62 1.22-.56 1.93-1.66 1.95-3v-10.7c0-.47-.25-.86-.67-1.07L344 228.7c-.3-.15-.67-.15-.98 0l-9.3 4.33c-.42.2-.67.6-.67 1.06v10.75c0 .83.27 1.54.8 2.2.05.05.1.1.16.13zm3.8.1l-.6-.18-1.06-.36-.27-.12-.25-.1c-.1-.05-.17-.1-.25-.13l-.2-.16-.07-.1-.07-.06-.06-.07c-.3-.34-.44-.72-.44-1.17V235l8.22 3.84v9.13c-1.63-.02-3-.2-4.6-.58zm13.6-.8c-2.38 1.03-4.58 1.5-7.17 1.5v-9l8.22-3.74v9.56c.02.76-.38 1.38-1.05 1.7zm-7.9-16.37l8.26 3.87-8.13 3.64-.05-.03-8.02-3.73z" stroke="#fff" stroke-opacity="0" stroke-width="2" fill="#fff"/><path d="M356.4 240.67l-.4 1.43c3.34 1 5.44 2.4 5.44 3.66 0 2.47-7.38 5.23-17.94 5.23-10.56 0-17.94-2.77-17.94-5.24 0-1.27 2.1-2.67 5.44-3.66l-.4-1.43c-4.18 1.23-6.5 3.05-6.5 5.1 0 4.35 10 6.7 19.4 6.7 9.4 0 19.4-2.35 19.4-6.7 0-2.05-2.32-3.86-6.5-5.1zM356.35 254.83l-3.47-1.5c-.28-.13-.56-.13-.84 0l-3.55 1.53c-.34.17-.52.46-.52.82v3.85l-3.32-1.45c-.28-.14-.56-.14-.83 0l-3.35 1.45v-3.87c0-.36-.2-.7-.53-.83l-3.5-1.5c-.26-.13-.56-.13-.84 0l-3.54 1.53c-.33.17-.5.46-.5.82v4.54c0 .38.2.7.55.85l3.5 1.5h.06c.13.04.23.07.38.07.13 0 .26 0 .36-.08l3.37-1.45v3.86c0 .37.2.68.53.84l3.48 1.5h.05c.12.06.25.08.4.08.13 0 .26-.02.38-.08l3.56-1.53c.33-.17.5-.47.53-.84v-3.82l3.3 1.46h.1c.12.05.25.08.4.1.12-.02.23-.05.33-.1l3.57-1.5c.33-.14.5-.46.5-.8v-4.6c0-.36-.2-.7-.55-.83zm-3.9-.07l2.03.88-1.9.77-1.98-.84zm-8.22 4.77l2.03.86-1.9.74-1.98-.82zm-8.2-4.77l2 .88-1.9.75-1.96-.84zm-3 1.95l2.25.96v3.14l-2.26-.96zm3.75 4.1v-3l2.23-.92v3zm4.46.67l2.26.96v3.1l-2.26-.95zm3.73 4.1v-3l2.25-.93v2.98zm4.5-8.86l2.22.96v3.14l-2.24-.96zm3.7 4.1v-2.98l2.27-.94v3z" stroke="#fff" stroke-opacity="0" stroke-width="2" fill="#fff"/><use xlink:href="#l" transform="matrix(1,0,0,1,386.5,240) translate(0 14.4)"/><use xlink:href="#m" transform="matrix(1,0,0,1,386.5,240) translate(41.95 14.4)"/><use xlink:href="#n" transform="matrix(1,0,0,1,386.5,240) translate(108.85000000000001 14.4)"/><path d="M750.5 62.36c0 31.8-25.76 57.63-57.5 57.63s-57.5-25.83-57.5-57.64c0-31.8 25.76-57.63 57.5-57.63s57.5 25.82 57.5 57.63z" fill="#9d5025"/><path d="M750.5 57.63c0 31.8-25.76 57.63-57.5 57.63s-57.5-25.82-57.5-57.63C635.5 25.83 661.26 0 693 0s57.5 25.82 57.5 57.63z" fill="#f58536"/><path d="M709.77 11.08V32H676.2V11.08h33.57zM735.72 71.64v17.04h-17V71.64h17zM714.23 71.64v17.04h-17V71.64h17zM688.05 71.64v17.04h-17V71.64h17zM666.55 71.64v17.04h-17V71.64h17z" fill="#fff"/><path d="M656.52 56.9h3.06v16.7h-3.06V56.9z" fill="#fff"/><path d="M656.52 56.9h24.57v3.05H656.5V56.9z" fill="#fff"/><path d="M678.03 56.9h3.06v16.7h-3.07V56.9zM704.2 56.9h3.06v16.7h-3.06V56.9z" fill="#fff"/><path d="M704.2 56.9h24.56v3.05H704.2V56.9z" fill="#fff"/><path d="M725.7 56.9h3.06v16.7h-3.05V56.9zM667.3 44.95h3.06v13.47h-3.06V44.95zM691.46 28.92h3.06V45.2h-3.06V28.92z" fill="#fff"/><path d="M667.3 43.67h50.77v3.06H667.3v-3.06z" fill="#fff"/><path d="M715 44.95h3.07v13.47H715V44.95z" fill="#fff"/><use xlink:href="#o" transform="matrix(1,0,0,1,635.5,120) translate(32.808641975308646 17.77777777777778)"/><use xlink:href="#p" transform="matrix(1,0,0,1,635.5,120) translate(13.734567901234563 44.44444444444444)"/><path d="M693 121v79" stroke="#5e5e5e" stroke-width="2" fill="none"/><path d="M693 120h.53l.47-.04V121h-2v-1.06z" fill="#5e5e5e"/><path d="M693 215.26L688.36 201h9.28z" stroke="#5e5e5e" stroke-width="2" fill="#5e5e5e"/><path d="M460 401v60.5" stroke="#5e5e5e" stroke-width="2" fill="none"/><path d="M461 401.03h-2V400h2z" fill="#5e5e5e"/><path d="M460 476.76l-4.64-14.26h9.28z" stroke="#5e5e5e" stroke-width="2" fill="#5e5e5e"/><path d="M700 401v60.5" stroke="#5e5e5e" stroke-width="2" fill="none"/><path d="M701 401.03h-2V400h2z" fill="#5e5e5e"/><path d="M700 476.76l-4.64-14.26h9.28z" stroke="#5e5e5e" stroke-width="2" fill="#5e5e5e"/><path d="M940 401v60.5" stroke="#5e5e5e" stroke-width="2" fill="none"/><path d="M941 401.03h-2V400h2z" fill="#5e5e5e"/><path d="M940 476.76l-4.64-14.26h9.28z" stroke="#5e5e5e" stroke-width="2" fill="#5e5e5e"/><defs><path fill="#333" d="M30-248c87 1 191-15 191 75 0 78-77 80-158 76V0H30v-248zm33 125c57 0 124 11 124-50 0-59-68-47-124-48v98" id="q"/><path fill="#333" d="M100-194c62-1 85 37 85 99 1 63-27 99-86 99S16-35 15-95c0-66 28-99 85-99zM99-20c44 1 53-31 53-75 0-43-8-75-51-75s-53 32-53 75 10 74 51 75" id="r"/><path fill="#333" d="M135-143c-3-34-86-38-87 0 15 53 115 12 119 90S17 21 10-45l28-5c4 36 97 45 98 0-10-56-113-15-118-90-4-57 82-63 122-42 12 7 21 19 24 35" id="s"/><path fill="#333" d="M59-47c-2 24 18 29 38 22v24C64 9 27 4 27-40v-127H5v-23h24l9-43h21v43h35v23H59v120" id="t"/><path fill="#333" d="M177-190C167-65 218 103 67 71c-23-6-38-20-44-43l32-5c15 47 100 32 89-28v-30C133-14 115 1 83 1 29 1 15-40 15-95c0-56 16-97 71-98 29-1 48 16 59 35 1-10 0-23 2-32h30zM94-22c36 0 50-32 50-73 0-42-14-75-50-75-39 0-46 34-46 75s6 73 46 73" id="u"/><path fill="#333" d="M114-163C36-179 61-72 57 0H25l-1-190h30c1 12-1 29 2 39 6-27 23-49 58-41v29" id="v"/><path fill="#333" d="M100-194c63 0 86 42 84 106H49c0 40 14 67 53 68 26 1 43-12 49-29l28 8c-11 28-37 45-77 45C44 4 14-33 15-96c1-61 26-98 85-98zm52 81c6-60-76-77-97-28-3 7-6 17-6 28h103" id="w"/><path fill="#333" d="M185-189c-5-48-123-54-124 2 14 75 158 14 163 119 3 78-121 87-175 55-17-10-28-26-33-46l33-7c5 56 141 63 141-1 0-78-155-14-162-118-5-82 145-84 179-34 5 7 8 16 11 25" id="x"/><path fill="#333" d="M140-251c81 0 123 46 123 126C263-53 228-8 163 1c7 30 30 48 69 40v23c-55 16-95-15-103-61C56-3 17-48 17-125c0-80 42-126 123-126zm0 227c63 0 89-41 89-101s-29-99-89-99c-61 0-89 39-89 99S79-25 140-24" id="y"/><path fill="#333" d="M30 0v-248h33v221h125V0H30" id="z"/><g id="b"><use transform="matrix(0.06172839506172839,0,0,0.06172839506172839,0,0)" xlink:href="#q"/><use transform="matrix(0.06172839506172839,0,0,0.06172839506172839,14.814814814814813,0)" xlink:href="#r"/><use transform="matrix(0.06172839506172839,0,0,0.06172839506172839,27.160493827160494,0)" xlink:href="#s"/><use transform="matrix(0.06172839506172839,0,0,0.06172839506172839,38.27160493827161,0)" xlink:href="#t"/><use transform="matrix(0.06172839506172839,0,0,0.06172839506172839,44.44444444444445,0)" xlink:href="#u"/><use transform="matrix(0.06172839506172839,0,0,0.06172839506172839,56.79012345679013,0)" xlink:href="#v"/><use transform="matrix(0.06172839506172839,0,0,0.06172839506172839,64.13580246913581,0)" xlink:href="#w"/><use transform="matrix(0.06172839506172839,0,0,0.06172839506172839,76.4814814814815,0)" xlink:href="#x"/><use transform="matrix(0.06172839506172839,0,0,0.06172839506172839,91.2962962962963,0)" xlink:href="#y"/><use transform="matrix(0.06172839506172839,0,0,0.06172839506172839,108.58024691358025,0)" xlink:href="#z"/></g><path fill="#333" d="M30-248c118-7 216 8 213 122C240-48 200 0 122 0H30v-248zM63-27c89 8 146-16 146-99s-60-101-146-95v194" id="A"/><path fill="#333" d="M141-36C126-15 110 5 73 4 37 3 15-17 15-53c-1-64 63-63 125-63 3-35-9-54-41-54-24 1-41 7-42 31l-33-3c5-37 33-52 76-52 45 0 72 20 72 64v82c-1 20 7 32 28 27v20c-31 9-61-2-59-35zM48-53c0 20 12 33 32 33 41-3 63-29 60-74-43 2-92-5-92 41" id="B"/><path fill="#333" d="M115-194c53 0 69 39 70 98 0 66-23 100-70 100C84 3 66-7 56-30L54 0H23l1-261h32v101c10-23 28-34 59-34zm-8 174c40 0 45-34 45-75 0-40-5-75-45-74-42 0-51 32-51 76 0 43 10 73 51 73" id="C"/><g id="c"><use transform="matrix(0.06172839506172839,0,0,0.06172839506172839,0,0)" xlink:href="#A"/><use transform="matrix(0.06172839506172839,0,0,0.06172839506172839,15.987654320987653,0)" xlink:href="#B"/><use transform="matrix(0.06172839506172839,0,0,0.06172839506172839,28.333333333333332,0)" xlink:href="#t"/><use transform="matrix(0.06172839506172839,0,0,0.06172839506172839,34.50617283950617,0)" xlink:href="#B"/><use transform="matrix(0.06172839506172839,0,0,0.06172839506172839,46.85185185185185,0)" xlink:href="#C"/><use transform="matrix(0.06172839506172839,0,0,0.06172839506172839,59.197530864197525,0)" xlink:href="#B"/><use transform="matrix(0.06172839506172839,0,0,0.06172839506172839,71.5432098765432,0)" xlink:href="#s"/><use transform="matrix(0.06172839506172839,0,0,0.06172839506172839,82.65432098765432,0)" xlink:href="#w"/></g><filter id="a" filterUnits="objectBoundingBox" x="-.05" y="-.04" width="1.11" height="1.11"><feOffset result="offOut" in="SourceAlpha" dy="2"/><feGaussianBlur result="blurOut" in="offOut" stdDeviation="3.5"/><feColorMatrix result="colorOut" in="blurOut" values="0 0 0 0 0 0 0 0 0 0 0 0 0 0 0 0 0 0 0.5019607843137255 0"/><feBlend in="SourceGraphic" in2="colorOut"/></filter><path fill="#333" d="M24-231v-30h32v30H24zM24 0v-190h32V0H24" id="D"/><path fill="#333" d="M96-169c-40 0-48 33-48 73s9 75 48 75c24 0 41-14 43-38l32 2c-6 37-31 61-74 61-59 0-76-41-82-99-10-93 101-131 147-64 4 7 5 14 7 22l-32 3c-4-21-16-35-41-35" id="E"/><path fill="#333" d="M115-194c55 1 70 41 70 98S169 2 115 4C84 4 66-9 55-30l1 105H24l-1-265h31l2 30c10-21 28-34 59-34zm-8 174c40 0 45-34 45-75s-6-73-45-74c-42 0-51 32-51 76 0 43 10 73 51 73" id="F"/><path fill="#333" d="M117-194c89-4 53 116 60 194h-32v-121c0-31-8-49-39-48C34-167 62-67 57 0H25l-1-190h30c1 10-1 24 2 32 11-22 29-35 61-36" id="G"/><path fill="#333" d="M27 0v-27h64v-190l-56 39v-29l58-41h29v221h61V0H27" id="H"/><g id="d"><use transform="matrix(0.06172839506172839,0,0,0.06172839506172839,0,0)" xlink:href="#q"/><use transform="matrix(0.06172839506172839,0,0,0.06172839506172839,14.814814814814813,0)" xlink:href="#B"/><use transform="matrix(0.06172839506172839,0,0,0.06172839506172839,27.160493827160494,0)" xlink:href="#v"/><use transform="matrix(0.06172839506172839,0,0,0.06172839506172839,34.50617283950617,0)" xlink:href="#t"/><use transform="matrix(0.06172839506172839,0,0,0.06172839506172839,40.67901234567901,0)" xlink:href="#D"/><use transform="matrix(0.06172839506172839,0,0,0.06172839506172839,45.55555555555556,0)" xlink:href="#E"/><use transform="matrix(0.06172839506172839,0,0,0.06172839506172839,56.66666666666667,0)" xlink:href="#D"/><use transform="matrix(0.06172839506172839,0,0,0.06172839506172839,61.543209876543216,0)" xlink:href="#F"/><use transform="matrix(0.06172839506172839,0,0,0.06172839506172839,73.8888888888889,0)" xlink:href="#B"/><use transform="matrix(0.06172839506172839,0,0,0.06172839506172839,86.23456790123458,0)" xlink:href="#G"/><use transform="matrix(0.06172839506172839,0,0,0.06172839506172839,98.58024691358027,0)" xlink:href="#t"/><use transform="matrix(0.06172839506172839,0,0,0.06172839506172839,104.7530864197531,0)" xlink:href="#H"/></g><path fill="#333" d="M210-169c-67 3-38 105-44 169h-31v-121c0-29-5-50-35-48C34-165 62-65 56 0H25l-1-190h30c1 10-1 24 2 32 10-44 99-50 107 0 11-21 27-35 58-36 85-2 47 119 55 194h-31v-121c0-29-5-49-35-48" id="I"/><g id="e"><use transform="matrix(0.06172839506172839,0,0,0.06172839506172839,0,0)" xlink:href="#A"/><use transform="matrix(0.06172839506172839,0,0,0.06172839506172839,15.987654320987653,0)" xlink:href="#r"/><use transform="matrix(0.06172839506172839,0,0,0.06172839506172839,28.333333333333332,0)" xlink:href="#I"/><use transform="matrix(0.06172839506172839,0,0,0.06172839506172839,46.79012345679012,0)" xlink:href="#B"/><use transform="matrix(0.06172839506172839,0,0,0.06172839506172839,59.1358024691358,0)" xlink:href="#D"/><use transform="matrix(0.06172839506172839,0,0,0.06172839506172839,64.01234567901234,0)" xlink:href="#G"/><use transform="matrix(0.06172839506172839,0,0,0.06172839506172839,76.35802469135803,0)" xlink:href="#H"/></g><path fill="#333" d="M101-251c82-7 93 87 43 132L82-64C71-53 59-42 53-27h129V0H18c2-99 128-94 128-182 0-28-16-43-45-43s-46 15-49 41l-32-3c6-41 34-60 81-64" id="J"/><g id="f"><use transform="matrix(0.06172839506172839,0,0,0.06172839506172839,0,0)" xlink:href="#q"/><use transform="matrix(0.06172839506172839,0,0,0.06172839506172839,14.814814814814813,0)" xlink:href="#B"/><use transform="matrix(0.06172839506172839,0,0,0.06172839506172839,27.160493827160494,0)" xlink:href="#v"/><use transform="matrix(0.06172839506172839,0,0,0.06172839506172839,34.50617283950617,0)" xlink:href="#t"/><use transform="matrix(0.06172839506172839,0,0,0.06172839506172839,40.67901234567901,0)" xlink:href="#D"/><use transform="matrix(0.06172839506172839,0,0,0.06172839506172839,45.55555555555556,0)" xlink:href="#E"/><use transform="matrix(0.06172839506172839,0,0,0.06172839506172839,56.66666666666667,0)" xlink:href="#D"/><use transform="matrix(0.06172839506172839,0,0,0.06172839506172839,61.543209876543216,0)" xlink:href="#F"/><use transform="matrix(0.06172839506172839,0,0,0.06172839506172839,73.8888888888889,0)" xlink:href="#B"/><use transform="matrix(0.06172839506172839,0,0,0.06172839506172839,86.23456790123458,0)" xlink:href="#G"/><use transform="matrix(0.06172839506172839,0,0,0.06172839506172839,98.58024691358027,0)" xlink:href="#t"/><use transform="matrix(0.06172839506172839,0,0,0.06172839506172839,104.7530864197531,0)" xlink:href="#J"/></g><path fill="#333" d="M190 0L58-211 59 0H30v-248h39L202-35l-2-213h31V0h-41" id="K"/><path fill="#333" d="M108 0H70L1-190h34L89-25l56-165h34" id="L"/><g id="g"><use transform="matrix(0.06172839506172839,0,0,0.06172839506172839,0,0)" xlink:href="#K"/><use transform="matrix(0.06172839506172839,0,0,0.06172839506172839,15.987654320987653,0)" xlink:href="#B"/><use transform="matrix(0.06172839506172839,0,0,0.06172839506172839,28.333333333333332,0)" xlink:href="#L"/><use transform="matrix(0.06172839506172839,0,0,0.06172839506172839,39.44444444444444,0)" xlink:href="#D"/><use transform="matrix(0.06172839506172839,0,0,0.06172839506172839,44.32098765432099,0)" xlink:href="#u"/><use transform="matrix(0.06172839506172839,0,0,0.06172839506172839,56.666666666666664,0)" xlink:href="#B"/><use transform="matrix(0.06172839506172839,0,0,0.06172839506172839,69.01234567901234,0)" xlink:href="#t"/><use transform="matrix(0.06172839506172839,0,0,0.06172839506172839,75.18518518518518,0)" xlink:href="#r"/><use transform="matrix(0.06172839506172839,0,0,0.06172839506172839,87.53086419753086,0)" xlink:href="#v"/><use transform="matrix(0.06172839506172839,0,0,0.06172839506172839,94.87654320987654,0)" xlink:href="#H"/></g><g id="h"><use transform="matrix(0.06172839506172839,0,0,0.06172839506172839,0,0)" xlink:href="#A"/><use transform="matrix(0.06172839506172839,0,0,0.06172839506172839,15.987654320987653,0)" xlink:href="#r"/><use transform="matrix(0.06172839506172839,0,0,0.06172839506172839,28.333333333333332,0)" xlink:href="#I"/><use transform="matrix(0.06172839506172839,0,0,0.06172839506172839,46.79012345679012,0)" xlink:href="#B"/><use transform="matrix(0.06172839506172839,0,0,0.06172839506172839,59.1358024691358,0)" xlink:href="#D"/><use transform="matrix(0.06172839506172839,0,0,0.06172839506172839,64.01234567901234,0)" xlink:href="#G"/><use transform="matrix(0.06172839506172839,0,0,0.06172839506172839,76.35802469135803,0)" xlink:href="#J"/></g><g id="i"><use transform="matrix(0.06172839506172839,0,0,0.06172839506172839,0,0)" xlink:href="#K"/><use transform="matrix(0.06172839506172839,0,0,0.06172839506172839,15.987654320987653,0)" xlink:href="#B"/><use transform="matrix(0.06172839506172839,0,0,0.06172839506172839,28.333333333333332,0)" xlink:href="#L"/><use transform="matrix(0.06172839506172839,0,0,0.06172839506172839,39.44444444444444,0)" xlink:href="#D"/><use transform="matrix(0.06172839506172839,0,0,0.06172839506172839,44.32098765432099,0)" xlink:href="#u"/><use transform="matrix(0.06172839506172839,0,0,0.06172839506172839,56.666666666666664,0)" xlink:href="#B"/><use transform="matrix(0.06172839506172839,0,0,0.06172839506172839,69.01234567901234,0)" xlink:href="#t"/><use transform="matrix(0.06172839506172839,0,0,0.06172839506172839,75.18518518518518,0)" xlink:href="#r"/><use transform="matrix(0.06172839506172839,0,0,0.06172839506172839,87.53086419753086,0)" xlink:href="#v"/><use transform="matrix(0.06172839506172839,0,0,0.06172839506172839,94.87654320987654,0)" xlink:href="#J"/></g><path fill="#333" d="M126-127c33 6 58 20 58 59 0 88-139 92-164 29-3-8-5-16-6-25l32-3c6 27 21 44 54 44 32 0 52-15 52-46 0-38-36-46-79-43v-28c39 1 72-4 72-42 0-27-17-43-46-43-28 0-47 15-49 41l-32-3c6-42 35-63 81-64 48-1 79 21 79 65 0 36-21 52-52 59" id="M"/><g id="j"><use transform="matrix(0.06172839506172839,0,0,0.06172839506172839,0,0)" xlink:href="#q"/><use transform="matrix(0.06172839506172839,0,0,0.06172839506172839,14.814814814814813,0)" xlink:href="#B"/><use transform="matrix(0.06172839506172839,0,0,0.06172839506172839,27.160493827160494,0)" xlink:href="#v"/><use transform="matrix(0.06172839506172839,0,0,0.06172839506172839,34.50617283950617,0)" xlink:href="#t"/><use transform="matrix(0.06172839506172839,0,0,0.06172839506172839,40.67901234567901,0)" xlink:href="#D"/><use transform="matrix(0.06172839506172839,0,0,0.06172839506172839,45.55555555555556,0)" xlink:href="#E"/><use transform="matrix(0.06172839506172839,0,0,0.06172839506172839,56.66666666666667,0)" xlink:href="#D"/><use transform="matrix(0.06172839506172839,0,0,0.06172839506172839,61.543209876543216,0)" xlink:href="#F"/><use transform="matrix(0.06172839506172839,0,0,0.06172839506172839,73.8888888888889,0)" xlink:href="#B"/><use transform="matrix(0.06172839506172839,0,0,0.06172839506172839,86.23456790123458,0)" xlink:href="#G"/><use transform="matrix(0.06172839506172839,0,0,0.06172839506172839,98.58024691358027,0)" xlink:href="#t"/><use transform="matrix(0.06172839506172839,0,0,0.06172839506172839,104.7530864197531,0)" xlink:href="#M"/></g><g id="k"><use transform="matrix(0.06172839506172839,0,0,0.06172839506172839,0,0)" xlink:href="#K"/><use transform="matrix(0.06172839506172839,0,0,0.06172839506172839,15.987654320987653,0)" xlink:href="#B"/><use transform="matrix(0.06172839506172839,0,0,0.06172839506172839,28.333333333333332,0)" xlink:href="#L"/><use transform="matrix(0.06172839506172839,0,0,0.06172839506172839,39.44444444444444,0)" xlink:href="#D"/><use transform="matrix(0.06172839506172839,0,0,0.06172839506172839,44.32098765432099,0)" xlink:href="#u"/><use transform="matrix(0.06172839506172839,0,0,0.06172839506172839,56.666666666666664,0)" xlink:href="#B"/><use transform="matrix(0.06172839506172839,0,0,0.06172839506172839,69.01234567901234,0)" xlink:href="#t"/><use transform="matrix(0.06172839506172839,0,0,0.06172839506172839,75.18518518518518,0)" xlink:href="#r"/><use transform="matrix(0.06172839506172839,0,0,0.06172839506172839,87.53086419753086,0)" xlink:href="#v"/><use transform="matrix(0.06172839506172839,0,0,0.06172839506172839,94.87654320987654,0)" xlink:href="#M"/></g><path fill="#d86613" d="M30 0v-248h187v28H63v79h144v27H63v87h162V0H30" id="N"/><path fill="#d86613" d="M212-179c-10-28-35-45-73-45-59 0-87 40-87 99 0 60 29 101 89 101 43 0 62-24 78-52l27 14C228-24 195 4 139 4 59 4 22-46 18-125c-6-104 99-153 187-111 19 9 31 26 39 46" id="O"/><path fill="#d86613" d="M185-189c-5-48-123-54-124 2 14 75 158 14 163 119 3 78-121 87-175 55-17-10-28-26-33-46l33-7c5 56 141 63 141-1 0-78-155-14-162-118-5-82 145-84 179-34 5 7 8 16 11 25" id="P"/><g id="l"><use transform="matrix(0.05,0,0,0.05,0,0)" xlink:href="#N"/><use transform="matrix(0.05,0,0,0.05,12,0)" xlink:href="#O"/><use transform="matrix(0.05,0,0,0.05,24.950000000000003,0)" xlink:href="#P"/></g><path fill="#d86613" d="M63-220v92h138v28H63V0H30v-248h175v28H63" id="Q"/><path fill="#d86613" d="M141-36C126-15 110 5 73 4 37 3 15-17 15-53c-1-64 63-63 125-63 3-35-9-54-41-54-24 1-41 7-42 31l-33-3c5-37 33-52 76-52 45 0 72 20 72 64v82c-1 20 7 32 28 27v20c-31 9-61-2-59-35zM48-53c0 20 12 33 32 33 41-3 63-29 60-74-43 2-92-5-92 41" id="R"/><path fill="#d86613" d="M114-163C36-179 61-72 57 0H25l-1-190h30c1 12-1 29 2 39 6-27 23-49 58-41v29" id="S"/><path fill="#d86613" d="M177-190C167-65 218 103 67 71c-23-6-38-20-44-43l32-5c15 47 100 32 89-28v-30C133-14 115 1 83 1 29 1 15-40 15-95c0-56 16-97 71-98 29-1 48 16 59 35 1-10 0-23 2-32h30zM94-22c36 0 50-32 50-73 0-42-14-75-50-75-39 0-46 34-46 75s6 73 46 73" id="T"/><path fill="#d86613" d="M59-47c-2 24 18 29 38 22v24C64 9 27 4 27-40v-127H5v-23h24l9-43h21v43h35v23H59v120" id="U"/><path fill="#d86613" d="M100-194c63 0 86 42 84 106H49c0 40 14 67 53 68 26 1 43-12 49-29l28 8c-11 28-37 45-77 45C44 4 14-33 15-96c1-61 26-98 85-98zm52 81c6-60-76-77-97-28-3 7-6 17-6 28h103" id="V"/><g id="m"><use transform="matrix(0.05,0,0,0.05,0,0)" xlink:href="#Q"/><use transform="matrix(0.05,0,0,0.05,10.950000000000001,0)" xlink:href="#R"/><use transform="matrix(0.05,0,0,0.05,20.950000000000003,0)" xlink:href="#S"/><use transform="matrix(0.05,0,0,0.05,26.900000000000002,0)" xlink:href="#T"/><use transform="matrix(0.05,0,0,0.05,36.900000000000006,0)" xlink:href="#R"/><use transform="matrix(0.05,0,0,0.05,46.900000000000006,0)" xlink:href="#U"/><use transform="matrix(0.05,0,0,0.05,51.900000000000006,0)" xlink:href="#V"/></g><path fill="#d86613" d="M100-194c62-1 85 37 85 99 1 63-27 99-86 99S16-35 15-95c0-66 28-99 85-99zM99-20c44 1 53-31 53-75 0-43-8-75-51-75s-53 32-53 75 10 74 51 75" id="W"/><path fill="#d86613" d="M117-194c89-4 53 116 60 194h-32v-121c0-31-8-49-39-48C34-167 62-67 57 0H25l-1-190h30c1 10-1 24 2 32 11-22 29-35 61-36" id="X"/><path fill="#d86613" d="M24-231v-30h32v30H24zM24 0v-190h32V0H24" id="Y"/><path fill="#d86613" d="M135-143c-3-34-86-38-87 0 15 53 115 12 119 90S17 21 10-45l28-5c4 36 97 45 98 0-10-56-113-15-118-90-4-57 82-63 122-42 12 7 21 19 24 35" id="Z"/><g id="n"><use transform="matrix(0.05,0,0,0.05,0,0)" xlink:href="#O"/><use transform="matrix(0.05,0,0,0.05,12.950000000000001,0)" xlink:href="#W"/><use transform="matrix(0.05,0,0,0.05,22.950000000000003,0)" xlink:href="#X"/><use transform="matrix(0.05,0,0,0.05,32.95,0)" xlink:href="#U"/><use transform="matrix(0.05,0,0,0.05,37.95,0)" xlink:href="#R"/><use transform="matrix(0.05,0,0,0.05,47.95,0)" xlink:href="#Y"/><use transform="matrix(0.05,0,0,0.05,51.900000000000006,0)" xlink:href="#X"/><use transform="matrix(0.05,0,0,0.05,61.900000000000006,0)" xlink:href="#V"/><use transform="matrix(0.05,0,0,0.05,71.9,0)" xlink:href="#S"/><use transform="matrix(0.05,0,0,0.05,77.85000000000001,0)" xlink:href="#Z"/></g><path fill="#333" d="M85-194c31 0 48 13 60 33l-1-100h32l1 261h-30c-2-10 0-23-3-31C134-8 116 4 85 4 32 4 16-35 15-94c0-66 23-100 70-100zm9 24c-40 0-46 34-46 75 0 40 6 74 45 74 42 0 51-32 51-76 0-42-9-74-50-73" id="aa"/><g id="o"><use transform="matrix(0.06172839506172839,0,0,0.06172839506172839,0,0)" xlink:href="#z"/><use transform="matrix(0.06172839506172839,0,0,0.06172839506172839,12.345679012345679,0)" xlink:href="#r"/><use transform="matrix(0.06172839506172839,0,0,0.06172839506172839,24.691358024691358,0)" xlink:href="#B"/><use transform="matrix(0.06172839506172839,0,0,0.06172839506172839,37.03703703703704,0)" xlink:href="#aa"/></g><path fill="#333" d="M160-131c35 5 61 23 61 61C221 17 115-2 30 0v-248c76 3 177-17 177 60 0 33-19 50-47 57zm-97-11c50-1 110 9 110-42 0-47-63-36-110-37v79zm0 115c55-2 124 14 124-45 0-56-70-42-124-44v89" id="ab"/><path fill="#333" d="M24 0v-261h32V0H24" id="ac"/><g id="p"><use transform="matrix(0.06172839506172839,0,0,0.06172839506172839,0,0)" xlink:href="#ab"/><use transform="matrix(0.06172839506172839,0,0,0.06172839506172839,14.814814814814813,0)" xlink:href="#B"/><use transform="matrix(0.06172839506172839,0,0,0.06172839506172839,27.160493827160494,0)" xlink:href="#ac"/><use transform="matrix(0.06172839506172839,0,0,0.06172839506172839,32.03703703703704,0)" xlink:href="#B"/><use transform="matrix(0.06172839506172839,0,0,0.06172839506172839,44.382716049382715,0)" xlink:href="#G"/><use transform="matrix(0.06172839506172839,0,0,0.06172839506172839,56.72839506172839,0)" xlink:href="#E"/><use transform="matrix(0.06172839506172839,0,0,0.06172839506172839,67.8395061728395,0)" xlink:href="#w"/><use transform="matrix(0.06172839506172839,0,0,0.06172839506172839,80.18518518518519,0)" xlink:href="#v"/></g></defs></g></svg>