<svg xmlns="http://www.w3.org/2000/svg" xmlns:xlink="http://www.w3.org/1999/xlink" xmlns:lucid="lucid" width="2101" height="1038.19"><g transform="translate(-2298.9999999670704 -758.1066435692363)" lucid:page-tab-id="0_0"><path d="M500 500h4500v3500H500z" fill="#fff"/><path d="M2580 1108a8 8 0 0 1 8-8h684a8 8 0 0 1 8 8v544a8 8 0 0 1-8 8h-684a8 8 0 0 1-8-8z" stroke="#000" stroke-width="2" fill="#edf5ff"/><path d="M2620 1168a8 8 0 0 1 8-8h144a8 8 0 0 1 8 8v386.67a8 8 0 0 1-8 8h-144a8 8 0 0 1-8-8z" stroke="#000" stroke-width="2" fill="#cfe4ff"/><use xlink:href="#a" transform="matrix(1,0,0,1,2632,1172) translate(16.671875 196.775390625)"/><path d="M3180 1744.3a8 8 0 0 1 8-8h224a8 8 0 0 1 8 8v44a8 8 0 0 1-8 8h-224a8 8 0 0 1-8-8z" fill="none"/><use xlink:href="#b" transform="matrix(1,0,0,1,3180,1736.293319955938) translate(31.77734375 37.275390625)"/><use xlink:href="#c" transform="matrix(1,0,0,1,3180,1736.293319955938) translate(117.783203125 37.275390625)"/><path d="M2747.74 1206.53a8 8 0 0 1 8-8h224a8 8 0 0 1 8 8v33.9a8 8 0 0 1-8 8h-224a8 8 0 0 1-8-8z" fill="none"/><use xlink:href="#d" transform="matrix(1,0,0,1,2747.743320257853,1198.5302311416453) translate(51.88802083333333 31.46701388888889)"/><use xlink:href="#e" transform="matrix(1,0,0,1,2747.743320257853,1198.5302311416453) translate(115.41232638888889 31.46701388888889)"/><path d="M2300 1299.48a8 8 0 0 1 8-8h124a8 8 0 0 1 8 8v119.32a8 8 0 0 1-8 8h-124a8 8 0 0 1-8-8z" stroke="#000" stroke-width="2" fill="#fbf0ff"/><use xlink:href="#f" transform="matrix(1,0,0,1,2312,1303.4802585690352) translate(6.671875 19.716796875)"/><use xlink:href="#g" transform="matrix(1,0,0,1,2312,1303.4802585690352) translate(32.43359375 48.755859375)"/><use xlink:href="#h" transform="matrix(1,0,0,1,2312,1303.4802585690352) translate(0.705078125 77.794921875)"/><use xlink:href="#i" transform="matrix(1,0,0,1,2312,1303.4802585690352) translate(12.39453125 106.833984375)"/><path d="M2459.5 1359.14h141" stroke="#3a414a" stroke-width="2" fill="none"/><path d="M2444.24 1359.14l14.26-4.64v9.27zM2615.76 1359.14l-14.26 4.63v-9.27z" stroke="#3a414a" stroke-width="2" fill="#3a414a"/><path d="M2807.08 1277.55a8 8 0 0 1 8-8h164.66a8 8 0 0 1 8 8v22.32a8 8 0 0 1-8 8h-164.66a8 8 0 0 1-8-8z" fill="none"/><use xlink:href="#j" transform="matrix(1,0,0,1,2807.076653591186,1269.5452576452199) translate(38.802951388888886 25.96701388888889)"/><use xlink:href="#k" transform="matrix(1,0,0,1,2807.076653591186,1269.5452576452199) translate(87.0234375 25.96701388888889)"/><path d="M2770 1424.54a8 8 0 0 1 8-8h224a8 8 0 0 1 8 8v44a8 8 0 0 1-8 8h-224a8 8 0 0 1-8-8z" fill="none"/><use xlink:href="#l" transform="matrix(1,0,0,1,2770,1416.544177918097) translate(50.47309027777777 36.467013888888886)"/><use xlink:href="#m" transform="matrix(1,0,0,1,2770,1416.544177918097) translate(101.8359375 36.467013888888886)"/><path d="M3370 1197.8a8 8 0 0 1 8-8h224a8 8 0 0 1 8 8v64a8 8 0 0 1-8 8h-224a8 8 0 0 1-8-8z" fill="none"/><use xlink:href="#n" transform="matrix(1,0,0,1,3370,1189.8051283607017) translate(17.2216796875 19.375)"/><use xlink:href="#o" transform="matrix(1,0,0,1,3370,1189.8051283607017) translate(120.1220703125 19.375)"/><use xlink:href="#p" transform="matrix(1,0,0,1,3370,1189.8051283607017) translate(167.8076171875 19.375)"/><use xlink:href="#q" transform="matrix(1,0,0,1,3370,1189.8051283607017) translate(35.5419921875 48.4140625)"/><use xlink:href="#r" transform="matrix(1,0,0,1,3370,1189.8051283607017) translate(78.9892578125 48.4140625)"/><use xlink:href="#s" transform="matrix(1,0,0,1,3370,1189.8051283607017) translate(140.5615234375 48.4140625)"/><use xlink:href="#t" transform="matrix(1,0,0,1,3370,1189.8051283607017) translate(7.8662109375 77.453125)"/><use xlink:href="#u" transform="matrix(1,0,0,1,3370,1189.8051283607017) translate(59.9560546875 77.453125)"/><use xlink:href="#v" transform="matrix(1,0,0,1,3370,1189.8051283607017) translate(89.3505859375 77.453125)"/><use xlink:href="#w" transform="matrix(1,0,0,1,3370,1189.8051283607017) translate(168.8720703125 77.453125)"/><path d="M2672.5 1650.67a8 8 0 0 1 8-8h464a8 8 0 0 1 8 8v44a8 8 0 0 1-8 8h-464a8 8 0 0 1-8-8z" fill="none"/><use xlink:href="#x" transform="matrix(1,0,0,1,2672.513368583983,1642.6666666666667) translate(8.6865234375 37.275390625)"/><use xlink:href="#y" transform="matrix(1,0,0,1,2672.513368583983,1642.6666666666667) translate(72.4267578125 37.275390625)"/><use xlink:href="#z" transform="matrix(1,0,0,1,2672.513368583983,1642.6666666666667) translate(153.5595703125 37.275390625)"/><use xlink:href="#A" transform="matrix(1,0,0,1,2672.513368583983,1642.6666666666667) translate(183.1591796875 37.275390625)"/><use xlink:href="#B" transform="matrix(1,0,0,1,2672.513368583983,1642.6666666666667) translate(218.6865234375 37.275390625)"/><use xlink:href="#C" transform="matrix(1,0,0,1,2672.513368583983,1642.6666666666667) translate(280.6396484375 37.275390625)"/><use xlink:href="#D" transform="matrix(1,0,0,1,2672.513368583983,1642.6666666666667) translate(361.2060546875 37.275390625)"/><use xlink:href="#E" transform="matrix(1,0,0,1,2672.513368583983,1642.6666666666667) translate(403.8623046875 37.275390625)"/><path d="M3000 1168a8 8 0 0 1 8-8h184a8 8 0 0 1 8 8v386.67a8 8 0 0 1-8 8h-184a8 8 0 0 1-8-8z" stroke="#000" stroke-width="2" fill="#6db1ff"/><use xlink:href="#F" transform="matrix(1,0,0,1,3012,1172) translate(29.89453125 196.775390625)"/><use xlink:href="#G" transform="matrix(1,0,0,1,3012,1172) translate(73.322265625 196.775390625)"/><path d="M2640 1148a8 8 0 0 1 8-8h104a8 8 0 0 1 8 8v28.65a8 8 0 0 1-8 8h-104a8 8 0 0 1-8-8z" stroke="#000" stroke-width="2" fill="#cfe4ff"/><use xlink:href="#H" transform="matrix(1,0,0,1,2652,1152) translate(3.478515625 19.375)"/><path d="M3160 1384a8 8 0 0 1 8-8h64a8 8 0 0 1 8 8v32a8 8 0 0 1-8 8h-64a8 8 0 0 1-8-8z" stroke="#000" stroke-width="2" fill="#6db1ff"/><use xlink:href="#I" transform="matrix(1,0,0,1,3172,1388) translate(11.1689453125 19.375)"/><path d="M3160 1272.64a8 8 0 0 1 8-8h64a8 8 0 0 1 8 8v32a8 8 0 0 1-8 8h-64a8 8 0 0 1-8-8z" stroke="#000" stroke-width="2" fill="#6db1ff"/><use xlink:href="#J" transform="matrix(1,0,0,1,3172,1276.6447004150687) translate(19.40625 19.375)"/><path d="M2940 1634.4c0 4.57-22.4 8.27-50 8.27s-50-3.7-50-8.27v-66.13c0-4.57 22.4-8.27 50-8.27s50 3.7 50 8.27z" stroke="#000" stroke-width="2" fill="#fff"/><path d="M2940 1568.27c0 4.56-22.4 8.26-50 8.26s-50-3.7-50-8.26" stroke="#000" stroke-width="2" fill="none"/><use xlink:href="#K" transform="matrix(1,0,0,1,2845,1581.5333333333335) translate(15.225694444444443 22.060763888888893)"/><use xlink:href="#L" transform="matrix(1,0,0,1,2845,1581.5333333333335) translate(6.228298611111107 47.873263888888886)"/><path d="M2700 1582.17v7.16l.15 1.88.44 1.84.35.87m6.47 6.5l.87.35 1.82.44 1.88.13h3.88m7.74 0h7.76m7.74 0h7.76m7.74 0h7.76m7.74 0h7.76m7.74 0h7.76m7.74 0h7.76m7.74 0h3.88" stroke="#3a414a" stroke-width="2" fill="none"/><path d="M2700 1566.9l4.64 14.27h-9.28zM2835.77 1601.33l-14.27 4.64v-9.27z" stroke="#3a414a" stroke-width="2" fill="#3a414a"/><path d="M3100 1582.17v7.16l-.15 1.88-.44 1.84-.35.87m-6.47 6.5l-.87.35-1.82.44-1.88.13h-4.02m-8.03 0h-8.03m-8.03 0h-8.04m-8.03 0h-8.03m-8.03 0h-8.04m-8.03 0h-8.03m-8.03 0h-8.03m-8.02 0h-8.03m-8.03 0h-4.02" stroke="#3a414a" stroke-width="2" fill="none"/><path d="M3100 1566.9l4.64 14.27h-9.28zM2944.23 1601.33l14.27-4.63v9.27z" stroke="#3a414a" stroke-width="2" fill="#3a414a"/><path d="M2440 1744.3a8 8 0 0 1 8-8h224a8 8 0 0 1 8 8v44a8 8 0 0 1-8 8h-224a8 8 0 0 1-8-8z" fill="none"/><use xlink:href="#M" transform="matrix(1,0,0,1,2440,1736.293319955938) translate(31.77734375 37.275390625)"/><use xlink:href="#N" transform="matrix(1,0,0,1,2440,1736.293319955938) translate(117.783203125 37.275390625)"/><path d="M2540 1088a8 8 0 0 1 8-8h24a8 8 0 0 1 8 8v647.7a8 8 0 0 1-8 8h-24a8 8 0 0 1-8-8z" stroke="#000" stroke-width="2" fill="#8b36ad"/><path d="M3700 1148a8 8 0 0 1 8-8h544a8 8 0 0 1 8 8v453.33a8 8 0 0 1-8 8h-544a8 8 0 0 1-8-8z" stroke="#000" stroke-width="2" fill="#edf5ff"/><path d="M4060 1228a8 8 0 0 1 8-8h144a8 8 0 0 1 8 8v226.67a8 8 0 0 1-8 8h-144a8 8 0 0 1-8-8z" stroke="#000" stroke-width="2" fill="#cfe4ff"/><use xlink:href="#a" transform="matrix(1,0,0,1,4072,1232) translate(16.671875 116.775390625)"/><path d="M3780 1228a8 8 0 0 1 8-8h184a8 8 0 0 1 8 8v226.67a8 8 0 0 1-8 8h-184a8 8 0 0 1-8-8z" stroke="#000" stroke-width="2" fill="#6db1ff"/><use xlink:href="#F" transform="matrix(1,0,0,1,3792,1232) translate(29.89453125 116.775390625)"/><use xlink:href="#G" transform="matrix(1,0,0,1,3792,1232) translate(73.322265625 116.775390625)"/><path d="M4060 1574.4c0 4.57-22.4 8.27-50 8.27s-50-3.7-50-8.27v-66.13c0-4.57 22.4-8.27 50-8.27s50 3.7 50 8.27z" stroke="#000" stroke-width="2" fill="#fff"/><path d="M4060 1508.27c0 4.56-22.4 8.26-50 8.26s-50-3.7-50-8.26" stroke="#000" stroke-width="2" fill="none"/><use xlink:href="#O" transform="matrix(1,0,0,1,3965,1521.5333333333335) translate(15.225694444444443 22.060763888888893)"/><use xlink:href="#P" transform="matrix(1,0,0,1,3965,1521.5333333333335) translate(6.228298611111107 47.873263888888886)"/><path d="M4080 1200a8 8 0 0 1 8-8h104a8 8 0 0 1 8 8v32a8 8 0 0 1-8 8h-104a8 8 0 0 1-8-8z" stroke="#000" stroke-width="2" fill="#cfe4ff"/><use xlink:href="#H" transform="matrix(1,0,0,1,4092,1204) translate(3.478515625 19.375)"/><path d="M3740 1272.77a8 8 0 0 1 8-8h64a8 8 0 0 1 8 8v31.88a8 8 0 0 1-8 8h-64a8 8 0 0 1-8-8z" stroke="#000" stroke-width="2" fill="#6db1ff"/><use xlink:href="#J" transform="matrix(1,0,0,1,3752,1276.7706846670371) translate(19.40625 19.375)"/><path d="M3740 1384a8 8 0 0 1 8-8h64a8 8 0 0 1 8 8v31.87a8 8 0 0 1-8 8h-64a8 8 0 0 1-8-8z" stroke="#000" stroke-width="2" fill="#6db1ff"/><use xlink:href="#I" transform="matrix(1,0,0,1,3752,1388) translate(11.1689453125 19.375)"/><path d="M3880 1482.17v4.04m0 8.1v8.08m0 8.08v8.08m0 8.1v4.03l.15 1.88.44 1.83.35.87m6.47 6.47l.87.36 1.82.44 1.88.15h4.04m8.1 0h8.07m8.1 0h8.07m8.1 0h4.03" stroke="#3a414a" stroke-width="2" fill="none"/><path d="M3880 1466.9l4.64 14.27h-9.28zM3955.77 1542.67l-14.27 4.63v-9.27z" stroke="#3a414a" stroke-width="2" fill="#3a414a"/><path d="M4140 1482.17v3.93m0 7.86v7.86m0 7.86v7.86m0 7.86v3.93l-.15 1.88-.44 1.84-.35.87m-6.47 6.5l-.87.35-1.82.44-1.88.13h-4.04m-8.1 0h-8.07m-8.1 0h-8.07m-8.1 0h-4.03" stroke="#3a414a" stroke-width="2" fill="none"/><path d="M4140 1466.9l4.64 14.27h-9.28zM4064.23 1541.33l14.27-4.63v9.27z" stroke="#3a414a" stroke-width="2" fill="#3a414a"/><path d="M3560 1664.3a8 8 0 0 1 8-8h224a8 8 0 0 1 8 8v44a8 8 0 0 1-8 8h-224a8 8 0 0 1-8-8z" fill="none"/><use xlink:href="#M" transform="matrix(1,0,0,1,3560,1656.293319955938) translate(31.77734375 37.275390625)"/><use xlink:href="#N" transform="matrix(1,0,0,1,3560,1656.293319955938) translate(117.783203125 37.275390625)"/><path d="M4019.5 1341.33h21" stroke="#3a414a" stroke-width="2" fill="none"/><path d="M4004.24 1341.33l14.26-4.63v9.27zM4055.76 1341.33l-14.26 4.64v-9.27z" stroke="#3a414a" stroke-width="2" fill="#3a414a"/><path d="M3241.98 1399.78l478.96-107.04" stroke="#3a414a" stroke-width="2" fill="none"/><path d="M3242.2 1400.73l-1.2.27v-2l.8-.17z" stroke="#3a414a" stroke-width=".05" fill="#3a414a"/><path d="M3735.84 1289.4l-12.9 7.65-2.03-9.05z" stroke="#3a414a" stroke-width="2" fill="#3a414a"/><path d="M3738.02 1399.72l-478.96-107.04" stroke="#3a414a" stroke-width="2" fill="none"/><path d="M3739 1398.94v2l-1.2-.28.4-1.9z" stroke="#3a414a" stroke-width=".05" fill="#3a414a"/><path d="M3244.16 1289.35l14.93-1.4-2.03 9.04z" stroke="#3a414a" stroke-width="2" fill="#3a414a"/><path d="M3360 1424.54a8 8 0 0 1 8-8h244a8 8 0 0 1 8 8v44a8 8 0 0 1-8 8h-244a8 8 0 0 1-8-8z" fill="none"/><use xlink:href="#Q" transform="matrix(1,0,0,1,3360,1416.544177918097) translate(1.26953125 22.755859375)"/><use xlink:href="#R" transform="matrix(1,0,0,1,3360,1416.544177918097) translate(137.080078125 22.755859375)"/><use xlink:href="#S" transform="matrix(1,0,0,1,3360,1416.544177918097) translate(24.5361328125 51.794921875)"/><use xlink:href="#T" transform="matrix(1,0,0,1,3360,1416.544177918097) translate(82.6806640625 51.794921875)"/><use xlink:href="#U" transform="matrix(1,0,0,1,3360,1416.544177918097) translate(153.2080078125 51.794921875)"/><use xlink:href="#V" transform="matrix(1,0,0,1,3360,1416.544177918097) translate(198.4130859375 51.794921875)"/><path d="M3020 760c26.56 19.92 43.36 19.92 53.28 19.92 16 0 37.28-19.92 53.28-19.92 10.08 0 26.72 0 53.44 19.92V880c-26.72-20.04-43.36-20.04-53.44-20.04-16 0-37.28 20.04-53.28 20.04-9.92 0-26.72 0-53.28-20.04z" stroke="#000" stroke-width="2" fill="#cfe4ff"/><use xlink:href="#W" transform="matrix(1,0,0,1,3025,765) translate(49.5166015625 33.236328125)"/><use xlink:href="#X" transform="matrix(1,0,0,1,3025,765) translate(12.8857421875 62.275390625)"/><use xlink:href="#Y" transform="matrix(1,0,0,1,3025,765) translate(34.3505859375 91.314453125)"/><path d="M3100 871.88v223.14" stroke="#3a414a" stroke-width="2" fill="none"/><path d="M3100.97 871.9h-1.94v-.53l1.94-.98z" stroke="#3a414a" stroke-width=".05" fill="#3a414a"/><path d="M3100 1110.28l-4.64-14.26h9.28z" stroke="#3a414a" stroke-width="2" fill="#3a414a"/><path d="M2700 1120.5v-3.7m0-7.36v-7.38m0-7.37v-7.4m0-7.36v-7.38m0-7.37v-7.4m0-7.36v-7.38m0-7.37v-3.7l.15-1.88.44-1.83.35-.88m6.47-6.47l.87-.36 1.82-.45 1.88-.15h3.98m7.95 0h7.96m7.94 0h7.96m7.95 0h7.96m7.96 0h7.96m7.95 0h7.96m7.95 0h7.96m7.95 0h7.95m7.95 0h7.96m7.95 0h7.97m7.95 0h7.96m7.95 0h7.96m7.94 0h7.96m7.95 0h7.96m7.96 0h7.96m7.95 0h7.96m7.95 0h7.96m7.95 0h7.95m7.95 0h7.96m7.95 0h7.97m7.95 0h7.96m7.96 0h7.95m7.95 0h7.95m7.95 0h7.96m7.96 0h7.96m7.95 0h7.96m7.95 0h7.96m7.96 0h7.95m7.96 0h7.96m7.96 0h7.95m7.96 0h7.95m7.96 0h7.95m7.95 0h7.95m7.96 0h7.95m7.97 0h7.95m7.96 0h7.95m7.96 0h7.94m7.96 0h7.95m7.96 0h7.96m7.96 0h7.95m7.96 0h7.95m7.96 0h7.95m7.95 0h7.95m7.96 0h7.95m7.97 0h7.95m7.96 0h7.95m7.96 0h7.94m7.96 0h7.95m7.96 0h7.96m7.96 0h7.95m7.96 0h7.95m7.96 0h7.95m7.95 0h7.95m7.96 0h7.95m7.97 0h7.95m7.96 0h7.95m7.96 0h7.94m7.96 0h7.95m7.96 0h7.96m7.96 0h7.95m7.96 0h7.95m7.96 0h7.95m7.95 0h7.95m7.96 0h7.95m7.97 0h7.95m7.96 0h7.96m7.95 0h7.95m7.95 0h7.95m7.96 0h7.96m7.96 0h7.95m7.96 0h7.95m7.96 0h7.96m7.95 0h7.96m7.96 0h7.96m7.95 0h7.96m7.95 0h7.96m7.95 0h7.95m7.95 0h7.96m7.95 0h7.97m7.95 0h7.96m7.95 0h7.96m7.94 0h7.96m7.95 0h7.96m7.96 0h7.96m7.95 0h7.96m7.95 0h7.96m7.95 0h7.95m7.95 0h7.96m7.95 0h7.97m7.95 0h3.98l1.88.15 1.83.44.88.35m6.47 6.47l.36.87.45 1.82.15 1.88v3.9m0 7.8v7.8m0 7.82v7.8m0 7.8v7.8m0 7.82v7.8m0 7.8v7.82m0 7.8v7.8m0 7.8v7.82m0 7.8v7.8m0 7.82v3.9" stroke="#3a414a" stroke-width="2" fill="none"/><path d="M2700 1135.76l-4.64-14.26h9.28zM4140 1187.76l-4.64-14.26h9.28z" stroke="#3a414a" stroke-width="2" fill="#3a414a"/><path d="M3862.67 1088a8 8 0 0 1 8-8h244a8 8 0 0 1 8 8v44a8 8 0 0 1-8 8h-244a8 8 0 0 1-8-8z" fill="none"/><use xlink:href="#Z" transform="matrix(1,0,0,1,3862.666666666666,1080) translate(11.562499999999972 39.700520833333336)"/><use xlink:href="#aa" transform="matrix(1,0,0,1,3862.666666666666,1080) translate(117.03124999999999 39.700520833333336)"/><use xlink:href="#ab" transform="matrix(1,0,0,1,3862.666666666666,1080) translate(182.78645833333334 39.700520833333336)"/><path d="M2837.28 1048a8 8 0 0 1 8-8h134.46a8 8 0 0 1 8 8v44a8 8 0 0 1-8 8h-134.46a8 8 0 0 1-8-8z" fill="none"/><use xlink:href="#ac" transform="matrix(1,0,0,1,2837.2834169101125,1040) translate(4.471354166666657 39.700520833333336)"/><use xlink:href="#ad" transform="matrix(1,0,0,1,2837.2834169101125,1040) translate(80.87760416666667 39.700520833333336)"/><path d="M3030 1122.52a8 8 0 0 1 8-8h124a8 8 0 0 1 8 8v61.24a8 8 0 0 1-8 8h-124a8 8 0 0 1-8-8z" stroke="#000" stroke-width="2" fill="#6db1ff"/><g><use xlink:href="#ae" transform="matrix(1,0,0,1,3042,1126.5193210690352) translate(9.103515625 19.755859375)"/><use xlink:href="#af" transform="matrix(1,0,0,1,3042,1126.5193210690352) translate(74.953125 19.755859375)"/><use xlink:href="#ag" transform="matrix(1,0,0,1,3042,1126.5193210690352) translate(24.5576171875 48.794921875)"/></g><path d="M3280 1088a8 8 0 0 1 8-8h24a8 8 0 0 1 8 8v647.7a8 8 0 0 1-8 8h-24a8 8 0 0 1-8-8z" stroke="#000" stroke-width="2" fill="#8b36ad"/><g><path d="M3278 1552.6a8 8 0 0 1-8-8v-304a8 8 0 0 1 8-8h44a8 8 0 0 1 8 8v304a8 8 0 0 1-8 8z" fill="none"/></g><g><use xlink:href="#ah" transform="matrix(6.123233995736766e-17,-1,1,6.123233995736766e-17,3270,1552.5866399118759) translate(6.904296875 37.275390625)"/><use xlink:href="#ai" transform="matrix(6.123233995736766e-17,-1,1,6.123233995736766e-17,3270,1552.5866399118759) translate(50.33203125 37.275390625)"/><use xlink:href="#aj" transform="matrix(6.123233995736766e-17,-1,1,6.123233995736766e-17,3270,1552.5866399118759) translate(128.740234375 37.275390625)"/><use xlink:href="#ak" transform="matrix(6.123233995736766e-17,-1,1,6.123233995736766e-17,3270,1552.5866399118759) translate(243.8671875 37.275390625)"/></g><path d="M3660 1128a8 8 0 0 1 8-8h24a8 8 0 0 1 8 8v527.7a8 8 0 0 1-8 8h-24a8 8 0 0 1-8-8z" stroke="#000" stroke-width="2" fill="#8b36ad"/><g><path d="M3658 1540a8 8 0 0 1-8-8v-304a8 8 0 0 1 8-8h44a8 8 0 0 1 8 8v304a8 8 0 0 1-8 8z" fill="none"/></g><g><use xlink:href="#ah" transform="matrix(6.123233995736766e-17,-1,1,6.123233995736766e-17,3650,1540) translate(6.904296875 37.275390625)"/><use xlink:href="#ai" transform="matrix(6.123233995736766e-17,-1,1,6.123233995736766e-17,3650,1540) translate(50.33203125 37.275390625)"/><use xlink:href="#aj" transform="matrix(6.123233995736766e-17,-1,1,6.123233995736766e-17,3650,1540) translate(128.740234375 37.275390625)"/><use xlink:href="#ak" transform="matrix(6.123233995736766e-17,-1,1,6.123233995736766e-17,3650,1540) translate(243.8671875 37.275390625)"/></g><path d="M2980 1197.14a8 8 0 0 1 8-8h24a8 8 0 0 1 8 8v183.14a8 8 0 0 1-8 8h-24a8 8 0 0 1-8-8z" stroke="#000" stroke-width="2" fill="#6db1ff"/><g><path d="M2978 1391.57a8 8 0 0 1-8-8V1200a8 8 0 0 1 8-8h44a8 8 0 0 1 8 8v183.57a8 8 0 0 1-8 8z" fill="none"/></g><g><use xlink:href="#al" transform="matrix(6.123233995736766e-17,-1,1,6.123233995736766e-17,2970,1391.569230847017) translate(17.5 37.275390625)"/><use xlink:href="#am" transform="matrix(6.123233995736766e-17,-1,1,6.123233995736766e-17,2970,1391.569230847017) translate(75.44921875 37.275390625)"/><use xlink:href="#an" transform="matrix(6.123233995736766e-17,-1,1,6.123233995736766e-17,2970,1391.569230847017) translate(150.556640625 37.275390625)"/></g><path d="M2782 1236h97.9a.1.1 0 0 0 .1-.1.1.1 0 0 1 .1-.13h80.4" stroke="#3a414a" stroke-width="2" fill="none"/><path d="M2782.03 1236.97H2781v-1.94h1.03z" stroke="#3a414a" stroke-width=".05" fill="#3a414a"/><path d="M2975.76 1235.77l-14.26 4.64v-9.26z" stroke="#3a414a" stroke-width="2" fill="#3a414a"/><path d="M2978 1299.57h-178.5" stroke="#3a414a" stroke-width="2" fill="none"/><path d="M2979 1300.54h-1.03v-1.95h1.03z" stroke="#3a414a" stroke-width=".05" fill="#3a414a"/><path d="M2784.24 1299.57l14.26-4.64v9.27z" stroke="#3a414a" stroke-width="2" fill="#3a414a"/><g><path d="M2768 1536.54a8 8 0 0 1-8-8v-135.86a8 8 0 0 1 8-8h28.65a8 8 0 0 1 8 8v135.86a8 8 0 0 1-8 8z" stroke="#000" stroke-width="2" fill="#cfe4ff"/></g><g><use xlink:href="#ao" transform="matrix(6.123233995736766e-17,-1,1,6.123233995736766e-17,2772,1524.544177918097) translate(1.255859375 19.375)"/><use xlink:href="#ap" transform="matrix(6.123233995736766e-17,-1,1,6.123233995736766e-17,2772,1524.544177918097) translate(94.80078125 19.375)"/></g><path d="M2980.5 1460.6h-173.85" stroke="#3a414a" stroke-width="2" fill="none"/><path d="M2995.76 1460.6l-14.26 4.65v-9.27z" stroke="#3a414a" stroke-width="2" fill="#3a414a"/><path d="M2806.68 1461.6h-1.03v-1.96h1.03z" stroke="#3a414a" stroke-width=".05" fill="#3a414a"/><path d="M2912.5 908a8 8 0 0 1 8-8h224a8 8 0 0 1 8 8v44a8 8 0 0 1-8 8h-224a8 8 0 0 1-8-8z" fill="none"/><g><use xlink:href="#aq" transform="matrix(1,0,0,1,2912.513368583983,900) translate(63.70225694444444 23.560763888888893)"/><use xlink:href="#ar" transform="matrix(1,0,0,1,2912.513368583983,900) translate(138.23350694444446 23.560763888888893)"/><use xlink:href="#as" transform="matrix(1,0,0,1,2912.513368583983,900) translate(78.46788194444446 49.37326388888889)"/></g><g><path d="M2538 1560a8 8 0 0 1-8-8v-304a8 8 0 0 1 8-8h44a8 8 0 0 1 8 8v304a8 8 0 0 1-8 8z" fill="none"/></g><g><use xlink:href="#at" transform="matrix(6.123233995736766e-17,-1,1,6.123233995736766e-17,2530,1560) translate(61.5087890625 37.275390625)"/><use xlink:href="#au" transform="matrix(6.123233995736766e-17,-1,1,6.123233995736766e-17,2530,1560) translate(169.7900390625 37.275390625)"/><use xlink:href="#av" transform="matrix(6.123233995736766e-17,-1,1,6.123233995736766e-17,2530,1560) translate(226.5478515625 37.275390625)"/></g><path d="M4160 1664.3a8 8 0 0 1 8-8h224a8 8 0 0 1 8 8v44a8 8 0 0 1-8 8h-224a8 8 0 0 1-8-8z" fill="none"/><g><use xlink:href="#M" transform="matrix(1,0,0,1,4160,1656.293319955938) translate(31.77734375 37.275390625)"/><use xlink:href="#N" transform="matrix(1,0,0,1,4160,1656.293319955938) translate(117.783203125 37.275390625)"/></g><path d="M4260 1128a8 8 0 0 1 8-8h24a8 8 0 0 1 8 8v527.7a8 8 0 0 1-8 8h-24a8 8 0 0 1-8-8z" stroke="#000" stroke-width="2" fill="#8b36ad"/><g><path d="M4258 1552.6a8 8 0 0 1-8-8v-304a8 8 0 0 1 8-8h44a8 8 0 0 1 8 8v304a8 8 0 0 1-8 8z" fill="none"/></g><g><use xlink:href="#at" transform="matrix(6.123233995736766e-17,-1,1,6.123233995736766e-17,4250,1552.5866399118759) translate(61.5087890625 37.275390625)"/><use xlink:href="#au" transform="matrix(6.123233995736766e-17,-1,1,6.123233995736766e-17,4250,1552.5866399118759) translate(169.7900390625 37.275390625)"/><use xlink:href="#av" transform="matrix(6.123233995736766e-17,-1,1,6.123233995736766e-17,4250,1552.5866399118759) translate(226.5478515625 37.275390625)"/></g><path d="M3207 974.23a8 8 0 0 1 8-8h624a8 8 0 0 1 8 8v44a8 8 0 0 1-8 8h-624a8 8 0 0 1-8-8z" fill="none"/><g><use xlink:href="#aw" transform="matrix(1,0,0,1,3207,966.2308593360717) translate(74.94140625 37.275390625)"/><use xlink:href="#ax" transform="matrix(1,0,0,1,3207,966.2308593360717) translate(199.814453125 37.275390625)"/><use xlink:href="#ay" transform="matrix(1,0,0,1,3207,966.2308593360717) translate(307.685546875 37.275390625)"/><use xlink:href="#az" transform="matrix(1,0,0,1,3207,966.2308593360717) translate(401.15234375 37.275390625)"/><use xlink:href="#aA" transform="matrix(1,0,0,1,3207,966.2308593360717) translate(483.857421875 37.275390625)"/></g><path d="M3815 1174.28a8 8 0 0 1 8-8h124a8 8 0 0 1 8 8v61.24a8 8 0 0 1-8 8h-124a8 8 0 0 1-8-8z" stroke="#000" stroke-width="2" fill="#6db1ff"/><g><use xlink:href="#ae" transform="matrix(1,0,0,1,3827,1178.283423555351) translate(9.103515625 19.755859375)"/><use xlink:href="#af" transform="matrix(1,0,0,1,3827,1178.283423555351) translate(74.953125 19.755859375)"/><use xlink:href="#ag" transform="matrix(1,0,0,1,3827,1178.283423555351) translate(24.5576171875 48.794921875)"/></g><path d="M3960 1253.57a8 8 0 0 1 8-8h24a8 8 0 0 1 8 8v183.14a8 8 0 0 1-8 8h-24a8 8 0 0 1-8-8z" stroke="#000" stroke-width="2" fill="#6db1ff"/><g><path d="M3958 1448a8 8 0 0 1-8-8v-183.57a8 8 0 0 1 8-8h44a8 8 0 0 1 8 8V1440a8 8 0 0 1-8 8z" fill="none"/></g><g><use xlink:href="#al" transform="matrix(6.123233995736766e-17,-1,1,6.123233995736766e-17,3950,1448) translate(17.5 37.275390625)"/><use xlink:href="#am" transform="matrix(6.123233995736766e-17,-1,1,6.123233995736766e-17,3950,1448) translate(75.44921875 37.275390625)"/><use xlink:href="#an" transform="matrix(6.123233995736766e-17,-1,1,6.123233995736766e-17,3950,1448) translate(150.556640625 37.275390625)"/></g><defs><path d="M657 26c-323 0-524-166-541-416h195c15 169 171 246 346 246 202 0 356-106 356-265 5-203-294-238-475-293-239-73-380-191-380-389 0-252 224-419 512-419 294 0 499 171 508 396H992c-17-145-151-228-328-228-193 0-321 102-321 242 0 156 175 211 284 241l149 41c160 44 422 134 422 412 0 244-197 432-541 432" id="aB"/><path d="M628 24c-324 0-524-230-524-574 0-343 198-582 503-582 237 0 487 146 487 559v75H286c9 234 145 362 343 362 132 0 231-58 273-172l174 48C1024-91 857 24 628 24zM287-650h624c-17-190-120-322-304-322-192 0-309 151-320 322" id="aC"/><path d="M1096 418H916v-591h-14C865-111 790 24 577 24c-279 0-473-224-473-580 0-354 195-576 474-576 218 0 287 134 324 193h20v-179h174V418zM604-137c203 0 314-172 314-421 0-247-108-413-314-413-212 0-317 181-317 413 0 235 108 421 317 421" id="aD"/><path d="M537 14c-226 0-379-139-379-422v-710h180v695c0 172 97 275 253 275 160 0 281-109 281-300v-670h181V0H879v-209C806-46 684 14 537 14" id="aE"/><path d="M338-670V0H158v-1118h173l1 207c72-158 192-221 342-221 226 0 378 139 378 422V0H872v-695c0-172-96-275-252-275-161 0-282 109-282 300" id="aF"/><path d="M613 24c-304 0-509-231-509-576 0-350 205-580 509-580 216 0 392 114 453 309l-173 49c-33-115-133-197-280-197-223 0-326 196-326 419 0 220 103 415 326 415 150 0 252-85 285-206l172 49C1010-95 832 24 613 24" id="aG"/><path d="M158 0v-1118h174v172h12c41-113 157-188 290-188 26 0 70 2 91 3v181c-11-2-60-10-108-10-161 0-279 109-279 260V0H158" id="aH"/><g id="a"><use transform="matrix(0.009765625,0,0,0.009765625,0,0)" xlink:href="#aB"/><use transform="matrix(0.009765625,0,0,0.009765625,12.83203125,0)" xlink:href="#aC"/><use transform="matrix(0.009765625,0,0,0.009765625,24.4921875,0)" xlink:href="#aD"/><use transform="matrix(0.009765625,0,0,0.009765625,36.73828125,0)" xlink:href="#aE"/><use transform="matrix(0.009765625,0,0,0.009765625,48.564453125,0)" xlink:href="#aC"/><use transform="matrix(0.009765625,0,0,0.009765625,60.224609375,0)" xlink:href="#aF"/><use transform="matrix(0.009765625,0,0,0.009765625,72.041015625,0)" xlink:href="#aG"/><use transform="matrix(0.009765625,0,0,0.009765625,83.466796875,0)" xlink:href="#aC"/><use transform="matrix(0.009765625,0,0,0.009765625,95.126953125,0)" xlink:href="#aH"/></g><path d="M180 0v-1490h224l606 953c40 63 108 177 176 312-27-437-7-821-13-1265h190V0h-226C860-448 622-778 356-1262c27 476 11 792 15 1262H180" id="aI"/><path d="M598-1118v154H368v674c0 100 37 144 132 144 23 0 62-6 92-12L629-6c-37 13-88 20-134 20-193 0-307-107-307-290v-688H20v-154h168v-266h180v266h230" id="aJ"/><path d="M409 0L70-1118h191c89 329 165 560 243 925 75-353 154-601 240-925h192c85 325 161 564 235 922 77-354 157-598 244-922h191L1267 0h-179c-86-307-176-590-250-913C763-588 675-308 588 0H409" id="aK"/><path d="M613 24c-304 0-509-231-509-576 0-350 205-580 509-580 305 0 511 230 511 580 0 345-206 576-511 576zm0-161c226 0 329-195 329-415 0-222-103-419-329-419-223 0-326 196-326 419 0 220 103 415 326 415" id="aL"/><path d="M158 0v-1490h180v865h22l478-493h223L593-638 1096 0H865L456-523 338-412V0H158" id="aM"/><g id="b"><use transform="matrix(0.009765625,0,0,0.009765625,0,0)" xlink:href="#aI"/><use transform="matrix(0.009765625,0,0,0.009765625,15.068359375,0)" xlink:href="#aC"/><use transform="matrix(0.009765625,0,0,0.009765625,26.728515625,0)" xlink:href="#aJ"/><use transform="matrix(0.009765625,0,0,0.009765625,33.564453125,0)" xlink:href="#aK"/><use transform="matrix(0.009765625,0,0,0.009765625,49.5703125,0)" xlink:href="#aL"/><use transform="matrix(0.009765625,0,0,0.009765625,61.5625,0)" xlink:href="#aH"/><use transform="matrix(0.009765625,0,0,0.009765625,69.404296875,0)" xlink:href="#aM"/></g><path d="M677 24c-213 0-288-135-325-197h-20V0H158v-1490h180v551h14c37-59 106-193 324-193 279 0 474 222 474 576 0 356-194 580-473 580zm-27-161c209 0 317-186 317-421 0-232-105-413-317-413-206 0-314 166-314 413 0 249 111 421 314 421" id="aN"/><path d="M577 24c-279 0-473-224-473-580 0-354 195-576 474-576 218 0 287 134 324 193h14v-551h180V0H922v-173h-20C865-111 790 24 577 24zm27-161c203 0 314-172 314-421 0-247-108-413-314-413-212 0-317 181-317 413 0 235 108 421 317 421" id="aO"/><path d="M471 26C259 26 90-98 90-318c0-256 228-303 435-329 202-27 287-16 287-108 0-139-79-219-234-219-161 0-248 86-283 164l-173-57c86-203 278-265 451-265 150 0 419 46 419 395V0H815v-152h-12C765-73 660 26 471 26zm31-159c199 0 310-134 310-271v-155c-30 35-226 55-295 64-131 17-246 59-246 186 0 116 97 176 231 176" id="aP"/><path d="M140 405l46-156c120 36 205 19 263-150l32-93L54-1118h197c107 313 237 620 324 950 87-331 219-637 326-950h196L606 167c-68 178-176 259-334 259-64 0-113-12-132-21" id="aQ"/><g id="c"><use transform="matrix(0.009765625,0,0,0.009765625,0,0)" xlink:href="#aN"/><use transform="matrix(0.009765625,0,0,0.009765625,12.24609375,0)" xlink:href="#aL"/><use transform="matrix(0.009765625,0,0,0.009765625,24.23828125,0)" xlink:href="#aE"/><use transform="matrix(0.009765625,0,0,0.009765625,36.064453125,0)" xlink:href="#aF"/><use transform="matrix(0.009765625,0,0,0.009765625,47.880859375,0)" xlink:href="#aO"/><use transform="matrix(0.009765625,0,0,0.009765625,60.126953125,0)" xlink:href="#aP"/><use transform="matrix(0.009765625,0,0,0.009765625,71.357421875,0)" xlink:href="#aH"/><use transform="matrix(0.009765625,0,0,0.009765625,79.19921875,0)" xlink:href="#aQ"/></g><path d="M575 26C254 26 62-139 87-390h195c-13 168 129 246 305 246 202 0 370-106 400-265 38-202-254-238-427-293-212-68-349-179-316-387 40-252 276-421 566-421 289 0 487 168 458 396h-185c7-144-113-228-291-228-194 0-337 102-361 240-27 156 137 212 244 243l142 41c149 43 400 132 354 412-40 244-251 432-596 432" id="aR"/><path d="M443 14C219 14 87-123 134-408l117-710h180L317-423c-28 171 49 275 206 275s300-105 332-300l110-670h181L961 0H787l35-209C722-47 590 14 443 14" id="aS"/><path d="M592 24c-216 0-276-130-305-197h-18L239 0H65l247-1490h180l-92 551h15c51-63 134-193 344-193 246 0 401 170 401 447 0 348-211 709-568 709zm-24-161c267 0 411-296 411-543 0-170-78-291-250-291-269 0-405 284-405 542 0 177 81 292 244 292" id="aT"/><path d="M65 0l186-1118h175l-31 195c80-148 212-215 337-215 153 0 236 96 255 228 75-143 223-228 382-228 199 0 341 131 298 390L1543 0h-181l126-756c27-162-65-218-177-218-160 0-274 111-297 250L894 0H714l128-773c21-127-57-201-174-201-136 0-277 97-307 277L245 0H65" id="aU"/><path d="M66 0l185-1118h180L246 0H66zm307-1301c-71 0-117-55-106-119s74-119 145-119c65 0 117 50 106 118s-78 120-145 120" id="aV"/><path d="M691-1118l-25 154H437L325-290c-17 103 16 144 108 144 23 0 63-6 94-12L538-6c-36 12-87 20-136 20-196 0-290-109-260-290l114-688H88l25-154h169l44-266h180l-44 266h229" id="aW"/><g id="d"><use transform="matrix(0.008680555555555556,0,0,0.008680555555555556,0,0)" xlink:href="#aR"/><use transform="matrix(0.008680555555555556,0,0,0.008680555555555556,11.38888888888889,0)" xlink:href="#aS"/><use transform="matrix(0.008680555555555556,0,0,0.008680555555555556,21.90972222222222,0)" xlink:href="#aT"/><use transform="matrix(0.008680555555555556,0,0,0.008680555555555556,32.80381944444444,0)" xlink:href="#aU"/><use transform="matrix(0.008680555555555556,0,0,0.008680555555555556,48.376736111111114,0)" xlink:href="#aV"/><use transform="matrix(0.008680555555555556,0,0,0.008680555555555556,52.690972222222236,0)" xlink:href="#aW"/></g><path d="M66 0l185-1118h174l-28 172h12c78-136 219-209 411-185l-30 181c-211-47-398 67-428 250L246 0H66" id="aX"/><path d="M535 24C259 24 94-144 94-427c0-392 272-715 610-715 216 0 356 119 356 305 0 244-237 344-790 350-18 199 49 349 276 352 142 0 260-66 317-173l167 47C947-85 756 24 535 24zM294-623c447-4 586-57 586-218 0-85-78-141-194-141-220 0-342 177-392 359" id="aY"/><path d="M935 418H754l99-590h-16C786-98 698 24 492 24 248 24 94-147 94-425c0-352 212-707 569-707 221 0 280 140 310 204h10l32-190h175zM524-137c268 0 407-295 407-549 0-175-80-285-247-285-266 0-408 283-408 536 0 174 79 298 248 298" id="aZ"/><path d="M451 24C217 22 71-78 61-277l174-29c11 123 90 172 219 172 161 0 280-83 297-181 11-71-30-117-135-143l-179-44c-195-48-280-153-253-316 31-186 223-314 455-314 233 4 337 107 366 275l-165 30c-18-80-65-152-204-152-138 0-256 75-272 174-13 77 32 118 158 149l162 40c195 48 278 154 252 313C904-113 708 24 451 24" id="ba"/><g id="e"><use transform="matrix(0.008680555555555556,0,0,0.008680555555555556,0,0)" xlink:href="#aX"/><use transform="matrix(0.008680555555555556,0,0,0.008680555555555556,6.40625,0)" xlink:href="#aY"/><use transform="matrix(0.008680555555555556,0,0,0.008680555555555556,16.640625,0)" xlink:href="#aZ"/><use transform="matrix(0.008680555555555556,0,0,0.008680555555555556,27.534722222222218,0)" xlink:href="#aS"/><use transform="matrix(0.008680555555555556,0,0,0.008680555555555556,38.05555555555556,0)" xlink:href="#aY"/><use transform="matrix(0.008680555555555556,0,0,0.008680555555555556,48.28993055555556,0)" xlink:href="#ba"/><use transform="matrix(0.008680555555555556,0,0,0.008680555555555556,57.66493055555556,0)" xlink:href="#aW"/><use transform="matrix(0.008680555555555556,0,0,0.008680555555555556,63.32465277777778,0)" xlink:href="#ba"/></g><g id="f"><use transform="matrix(0.009765625,0,0,0.009765625,0,0)" xlink:href="#aB"/><use transform="matrix(0.009765625,0,0,0.009765625,12.83203125,0)" xlink:href="#aC"/><use transform="matrix(0.009765625,0,0,0.009765625,24.4921875,0)" xlink:href="#aD"/><use transform="matrix(0.009765625,0,0,0.009765625,36.73828125,0)" xlink:href="#aE"/><use transform="matrix(0.009765625,0,0,0.009765625,48.564453125,0)" xlink:href="#aC"/><use transform="matrix(0.009765625,0,0,0.009765625,60.224609375,0)" xlink:href="#aF"/><use transform="matrix(0.009765625,0,0,0.009765625,72.041015625,0)" xlink:href="#aG"/><use transform="matrix(0.009765625,0,0,0.009765625,83.466796875,0)" xlink:href="#aC"/><use transform="matrix(0.009765625,0,0,0.009765625,95.126953125,0)" xlink:href="#aH"/></g><path d="M338-1490V0H158v-1490h180" id="bb"/><path d="M158 0v-1118h180V0H158zm91-1301c-68 0-125-53-125-119s57-119 125-119c69 0 126 53 126 119s-57 119-126 119" id="bc"/><g id="g"><use transform="matrix(0.009765625,0,0,0.009765625,0,0)" xlink:href="#aG"/><use transform="matrix(0.009765625,0,0,0.009765625,11.42578125,0)" xlink:href="#bb"/><use transform="matrix(0.009765625,0,0,0.009765625,16.26953125,0)" xlink:href="#bc"/><use transform="matrix(0.009765625,0,0,0.009765625,21.11328125,0)" xlink:href="#aC"/><use transform="matrix(0.009765625,0,0,0.009765625,32.7734375,0)" xlink:href="#aF"/><use transform="matrix(0.009765625,0,0,0.009765625,44.58984375,0)" xlink:href="#aJ"/></g><path d="M218-607c0-325 108-727 258-974h175c-155 315-250 682-250 974 0 265 78 531 250 886H476C306-10 218-315 218-607" id="bd"/><path d="M180 0v-1490h510c348 0 508 209 508 474 0 266-160 477-507 477H370V0H180zm190-706h312c236 0 327-133 327-310 0-176-91-307-329-307H370v617" id="be"/><path d="M158 418v-1536h174v179h20c37-59 106-193 324-193 279 0 474 222 474 576 0 356-194 580-473 580-213 0-288-135-325-197h-14v591H158zm492-555c209 0 317-186 317-421 0-232-105-413-317-413-206 0-314 166-314 413 0 249 111 421 314 421" id="bf"/><path d="M128 359l88-567h206L266 359H128" id="bg"/><g id="h"><use transform="matrix(0.009765625,0,0,0.009765625,0,0)" xlink:href="#bd"/><use transform="matrix(0.009765625,0,0,0.009765625,7.294921875,0)" xlink:href="#be"/><use transform="matrix(0.009765625,0,0,0.009765625,20.068359375,0)" xlink:href="#aP"/><use transform="matrix(0.009765625,0,0,0.009765625,31.298828125,0)" xlink:href="#aH"/><use transform="matrix(0.009765625,0,0,0.009765625,39.140625,0)" xlink:href="#aJ"/><use transform="matrix(0.009765625,0,0,0.009765625,45.68359375,0)" xlink:href="#bc"/><use transform="matrix(0.009765625,0,0,0.009765625,50.52734375,0)" xlink:href="#aG"/><use transform="matrix(0.009765625,0,0,0.009765625,61.953125,0)" xlink:href="#bc"/><use transform="matrix(0.009765625,0,0,0.009765625,66.796875,0)" xlink:href="#bf"/><use transform="matrix(0.009765625,0,0,0.009765625,79.23828125,0)" xlink:href="#aP"/><use transform="matrix(0.009765625,0,0,0.009765625,90.46875,0)" xlink:href="#aF"/><use transform="matrix(0.009765625,0,0,0.009765625,102.28515625,0)" xlink:href="#aJ"/><use transform="matrix(0.009765625,0,0,0.009765625,108.828125,0)" xlink:href="#bg"/></g><path d="M180 0v-1490h270l367 940c28 72 75 218 110 339 35-117 81-264 110-339l362-940h271V0h-187c2-448-5-837 7-1287-157 497-311 829-483 1287H842C666-458 514-784 354-1284c12 438 5 843 7 1284H180" id="bh"/><path d="M96 279C273-86 346-350 346-607c0-292-95-659-250-974h175c150 246 258 650 258 974 0 297-91 602-258 886H96" id="bi"/><g id="i"><use transform="matrix(0.009765625,0,0,0.009765625,0,0)" xlink:href="#bh"/><use transform="matrix(0.009765625,0,0,0.009765625,18.06640625,0)" xlink:href="#aC"/><use transform="matrix(0.009765625,0,0,0.009765625,29.7265625,0)" xlink:href="#aO"/><use transform="matrix(0.009765625,0,0,0.009765625,41.97265625,0)" xlink:href="#bc"/><use transform="matrix(0.009765625,0,0,0.009765625,46.81640625,0)" xlink:href="#aP"/><use transform="matrix(0.009765625,0,0,0.009765625,58.046875,0)" xlink:href="#aJ"/><use transform="matrix(0.009765625,0,0,0.009765625,64.39453125,0)" xlink:href="#aL"/><use transform="matrix(0.009765625,0,0,0.009765625,76.38671875,0)" xlink:href="#aH"/><use transform="matrix(0.009765625,0,0,0.009765625,83.916015625,0)" xlink:href="#bi"/></g><path d="M87 0l247-1490h510c351 0 476 196 432 460-33 197-146 351-346 417L1163 0H943L728-579c-116 2-237 0-355 1L277 0H87zm314-747h311c238 0 346-110 375-283 31-185-52-293-281-293H496" id="bj"/><path d="M481 24C202 24 45-202 104-557s293-575 571-575c216 0 263 132 291 193h15l29-179h181L1006 0H831l28-173h-21C788-107 693 24 481 24zm56-161c204 0 342-174 383-422s-41-412-245-412c-215 0-350 183-388 412-39 235 39 422 250 422" id="bk"/><path d="M492 24C248 24 94-147 94-425c0-352 212-707 569-707 222 0 274 136 303 198h12l92-556h181L1004 0H829l30-173h-19C792-103 700 24 492 24zm32-161c268 0 407-295 407-549 0-175-80-285-247-285-266 0-408 283-408 536 0 174 79 298 248 298" id="bl"/><g id="j"><use transform="matrix(0.008680555555555556,0,0,0.008680555555555556,0,0)" xlink:href="#bj"/><use transform="matrix(0.008680555555555556,0,0,0.008680555555555556,11.180555555555559,0)" xlink:href="#aY"/><use transform="matrix(0.008680555555555556,0,0,0.008680555555555556,21.414930555555557,0)" xlink:href="#bk"/><use transform="matrix(0.008680555555555556,0,0,0.008680555555555556,32.32638888888889,0)" xlink:href="#bl"/></g><path d="M492-1490L245 0H65l247-1490h180" id="bm"/><path d="M528 24C258 24 94-156 94-433c0-355 229-699 603-699 270 0 436 178 436 458 0 359-234 698-605 698zm4-161c275 0 420-287 420-533 0-170-77-301-260-301-271 0-418 288-418 536 0 168 77 298 258 298" id="bn"/><path d="M528 24C258 24 94-156 94-433c0-354 228-699 603-699 222 0 381 120 410 314l-176 39c-14-114-95-192-238-192-272 0-419 288-419 536 0 167 76 298 258 298 155 0 277-90 329-211l166 58C935-93 745 24 528 24" id="bo"/><path d="M65 0l247-1490h180L349-625h22l559-493h223L606-638 1003 0H772L449-523 313-412 245 0H65" id="bp"/><g id="k"><use transform="matrix(0.008680555555555556,0,0,0.008680555555555556,0,0)" xlink:href="#aT"/><use transform="matrix(0.008680555555555556,0,0,0.008680555555555556,10.894097222222223,0)" xlink:href="#bm"/><use transform="matrix(0.008680555555555556,0,0,0.008680555555555556,15.199652777777779,0)" xlink:href="#bn"/><use transform="matrix(0.008680555555555556,0,0,0.008680555555555556,25.868055555555557,0)" xlink:href="#bo"/><use transform="matrix(0.008680555555555556,0,0,0.008680555555555556,36.032986111111114,0)" xlink:href="#bp"/><use transform="matrix(0.008680555555555556,0,0,0.008680555555555556,45.798611111111114,0)" xlink:href="#ba"/></g><path d="M87 0l247-1490h901l-28 167H496l-85 512h643l-27 167H384L277 0H87" id="bq"/><path d="M356-670L245 0H65l247-1490h180l-94 565c97-150 219-207 362-207 226 0 365 139 318 422L960 0H779l116-695c29-174-53-275-208-275-158 0-299 107-331 300" id="br"/><g id="l"><use transform="matrix(0.008680555555555556,0,0,0.008680555555555556,0,0)" xlink:href="#bq"/><use transform="matrix(0.008680555555555556,0,0,0.008680555555555556,9.791666666666668,0)" xlink:href="#aY"/><use transform="matrix(0.008680555555555556,0,0,0.008680555555555556,20.026041666666668,0)" xlink:href="#aW"/><use transform="matrix(0.008680555555555556,0,0,0.008680555555555556,25.685763888888893,0)" xlink:href="#bo"/><use transform="matrix(0.008680555555555556,0,0,0.008680555555555556,35.85069444444444,0)" xlink:href="#br"/></g><path d="M-4 418l255-1536h174l-30 179h9c47-68 143-193 355-193 246 0 401 170 401 447 0 348-211 709-568 709-219 0-274-140-300-202h-17l-99 596H-4zm572-555c267 0 411-296 411-543 0-170-78-291-250-291-269 0-405 284-405 542 0 177 81 292 244 292" id="bs"/><path d="M456 442C197 442 73 327 25 209l155-84c33 60 86 160 280 160 184 0 332-89 363-272l37-218-16 4C793-134 707-18 498-18 260-18 96-170 96-443c0-341 216-689 568-689 222 0 274 139 301 198l21-5 30-179h175L999 35c-48 288-275 407-543 407zm75-620c274 0 401-267 401-512 0-170-80-281-247-281-260 0-408 269-408 518 0 167 83 275 254 275" id="bt"/><g id="m"><use transform="matrix(0.008680555555555556,0,0,0.008680555555555556,0,0)" xlink:href="#aW"/><use transform="matrix(0.008680555555555556,0,0,0.008680555555555556,5.659722222222223,0)" xlink:href="#bn"/><use transform="matrix(0.008680555555555556,0,0,0.008680555555555556,16.328125,0)" xlink:href="#bs"/><use transform="matrix(0.008680555555555556,0,0,0.008680555555555556,27.222222222222218,0)" xlink:href="#bn"/><use transform="matrix(0.008680555555555556,0,0,0.008680555555555556,37.890625,0)" xlink:href="#bm"/><use transform="matrix(0.008680555555555556,0,0,0.008680555555555556,42.19618055555556,0)" xlink:href="#bn"/><use transform="matrix(0.008680555555555556,0,0,0.008680555555555556,52.864583333333336,0)" xlink:href="#bt"/><use transform="matrix(0.008680555555555556,0,0,0.008680555555555556,63.767361111111114,0)" xlink:href="#aV"/><use transform="matrix(0.008680555555555556,0,0,0.008680555555555556,68.08159722222223,0)" xlink:href="#aY"/><use transform="matrix(0.008680555555555556,0,0,0.008680555555555556,78.31597222222223,0)" xlink:href="#ba"/></g><path d="M87 0l247-1490h270l211 940c16 74 39 220 54 339 57-123 125-267 165-339l519-940h271L1577 0h-187c75-441 134-849 220-1287C1371-790 1163-459 914 0H749C649-458 553-779 473-1282 408-826 339-440 268 0H87" id="bu"/><g id="n"><use transform="matrix(0.009765625,0,0,0.009765625,0,0)" xlink:href="#bu"/><use transform="matrix(0.009765625,0,0,0.009765625,18.06640625,0)" xlink:href="#aY"/><use transform="matrix(0.009765625,0,0,0.009765625,29.580078125,0)" xlink:href="#ba"/><use transform="matrix(0.009765625,0,0,0.009765625,40.126953125,0)" xlink:href="#ba"/><use transform="matrix(0.009765625,0,0,0.009765625,50.673828125,0)" xlink:href="#bk"/><use transform="matrix(0.009765625,0,0,0.009765625,62.94921875,0)" xlink:href="#bt"/><use transform="matrix(0.009765625,0,0,0.009765625,75.21484375,0)" xlink:href="#aY"/><use transform="matrix(0.009765625,0,0,0.009765625,86.728515625,0)" xlink:href="#ba"/></g><g id="o"><use transform="matrix(0.009765625,0,0,0.009765625,0,0)" xlink:href="#br"/><use transform="matrix(0.009765625,0,0,0.009765625,11.826171875,0)" xlink:href="#aY"/><use transform="matrix(0.009765625,0,0,0.009765625,23.33984375,0)" xlink:href="#aX"/><use transform="matrix(0.009765625,0,0,0.009765625,30.546875,0)" xlink:href="#aY"/></g><path d="M356-664L245 0H65l186-1118h173l-32 197c96-152 219-211 366-211 232 0 366 145 319 428L960 0H779l117-701c29-174-48-269-198-269-165 0-310 115-342 306" id="bv"/><g id="p"><use transform="matrix(0.009765625,0,0,0.009765625,0,0)" xlink:href="#aS"/><use transform="matrix(0.009765625,0,0,0.009765625,11.8359375,0)" xlink:href="#bv"/><use transform="matrix(0.009765625,0,0,0.009765625,23.662109375,0)" xlink:href="#bl"/><use transform="matrix(0.009765625,0,0,0.009765625,35.91796875,0)" xlink:href="#aY"/><use transform="matrix(0.009765625,0,0,0.009765625,47.431640625,0)" xlink:href="#aX"/></g><path d="M87 0l247-1490h522c311 0 433 182 398 403-29 183-158 272-300 309v10c139 9 280 144 242 380C1160-164 988 0 639 0H87zm218-167h345c236 0 346-113 367-247 23-147-78-262-262-262H390zm111-669h323c157 0 307-105 334-265 21-124-42-222-237-222H497" id="bw"/><path d="M226-1323l28-167h1126l-28 167H885L666 0H476l219-1323H226" id="bx"/><g id="q"><use transform="matrix(0.009765625,0,0,0.009765625,0,0)" xlink:href="#bw"/><use transform="matrix(0.009765625,0,0,0.009765625,13.0859375,0)" xlink:href="#bq"/><use transform="matrix(0.009765625,0,0,0.009765625,24.892578125,0)" xlink:href="#bx"/></g><g id="r"><use transform="matrix(0.009765625,0,0,0.009765625,0,0)" xlink:href="#aW"/><use transform="matrix(0.009765625,0,0,0.009765625,6.5625,0)" xlink:href="#br"/><use transform="matrix(0.009765625,0,0,0.009765625,18.388671875,0)" xlink:href="#aX"/><use transform="matrix(0.009765625,0,0,0.009765625,25.595703125,0)" xlink:href="#aY"/><use transform="matrix(0.009765625,0,0,0.009765625,37.109375,0)" xlink:href="#bk"/><use transform="matrix(0.009765625,0,0,0.009765625,49.384765625,0)" xlink:href="#aW"/></g><path d="M211 13C134 13 76-52 90-134c12-70 77-122 143-122 81 0 133 67 122 143-10 69-73 126-144 126zm133-809c-77 0-135-65-121-147 12-70 77-122 143-122 81 0 133 67 122 143-10 69-73 126-144 126" id="by"/><g id="s"><use transform="matrix(0.009765625,0,0,0.009765625,0,0)" xlink:href="#aU"/><use transform="matrix(0.009765625,0,0,0.009765625,17.51953125,0)" xlink:href="#bn"/><use transform="matrix(0.009765625,0,0,0.009765625,29.521484375,0)" xlink:href="#bl"/><use transform="matrix(0.009765625,0,0,0.009765625,41.77734375,0)" xlink:href="#aY"/><use transform="matrix(0.009765625,0,0,0.009765625,53.291015625,0)" xlink:href="#bm"/><use transform="matrix(0.009765625,0,0,0.009765625,58.134765625,0)" xlink:href="#by"/></g><g id="t"><use transform="matrix(0.009765625,0,0,0.009765625,0,0)" xlink:href="#aU"/><use transform="matrix(0.009765625,0,0,0.009765625,17.51953125,0)" xlink:href="#aS"/><use transform="matrix(0.009765625,0,0,0.009765625,29.35546875,0)" xlink:href="#ba"/><use transform="matrix(0.009765625,0,0,0.009765625,39.90234375,0)" xlink:href="#aW"/></g><g id="u"><use transform="matrix(0.009765625,0,0,0.009765625,0,0)" xlink:href="#aT"/><use transform="matrix(0.009765625,0,0,0.009765625,12.255859375,0)" xlink:href="#aY"/></g><path d="M-19 405l72-156c121 32 203 15 288-150l47-93-241-1124h188c55 313 135 616 167 950 142-329 324-636 483-950h205L486 167c-97 177-219 259-378 259-59 0-109-11-127-21" id="bz"/><g id="v"><use transform="matrix(0.009765625,0,0,0.009765625,0,0)" xlink:href="#bl"/><use transform="matrix(0.009765625,0,0,0.009765625,12.255859375,0)" xlink:href="#aV"/><use transform="matrix(0.009765625,0,0,0.009765625,17.109375,0)" xlink:href="#bt"/><use transform="matrix(0.009765625,0,0,0.009765625,29.375,0)" xlink:href="#aV"/><use transform="matrix(0.009765625,0,0,0.009765625,34.228515625,0)" xlink:href="#aW"/><use transform="matrix(0.009765625,0,0,0.009765625,40.595703125,0)" xlink:href="#bk"/><use transform="matrix(0.009765625,0,0,0.009765625,52.87109375,0)" xlink:href="#bm"/><use transform="matrix(0.009765625,0,0,0.009765625,57.71484375,0)" xlink:href="#bm"/><use transform="matrix(0.009765625,0,0,0.009765625,62.65625,0)" xlink:href="#bz"/></g><g id="w"><use transform="matrix(0.009765625,0,0,0.009765625,0,0)" xlink:href="#ba"/><use transform="matrix(0.009765625,0,0,0.009765625,10.546875,0)" xlink:href="#aV"/><use transform="matrix(0.009765625,0,0,0.009765625,15.400390625,0)" xlink:href="#bt"/><use transform="matrix(0.009765625,0,0,0.009765625,27.666015625,0)" xlink:href="#bv"/><use transform="matrix(0.009765625,0,0,0.009765625,39.4921875,0)" xlink:href="#aY"/><use transform="matrix(0.009765625,0,0,0.009765625,51.005859375,0)" xlink:href="#bl"/></g><g id="x"><use transform="matrix(0.009765625,0,0,0.009765625,0,0)" xlink:href="#aR"/><use transform="matrix(0.009765625,0,0,0.009765625,12.8125,0)" xlink:href="#aV"/><use transform="matrix(0.009765625,0,0,0.009765625,17.666015625,0)" xlink:href="#bv"/><use transform="matrix(0.009765625,0,0,0.009765625,29.4921875,0)" xlink:href="#bt"/><use transform="matrix(0.009765625,0,0,0.009765625,41.7578125,0)" xlink:href="#bm"/><use transform="matrix(0.009765625,0,0,0.009765625,46.6015625,0)" xlink:href="#aY"/></g><g id="y"><use transform="matrix(0.009765625,0,0,0.009765625,0,0)" xlink:href="#bs"/><use transform="matrix(0.009765625,0,0,0.009765625,12.255859375,0)" xlink:href="#aX"/><use transform="matrix(0.009765625,0,0,0.009765625,19.462890625,0)" xlink:href="#bn"/><use transform="matrix(0.009765625,0,0,0.009765625,31.46484375,0)" xlink:href="#bo"/><use transform="matrix(0.009765625,0,0,0.009765625,42.900390625,0)" xlink:href="#aY"/><use transform="matrix(0.009765625,0,0,0.009765625,54.4140625,0)" xlink:href="#ba"/><use transform="matrix(0.009765625,0,0,0.009765625,64.9609375,0)" xlink:href="#ba"/></g><path d="M226-608c54-324 228-726 419-973h175c-209 318-363 684-411 972-44 264-11 530 103 888H337C213-15 178-320 226-608" id="bA"/><g id="z"><use transform="matrix(0.009765625,0,0,0.009765625,0,0)" xlink:href="#bA"/><use transform="matrix(0.009765625,0,0,0.009765625,7.294921875,0)" xlink:href="#aV"/><use transform="matrix(0.009765625,0,0,0.009765625,12.1484375,0)" xlink:href="#bv"/></g><g id="A"><use transform="matrix(0.009765625,0,0,0.009765625,0,0)" xlink:href="#aW"/><use transform="matrix(0.009765625,0,0,0.009765625,6.5625,0)" xlink:href="#br"/><use transform="matrix(0.009765625,0,0,0.009765625,18.388671875,0)" xlink:href="#aY"/></g><path d="M458 20C225 20 70-106 70-332c0-30 3-61 21-174h190c-17 104-19 127-19 149 0 136 82 210 215 210 149 0 269-93 300-279l177-1064h190L967-426C920-143 723 20 458 20" id="bB"/><path d="M507 0L206-1490h200c85 478 172 817 237 1337 237-524 428-852 670-1337h202L726 0H507" id="bC"/><path d="M-43 280C186-71 310-340 354-607c48-291 15-654-89-973h176c108 246 149 649 95 974-48 289-184 595-403 886H-43" id="bD"/><g id="B"><use transform="matrix(0.009765625,0,0,0.009765625,0,0)" xlink:href="#bB"/><use transform="matrix(0.009765625,0,0,0.009765625,11.416015625,0)" xlink:href="#bC"/><use transform="matrix(0.009765625,0,0,0.009765625,25.21484375,0)" xlink:href="#bu"/><use transform="matrix(0.009765625,0,0,0.009765625,43.28125,0)" xlink:href="#bD"/><use transform="matrix(0.009765625,0,0,0.009765625,50.56640625,0)" xlink:href="#by"/></g><path d="M292-923l72-567h194L443-923H292zm340 0l72-567h194L783-923H632" id="bE"/><g id="C"><use transform="matrix(0.009765625,0,0,0.009765625,0,0)" xlink:href="#bE"/><use transform="matrix(0.009765625,0,0,0.009765625,9.31640625,0)" xlink:href="#ba"/><use transform="matrix(0.009765625,0,0,0.009765625,19.86328125,0)" xlink:href="#br"/><use transform="matrix(0.009765625,0,0,0.009765625,31.689453125,0)" xlink:href="#bk"/><use transform="matrix(0.009765625,0,0,0.009765625,43.96484375,0)" xlink:href="#aX"/><use transform="matrix(0.009765625,0,0,0.009765625,51.171875,0)" xlink:href="#aY"/><use transform="matrix(0.009765625,0,0,0.009765625,62.685546875,0)" xlink:href="#bl"/></g><path d="M780-1118l-24 146H497L317 116C281 334 148 448-56 448c-43 0-82-5-117-17l45-161c143 34 239 0 264-153L316-972H89l24-146h227l13-77c43-287 254-417 541-345l-50 154c-23-5-81-8-121-8-107 0-167 63-189 196l-13 80h259" id="bF"/><g id="D"><use transform="matrix(0.009765625,0,0,0.009765625,0,0)" xlink:href="#bF"/><use transform="matrix(0.009765625,0,0,0.009765625,6.875,0)" xlink:href="#bk"/><use transform="matrix(0.009765625,0,0,0.009765625,19.150390625,0)" xlink:href="#aW"/><use transform="matrix(0.009765625,0,0,0.009765625,25.517578125,0)" xlink:href="#aY"/></g><g id="E"><use transform="matrix(0.009765625,0,0,0.009765625,0,0)" xlink:href="#aU"/><use transform="matrix(0.009765625,0,0,0.009765625,17.51953125,0)" xlink:href="#bn"/><use transform="matrix(0.009765625,0,0,0.009765625,29.521484375,0)" xlink:href="#bl"/><use transform="matrix(0.009765625,0,0,0.009765625,41.77734375,0)" xlink:href="#aY"/><use transform="matrix(0.009765625,0,0,0.009765625,53.291015625,0)" xlink:href="#bm"/><use transform="matrix(0.009765625,0,0,0.009765625,58.134765625,0)" xlink:href="#bE"/></g><path d="M180 0v-1490h528c311 0 458 177 458 395 0 191-114 278-244 313v14c139 9 302 137 302 371 0 225-148 397-499 397H180zm190-168h350c232 0 321-102 321-231 0-149-120-277-311-277H370v508zm0-668h328c160 0 286-101 286-255 0-129-87-231-280-231H370v486" id="bG"/><path d="M180 0v-1490h901v168H370v510h643v168H370V0H180" id="bH"/><path d="M98-1322v-168h1126v168H757V0H567v-1322H98" id="bI"/><g id="F"><use transform="matrix(0.009765625,0,0,0.009765625,0,0)" xlink:href="#bG"/><use transform="matrix(0.009765625,0,0,0.009765625,13.0859375,0)" xlink:href="#bH"/><use transform="matrix(0.009765625,0,0,0.009765625,24.892578125,0)" xlink:href="#bI"/></g><path d="M784 20c-382 0-662-292-662-764 0-473 280-766 662-766s660 293 660 766c0 472-278 764-660 764zm0-176c266 0 475-207 475-588 0-383-209-590-475-590-268 0-477 208-477 590 0 380 209 588 477 588" id="bJ"/><g id="G"><use transform="matrix(0.009765625,0,0,0.009765625,0,0)" xlink:href="#bJ"/><use transform="matrix(0.009765625,0,0,0.009765625,15.29296875,0)" xlink:href="#aH"/><use transform="matrix(0.009765625,0,0,0.009765625,22.490234375,0)" xlink:href="#aO"/><use transform="matrix(0.009765625,0,0,0.009765625,34.736328125,0)" xlink:href="#aC"/><use transform="matrix(0.009765625,0,0,0.009765625,46.396484375,0)" xlink:href="#aH"/><use transform="matrix(0.009765625,0,0,0.009765625,53.59375,0)" xlink:href="#aC"/><use transform="matrix(0.009765625,0,0,0.009765625,65.25390625,0)" xlink:href="#aH"/></g><path d="M538 24C308 24 148-78 108-271l171-41c32 123 123 178 257 178 156 0 256-77 256-169 0-77-54-128-164-154l-186-44c-203-48-300-148-300-305 0-192 176-326 414-326 230 0 351 112 402 269l-163 42c-31-80-94-158-238-158-133 0-233 69-233 162 0 83 57 129 188 160l169 40c203 48 298 149 298 302 0 196-179 339-441 339" id="bK"/><path d="M338-670V0H158v-1490h180v566c73-149 190-208 336-208 226 0 379 139 379 422V0H872v-695c0-172-96-275-252-275-161 0-282 109-282 300" id="bL"/><g id="H"><use transform="matrix(0.009765625,0,0,0.009765625,0,0)" xlink:href="#aB"/><use transform="matrix(0.009765625,0,0,0.009765625,12.83203125,0)" xlink:href="#aF"/><use transform="matrix(0.009765625,0,0,0.009765625,24.6484375,0)" xlink:href="#aP"/><use transform="matrix(0.009765625,0,0,0.009765625,35.87890625,0)" xlink:href="#bf"/><use transform="matrix(0.009765625,0,0,0.009765625,48.125,0)" xlink:href="#bK"/><use transform="matrix(0.009765625,0,0,0.009765625,58.681640625,0)" xlink:href="#bL"/><use transform="matrix(0.009765625,0,0,0.009765625,70.5078125,0)" xlink:href="#aL"/><use transform="matrix(0.009765625,0,0,0.009765625,82.5,0)" xlink:href="#aJ"/></g><g id="I"><use transform="matrix(0.009765625,0,0,0.009765625,0,0)" xlink:href="#bJ"/><use transform="matrix(0.009765625,0,0,0.009765625,15.29296875,0)" xlink:href="#aE"/><use transform="matrix(0.009765625,0,0,0.009765625,27.119140625,0)" xlink:href="#aJ"/></g><path d="M370-1490V0H180v-1490h190" id="bM"/><g id="J"><use transform="matrix(0.009765625,0,0,0.009765625,0,0)" xlink:href="#bM"/><use transform="matrix(0.009765625,0,0,0.009765625,5.37109375,0)" xlink:href="#aF"/></g><g id="K"><use transform="matrix(0.008680555555555556,0,0,0.008680555555555556,0,0)" xlink:href="#aB"/><use transform="matrix(0.008680555555555556,0,0,0.008680555555555556,11.40625,0)" xlink:href="#bL"/><use transform="matrix(0.008680555555555556,0,0,0.008680555555555556,21.91840277777778,0)" xlink:href="#aP"/><use transform="matrix(0.008680555555555556,0,0,0.008680555555555556,31.901041666666668,0)" xlink:href="#aH"/><use transform="matrix(0.008680555555555556,0,0,0.008680555555555556,38.298611111111114,0)" xlink:href="#aC"/><use transform="matrix(0.008680555555555556,0,0,0.008680555555555556,48.66319444444445,0)" xlink:href="#aO"/></g><g id="L"><use transform="matrix(0.008680555555555556,0,0,0.008680555555555556,0,0)" xlink:href="#aO"/><use transform="matrix(0.008680555555555556,0,0,0.008680555555555556,10.885416666666668,0)" xlink:href="#aP"/><use transform="matrix(0.008680555555555556,0,0,0.008680555555555556,20.868055555555557,0)" xlink:href="#aJ"/><use transform="matrix(0.008680555555555556,0,0,0.008680555555555556,26.770833333333336,0)" xlink:href="#aP"/><use transform="matrix(0.008680555555555556,0,0,0.008680555555555556,36.75347222222223,0)" xlink:href="#aN"/><use transform="matrix(0.008680555555555556,0,0,0.008680555555555556,47.81250000000002,0)" xlink:href="#aP"/><use transform="matrix(0.008680555555555556,0,0,0.008680555555555556,57.7951388888889,0)" xlink:href="#bK"/><use transform="matrix(0.008680555555555556,0,0,0.008680555555555556,67.17881944444446,0)" xlink:href="#aC"/></g><g id="M"><use transform="matrix(0.009765625,0,0,0.009765625,0,0)" xlink:href="#aI"/><use transform="matrix(0.009765625,0,0,0.009765625,15.068359375,0)" xlink:href="#aC"/><use transform="matrix(0.009765625,0,0,0.009765625,26.728515625,0)" xlink:href="#aJ"/><use transform="matrix(0.009765625,0,0,0.009765625,33.564453125,0)" xlink:href="#aK"/><use transform="matrix(0.009765625,0,0,0.009765625,49.5703125,0)" xlink:href="#aL"/><use transform="matrix(0.009765625,0,0,0.009765625,61.5625,0)" xlink:href="#aH"/><use transform="matrix(0.009765625,0,0,0.009765625,69.404296875,0)" xlink:href="#aM"/></g><g id="N"><use transform="matrix(0.009765625,0,0,0.009765625,0,0)" xlink:href="#aN"/><use transform="matrix(0.009765625,0,0,0.009765625,12.24609375,0)" xlink:href="#aL"/><use transform="matrix(0.009765625,0,0,0.009765625,24.23828125,0)" xlink:href="#aE"/><use transform="matrix(0.009765625,0,0,0.009765625,36.064453125,0)" xlink:href="#aF"/><use transform="matrix(0.009765625,0,0,0.009765625,47.880859375,0)" xlink:href="#aO"/><use transform="matrix(0.009765625,0,0,0.009765625,60.126953125,0)" xlink:href="#aP"/><use transform="matrix(0.009765625,0,0,0.009765625,71.357421875,0)" xlink:href="#aH"/><use transform="matrix(0.009765625,0,0,0.009765625,79.19921875,0)" xlink:href="#aQ"/></g><g id="O"><use transform="matrix(0.008680555555555556,0,0,0.008680555555555556,0,0)" xlink:href="#aB"/><use transform="matrix(0.008680555555555556,0,0,0.008680555555555556,11.40625,0)" xlink:href="#bL"/><use transform="matrix(0.008680555555555556,0,0,0.008680555555555556,21.91840277777778,0)" xlink:href="#aP"/><use transform="matrix(0.008680555555555556,0,0,0.008680555555555556,31.901041666666668,0)" xlink:href="#aH"/><use transform="matrix(0.008680555555555556,0,0,0.008680555555555556,38.298611111111114,0)" xlink:href="#aC"/><use transform="matrix(0.008680555555555556,0,0,0.008680555555555556,48.66319444444445,0)" xlink:href="#aO"/></g><g id="P"><use transform="matrix(0.008680555555555556,0,0,0.008680555555555556,0,0)" xlink:href="#aO"/><use transform="matrix(0.008680555555555556,0,0,0.008680555555555556,10.885416666666668,0)" xlink:href="#aP"/><use transform="matrix(0.008680555555555556,0,0,0.008680555555555556,20.868055555555557,0)" xlink:href="#aJ"/><use transform="matrix(0.008680555555555556,0,0,0.008680555555555556,26.770833333333336,0)" xlink:href="#aP"/><use transform="matrix(0.008680555555555556,0,0,0.008680555555555556,36.75347222222223,0)" xlink:href="#aN"/><use transform="matrix(0.008680555555555556,0,0,0.008680555555555556,47.81250000000002,0)" xlink:href="#aP"/><use transform="matrix(0.008680555555555556,0,0,0.008680555555555556,57.7951388888889,0)" xlink:href="#bK"/><use transform="matrix(0.008680555555555556,0,0,0.008680555555555556,67.17881944444446,0)" xlink:href="#aC"/></g><path d="M763 24c-353 0-583-224-583-531v-983h190v968c0 214 149 370 393 370 243 0 391-156 391-370v-968h190v983c0 307-230 531-581 531" id="bN"/><g id="Q"><use transform="matrix(0.009765625,0,0,0.009765625,0,0)" xlink:href="#bN"/><use transform="matrix(0.009765625,0,0,0.009765625,14.8828125,0)" xlink:href="#aF"/><use transform="matrix(0.009765625,0,0,0.009765625,26.69921875,0)" xlink:href="#bc"/><use transform="matrix(0.009765625,0,0,0.009765625,31.54296875,0)" xlink:href="#aO"/><use transform="matrix(0.009765625,0,0,0.009765625,43.7890625,0)" xlink:href="#bc"/><use transform="matrix(0.009765625,0,0,0.009765625,48.6328125,0)" xlink:href="#aH"/><use transform="matrix(0.009765625,0,0,0.009765625,55.830078125,0)" xlink:href="#aC"/><use transform="matrix(0.009765625,0,0,0.009765625,67.490234375,0)" xlink:href="#aG"/><use transform="matrix(0.009765625,0,0,0.009765625,78.916015625,0)" xlink:href="#aJ"/><use transform="matrix(0.009765625,0,0,0.009765625,85.458984375,0)" xlink:href="#bc"/><use transform="matrix(0.009765625,0,0,0.009765625,90.302734375,0)" xlink:href="#aL"/><use transform="matrix(0.009765625,0,0,0.009765625,102.294921875,0)" xlink:href="#aF"/><use transform="matrix(0.009765625,0,0,0.009765625,114.111328125,0)" xlink:href="#aP"/><use transform="matrix(0.009765625,0,0,0.009765625,125.341796875,0)" xlink:href="#bb"/></g><path d="M295 13c-75 0-135-60-135-135s60-135 135-135 135 60 135 135S370 13 295 13zm0-809c-75 0-135-60-135-135s60-135 135-135 135 60 135 135-60 135-135 135" id="bO"/><g id="R"><use transform="matrix(0.009765625,0,0,0.009765625,0,0)" xlink:href="#aG"/><use transform="matrix(0.009765625,0,0,0.009765625,11.42578125,0)" xlink:href="#aL"/><use transform="matrix(0.009765625,0,0,0.009765625,23.41796875,0)" xlink:href="#aF"/><use transform="matrix(0.009765625,0,0,0.009765625,35.234375,0)" xlink:href="#aF"/><use transform="matrix(0.009765625,0,0,0.009765625,47.05078125,0)" xlink:href="#aC"/><use transform="matrix(0.009765625,0,0,0.009765625,58.7109375,0)" xlink:href="#aG"/><use transform="matrix(0.009765625,0,0,0.009765625,70.13671875,0)" xlink:href="#aJ"/><use transform="matrix(0.009765625,0,0,0.009765625,76.6796875,0)" xlink:href="#bc"/><use transform="matrix(0.009765625,0,0,0.009765625,81.5234375,0)" xlink:href="#aL"/><use transform="matrix(0.009765625,0,0,0.009765625,93.515625,0)" xlink:href="#aF"/><use transform="matrix(0.009765625,0,0,0.009765625,105.33203125,0)" xlink:href="#bK"/><use transform="matrix(0.009765625,0,0,0.009765625,115.888671875,0)" xlink:href="#bO"/></g><path d="M611 442c-248 0-391-105-460-228l146-94c47 65 117 165 314 165 178 0 307-82 307-266v-224h-17C863-141 792-18 576-18c-268 0-472-195-472-546 0-346 197-568 476-568 216 0 288 133 326 193h17v-179h175V29c0 289-215 413-487 413zm-5-620c203 0 314-146 314-390 0-237-108-403-314-403-213 0-319 180-319 403 0 230 109 390 319 390" id="bP"/><path d="M180 0v-1490h510c348 0 508 194 508 460 0 198-88 351-276 417L1256 0h-220L726-579c-117 2-238 0-356 1V0H180zm190-747h312c235 0 327-108 327-283 0-177-92-293-329-293H370v576" id="bQ"/><path d="M783 20c-382 0-661-292-661-764 0-473 279-766 661-766 302 0 548 182 601 489h-190c-42-204-217-313-411-313-268 0-476 208-476 590 0 381 209 588 476 588 195 0 369-110 411-313h190c-52 303-296 489-601 489" id="bR"/><g id="S"><use transform="matrix(0.009765625,0,0,0.009765625,0,0)" xlink:href="#bP"/><use transform="matrix(0.009765625,0,0,0.009765625,12.265625,0)" xlink:href="#bQ"/><use transform="matrix(0.009765625,0,0,0.009765625,25.13671875,0)" xlink:href="#be"/><use transform="matrix(0.009765625,0,0,0.009765625,37.91015625,0)" xlink:href="#bR"/></g><path d="M158 0v-1118h175l1 205c55-151 181-225 313-225 147 0 245 90 285 228 53-141 190-228 352-228 194 0 352 125 352 384V0h-181v-749c0-161-105-225-225-225-151 0-243 103-243 244V0H807v-767c0-124-93-207-219-207-131 0-250 92-250 270V0H158" id="bS"/><g id="T"><use transform="matrix(0.009765625,0,0,0.009765625,0,0)" xlink:href="#bK"/><use transform="matrix(0.009765625,0,0,0.009765625,10.556640625,0)" xlink:href="#aJ"/><use transform="matrix(0.009765625,0,0,0.009765625,17.099609375,0)" xlink:href="#aH"/><use transform="matrix(0.009765625,0,0,0.009765625,24.296875,0)" xlink:href="#aC"/><use transform="matrix(0.009765625,0,0,0.009765625,36.15234375,0)" xlink:href="#aP"/><use transform="matrix(0.009765625,0,0,0.009765625,47.3828125,0)" xlink:href="#bS"/></g><g id="U"><use transform="matrix(0.009765625,0,0,0.009765625,0,0)" xlink:href="#aK"/><use transform="matrix(0.009765625,0,0,0.009765625,16.3671875,0)" xlink:href="#bc"/><use transform="matrix(0.009765625,0,0,0.009765625,21.2109375,0)" xlink:href="#aJ"/><use transform="matrix(0.009765625,0,0,0.009765625,27.75390625,0)" xlink:href="#bL"/></g><path d="M180 0v-1490h190v1322h690V0H180" id="bT"/><g id="V"><use transform="matrix(0.009765625,0,0,0.009765625,0,0)" xlink:href="#bI"/><use transform="matrix(0.009765625,0,0,0.009765625,12.91015625,0)" xlink:href="#bT"/><use transform="matrix(0.009765625,0,0,0.009765625,24.21875,0)" xlink:href="#aB"/></g><g id="W"><use transform="matrix(0.009765625,0,0,0.009765625,0,0)" xlink:href="#aI"/><use transform="matrix(0.009765625,0,0,0.009765625,15.068359375,0)" xlink:href="#aL"/><use transform="matrix(0.009765625,0,0,0.009765625,27.060546875,0)" xlink:href="#aO"/><use transform="matrix(0.009765625,0,0,0.009765625,39.306640625,0)" xlink:href="#aC"/></g><g id="X"><use transform="matrix(0.009765625,0,0,0.009765625,0,0)" xlink:href="#aP"/><use transform="matrix(0.009765625,0,0,0.009765625,11.23046875,0)" xlink:href="#aO"/><use transform="matrix(0.009765625,0,0,0.009765625,23.4765625,0)" xlink:href="#bS"/><use transform="matrix(0.009765625,0,0,0.009765625,40.99609375,0)" xlink:href="#bc"/><use transform="matrix(0.009765625,0,0,0.009765625,45.83984375,0)" xlink:href="#aF"/><use transform="matrix(0.009765625,0,0,0.009765625,57.65625,0)" xlink:href="#bc"/><use transform="matrix(0.009765625,0,0,0.009765625,62.5,0)" xlink:href="#bK"/><use transform="matrix(0.009765625,0,0,0.009765625,73.056640625,0)" xlink:href="#aJ"/><use transform="matrix(0.009765625,0,0,0.009765625,79.599609375,0)" xlink:href="#aH"/><use transform="matrix(0.009765625,0,0,0.009765625,87.12890625,0)" xlink:href="#aP"/><use transform="matrix(0.009765625,0,0,0.009765625,98.359375,0)" xlink:href="#aJ"/><use transform="matrix(0.009765625,0,0,0.009765625,104.70703125,0)" xlink:href="#aL"/><use transform="matrix(0.009765625,0,0,0.009765625,116.69921875,0)" xlink:href="#aH"/></g><g id="Y"><use transform="matrix(0.009765625,0,0,0.009765625,0,0)" xlink:href="#bd"/><use transform="matrix(0.009765625,0,0,0.009765625,7.294921875,0)" xlink:href="#aJ"/><use transform="matrix(0.009765625,0,0,0.009765625,13.837890625,0)" xlink:href="#aH"/><use transform="matrix(0.009765625,0,0,0.009765625,21.3671875,0)" xlink:href="#aE"/><use transform="matrix(0.009765625,0,0,0.009765625,33.193359375,0)" xlink:href="#bK"/><use transform="matrix(0.009765625,0,0,0.009765625,43.75,0)" xlink:href="#aJ"/><use transform="matrix(0.009765625,0,0,0.009765625,50.09765625,0)" xlink:href="#aC"/><use transform="matrix(0.009765625,0,0,0.009765625,61.7578125,0)" xlink:href="#aO"/><use transform="matrix(0.009765625,0,0,0.009765625,74.00390625,0)" xlink:href="#bi"/></g><path d="M135 0v-1490h581c339 0 533 192 533 485 0 204-94 351-264 424L1302 0H964L680-532H440V0H135zm305-779h220c186 0 274-77 274-226 0-150-88-233-275-233H440v459" id="bU"/><path d="M633 22C291 22 81-200 81-553c0-345 210-579 537-579 292 0 525 185 525 567v84H378c7 183 109 277 260 277 105 0 184-46 216-132l272 51C1071-99 893 22 633 22zM380-669h474c-15-146-94-237-233-237-143 0-229 99-241 237" id="bV"/><path d="M128 0v-1118h278l12 217c60-163 185-234 319-234 143 0 236 81 288 251 63-172 205-251 359-251 205 0 357 138 357 381V0h-301v-697c0-126-76-187-177-187-114 0-184 79-184 196V0H789v-705c0-109-72-179-174-179-106 0-187 74-187 208V0H128" id="bW"/><path d="M628 22C291 22 81-210 81-554c0-346 210-578 547-578 336 0 547 232 547 578 0 344-211 576-547 576zm0-236c160 0 242-146 242-341 0-197-82-341-242-341S387-753 387-555c0 195 81 341 241 341" id="bX"/><path d="M683-1118v229H474v562c0 71 29 104 102 104 23 0 73-7 95-13l43 225C647 9 580 16 520 16 296 16 174-96 174-301v-588H20v-229h154v-266h300v266h209" id="bY"/><g id="Z"><use transform="matrix(0.013020833333333334,0,0,0.013020833333333334,0,0)" xlink:href="#bU"/><use transform="matrix(0.013020833333333334,0,0,0.013020833333333334,17.187500000000004,0)" xlink:href="#bV"/><use transform="matrix(0.013020833333333334,0,0,0.013020833333333334,33.07291666666667,0)" xlink:href="#bW"/><use transform="matrix(0.013020833333333334,0,0,0.013020833333333334,57.40885416666667,0)" xlink:href="#bX"/><use transform="matrix(0.013020833333333334,0,0,0.013020833333333334,73.76302083333334,0)" xlink:href="#bY"/><use transform="matrix(0.013020833333333334,0,0,0.013020833333333334,83.26822916666667,0)" xlink:href="#bV"/></g><path d="M128 418v-1536h295v188h14c41-89 129-202 319-202 248 0 453 193 453 575 0 372-197 576-455 576-183 0-275-108-317-198h-9v597H128zm534-640c156 0 240-139 240-336 0-196-83-334-240-334-154 0-241 131-241 334 0 202 88 336 241 336" id="bZ"/><path d="M128 0v-1118h290v195h12c54-169 184-238 367-200v268c-27-8-86-15-130-15-138 0-239 95-239 234V0H128" id="ca"/><g id="aa"><use transform="matrix(0.013020833333333334,0,0,0.013020833333333334,0,0)" xlink:href="#bZ"/><use transform="matrix(0.013020833333333334,0,0,0.013020833333333334,16.809895833333336,0)" xlink:href="#bV"/><use transform="matrix(0.013020833333333334,0,0,0.013020833333333334,32.6953125,0)" xlink:href="#bV"/><use transform="matrix(0.013020833333333334,0,0,0.013020833333333334,48.58072916666667,0)" xlink:href="#ca"/></g><path d="M428-647V0H128v-1118h283l4 231c63-156 176-245 348-245 232 0 384 159 384 421V0H847v-659c0-139-76-222-202-222-128 0-217 86-217 234" id="cb"/><path d="M537 19C279 19 81-185 81-557c0-382 206-575 454-575 190 0 278 113 318 202h10v-560h300V0H868v-179h-15C812-89 719 19 537 19zm92-241c153 0 240-134 240-336 0-203-86-334-240-334-158 0-240 138-240 334 0 197 84 336 240 336" id="cc"/><g id="ab"><use transform="matrix(0.013020833333333334,0,0,0.013020833333333334,0,0)" xlink:href="#cb"/><use transform="matrix(0.013020833333333334,0,0,0.013020833333333334,16.6015625,0)" xlink:href="#bX"/><use transform="matrix(0.013020833333333334,0,0,0.013020833333333334,32.95572916666667,0)" xlink:href="#cc"/><use transform="matrix(0.013020833333333334,0,0,0.013020833333333334,49.76562500000001,0)" xlink:href="#bV"/></g><path d="M135 0v-1490h305v1237h643V0H135" id="cd"/><path d="M628 22C291 22 81-210 81-554c0-346 210-578 547-578 265 0 455 142 497 372l-279 52c-25-116-99-188-215-188-160 0-244 139-244 341 0 200 84 341 244 341 116 0 193-74 217-195l279 51C1085-123 896 22 628 22" id="ce"/><path d="M440 22C227 22 68-92 68-313c0-250 202-322 422-343 195-21 271-24 271-105 0-95-63-149-175-149-116 0-187 57-211 129l-275-46c57-194 237-305 487-305 240 0 474 108 474 379V0H777v-155h-10C713-51 605 22 440 22zm85-211c140 0 238-93 238-211v-121c-37 26-156 42-222 51-111 16-185 59-185 149 0 87 70 132 169 132" id="cf"/><path d="M428-1490V0H128v-1490h300" id="cg"/><g id="ac"><use transform="matrix(0.013020833333333334,0,0,0.013020833333333334,0,0)" xlink:href="#cd"/><use transform="matrix(0.013020833333333334,0,0,0.013020833333333334,15.078125,0)" xlink:href="#bX"/><use transform="matrix(0.013020833333333334,0,0,0.013020833333333334,31.432291666666668,0)" xlink:href="#ce"/><use transform="matrix(0.013020833333333334,0,0,0.013020833333333334,47.3828125,0)" xlink:href="#cf"/><use transform="matrix(0.013020833333333334,0,0,0.013020833333333334,62.864583333333336,0)" xlink:href="#cg"/></g><g id="ad"><use transform="matrix(0.013020833333333334,0,0,0.013020833333333334,0,0)" xlink:href="#cb"/><use transform="matrix(0.013020833333333334,0,0,0.013020833333333334,16.6015625,0)" xlink:href="#bX"/><use transform="matrix(0.013020833333333334,0,0,0.013020833333333334,32.95572916666667,0)" xlink:href="#cc"/><use transform="matrix(0.013020833333333334,0,0,0.013020833333333334,49.76562500000001,0)" xlink:href="#bV"/></g><path d="M52 0l541-1490h220L1361 0h-200l-149-416H398L254 0H52zm404-582h497c-103-290-145-390-251-756-108 377-145 460-246 756" id="ch"/><g id="ae"><use transform="matrix(0.009765625,0,0,0.009765625,0,0)" xlink:href="#ch"/><use transform="matrix(0.009765625,0,0,0.009765625,13.798828125,0)" xlink:href="#aO"/><use transform="matrix(0.009765625,0,0,0.009765625,26.044921875,0)" xlink:href="#bS"/><use transform="matrix(0.009765625,0,0,0.009765625,43.564453125,0)" xlink:href="#bc"/><use transform="matrix(0.009765625,0,0,0.009765625,48.408203125,0)" xlink:href="#aF"/></g><g id="af"><use transform="matrix(0.009765625,0,0,0.009765625,0,0)" xlink:href="#ch"/><use transform="matrix(0.009765625,0,0,0.009765625,13.798828125,0)" xlink:href="#be"/><use transform="matrix(0.009765625,0,0,0.009765625,26.572265625,0)" xlink:href="#bM"/></g><g id="ag"><use transform="matrix(0.009765625,0,0,0.009765625,0,0)" xlink:href="#bd"/><use transform="matrix(0.009765625,0,0,0.009765625,7.0703125,0)" xlink:href="#bP"/><use transform="matrix(0.009765625,0,0,0.009765625,19.3359375,0)" xlink:href="#bQ"/><use transform="matrix(0.009765625,0,0,0.009765625,32.20703125,0)" xlink:href="#be"/><use transform="matrix(0.009765625,0,0,0.009765625,44.98046875,0)" xlink:href="#bR"/><use transform="matrix(0.009765625,0,0,0.009765625,59.58984375,0)" xlink:href="#bi"/></g><path fill="#fff" d="M180 0v-1490h528c311 0 458 177 458 395 0 191-114 278-244 313v14c139 9 302 137 302 371 0 225-148 397-499 397H180zm190-168h350c232 0 321-102 321-231 0-149-120-277-311-277H370v508zm0-668h328c160 0 286-101 286-255 0-129-87-231-280-231H370v486" id="ci"/><path fill="#fff" d="M180 0v-1490h901v168H370v510h643v168H370V0H180" id="cj"/><path fill="#fff" d="M98-1322v-168h1126v168H757V0H567v-1322H98" id="ck"/><g id="ah"><use transform="matrix(0.009765625,0,0,0.009765625,0,0)" xlink:href="#ci"/><use transform="matrix(0.009765625,0,0,0.009765625,13.0859375,0)" xlink:href="#cj"/><use transform="matrix(0.009765625,0,0,0.009765625,24.892578125,0)" xlink:href="#ck"/></g><path fill="#fff" d="M784 20c-382 0-662-292-662-764 0-473 280-766 662-766s660 293 660 766c0 472-278 764-660 764zm0-176c266 0 475-207 475-588 0-383-209-590-475-590-268 0-477 208-477 590 0 380 209 588 477 588" id="cl"/><path fill="#fff" d="M158 0v-1118h174v172h12c41-113 157-188 290-188 26 0 70 2 91 3v181c-11-2-60-10-108-10-161 0-279 109-279 260V0H158" id="cm"/><path fill="#fff" d="M577 24c-279 0-473-224-473-580 0-354 195-576 474-576 218 0 287 134 324 193h14v-551h180V0H922v-173h-20C865-111 790 24 577 24zm27-161c203 0 314-172 314-421 0-247-108-413-314-413-212 0-317 181-317 413 0 235 108 421 317 421" id="cn"/><path fill="#fff" d="M628 24c-324 0-524-230-524-574 0-343 198-582 503-582 237 0 487 146 487 559v75H286c9 234 145 362 343 362 132 0 231-58 273-172l174 48C1024-91 857 24 628 24zM287-650h624c-17-190-120-322-304-322-192 0-309 151-320 322" id="co"/><g id="ai"><use transform="matrix(0.009765625,0,0,0.009765625,0,0)" xlink:href="#cl"/><use transform="matrix(0.009765625,0,0,0.009765625,15.29296875,0)" xlink:href="#cm"/><use transform="matrix(0.009765625,0,0,0.009765625,22.490234375,0)" xlink:href="#cn"/><use transform="matrix(0.009765625,0,0,0.009765625,34.736328125,0)" xlink:href="#co"/><use transform="matrix(0.009765625,0,0,0.009765625,46.396484375,0)" xlink:href="#cm"/><use transform="matrix(0.009765625,0,0,0.009765625,53.59375,0)" xlink:href="#co"/><use transform="matrix(0.009765625,0,0,0.009765625,65.25390625,0)" xlink:href="#cm"/></g><path fill="#fff" d="M611 442c-248 0-391-105-460-228l146-94c47 65 117 165 314 165 178 0 307-82 307-266v-224h-17C863-141 792-18 576-18c-268 0-472-195-472-546 0-346 197-568 476-568 216 0 288 133 326 193h17v-179h175V29c0 289-215 413-487 413zm-5-620c203 0 314-146 314-390 0-237-108-403-314-403-213 0-319 180-319 403 0 230 109 390 319 390" id="cp"/><path fill="#fff" d="M180 0v-1490h510c348 0 508 194 508 460 0 198-88 351-276 417L1256 0h-220L726-579c-117 2-238 0-356 1V0H180zm190-747h312c235 0 327-108 327-283 0-177-92-293-329-293H370v576" id="cq"/><path fill="#fff" d="M180 0v-1490h510c348 0 508 209 508 474 0 266-160 477-507 477H370V0H180zm190-706h312c236 0 327-133 327-310 0-176-91-307-329-307H370v617" id="cr"/><path fill="#fff" d="M783 20c-382 0-661-292-661-764 0-473 279-766 661-766 302 0 548 182 601 489h-190c-42-204-217-313-411-313-268 0-476 208-476 590 0 381 209 588 476 588 195 0 369-110 411-313h190c-52 303-296 489-601 489" id="cs"/><path fill="#fff" d="M692-1560L212 224H46l480-1784h166" id="ct"/><path fill="#fff" d="M158 418v-1536h174v179h20c37-59 106-193 324-193 279 0 474 222 474 576 0 356-194 580-473 580-213 0-288-135-325-197h-14v591H158zm492-555c209 0 317-186 317-421 0-232-105-413-317-413-206 0-314 166-314 413 0 249 111 421 314 421" id="cu"/><path fill="#fff" d="M613 24c-304 0-509-231-509-576 0-350 205-580 509-580 305 0 511 230 511 580 0 345-206 576-511 576zm0-161c226 0 329-195 329-415 0-222-103-419-329-419-223 0-326 196-326 419 0 220 103 415 326 415" id="cv"/><path fill="#fff" d="M598-1118v154H368v674c0 100 37 144 132 144 23 0 62-6 92-12L629-6c-37 13-88 20-134 20-193 0-307-107-307-290v-688H20v-154h168v-266h180v266h230" id="cw"/><g id="aj"><use transform="matrix(0.009765625,0,0,0.009765625,0,0)" xlink:href="#cp"/><use transform="matrix(0.009765625,0,0,0.009765625,12.265625,0)" xlink:href="#cq"/><use transform="matrix(0.009765625,0,0,0.009765625,25.13671875,0)" xlink:href="#cr"/><use transform="matrix(0.009765625,0,0,0.009765625,37.91015625,0)" xlink:href="#cs"/><use transform="matrix(0.009765625,0,0,0.009765625,52.51953125,0)" xlink:href="#ct"/><use transform="matrix(0.009765625,0,0,0.009765625,59.7265625,0)" xlink:href="#cu"/><use transform="matrix(0.009765625,0,0,0.009765625,71.97265625,0)" xlink:href="#cm"/><use transform="matrix(0.009765625,0,0,0.009765625,79.169921875,0)" xlink:href="#cv"/><use transform="matrix(0.009765625,0,0,0.009765625,91.162109375,0)" xlink:href="#cw"/><use transform="matrix(0.009765625,0,0,0.009765625,97.509765625,0)" xlink:href="#cv"/></g><path fill="#fff" d="M538 24C308 24 148-78 108-271l171-41c32 123 123 178 257 178 156 0 256-77 256-169 0-77-54-128-164-154l-186-44c-203-48-300-148-300-305 0-192 176-326 414-326 230 0 351 112 402 269l-163 42c-31-80-94-158-238-158-133 0-233 69-233 162 0 83 57 129 188 160l169 40c203 48 298 149 298 302 0 196-179 339-441 339" id="cx"/><path fill="#fff" d="M481 0L54-1118h197c107 314 236 620 325 951 87-331 217-637 324-951h197L670 0H481" id="cy"/><path fill="#fff" d="M158 0v-1118h180V0H158zm91-1301c-68 0-125-53-125-119s57-119 125-119c69 0 126 53 126 119s-57 119-126 119" id="cz"/><path fill="#fff" d="M613 24c-304 0-509-231-509-576 0-350 205-580 509-580 216 0 392 114 453 309l-173 49c-33-115-133-197-280-197-223 0-326 196-326 419 0 220 103 415 326 415 150 0 252-85 285-206l172 49C1010-95 832 24 613 24" id="cA"/><g id="ak"><use transform="matrix(0.009765625,0,0,0.009765625,0,0)" xlink:href="#cx"/><use transform="matrix(0.009765625,0,0,0.009765625,10.556640625,0)" xlink:href="#co"/><use transform="matrix(0.009765625,0,0,0.009765625,22.216796875,0)" xlink:href="#cm"/><use transform="matrix(0.009765625,0,0,0.009765625,30.05859375,0)" xlink:href="#cy"/><use transform="matrix(0.009765625,0,0,0.009765625,41.298828125,0)" xlink:href="#cz"/><use transform="matrix(0.009765625,0,0,0.009765625,46.142578125,0)" xlink:href="#cA"/><use transform="matrix(0.009765625,0,0,0.009765625,57.568359375,0)" xlink:href="#co"/></g><g id="al"><use transform="matrix(0.009765625,0,0,0.009765625,0,0)" xlink:href="#bG"/><use transform="matrix(0.009765625,0,0,0.009765625,13.0859375,0)" xlink:href="#bb"/><use transform="matrix(0.009765625,0,0,0.009765625,17.9296875,0)" xlink:href="#aL"/><use transform="matrix(0.009765625,0,0,0.009765625,29.921875,0)" xlink:href="#aG"/><use transform="matrix(0.009765625,0,0,0.009765625,41.34765625,0)" xlink:href="#aM"/></g><g id="am"><use transform="matrix(0.009765625,0,0,0.009765625,0,0)" xlink:href="#aL"/><use transform="matrix(0.009765625,0,0,0.009765625,11.9921875,0)" xlink:href="#aH"/><use transform="matrix(0.009765625,0,0,0.009765625,19.189453125,0)" xlink:href="#aO"/><use transform="matrix(0.009765625,0,0,0.009765625,31.435546875,0)" xlink:href="#aC"/><use transform="matrix(0.009765625,0,0,0.009765625,43.095703125,0)" xlink:href="#aH"/><use transform="matrix(0.009765625,0,0,0.009765625,50.29296875,0)" xlink:href="#aC"/><use transform="matrix(0.009765625,0,0,0.009765625,61.953125,0)" xlink:href="#aH"/></g><g id="an"><use transform="matrix(0.009765625,0,0,0.009765625,0,0)" xlink:href="#ch"/><use transform="matrix(0.009765625,0,0,0.009765625,13.798828125,0)" xlink:href="#be"/><use transform="matrix(0.009765625,0,0,0.009765625,26.572265625,0)" xlink:href="#bM"/></g><g id="ao"><use transform="matrix(0.009765625,0,0,0.009765625,0,0)" xlink:href="#bI"/><use transform="matrix(0.009765625,0,0,0.009765625,11.34765625,0)" xlink:href="#aL"/><use transform="matrix(0.009765625,0,0,0.009765625,23.33984375,0)" xlink:href="#bf"/><use transform="matrix(0.009765625,0,0,0.009765625,35.5859375,0)" xlink:href="#aL"/><use transform="matrix(0.009765625,0,0,0.009765625,47.578125,0)" xlink:href="#bb"/><use transform="matrix(0.009765625,0,0,0.009765625,52.421875,0)" xlink:href="#aL"/><use transform="matrix(0.009765625,0,0,0.009765625,64.4140625,0)" xlink:href="#bP"/><use transform="matrix(0.009765625,0,0,0.009765625,76.6796875,0)" xlink:href="#aQ"/></g><g id="ap"><use transform="matrix(0.009765625,0,0,0.009765625,0,0)" xlink:href="#ch"/><use transform="matrix(0.009765625,0,0,0.009765625,13.798828125,0)" xlink:href="#be"/><use transform="matrix(0.009765625,0,0,0.009765625,26.572265625,0)" xlink:href="#bM"/></g><g id="aq"><use transform="matrix(0.008680555555555556,0,0,0.008680555555555556,0,0)" xlink:href="#bu"/><use transform="matrix(0.008680555555555556,0,0,0.008680555555555556,16.05902777777778,0)" xlink:href="#bk"/><use transform="matrix(0.008680555555555556,0,0,0.008680555555555556,26.97048611111111,0)" xlink:href="#bv"/><use transform="matrix(0.008680555555555556,0,0,0.008680555555555556,37.48263888888889,0)" xlink:href="#bk"/><use transform="matrix(0.008680555555555556,0,0,0.008680555555555556,48.394097222222236,0)" xlink:href="#bt"/><use transform="matrix(0.008680555555555556,0,0,0.008680555555555556,59.29687500000001,0)" xlink:href="#aY"/></g><g id="ar"><use transform="matrix(0.008680555555555556,0,0,0.008680555555555556,0,0)" xlink:href="#bs"/><use transform="matrix(0.008680555555555556,0,0,0.008680555555555556,10.894097222222223,0)" xlink:href="#aY"/><use transform="matrix(0.008680555555555556,0,0,0.008680555555555556,21.12847222222222,0)" xlink:href="#aY"/><use transform="matrix(0.008680555555555556,0,0,0.008680555555555556,31.36284722222222,0)" xlink:href="#aX"/></g><g id="as"><use transform="matrix(0.008680555555555556,0,0,0.008680555555555556,0,0)" xlink:href="#aY"/><use transform="matrix(0.008680555555555556,0,0,0.008680555555555556,10.234375,0)" xlink:href="#bv"/><use transform="matrix(0.008680555555555556,0,0,0.008680555555555556,20.74652777777778,0)" xlink:href="#bl"/><use transform="matrix(0.008680555555555556,0,0,0.008680555555555556,31.640625,0)" xlink:href="#bs"/><use transform="matrix(0.008680555555555556,0,0,0.008680555555555556,42.53472222222222,0)" xlink:href="#bn"/><use transform="matrix(0.008680555555555556,0,0,0.008680555555555556,53.203125,0)" xlink:href="#aV"/><use transform="matrix(0.008680555555555556,0,0,0.008680555555555556,57.517361111111114,0)" xlink:href="#bv"/><use transform="matrix(0.008680555555555556,0,0,0.008680555555555556,68.02951388888889,0)" xlink:href="#aW"/><use transform="matrix(0.008680555555555556,0,0,0.008680555555555556,73.6892361111111,0)" xlink:href="#ba"/></g><path fill="#fff" d="M657 26c-323 0-524-166-541-416h195c15 169 171 246 346 246 202 0 356-106 356-265 5-203-294-238-475-293-239-73-380-191-380-389 0-252 224-419 512-419 294 0 499 171 508 396H992c-17-145-151-228-328-228-193 0-321 102-321 242 0 156 175 211 284 241l149 41c160 44 422 134 422 412 0 244-197 432-541 432" id="cB"/><path fill="#fff" d="M1096 418H916v-591h-14C865-111 790 24 577 24c-279 0-473-224-473-580 0-354 195-576 474-576 218 0 287 134 324 193h20v-179h174V418zM604-137c203 0 314-172 314-421 0-247-108-413-314-413-212 0-317 181-317 413 0 235 108 421 317 421" id="cC"/><path fill="#fff" d="M537 14c-226 0-379-139-379-422v-710h180v695c0 172 97 275 253 275 160 0 281-109 281-300v-670h181V0H879v-209C806-46 684 14 537 14" id="cD"/><path fill="#fff" d="M338-670V0H158v-1118h173l1 207c72-158 192-221 342-221 226 0 378 139 378 422V0H872v-695c0-172-96-275-252-275-161 0-282 109-282 300" id="cE"/><g id="at"><use transform="matrix(0.009765625,0,0,0.009765625,0,0)" xlink:href="#cB"/><use transform="matrix(0.009765625,0,0,0.009765625,12.83203125,0)" xlink:href="#co"/><use transform="matrix(0.009765625,0,0,0.009765625,24.4921875,0)" xlink:href="#cC"/><use transform="matrix(0.009765625,0,0,0.009765625,36.73828125,0)" xlink:href="#cD"/><use transform="matrix(0.009765625,0,0,0.009765625,48.564453125,0)" xlink:href="#co"/><use transform="matrix(0.009765625,0,0,0.009765625,60.224609375,0)" xlink:href="#cE"/><use transform="matrix(0.009765625,0,0,0.009765625,72.041015625,0)" xlink:href="#cA"/><use transform="matrix(0.009765625,0,0,0.009765625,83.466796875,0)" xlink:href="#co"/><use transform="matrix(0.009765625,0,0,0.009765625,95.126953125,0)" xlink:href="#cm"/></g><path fill="#fff" d="M338-1490V0H158v-1490h180" id="cF"/><g id="au"><use transform="matrix(0.009765625,0,0,0.009765625,0,0)" xlink:href="#cA"/><use transform="matrix(0.009765625,0,0,0.009765625,11.42578125,0)" xlink:href="#cF"/><use transform="matrix(0.009765625,0,0,0.009765625,16.26953125,0)" xlink:href="#cz"/><use transform="matrix(0.009765625,0,0,0.009765625,21.11328125,0)" xlink:href="#co"/><use transform="matrix(0.009765625,0,0,0.009765625,32.7734375,0)" xlink:href="#cE"/><use transform="matrix(0.009765625,0,0,0.009765625,44.58984375,0)" xlink:href="#cw"/></g><path fill="#fff" d="M52 0l541-1490h220L1361 0h-200l-149-416H398L254 0H52zm404-582h497c-103-290-145-390-251-756-108 377-145 460-246 756" id="cG"/><path fill="#fff" d="M370-1490V0H180v-1490h190" id="cH"/><g id="av"><use transform="matrix(0.009765625,0,0,0.009765625,0,0)" xlink:href="#cG"/><use transform="matrix(0.009765625,0,0,0.009765625,13.798828125,0)" xlink:href="#cr"/><use transform="matrix(0.009765625,0,0,0.009765625,26.572265625,0)" xlink:href="#cH"/></g><path d="M699 20c-338 0-560-226-560-600 0-472 307-930 791-930 337 0 558 226 558 599 0 474-306 931-789 931zm7-176c374 0 598-379 598-750 0-280-157-428-381-428-373 0-600 379-600 749 0 280 158 429 383 429" id="cI"/><path d="M826-719l-28 166H144l28-166h654" id="cJ"/><g id="aw"><use transform="matrix(0.009765625,0,0,0.009765625,0,0)" xlink:href="#cI"/><use transform="matrix(0.009765625,0,0,0.009765625,15.29296875,0)" xlink:href="#aS"/><use transform="matrix(0.009765625,0,0,0.009765625,27.12890625,0)" xlink:href="#aW"/><use transform="matrix(0.009765625,0,0,0.009765625,33.30078125,0)" xlink:href="#cJ"/><use transform="matrix(0.009765625,0,0,0.009765625,42.51953125,0)" xlink:href="#bn"/><use transform="matrix(0.009765625,0,0,0.009765625,54.521484375,0)" xlink:href="#bF"/><use transform="matrix(0.009765625,0,0,0.009765625,61.416015625,0)" xlink:href="#cJ"/><use transform="matrix(0.009765625,0,0,0.009765625,70.634765625,0)" xlink:href="#aT"/><use transform="matrix(0.009765625,0,0,0.009765625,82.890625,0)" xlink:href="#bk"/><use transform="matrix(0.009765625,0,0,0.009765625,95.166015625,0)" xlink:href="#bv"/><use transform="matrix(0.009765625,0,0,0.009765625,106.9921875,0)" xlink:href="#bl"/></g><g id="ax"><use transform="matrix(0.009765625,0,0,0.009765625,0,0)" xlink:href="#aR"/><use transform="matrix(0.009765625,0,0,0.009765625,12.8125,0)" xlink:href="#aY"/><use transform="matrix(0.009765625,0,0,0.009765625,24.326171875,0)" xlink:href="#aZ"/><use transform="matrix(0.009765625,0,0,0.009765625,36.58203125,0)" xlink:href="#aS"/><use transform="matrix(0.009765625,0,0,0.009765625,48.41796875,0)" xlink:href="#aY"/><use transform="matrix(0.009765625,0,0,0.009765625,59.931640625,0)" xlink:href="#bv"/><use transform="matrix(0.009765625,0,0,0.009765625,71.7578125,0)" xlink:href="#bo"/><use transform="matrix(0.009765625,0,0,0.009765625,83.193359375,0)" xlink:href="#aY"/><use transform="matrix(0.009765625,0,0,0.009765625,94.70703125,0)" xlink:href="#aX"/></g><g id="ay"><use transform="matrix(0.009765625,0,0,0.009765625,0,0)" xlink:href="#ba"/><use transform="matrix(0.009765625,0,0,0.009765625,10.546875,0)" xlink:href="#bv"/><use transform="matrix(0.009765625,0,0,0.009765625,22.373046875,0)" xlink:href="#bk"/><use transform="matrix(0.009765625,0,0,0.009765625,34.6484375,0)" xlink:href="#bs"/><use transform="matrix(0.009765625,0,0,0.009765625,46.904296875,0)" xlink:href="#ba"/><use transform="matrix(0.009765625,0,0,0.009765625,57.451171875,0)" xlink:href="#br"/><use transform="matrix(0.009765625,0,0,0.009765625,69.27734375,0)" xlink:href="#bn"/><use transform="matrix(0.009765625,0,0,0.009765625,81.279296875,0)" xlink:href="#aW"/></g><path d="M389 0L147-1118h188c55 314 135 617 168 951 141-329 323-637 482-951h205L578 0H389" id="cK"/><g id="az"><use transform="matrix(0.009765625,0,0,0.009765625,0,0)" xlink:href="#aX"/><use transform="matrix(0.009765625,0,0,0.009765625,7.20703125,0)" xlink:href="#aY"/><use transform="matrix(0.009765625,0,0,0.009765625,18.720703125,0)" xlink:href="#aW"/><use transform="matrix(0.009765625,0,0,0.009765625,25.283203125,0)" xlink:href="#aX"/><use transform="matrix(0.009765625,0,0,0.009765625,33.134765625,0)" xlink:href="#aV"/><use transform="matrix(0.009765625,0,0,0.009765625,37.98828125,0)" xlink:href="#aY"/><use transform="matrix(0.009765625,0,0,0.009765625,49.111328125,0)" xlink:href="#cK"/><use transform="matrix(0.009765625,0,0,0.009765625,59.9609375,0)" xlink:href="#bk"/><use transform="matrix(0.009765625,0,0,0.009765625,72.236328125,0)" xlink:href="#bm"/></g><g id="aA"><use transform="matrix(0.009765625,0,0,0.009765625,0,0)" xlink:href="#bA"/><use transform="matrix(0.009765625,0,0,0.009765625,7.294921875,0)" xlink:href="#aW"/><use transform="matrix(0.009765625,0,0,0.009765625,13.857421875,0)" xlink:href="#aX"/><use transform="matrix(0.009765625,0,0,0.009765625,21.396484375,0)" xlink:href="#aS"/><use transform="matrix(0.009765625,0,0,0.009765625,33.232421875,0)" xlink:href="#ba"/><use transform="matrix(0.009765625,0,0,0.009765625,43.779296875,0)" xlink:href="#aW"/><use transform="matrix(0.009765625,0,0,0.009765625,50.146484375,0)" xlink:href="#aY"/><use transform="matrix(0.009765625,0,0,0.009765625,61.66015625,0)" xlink:href="#bl"/><use transform="matrix(0.009765625,0,0,0.009765625,73.916015625,0)" xlink:href="#bD"/></g></defs></g></svg>