<svg xmlns="http://www.w3.org/2000/svg" xmlns:xlink="http://www.w3.org/1999/xlink" xmlns:lucid="lucid" width="820" height="560"><g transform="translate(-320 -140)" lucid:page-tab-id="0_0"><g class="lucid-layer" lucid:layer-id="fs5xU00Byiah" display="block"><path d="M340 160h780v520H340z" stroke="#000" stroke-opacity="0" stroke-width="2" fill="#c1e4f7" fill-opacity=".54"/><path d="M380 280h320v340H380z" stroke="#000" stroke-opacity="0" stroke-width="2" fill="#99d5ca" fill-opacity=".54"/><path d="M740 280h341v340H740z" stroke="#000" stroke-opacity="0" stroke-width="2" fill="#ffbbb1" fill-opacity=".54"/><path d="M392 400h280v180H392z" stroke="#000" stroke-opacity="0" stroke-width="2" fill="#b391b5" fill-opacity=".54"/><path d="M760 400h280v180H760z" stroke="#000" stroke-opacity="0" stroke-width="2" fill="#ffc374" fill-opacity=".54"/><path d="M1020 620h100v60h-100z" stroke="#000" stroke-opacity="0" fill="#fff" fill-opacity="0"/><use xlink:href="#a" transform="matrix(1,0,0,1,1025,625) translate(24.51234567901235 29.444444444444443)"/><use xlink:href="#b" transform="matrix(1,0,0,1,1025,625) translate(51.672839506172835 29.444444444444443)"/><path d="M600 580h100v60H600z" stroke="#000" stroke-opacity="0" fill="#fff" fill-opacity="0"/><use xlink:href="#c" transform="matrix(1,0,0,1,605,585) translate(6.611111111111114 29.444444444444443)"/><use xlink:href="#d" transform="matrix(1,0,0,1,605,585) translate(69.57407407407408 29.444444444444443)"/><path d="M572 520h100v60H572z" stroke="#000" stroke-opacity="0" fill="#fff" fill-opacity="0"/><use xlink:href="#c" transform="matrix(1,0,0,1,577,525) translate(6.611111111111114 29.444444444444443)"/><use xlink:href="#b" transform="matrix(1,0,0,1,577,525) translate(69.57407407407408 29.444444444444443)"/><path d="M940 520h100v60H940z" stroke="#000" stroke-opacity="0" fill="#fff" fill-opacity="0"/><g><use xlink:href="#e" transform="matrix(1,0,0,1,945,525) translate(16.51851851851852 29.444444444444443)"/><use xlink:href="#d" transform="matrix(1,0,0,1,945,525) translate(59.66666666666667 29.444444444444443)"/></g><path d="M981 578h100v60H981z" stroke="#000" stroke-opacity="0" fill="#fff" fill-opacity="0"/><g><use xlink:href="#e" transform="matrix(1,0,0,1,986,583) translate(16.51851851851852 29.444444444444443)"/><use xlink:href="#b" transform="matrix(1,0,0,1,986,583) translate(59.66666666666667 29.444444444444443)"/></g></g><g class="lucid-layer" lucid:layer-id="L6-ez2dE2id~" display="block"><path d="M740.9 218.2l160 80M739.1 221.8l160 80" stroke="#000" stroke-width="2" fill="none"/><path d="M897.1 298.55l-14.83-2.23 4.15-8.3z" stroke="#000" stroke-width="2"/><path d="M601.25 221.56l-100 80M598.75 218.44l-100 80" stroke="#000" stroke-width="2" fill="none"/><path d="M502.53 297.98l8.24-12.53 5.8 7.24z" stroke="#000" stroke-width="2"/><path d="M502 340v98.66M498 340v98.66" stroke="#000" stroke-width="2" fill="none"/><path d="M500 435.42l-4.64-14.26h9.28z" stroke="#000" stroke-width="2"/><path d="M580 180h160v63.33H580z" stroke="#000" stroke-opacity="0" stroke-width="2" fill="#fff" fill-opacity="0"/><use xlink:href="#f" transform="matrix(1,0,0,1,585,185) translate(54.72222222222223 17.77777777777778)"/><path d="M460 300h80v63.33h-80z" stroke="#000" stroke-opacity="0" stroke-width="2" fill="#fff" fill-opacity="0"/><use xlink:href="#f" transform="matrix(1,0,0,1,465,304.99999999999994) translate(14.722222222222225 17.77777777777778)"/><path d="M440 439h120v63.33H440z" stroke="#000" stroke-opacity="0" stroke-width="2" fill="#fff" fill-opacity="0"/><use xlink:href="#g" transform="matrix(1,0,0,1,445,444) translate(34.72222222222223 17.77777777777778)"/><path d="M860 300h93v64h-93z" stroke="#000" stroke-opacity="0" stroke-width="2" fill="#fff" fill-opacity="0"/><use xlink:href="#f" transform="matrix(1,0,0,1,865,304.99999999999994) translate(21.222222222222225 17.77777777777778)"/><path d="M860 439h80v64h-80z" stroke="#000" stroke-opacity="0" stroke-width="2" fill="#fff" fill-opacity="0"/><use xlink:href="#g" transform="matrix(1,0,0,1,865,443.99999999999994) translate(14.722222222222225 17.77777777777778)"/><path d="M902 340v100M898 340v100" stroke="#000" stroke-width="2" fill="none"/><path d="M900 436.76l-4.64-14.26h9.28z" stroke="#000" stroke-width="2"/></g><defs><path d="M205 0l-28-72H64L36 0H1l101-248h38L239 0h-34zm-38-99l-47-123c-12 45-31 82-46 123h93" id="h"/><path d="M68-38c1 34 0 65-14 84H32c9-13 17-26 17-46H33v-38h35" id="i"/><g id="a"><use transform="matrix(0.06172839506172839,0,0,0.06172839506172839,0,0)" xlink:href="#h"/><use transform="matrix(0.06172839506172839,0,0,0.06172839506172839,14.814814814814813,0)" xlink:href="#i"/></g><path d="M160-131c35 5 61 23 61 61C221 17 115-2 30 0v-248c76 3 177-17 177 60 0 33-19 50-47 57zm-97-11c50-1 110 9 110-42 0-47-63-36-110-37v79zm0 115c55-2 124 14 124-45 0-56-70-42-124-44v89" id="j"/><use transform="matrix(0.06172839506172839,0,0,0.06172839506172839,0,0)" xlink:href="#j" id="b"/><path d="M141-36C126-15 110 5 73 4 37 3 15-17 15-53c-1-64 63-63 125-63 3-35-9-54-41-54-24 1-41 7-42 31l-33-3c5-37 33-52 76-52 45 0 72 20 72 64v82c-1 20 7 32 28 27v20c-31 9-61-2-59-35zM48-53c0 20 12 33 32 33 41-3 63-29 60-74-43 2-92-5-92 41" id="k"/><path d="M117-194c89-4 53 116 60 194h-32v-121c0-31-8-49-39-48C34-167 62-67 57 0H25l-1-190h30c1 10-1 24 2 32 11-22 29-35 61-36" id="l"/><path d="M143 0L79-87 56-68V0H24v-261h32v163l83-92h37l-77 82L181 0h-38" id="m"/><g id="c"><use transform="matrix(0.06172839506172839,0,0,0.06172839506172839,0,0)" xlink:href="#j"/><use transform="matrix(0.06172839506172839,0,0,0.06172839506172839,14.814814814814813,0)" xlink:href="#k"/><use transform="matrix(0.06172839506172839,0,0,0.06172839506172839,27.160493827160494,0)" xlink:href="#l"/><use transform="matrix(0.06172839506172839,0,0,0.06172839506172839,39.50617283950617,0)" xlink:href="#m"/><use transform="matrix(0.06172839506172839,0,0,0.06172839506172839,50.61728395061728,0)" xlink:href="#i"/></g><use transform="matrix(0.06172839506172839,0,0,0.06172839506172839,0,0)" xlink:href="#h" id="d"/><path d="M185-189c-5-48-123-54-124 2 14 75 158 14 163 119 3 78-121 87-175 55-17-10-28-26-33-46l33-7c5 56 141 63 141-1 0-78-155-14-162-118-5-82 145-84 179-34 5 7 8 16 11 25" id="n"/><path d="M233-177c-1 41-23 64-60 70L243 0h-38l-65-103H63V0H30v-248c88 3 205-21 203 71zM63-129c60-2 137 13 137-47 0-61-80-42-137-45v92" id="o"/><g id="e"><use transform="matrix(0.06172839506172839,0,0,0.06172839506172839,0,0)" xlink:href="#n"/><use transform="matrix(0.06172839506172839,0,0,0.06172839506172839,14.814814814814813,0)" xlink:href="#o"/><use transform="matrix(0.06172839506172839,0,0,0.06172839506172839,30.80246913580247,0)" xlink:href="#i"/></g><path d="M110-251c83-7 118 89 53 130-17 10-36 21-38 46H78c2-56 65-53 71-103 2-21-15-35-38-34-25 1-41 14-44 38l-50-2c6-48 39-70 93-75zM77 0v-47h51V0H77" id="p"/><g id="f"><use transform="matrix(0.06172839506172839,0,0,0.06172839506172839,0,0)" xlink:href="#p"/><use transform="matrix(0.06172839506172839,0,0,0.06172839506172839,13.518518518518517,0)" xlink:href="#p"/><use transform="matrix(0.06172839506172839,0,0,0.06172839506172839,27.037037037037035,0)" xlink:href="#p"/></g><g id="g"><use transform="matrix(0.06172839506172839,0,0,0.06172839506172839,0,0)" xlink:href="#p"/><use transform="matrix(0.06172839506172839,0,0,0.06172839506172839,13.518518518518517,0)" xlink:href="#p"/><use transform="matrix(0.06172839506172839,0,0,0.06172839506172839,27.037037037037035,0)" xlink:href="#p"/></g></defs></g></svg>