<svg xmlns="http://www.w3.org/2000/svg" xmlns:xlink="http://www.w3.org/1999/xlink" xmlns:lucid="lucid" width="1082" height="542"><g transform="translate(-978.9999999925586 -1178.999999996321)" lucid:page-tab-id="0_0"><path d="M980 1186a6 6 0 0 1 6-6h1068a6 6 0 0 1 6 6v528a6 6 0 0 1-6 6H986a6 6 0 0 1-6-6z" stroke="#dfe3e8" stroke-width="2" fill="#fbfbfb"/><path d="M1023.4 1424.4a6 6 0 0 1 6-6h54.88a6 6 0 0 1 6 6v44.84a6 6 0 0 1-6 6h-54.88a6 6 0 0 1-6-6z" stroke="#3a414a" stroke-width="2" fill="#fff"/><use xlink:href="#a" transform="matrix(1,0,0,1,1035.398792164242,1430.4150456519546) translate(7.919753086419753 21.90277777777778)"/><path d="M1246.72 1424.4a6 6 0 0 1 6-6h54.88a6 6 0 0 1 6 6v44.84a6 6 0 0 1-6 6h-54.88a6 6 0 0 1-6-6z" fill="#fff"/><path d="M1289.3 1418.4h18.3a6 6 0 0 1 6 6v14.96m0 14.94v14.94a6 6 0 0 1-6 6h-18.3m-18.28 0h-18.3a6 6 0 0 1-6-6v-14.94m0-14.94v-14.94a6 6 0 0 1 6-6h18.3" stroke="#3a414a" stroke-width="2" fill="none"/><use xlink:href="#b" transform="matrix(1,0,0,1,1258.7234146961812,1430.4150456519546) translate(7.919753086419753 21.90277777777778)"/><path d="M1726.72 1424.4a6 6 0 0 1 6-6h54.88a6 6 0 0 1 6 6v44.84a6 6 0 0 1-6 6h-54.88a6 6 0 0 1-6-6z" fill="#fff"/><path d="M1769.3 1418.4h18.3a6 6 0 0 1 6 6v14.96m0 14.94v14.94a6 6 0 0 1-6 6h-18.3m-18.28 0h-18.3a6 6 0 0 1-6-6v-14.94m0-14.94v-14.94a6 6 0 0 1 6-6h18.3" stroke="#3a414a" stroke-width="2" fill="none"/><use xlink:href="#b" transform="matrix(1,0,0,1,1738.7234146961812,1430.4150456519546) translate(7.919753086419753 21.90277777777778)"/><path d="M1949.72 1424.4a6 6 0 0 1 6-6h54.88a6 6 0 0 1 6 6v44.84a6 6 0 0 1-6 6h-54.88a6 6 0 0 1-6-6z" stroke="#3a414a" stroke-width="2" fill="#fff"/><use xlink:href="#c" transform="matrix(1,0,0,1,1961.7234146961812,1430.4150456519546) translate(7.919753086419753 21.90277777777778)"/><path d="M1486.72 1424.4a6 6 0 0 1 6-6h54.88a6 6 0 0 1 6 6v44.84a6 6 0 0 1-6 6h-54.88a6 6 0 0 1-6-6z" stroke="#3a414a" stroke-width="2" fill="#fff"/><use xlink:href="#d" transform="matrix(1,0,0,1,1498.7234146961812,1430.4150456519546) translate(7.919753086419753 21.90277777777778)"/><path d="M1486.72 1226a6 6 0 0 1 6-6h54.88a6 6 0 0 1 6 6v44.83a6 6 0 0 1-6 6h-54.88a6 6 0 0 1-6-6z" stroke="#3a414a" stroke-width="2" fill="#fff"/><use xlink:href="#e" transform="matrix(1,0,0,1,1498.7234146961814,1232) translate(7.919753086419753 21.90277777777778)"/><path d="M1486.72 1622.83a6 6 0 0 1 6-6h54.88a6 6 0 0 1 6 6v44.83a6 6 0 0 1-6 6h-54.88a6 6 0 0 1-6-6z" stroke="#3a414a" stroke-width="2" fill="#fff"/><use xlink:href="#f" transform="matrix(1,0,0,1,1498.7234146961814,1628.8300913039093) translate(7.919753086419753 21.90277777777778)"/><path d="M1133.1 1447.8h-40.82v-1.94h40.83zm111.62 0h-40.83v-1.94h40.82z" stroke="#3a414a" stroke-width=".05" fill="#3a414a"/><path d="M1092.3 1447.8h-1.02v-1.94h1.02z" fill="#3a414a"/><path stroke="#3a414a" stroke-width=".05" fill="#3a414a"/><path d="M1245.72 1447.8h-1.02v-1.94h1.02z" fill="#3a414a"/><path stroke="#3a414a" stroke-width=".05" fill="#3a414a"/><use xlink:href="#g" transform="matrix(1,0,0,1,1133.1137152079898,1436.074882970576) translate(0 17.22222222222222)"/><use xlink:href="#h" transform="matrix(1,0,0,1,1133.1137152079898,1436.074882970576) translate(46.39756944444445 17.22222222222222)"/><path d="M1351.08 1447.8h-35.48v-1.94h35.48zm133.64 0h-62.4v-1.94h62.4z" stroke="#3a414a" stroke-width=".05" fill="#3a414a"/><path d="M1315.63 1447.8h-1.03v-1.94h1.03z" fill="#3a414a"/><path stroke="#3a414a" stroke-width=".05" fill="#3a414a"/><path d="M1485.72 1447.8h-1.02v-1.94h1.02z" fill="#3a414a"/><path stroke="#3a414a" stroke-width=".05" fill="#3a414a"/><use xlink:href="#i" transform="matrix(1,0,0,1,1351.0765738037232,1436.074882970576) translate(0 17.22222222222222)"/><use xlink:href="#h" transform="matrix(1,0,0,1,1351.0765738037232,1436.074882970576) translate(46.875 17.22222222222222)"/><path d="M1603.44 1447.8h-47.84v-1.94h47.84zm121.28 0h-47.84v-1.94h47.84z" stroke="#3a414a" stroke-width=".05" fill="#3a414a"/><path d="M1555.63 1447.8h-1.03v-1.94h1.03z" fill="#3a414a"/><path stroke="#3a414a" stroke-width=".05" fill="#3a414a"/><path d="M1725.72 1447.8h-1.02v-1.94h1.02z" fill="#3a414a"/><path stroke="#3a414a" stroke-width=".05" fill="#3a414a"/><use xlink:href="#i" transform="matrix(1,0,0,1,1603.4435611961815,1436.074882970576) translate(0 17.22222222222222)"/><use xlink:href="#j" transform="matrix(1,0,0,1,1603.4435611961815,1436.074882970576) translate(46.875 17.22222222222222)"/><path d="M1480 1254.1l-203.4 162.57M1762.4 1477.65L1559 1640.2M1560.93 1250.45l197.73 163.16M1282.27 1479.82L1480 1643" stroke="#000" stroke-width="2" stroke-linecap="round" fill="none"/><path d="M1206.72 1304.4a6 6 0 0 1 6-6h228a6 6 0 0 1 6 6v48a6 6 0 0 1-6 6h-228a6 6 0 0 1-6-6z" fill="none"/><use xlink:href="#k" transform="matrix(1,0,0,1,1206.7234146961812,1298.4150456519546) translate(84.61371527777777 36.467013888888886)"/><use xlink:href="#l" transform="matrix(1,0,0,1,1206.7234146961812,1298.4150456519546) translate(131.01128472222223 36.467013888888886)"/><path d="M1599.72 1304.4a6 6 0 0 1 6-6h228a6 6 0 0 1 6 6v48a6 6 0 0 1-6 6h-228a6 6 0 0 1-6-6z" fill="none"/><use xlink:href="#k" transform="matrix(1,0,0,1,1599.7234146961812,1298.4150456519546) translate(83.51996527777777 36.467013888888886)"/><use xlink:href="#m" transform="matrix(1,0,0,1,1599.7234146961812,1298.4150456519546) translate(129.91753472222223 36.467013888888886)"/><path d="M1203.66 1544.4a6 6 0 0 1 6-6h228a6 6 0 0 1 6 6v48a6 6 0 0 1-6 6h-228a6 6 0 0 1-6-6z" fill="none"/><use xlink:href="#n" transform="matrix(1,0,0,1,1203.6623112659697,1538.4150456519546) translate(84.375 36.467013888888886)"/><use xlink:href="#l" transform="matrix(1,0,0,1,1203.6623112659697,1538.4150456519546) translate(131.25 36.467013888888886)"/><path d="M1596.66 1544.4a6 6 0 0 1 6-6h228a6 6 0 0 1 6 6v48a6 6 0 0 1-6 6h-228a6 6 0 0 1-6-6z" fill="none"/><use xlink:href="#n" transform="matrix(1,0,0,1,1596.6623112659697,1538.4150456519546) translate(84.375 36.467013888888886)"/><use xlink:href="#l" transform="matrix(1,0,0,1,1596.6623112659697,1538.4150456519546) translate(131.25 36.467013888888886)"/><path d="M1835.25 1447.8h-39.65v-1.94h39.65zm112.47 0h-39.64v-1.94h39.64z" stroke="#3a414a" stroke-width=".05" fill="#3a414a"/><path d="M1795.63 1447.8h-1.03v-1.94h1.03z" fill="#3a414a"/><path stroke="#3a414a" stroke-width=".05" fill="#3a414a"/><path d="M1948.72 1447.8h-1.02v-1.94h1.02z" fill="#3a414a"/><path stroke="#3a414a" stroke-width=".05" fill="#3a414a"/><use xlink:href="#i" transform="matrix(1,0,0,1,1835.2473806406258,1436.074882970576) translate(0 17.22222222222222)"/><use xlink:href="#o" transform="matrix(1,0,0,1,1835.2473806406258,1436.074882970576) translate(46.875 17.22222222222222)"/><path d="M1023.4 1226a6 6 0 0 1 6-6h135.73a6 6 0 0 1 6 6v19.52a6 6 0 0 1-6 6H1029.4a6 6 0 0 1-6-6z" fill="none"/><use xlink:href="#p" transform="matrix(1,0,0,1,1028.398792164242,1225) translate(0 17.46701388888889)"/><use xlink:href="#q" transform="matrix(1,0,0,1,1028.398792164242,1225) translate(18.59375 17.46701388888889)"/><use xlink:href="#r" transform="matrix(1,0,0,1,1028.398792164242,1225) translate(35.35590277777778 17.46701388888889)"/><path d="M1023.4 1262.9a6 6 0 0 1 6-6h128.1a6 6 0 0 1 6 6v19.52a6 6 0 0 1-6 6h-128.1a6 6 0 0 1-6-6z" fill="none"/><use xlink:href="#s" transform="matrix(1,0,0,1,1028.398792164242,1261.8980208333332) translate(0 17.46701388888889)"/><use xlink:href="#q" transform="matrix(1,0,0,1,1028.398792164242,1261.8980208333332) translate(16.40625 17.46701388888889)"/><use xlink:href="#t" transform="matrix(1,0,0,1,1028.398792164242,1261.8980208333332) translate(33.16840277777778 17.46701388888889)"/><path d="M1023.4 1302.9a6 6 0 0 1 6-6H1171a6 6 0 0 1 6 6v19.52a6 6 0 0 1-6 6h-141.6a6 6 0 0 1-6-6z" fill="none"/><use xlink:href="#u" transform="matrix(1,0,0,1,1028.398792164242,1301.8980208333332) translate(0 17.46701388888889)"/><use xlink:href="#q" transform="matrix(1,0,0,1,1028.398792164242,1301.8980208333332) translate(17.986111111111114 17.46701388888889)"/><use xlink:href="#v" transform="matrix(1,0,0,1,1028.398792164242,1301.8980208333332) translate(34.74826388888889 17.46701388888889)"/><path d="M1023.4 1424.4a6 6 0 0 1 6-6h54.88a6 6 0 0 1 6 6v44.84a6 6 0 0 1-6 6h-54.88a6 6 0 0 1-6-6z" stroke="#3a414a" stroke-width="2" fill="#fff"/><use xlink:href="#a" transform="matrix(1,0,0,1,1035.398792164242,1430.4150456519546) translate(7.919753086419753 21.90277777777778)"/><path d="M1246.72 1424.4a6 6 0 0 1 6-6h54.88a6 6 0 0 1 6 6v44.84a6 6 0 0 1-6 6h-54.88a6 6 0 0 1-6-6z" fill="#fff"/><path d="M1289.3 1418.4h18.3a6 6 0 0 1 6 6v14.96m0 14.94v14.94a6 6 0 0 1-6 6h-18.3m-18.28 0h-18.3a6 6 0 0 1-6-6v-14.94m0-14.94v-14.94a6 6 0 0 1 6-6h18.3" stroke="#3a414a" stroke-width="2" fill="none"/><use xlink:href="#b" transform="matrix(1,0,0,1,1258.7234146961812,1430.4150456519546) translate(7.919753086419753 21.90277777777778)"/><path d="M1726.72 1424.4a6 6 0 0 1 6-6h54.88a6 6 0 0 1 6 6v44.84a6 6 0 0 1-6 6h-54.88a6 6 0 0 1-6-6z" fill="#fff"/><path d="M1769.3 1418.4h18.3a6 6 0 0 1 6 6v14.96m0 14.94v14.94a6 6 0 0 1-6 6h-18.3m-18.28 0h-18.3a6 6 0 0 1-6-6v-14.94m0-14.94v-14.94a6 6 0 0 1 6-6h18.3" stroke="#3a414a" stroke-width="2" fill="none"/><use xlink:href="#b" transform="matrix(1,0,0,1,1738.7234146961812,1430.4150456519546) translate(7.919753086419753 21.90277777777778)"/><path d="M1949.72 1424.4a6 6 0 0 1 6-6h54.88a6 6 0 0 1 6 6v44.84a6 6 0 0 1-6 6h-54.88a6 6 0 0 1-6-6z" stroke="#3a414a" stroke-width="2" fill="#fff"/><use xlink:href="#c" transform="matrix(1,0,0,1,1961.7234146961812,1430.4150456519546) translate(7.919753086419753 21.90277777777778)"/><path d="M1486.72 1424.4a6 6 0 0 1 6-6h54.88a6 6 0 0 1 6 6v44.84a6 6 0 0 1-6 6h-54.88a6 6 0 0 1-6-6z" stroke="#3a414a" stroke-width="2" fill="#fff"/><use xlink:href="#d" transform="matrix(1,0,0,1,1498.7234146961812,1430.4150456519546) translate(7.919753086419753 21.90277777777778)"/><path d="M1486.72 1226a6 6 0 0 1 6-6h54.88a6 6 0 0 1 6 6v44.83a6 6 0 0 1-6 6h-54.88a6 6 0 0 1-6-6z" stroke="#3a414a" stroke-width="2" fill="#fff"/><use xlink:href="#e" transform="matrix(1,0,0,1,1498.7234146961814,1232) translate(7.919753086419753 21.90277777777778)"/><path d="M1486.72 1622.83a6 6 0 0 1 6-6h54.88a6 6 0 0 1 6 6v44.83a6 6 0 0 1-6 6h-54.88a6 6 0 0 1-6-6z" stroke="#3a414a" stroke-width="2" fill="#fff"/><use xlink:href="#f" transform="matrix(1,0,0,1,1498.7234146961814,1628.8300913039093) translate(7.919753086419753 21.90277777777778)"/><path d="M1133.1 1447.8h-40.82v-1.94h40.83zm111.62 0h-40.83v-1.94h40.82z" stroke="#3a414a" stroke-width=".05" fill="#3a414a"/><path d="M1092.3 1447.8h-1.02v-1.94h1.02z" fill="#3a414a"/><path stroke="#3a414a" stroke-width=".05" fill="#3a414a"/><path d="M1245.72 1447.8h-1.02v-1.94h1.02z" fill="#3a414a"/><path stroke="#3a414a" stroke-width=".05" fill="#3a414a"/><use xlink:href="#g" transform="matrix(1,0,0,1,1133.1137152079898,1436.074882970576) translate(0 17.22222222222222)"/><use xlink:href="#h" transform="matrix(1,0,0,1,1133.1137152079898,1436.074882970576) translate(46.39756944444445 17.22222222222222)"/><path d="M1351.08 1447.8h-35.48v-1.94h35.48zm133.64 0h-62.4v-1.94h62.4z" stroke="#3a414a" stroke-width=".05" fill="#3a414a"/><path d="M1315.63 1447.8h-1.03v-1.94h1.03z" fill="#3a414a"/><path stroke="#3a414a" stroke-width=".05" fill="#3a414a"/><path d="M1485.72 1447.8h-1.02v-1.94h1.02z" fill="#3a414a"/><path stroke="#3a414a" stroke-width=".05" fill="#3a414a"/><use xlink:href="#i" transform="matrix(1,0,0,1,1351.0765738037232,1436.074882970576) translate(0 17.22222222222222)"/><use xlink:href="#h" transform="matrix(1,0,0,1,1351.0765738037232,1436.074882970576) translate(46.875 17.22222222222222)"/><path d="M1603.44 1447.8h-47.84v-1.94h47.84zm121.28 0h-47.84v-1.94h47.84z" stroke="#3a414a" stroke-width=".05" fill="#3a414a"/><path d="M1555.63 1447.8h-1.03v-1.94h1.03z" fill="#3a414a"/><path stroke="#3a414a" stroke-width=".05" fill="#3a414a"/><path d="M1725.72 1447.8h-1.02v-1.94h1.02z" fill="#3a414a"/><path stroke="#3a414a" stroke-width=".05" fill="#3a414a"/><use xlink:href="#i" transform="matrix(1,0,0,1,1603.4435611961815,1436.074882970576) translate(0 17.22222222222222)"/><use xlink:href="#j" transform="matrix(1,0,0,1,1603.4435611961815,1436.074882970576) translate(46.875 17.22222222222222)"/><path d="M1480 1254.1l-203.4 162.57M1762.4 1477.65L1559 1640.2M1560.93 1250.45l197.73 163.16M1282.27 1479.82L1480 1643" stroke="#000" stroke-width="2" stroke-linecap="round" fill="none"/><path d="M1206.72 1304.4a6 6 0 0 1 6-6h228a6 6 0 0 1 6 6v48a6 6 0 0 1-6 6h-228a6 6 0 0 1-6-6z" fill="none"/><use xlink:href="#k" transform="matrix(1,0,0,1,1206.7234146961812,1298.4150456519546) translate(84.61371527777777 36.467013888888886)"/><use xlink:href="#l" transform="matrix(1,0,0,1,1206.7234146961812,1298.4150456519546) translate(131.01128472222223 36.467013888888886)"/><path d="M1599.72 1304.4a6 6 0 0 1 6-6h228a6 6 0 0 1 6 6v48a6 6 0 0 1-6 6h-228a6 6 0 0 1-6-6z" fill="none"/><use xlink:href="#k" transform="matrix(1,0,0,1,1599.7234146961812,1298.4150456519546) translate(83.51996527777777 36.467013888888886)"/><use xlink:href="#m" transform="matrix(1,0,0,1,1599.7234146961812,1298.4150456519546) translate(129.91753472222223 36.467013888888886)"/><path d="M1203.66 1544.4a6 6 0 0 1 6-6h228a6 6 0 0 1 6 6v48a6 6 0 0 1-6 6h-228a6 6 0 0 1-6-6z" fill="none"/><use xlink:href="#n" transform="matrix(1,0,0,1,1203.6623112659697,1538.4150456519546) translate(84.375 36.467013888888886)"/><use xlink:href="#l" transform="matrix(1,0,0,1,1203.6623112659697,1538.4150456519546) translate(131.25 36.467013888888886)"/><path d="M1596.66 1544.4a6 6 0 0 1 6-6h228a6 6 0 0 1 6 6v48a6 6 0 0 1-6 6h-228a6 6 0 0 1-6-6z" fill="none"/><use xlink:href="#n" transform="matrix(1,0,0,1,1596.6623112659697,1538.4150456519546) translate(84.375 36.467013888888886)"/><use xlink:href="#l" transform="matrix(1,0,0,1,1596.6623112659697,1538.4150456519546) translate(131.25 36.467013888888886)"/><path d="M1835.25 1447.8h-39.65v-1.94h39.65zm112.47 0h-39.64v-1.94h39.64z" stroke="#3a414a" stroke-width=".05" fill="#3a414a"/><path d="M1795.63 1447.8h-1.03v-1.94h1.03z" fill="#3a414a"/><path stroke="#3a414a" stroke-width=".05" fill="#3a414a"/><path d="M1948.72 1447.8h-1.02v-1.94h1.02z" fill="#3a414a"/><path stroke="#3a414a" stroke-width=".05" fill="#3a414a"/><use xlink:href="#i" transform="matrix(1,0,0,1,1835.2473806406258,1436.074882970576) translate(0 17.22222222222222)"/><use xlink:href="#o" transform="matrix(1,0,0,1,1835.2473806406258,1436.074882970576) translate(46.875 17.22222222222222)"/><path d="M1023.4 1226a6 6 0 0 1 6-6h135.73a6 6 0 0 1 6 6v19.52a6 6 0 0 1-6 6H1029.4a6 6 0 0 1-6-6z" fill="none"/><use xlink:href="#p" transform="matrix(1,0,0,1,1028.398792164242,1225) translate(0 17.46701388888889)"/><use xlink:href="#q" transform="matrix(1,0,0,1,1028.398792164242,1225) translate(18.59375 17.46701388888889)"/><use xlink:href="#r" transform="matrix(1,0,0,1,1028.398792164242,1225) translate(35.35590277777778 17.46701388888889)"/><path d="M1023.4 1262.9a6 6 0 0 1 6-6h128.1a6 6 0 0 1 6 6v19.52a6 6 0 0 1-6 6h-128.1a6 6 0 0 1-6-6z" fill="none"/><use xlink:href="#s" transform="matrix(1,0,0,1,1028.398792164242,1261.8980208333332) translate(0 17.46701388888889)"/><use xlink:href="#q" transform="matrix(1,0,0,1,1028.398792164242,1261.8980208333332) translate(16.40625 17.46701388888889)"/><use xlink:href="#t" transform="matrix(1,0,0,1,1028.398792164242,1261.8980208333332) translate(33.16840277777778 17.46701388888889)"/><path d="M1023.4 1302.9a6 6 0 0 1 6-6H1171a6 6 0 0 1 6 6v19.52a6 6 0 0 1-6 6h-141.6a6 6 0 0 1-6-6z" fill="none"/><use xlink:href="#u" transform="matrix(1,0,0,1,1028.398792164242,1301.8980208333332) translate(0 17.46701388888889)"/><use xlink:href="#q" transform="matrix(1,0,0,1,1028.398792164242,1301.8980208333332) translate(17.986111111111114 17.46701388888889)"/><use xlink:href="#v" transform="matrix(1,0,0,1,1028.398792164242,1301.8980208333332) translate(34.74826388888889 17.46701388888889)"/><path d="M1023.4 1424.4a6 6 0 0 1 6-6h54.88a6 6 0 0 1 6 6v44.84a6 6 0 0 1-6 6h-54.88a6 6 0 0 1-6-6z" stroke="#3a414a" stroke-width="2" fill="#fff"/><use xlink:href="#a" transform="matrix(1,0,0,1,1035.398792164242,1430.4150456519546) translate(7.919753086419753 21.90277777777778)"/><path d="M1246.72 1424.4a6 6 0 0 1 6-6h54.88a6 6 0 0 1 6 6v44.84a6 6 0 0 1-6 6h-54.88a6 6 0 0 1-6-6z" fill="#fff"/><path d="M1289.3 1418.4h18.3a6 6 0 0 1 6 6v14.96m0 14.94v14.94a6 6 0 0 1-6 6h-18.3m-18.28 0h-18.3a6 6 0 0 1-6-6v-14.94m0-14.94v-14.94a6 6 0 0 1 6-6h18.3" stroke="#3a414a" stroke-width="2" fill="none"/><use xlink:href="#b" transform="matrix(1,0,0,1,1258.7234146961812,1430.4150456519546) translate(7.919753086419753 21.90277777777778)"/><path d="M1726.72 1424.4a6 6 0 0 1 6-6h54.88a6 6 0 0 1 6 6v44.84a6 6 0 0 1-6 6h-54.88a6 6 0 0 1-6-6z" fill="#fff"/><path d="M1769.3 1418.4h18.3a6 6 0 0 1 6 6v14.96m0 14.94v14.94a6 6 0 0 1-6 6h-18.3m-18.28 0h-18.3a6 6 0 0 1-6-6v-14.94m0-14.94v-14.94a6 6 0 0 1 6-6h18.3" stroke="#3a414a" stroke-width="2" fill="none"/><use xlink:href="#b" transform="matrix(1,0,0,1,1738.7234146961812,1430.4150456519546) translate(7.919753086419753 21.90277777777778)"/><path d="M1949.72 1424.4a6 6 0 0 1 6-6h54.88a6 6 0 0 1 6 6v44.84a6 6 0 0 1-6 6h-54.88a6 6 0 0 1-6-6z" stroke="#3a414a" stroke-width="2" fill="#fff"/><use xlink:href="#c" transform="matrix(1,0,0,1,1961.7234146961812,1430.4150456519546) translate(7.919753086419753 21.90277777777778)"/><path d="M1486.72 1424.4a6 6 0 0 1 6-6h54.88a6 6 0 0 1 6 6v44.84a6 6 0 0 1-6 6h-54.88a6 6 0 0 1-6-6z" stroke="#3a414a" stroke-width="2" fill="#fff"/><use xlink:href="#d" transform="matrix(1,0,0,1,1498.7234146961812,1430.4150456519546) translate(7.919753086419753 21.90277777777778)"/><path d="M1486.72 1226a6 6 0 0 1 6-6h54.88a6 6 0 0 1 6 6v44.83a6 6 0 0 1-6 6h-54.88a6 6 0 0 1-6-6z" stroke="#3a414a" stroke-width="2" fill="#fff"/><use xlink:href="#e" transform="matrix(1,0,0,1,1498.7234146961814,1232) translate(7.919753086419753 21.90277777777778)"/><path d="M1486.72 1622.83a6 6 0 0 1 6-6h54.88a6 6 0 0 1 6 6v44.83a6 6 0 0 1-6 6h-54.88a6 6 0 0 1-6-6z" stroke="#3a414a" stroke-width="2" fill="#fff"/><use xlink:href="#f" transform="matrix(1,0,0,1,1498.7234146961814,1628.8300913039093) translate(7.919753086419753 21.90277777777778)"/><path d="M1133.1 1447.8h-40.82v-1.94h40.83zm111.62 0h-40.83v-1.94h40.82z" stroke="#3a414a" stroke-width=".05" fill="#3a414a"/><path d="M1092.3 1447.8h-1.02v-1.94h1.02z" fill="#3a414a"/><path stroke="#3a414a" stroke-width=".05" fill="#3a414a"/><path d="M1245.72 1447.8h-1.02v-1.94h1.02z" fill="#3a414a"/><path stroke="#3a414a" stroke-width=".05" fill="#3a414a"/><use xlink:href="#g" transform="matrix(1,0,0,1,1133.1137152079898,1436.074882970576) translate(0 17.22222222222222)"/><use xlink:href="#h" transform="matrix(1,0,0,1,1133.1137152079898,1436.074882970576) translate(46.39756944444445 17.22222222222222)"/><path d="M1351.08 1447.8h-35.48v-1.94h35.48zm133.64 0h-62.4v-1.94h62.4z" stroke="#3a414a" stroke-width=".05" fill="#3a414a"/><path d="M1315.63 1447.8h-1.03v-1.94h1.03z" fill="#3a414a"/><path stroke="#3a414a" stroke-width=".05" fill="#3a414a"/><path d="M1485.72 1447.8h-1.02v-1.94h1.02z" fill="#3a414a"/><path stroke="#3a414a" stroke-width=".05" fill="#3a414a"/><use xlink:href="#i" transform="matrix(1,0,0,1,1351.0765738037232,1436.074882970576) translate(0 17.22222222222222)"/><use xlink:href="#h" transform="matrix(1,0,0,1,1351.0765738037232,1436.074882970576) translate(46.875 17.22222222222222)"/><path d="M1603.44 1447.8h-47.84v-1.94h47.84zm121.28 0h-47.84v-1.94h47.84z" stroke="#3a414a" stroke-width=".05" fill="#3a414a"/><path d="M1555.63 1447.8h-1.03v-1.94h1.03z" fill="#3a414a"/><path stroke="#3a414a" stroke-width=".05" fill="#3a414a"/><path d="M1725.72 1447.8h-1.02v-1.94h1.02z" fill="#3a414a"/><path stroke="#3a414a" stroke-width=".05" fill="#3a414a"/><use xlink:href="#i" transform="matrix(1,0,0,1,1603.4435611961815,1436.074882970576) translate(0 17.22222222222222)"/><use xlink:href="#j" transform="matrix(1,0,0,1,1603.4435611961815,1436.074882970576) translate(46.875 17.22222222222222)"/><path d="M1480 1254.1l-203.4 162.57M1762.4 1477.65L1559 1640.2M1560.93 1250.45l197.73 163.16M1282.27 1479.82L1480 1643" stroke="#000" stroke-width="2" stroke-linecap="round" fill="none"/><path d="M1206.72 1304.4a6 6 0 0 1 6-6h228a6 6 0 0 1 6 6v48a6 6 0 0 1-6 6h-228a6 6 0 0 1-6-6z" fill="none"/><use xlink:href="#k" transform="matrix(1,0,0,1,1206.7234146961812,1298.4150456519546) translate(84.61371527777777 36.467013888888886)"/><use xlink:href="#l" transform="matrix(1,0,0,1,1206.7234146961812,1298.4150456519546) translate(131.01128472222223 36.467013888888886)"/><path d="M1599.72 1304.4a6 6 0 0 1 6-6h228a6 6 0 0 1 6 6v48a6 6 0 0 1-6 6h-228a6 6 0 0 1-6-6z" fill="none"/><use xlink:href="#k" transform="matrix(1,0,0,1,1599.7234146961812,1298.4150456519546) translate(83.51996527777777 36.467013888888886)"/><use xlink:href="#m" transform="matrix(1,0,0,1,1599.7234146961812,1298.4150456519546) translate(129.91753472222223 36.467013888888886)"/><path d="M1203.66 1544.4a6 6 0 0 1 6-6h228a6 6 0 0 1 6 6v48a6 6 0 0 1-6 6h-228a6 6 0 0 1-6-6z" fill="none"/><use xlink:href="#n" transform="matrix(1,0,0,1,1203.6623112659697,1538.4150456519546) translate(84.375 36.467013888888886)"/><use xlink:href="#l" transform="matrix(1,0,0,1,1203.6623112659697,1538.4150456519546) translate(131.25 36.467013888888886)"/><path d="M1596.66 1544.4a6 6 0 0 1 6-6h228a6 6 0 0 1 6 6v48a6 6 0 0 1-6 6h-228a6 6 0 0 1-6-6z" fill="none"/><use xlink:href="#n" transform="matrix(1,0,0,1,1596.6623112659697,1538.4150456519546) translate(84.375 36.467013888888886)"/><use xlink:href="#l" transform="matrix(1,0,0,1,1596.6623112659697,1538.4150456519546) translate(131.25 36.467013888888886)"/><path d="M1835.25 1447.8h-39.65v-1.94h39.65zm112.47 0h-39.64v-1.94h39.64z" stroke="#3a414a" stroke-width=".05" fill="#3a414a"/><path d="M1795.63 1447.8h-1.03v-1.94h1.03z" fill="#3a414a"/><path stroke="#3a414a" stroke-width=".05" fill="#3a414a"/><path d="M1948.72 1447.8h-1.02v-1.94h1.02z" fill="#3a414a"/><path stroke="#3a414a" stroke-width=".05" fill="#3a414a"/><use xlink:href="#i" transform="matrix(1,0,0,1,1835.2473806406258,1436.074882970576) translate(0 17.22222222222222)"/><use xlink:href="#o" transform="matrix(1,0,0,1,1835.2473806406258,1436.074882970576) translate(46.875 17.22222222222222)"/><path d="M1023.4 1424.4a6 6 0 0 1 6-6h54.88a6 6 0 0 1 6 6v44.84a6 6 0 0 1-6 6h-54.88a6 6 0 0 1-6-6z" stroke="#3a414a" stroke-width="2" fill="#fff"/><use xlink:href="#a" transform="matrix(1,0,0,1,1035.398792164242,1430.4150456519546) translate(7.919753086419753 21.90277777777778)"/><path d="M1246.72 1424.4a6 6 0 0 1 6-6h54.88a6 6 0 0 1 6 6v44.84a6 6 0 0 1-6 6h-54.88a6 6 0 0 1-6-6z" fill="#fff"/><path d="M1289.3 1418.4h18.3a6 6 0 0 1 6 6v14.96m0 14.94v14.94a6 6 0 0 1-6 6h-18.3m-18.28 0h-18.3a6 6 0 0 1-6-6v-14.94m0-14.94v-14.94a6 6 0 0 1 6-6h18.3" stroke="#3a414a" stroke-width="2" fill="none"/><use xlink:href="#b" transform="matrix(1,0,0,1,1258.7234146961812,1430.4150456519546) translate(7.919753086419753 21.90277777777778)"/><path d="M1726.72 1424.4a6 6 0 0 1 6-6h54.88a6 6 0 0 1 6 6v44.84a6 6 0 0 1-6 6h-54.88a6 6 0 0 1-6-6z" fill="#fff"/><path d="M1769.3 1418.4h18.3a6 6 0 0 1 6 6v14.96m0 14.94v14.94a6 6 0 0 1-6 6h-18.3m-18.28 0h-18.3a6 6 0 0 1-6-6v-14.94m0-14.94v-14.94a6 6 0 0 1 6-6h18.3" stroke="#3a414a" stroke-width="2" fill="none"/><use xlink:href="#b" transform="matrix(1,0,0,1,1738.7234146961812,1430.4150456519546) translate(7.919753086419753 21.90277777777778)"/><path d="M1949.72 1424.4a6 6 0 0 1 6-6h54.88a6 6 0 0 1 6 6v44.84a6 6 0 0 1-6 6h-54.88a6 6 0 0 1-6-6z" stroke="#3a414a" stroke-width="2" fill="#fff"/><use xlink:href="#c" transform="matrix(1,0,0,1,1961.7234146961812,1430.4150456519546) translate(7.919753086419753 21.90277777777778)"/><path d="M1486.72 1424.4a6 6 0 0 1 6-6h54.88a6 6 0 0 1 6 6v44.84a6 6 0 0 1-6 6h-54.88a6 6 0 0 1-6-6z" stroke="#3a414a" stroke-width="2" fill="#fff"/><use xlink:href="#d" transform="matrix(1,0,0,1,1498.7234146961812,1430.4150456519546) translate(7.919753086419753 21.90277777777778)"/><path d="M1486.72 1226a6 6 0 0 1 6-6h54.88a6 6 0 0 1 6 6v44.83a6 6 0 0 1-6 6h-54.88a6 6 0 0 1-6-6z" stroke="#3a414a" stroke-width="2" fill="#fff"/><use xlink:href="#e" transform="matrix(1,0,0,1,1498.7234146961814,1232) translate(7.919753086419753 21.90277777777778)"/><path d="M1486.72 1622.83a6 6 0 0 1 6-6h54.88a6 6 0 0 1 6 6v44.83a6 6 0 0 1-6 6h-54.88a6 6 0 0 1-6-6z" stroke="#3a414a" stroke-width="2" fill="#fff"/><use xlink:href="#f" transform="matrix(1,0,0,1,1498.7234146961814,1628.8300913039093) translate(7.919753086419753 21.90277777777778)"/><path d="M1133.1 1447.8h-40.82v-1.94h40.83zm111.62 0h-40.83v-1.94h40.82z" stroke="#3a414a" stroke-width=".05" fill="#3a414a"/><path d="M1092.3 1447.8h-1.02v-1.94h1.02z" fill="#3a414a"/><path stroke="#3a414a" stroke-width=".05" fill="#3a414a"/><path d="M1245.72 1447.8h-1.02v-1.94h1.02z" fill="#3a414a"/><path stroke="#3a414a" stroke-width=".05" fill="#3a414a"/><g><use xlink:href="#g" transform="matrix(1,0,0,1,1133.1137152079898,1436.074882970576) translate(0 17.22222222222222)"/><use xlink:href="#h" transform="matrix(1,0,0,1,1133.1137152079898,1436.074882970576) translate(46.39756944444445 17.22222222222222)"/></g><path d="M1351.08 1447.8h-35.48v-1.94h35.48zm133.64 0h-62.4v-1.94h62.4z" stroke="#3a414a" stroke-width=".05" fill="#3a414a"/><path d="M1315.63 1447.8h-1.03v-1.94h1.03z" fill="#3a414a"/><path stroke="#3a414a" stroke-width=".05" fill="#3a414a"/><path d="M1485.72 1447.8h-1.02v-1.94h1.02z" fill="#3a414a"/><path stroke="#3a414a" stroke-width=".05" fill="#3a414a"/><g><use xlink:href="#i" transform="matrix(1,0,0,1,1351.0765738037232,1436.074882970576) translate(0 17.22222222222222)"/><use xlink:href="#h" transform="matrix(1,0,0,1,1351.0765738037232,1436.074882970576) translate(46.875 17.22222222222222)"/></g><path d="M1603.44 1447.8h-47.84v-1.94h47.84zm121.28 0h-47.84v-1.94h47.84z" stroke="#3a414a" stroke-width=".05" fill="#3a414a"/><path d="M1555.63 1447.8h-1.03v-1.94h1.03z" fill="#3a414a"/><path stroke="#3a414a" stroke-width=".05" fill="#3a414a"/><path d="M1725.72 1447.8h-1.02v-1.94h1.02z" fill="#3a414a"/><path stroke="#3a414a" stroke-width=".05" fill="#3a414a"/><g><use xlink:href="#i" transform="matrix(1,0,0,1,1603.4435611961815,1436.074882970576) translate(0 17.22222222222222)"/><use xlink:href="#j" transform="matrix(1,0,0,1,1603.4435611961815,1436.074882970576) translate(46.875 17.22222222222222)"/></g><g><path d="M1480 1254.1l-203.4 162.57" stroke="#000" stroke-width="2" stroke-linecap="round" fill="none"/></g><g><path d="M1762.4 1477.65L1559 1640.2" stroke="#000" stroke-width="2" stroke-linecap="round" fill="none"/></g><g><path d="M1560.93 1250.45l197.73 163.16" stroke="#000" stroke-width="2" stroke-linecap="round" fill="none"/></g><g><path d="M1282.27 1479.82L1480 1643" stroke="#000" stroke-width="2" stroke-linecap="round" fill="none"/></g><path d="M1206.72 1304.4a6 6 0 0 1 6-6h228a6 6 0 0 1 6 6v48a6 6 0 0 1-6 6h-228a6 6 0 0 1-6-6z" fill="none"/><g><use xlink:href="#k" transform="matrix(1,0,0,1,1206.7234146961812,1298.4150456519546) translate(84.61371527777777 36.467013888888886)"/><use xlink:href="#l" transform="matrix(1,0,0,1,1206.7234146961812,1298.4150456519546) translate(131.01128472222223 36.467013888888886)"/></g><path d="M1599.72 1304.4a6 6 0 0 1 6-6h228a6 6 0 0 1 6 6v48a6 6 0 0 1-6 6h-228a6 6 0 0 1-6-6z" fill="none"/><g><use xlink:href="#k" transform="matrix(1,0,0,1,1599.7234146961812,1298.4150456519546) translate(83.51996527777777 36.467013888888886)"/><use xlink:href="#m" transform="matrix(1,0,0,1,1599.7234146961812,1298.4150456519546) translate(129.91753472222223 36.467013888888886)"/></g><path d="M1203.66 1544.4a6 6 0 0 1 6-6h228a6 6 0 0 1 6 6v48a6 6 0 0 1-6 6h-228a6 6 0 0 1-6-6z" fill="none"/><g><use xlink:href="#n" transform="matrix(1,0,0,1,1203.6623112659697,1538.4150456519546) translate(84.375 36.467013888888886)"/><use xlink:href="#l" transform="matrix(1,0,0,1,1203.6623112659697,1538.4150456519546) translate(131.25 36.467013888888886)"/></g><path d="M1596.66 1544.4a6 6 0 0 1 6-6h228a6 6 0 0 1 6 6v48a6 6 0 0 1-6 6h-228a6 6 0 0 1-6-6z" fill="none"/><g><use xlink:href="#n" transform="matrix(1,0,0,1,1596.6623112659697,1538.4150456519546) translate(84.375 36.467013888888886)"/><use xlink:href="#l" transform="matrix(1,0,0,1,1596.6623112659697,1538.4150456519546) translate(131.25 36.467013888888886)"/></g><path d="M1835.25 1447.8h-39.65v-1.94h39.65zm112.47 0h-39.64v-1.94h39.64z" stroke="#3a414a" stroke-width=".05" fill="#3a414a"/><path d="M1795.63 1447.8h-1.03v-1.94h1.03z" fill="#3a414a"/><path stroke="#3a414a" stroke-width=".05" fill="#3a414a"/><path d="M1948.72 1447.8h-1.02v-1.94h1.02z" fill="#3a414a"/><path stroke="#3a414a" stroke-width=".05" fill="#3a414a"/><g><use xlink:href="#i" transform="matrix(1,0,0,1,1835.2473806406258,1436.074882970576) translate(0 17.22222222222222)"/><use xlink:href="#o" transform="matrix(1,0,0,1,1835.2473806406258,1436.074882970576) translate(46.875 17.22222222222222)"/></g><defs><path d="M30-248c87 1 191-15 191 75 0 78-77 80-158 76V0H30v-248zm33 125c57 0 124 11 124-50 0-59-68-47-124-48v98" id="w"/><path d="M101-251c82-7 93 87 43 132L82-64C71-53 59-42 53-27h129V0H18c2-99 128-94 128-182 0-28-16-43-45-43s-46 15-49 41l-32-3c6-41 34-60 81-64" id="x"/><g id="a"><use transform="matrix(0.06172839506172839,0,0,0.06172839506172839,0,0)" xlink:href="#w"/><use transform="matrix(0.06172839506172839,0,0,0.06172839506172839,14.814814814814813,0)" xlink:href="#x"/></g><path d="M185-189c-5-48-123-54-124 2 14 75 158 14 163 119 3 78-121 87-175 55-17-10-28-26-33-46l33-7c5 56 141 63 141-1 0-78-155-14-162-118-5-82 145-84 179-34 5 7 8 16 11 25" id="y"/><path d="M27 0v-27h64v-190l-56 39v-29l58-41h29v221h61V0H27" id="z"/><g id="b"><use transform="matrix(0.06172839506172839,0,0,0.06172839506172839,0,0)" xlink:href="#y"/><use transform="matrix(0.06172839506172839,0,0,0.06172839506172839,14.814814814814813,0)" xlink:href="#z"/></g><path d="M155-56V0h-30v-56H8v-25l114-167h33v167h35v25h-35zm-30-156c-27 46-58 90-88 131h88v-131" id="A"/><g id="c"><use transform="matrix(0.06172839506172839,0,0,0.06172839506172839,0,0)" xlink:href="#w"/><use transform="matrix(0.06172839506172839,0,0,0.06172839506172839,14.814814814814813,0)" xlink:href="#A"/></g><path d="M126-127c33 6 58 20 58 59 0 88-139 92-164 29-3-8-5-16-6-25l32-3c6 27 21 44 54 44 32 0 52-15 52-46 0-38-36-46-79-43v-28c39 1 72-4 72-42 0-27-17-43-46-43-28 0-47 15-49 41l-32-3c6-42 35-63 81-64 48-1 79 21 79 65 0 36-21 52-52 59" id="B"/><g id="d"><use transform="matrix(0.06172839506172839,0,0,0.06172839506172839,0,0)" xlink:href="#w"/><use transform="matrix(0.06172839506172839,0,0,0.06172839506172839,14.814814814814813,0)" xlink:href="#B"/></g><g id="e"><use transform="matrix(0.06172839506172839,0,0,0.06172839506172839,0,0)" xlink:href="#w"/><use transform="matrix(0.06172839506172839,0,0,0.06172839506172839,14.814814814814813,0)" xlink:href="#z"/></g><path d="M54-142c48-35 137-8 131 61C196 18 31 33 14-55l32-4c7 23 22 37 52 37 35-1 51-22 54-58 4-55-73-65-99-34H22l8-134h141v27H59" id="C"/><g id="f"><use transform="matrix(0.06172839506172839,0,0,0.06172839506172839,0,0)" xlink:href="#w"/><use transform="matrix(0.06172839506172839,0,0,0.06172839506172839,14.814814814814813,0)" xlink:href="#C"/></g><path fill="#333" d="M52 0l541-1490h220L1361 0h-200l-149-416H398L254 0H52zm404-582h497c-103-290-145-390-251-756-108 377-145 460-246 756" id="D"/><path fill="#333" d="M338-1490V0H158v-1490h180" id="E"/><path fill="#333" d="M158 0v-1118h180V0H158zm91-1301c-68 0-125-53-125-119s57-119 125-119c69 0 126 53 126 119s-57 119-126 119" id="F"/><path fill="#333" d="M613 24c-304 0-509-231-509-576 0-350 205-580 509-580 216 0 392 114 453 309l-173 49c-33-115-133-197-280-197-223 0-326 196-326 419 0 220 103 415 326 415 150 0 252-85 285-206l172 49C1010-95 832 24 613 24" id="G"/><path fill="#333" d="M628 24c-324 0-524-230-524-574 0-343 198-582 503-582 237 0 487 146 487 559v75H286c9 234 145 362 343 362 132 0 231-58 273-172l174 48C1024-91 857 24 628 24zM287-650h624c-17-190-120-322-304-322-192 0-309 151-320 322" id="H"/><g id="g"><use transform="matrix(0.008680555555555556,0,0,0.008680555555555556,0,0)" xlink:href="#D"/><use transform="matrix(0.008680555555555556,0,0,0.008680555555555556,12.265625,0)" xlink:href="#E"/><use transform="matrix(0.008680555555555556,0,0,0.008680555555555556,16.571180555555557,0)" xlink:href="#F"/><use transform="matrix(0.008680555555555556,0,0,0.008680555555555556,20.876736111111114,0)" xlink:href="#G"/><use transform="matrix(0.008680555555555556,0,0,0.008680555555555556,31.03298611111111,0)" xlink:href="#H"/></g><path fill="#333" d="M218-607c0-325 108-727 258-974h175c-155 315-250 682-250 974 0 265 78 531 250 886H476C306-10 218-315 218-607" id="I"/><path fill="#333" d="M657 26c-323 0-524-166-541-416h195c15 169 171 246 346 246 202 0 356-106 356-265 5-203-294-238-475-293-239-73-380-191-380-389 0-252 224-419 512-419 294 0 499 171 508 396H992c-17-145-151-228-328-228-193 0-321 102-321 242 0 156 175 211 284 241l149 41c160 44 422 134 422 412 0 244-197 432-541 432" id="J"/><path fill="#333" d="M96 279C273-86 346-350 346-607c0-292-95-659-250-974h175c150 246 258 650 258 974 0 297-91 602-258 886H96" id="K"/><g id="h"><use transform="matrix(0.008680555555555556,0,0,0.008680555555555556,0,0)" xlink:href="#I"/><use transform="matrix(0.008680555555555556,0,0,0.008680555555555556,6.484375,0)" xlink:href="#J"/><use transform="matrix(0.008680555555555556,0,0,0.008680555555555556,17.890625,0)" xlink:href="#K"/></g><path fill="#333" d="M180 0v-1490h528c311 0 458 177 458 395 0 191-114 278-244 313v14c139 9 302 137 302 371 0 225-148 397-499 397H180zm190-168h350c232 0 321-102 321-231 0-149-120-277-311-277H370v508zm0-668h328c160 0 286-101 286-255 0-129-87-231-280-231H370v486" id="L"/><path fill="#333" d="M471 26C259 26 90-98 90-318c0-256 228-303 435-329 202-27 287-16 287-108 0-139-79-219-234-219-161 0-248 86-283 164l-173-57c86-203 278-265 451-265 150 0 419 46 419 395V0H815v-152h-12C765-73 660 26 471 26zm31-159c199 0 310-134 310-271v-155c-30 35-226 55-295 64-131 17-246 59-246 186 0 116 97 176 231 176" id="M"/><path fill="#333" d="M338-670V0H158v-1118h173l1 207c72-158 192-221 342-221 226 0 378 139 378 422V0H872v-695c0-172-96-275-252-275-161 0-282 109-282 300" id="N"/><path fill="#333" d="M158 0v-1490h180v865h22l478-493h223L593-638 1096 0H865L456-523 338-412V0H158" id="O"/><g id="i"><use transform="matrix(0.008680555555555556,0,0,0.008680555555555556,0,0)" xlink:href="#L"/><use transform="matrix(0.008680555555555556,0,0,0.008680555555555556,11.631944444444445,0)" xlink:href="#M"/><use transform="matrix(0.008680555555555556,0,0,0.008680555555555556,21.614583333333336,0)" xlink:href="#N"/><use transform="matrix(0.008680555555555556,0,0,0.008680555555555556,32.11805555555556,0)" xlink:href="#O"/></g><path fill="#333" d="M784 20c-382 0-662-292-662-764 0-473 280-766 662-766s660 293 660 766c0 472-278 764-660 764zm0-176c266 0 475-207 475-588 0-383-209-590-475-590-268 0-477 208-477 590 0 380 209 588 477 588" id="P"/><g id="j"><use transform="matrix(0.008680555555555556,0,0,0.008680555555555556,0,0)" xlink:href="#I"/><use transform="matrix(0.008680555555555556,0,0,0.008680555555555556,6.484375,0)" xlink:href="#P"/><use transform="matrix(0.008680555555555556,0,0,0.008680555555555556,20.078125,0)" xlink:href="#K"/></g><path d="M52 0l541-1490h220L1361 0h-200l-149-416H398L254 0H52zm404-582h497c-103-290-145-390-251-756-108 377-145 460-246 756" id="Q"/><path d="M338-1490V0H158v-1490h180" id="R"/><path d="M158 0v-1118h180V0H158zm91-1301c-68 0-125-53-125-119s57-119 125-119c69 0 126 53 126 119s-57 119-126 119" id="S"/><path d="M613 24c-304 0-509-231-509-576 0-350 205-580 509-580 216 0 392 114 453 309l-173 49c-33-115-133-197-280-197-223 0-326 196-326 419 0 220 103 415 326 415 150 0 252-85 285-206l172 49C1010-95 832 24 613 24" id="T"/><path d="M628 24c-324 0-524-230-524-574 0-343 198-582 503-582 237 0 487 146 487 559v75H286c9 234 145 362 343 362 132 0 231-58 273-172l174 48C1024-91 857 24 628 24zM287-650h624c-17-190-120-322-304-322-192 0-309 151-320 322" id="U"/><g id="k"><use transform="matrix(0.008680555555555556,0,0,0.008680555555555556,0,0)" xlink:href="#Q"/><use transform="matrix(0.008680555555555556,0,0,0.008680555555555556,12.265625,0)" xlink:href="#R"/><use transform="matrix(0.008680555555555556,0,0,0.008680555555555556,16.571180555555557,0)" xlink:href="#S"/><use transform="matrix(0.008680555555555556,0,0,0.008680555555555556,20.876736111111114,0)" xlink:href="#T"/><use transform="matrix(0.008680555555555556,0,0,0.008680555555555556,31.03298611111111,0)" xlink:href="#U"/></g><path d="M218-607c0-325 108-727 258-974h175c-155 315-250 682-250 974 0 265 78 531 250 886H476C306-10 218-315 218-607" id="V"/><path d="M657 26c-323 0-524-166-541-416h195c15 169 171 246 346 246 202 0 356-106 356-265 5-203-294-238-475-293-239-73-380-191-380-389 0-252 224-419 512-419 294 0 499 171 508 396H992c-17-145-151-228-328-228-193 0-321 102-321 242 0 156 175 211 284 241l149 41c160 44 422 134 422 412 0 244-197 432-541 432" id="W"/><path d="M96 279C273-86 346-350 346-607c0-292-95-659-250-974h175c150 246 258 650 258 974 0 297-91 602-258 886H96" id="X"/><g id="l"><use transform="matrix(0.008680555555555556,0,0,0.008680555555555556,0,0)" xlink:href="#V"/><use transform="matrix(0.008680555555555556,0,0,0.008680555555555556,6.484375,0)" xlink:href="#W"/><use transform="matrix(0.008680555555555556,0,0,0.008680555555555556,17.890625,0)" xlink:href="#X"/></g><path d="M784 20c-382 0-662-292-662-764 0-473 280-766 662-766s660 293 660 766c0 472-278 764-660 764zm0-176c266 0 475-207 475-588 0-383-209-590-475-590-268 0-477 208-477 590 0 380 209 588 477 588" id="Y"/><g id="m"><use transform="matrix(0.008680555555555556,0,0,0.008680555555555556,0,0)" xlink:href="#V"/><use transform="matrix(0.008680555555555556,0,0,0.008680555555555556,6.484375,0)" xlink:href="#Y"/><use transform="matrix(0.008680555555555556,0,0,0.008680555555555556,20.078125,0)" xlink:href="#X"/></g><path d="M180 0v-1490h528c311 0 458 177 458 395 0 191-114 278-244 313v14c139 9 302 137 302 371 0 225-148 397-499 397H180zm190-168h350c232 0 321-102 321-231 0-149-120-277-311-277H370v508zm0-668h328c160 0 286-101 286-255 0-129-87-231-280-231H370v486" id="Z"/><path d="M471 26C259 26 90-98 90-318c0-256 228-303 435-329 202-27 287-16 287-108 0-139-79-219-234-219-161 0-248 86-283 164l-173-57c86-203 278-265 451-265 150 0 419 46 419 395V0H815v-152h-12C765-73 660 26 471 26zm31-159c199 0 310-134 310-271v-155c-30 35-226 55-295 64-131 17-246 59-246 186 0 116 97 176 231 176" id="aa"/><path d="M338-670V0H158v-1118h173l1 207c72-158 192-221 342-221 226 0 378 139 378 422V0H872v-695c0-172-96-275-252-275-161 0-282 109-282 300" id="ab"/><path d="M158 0v-1490h180v865h22l478-493h223L593-638 1096 0H865L456-523 338-412V0H158" id="ac"/><g id="n"><use transform="matrix(0.008680555555555556,0,0,0.008680555555555556,0,0)" xlink:href="#Z"/><use transform="matrix(0.008680555555555556,0,0,0.008680555555555556,11.631944444444445,0)" xlink:href="#aa"/><use transform="matrix(0.008680555555555556,0,0,0.008680555555555556,21.614583333333336,0)" xlink:href="#ab"/><use transform="matrix(0.008680555555555556,0,0,0.008680555555555556,32.11805555555556,0)" xlink:href="#ac"/></g><path fill="#333" d="M783 20c-382 0-661-292-661-764 0-473 279-766 661-766 302 0 548 182 601 489h-190c-42-204-217-313-411-313-268 0-476 208-476 590 0 381 209 588 476 588 195 0 369-110 411-313h190c-52 303-296 489-601 489" id="ad"/><g id="o"><use transform="matrix(0.008680555555555556,0,0,0.008680555555555556,0,0)" xlink:href="#I"/><use transform="matrix(0.008680555555555556,0,0,0.008680555555555556,6.484375,0)" xlink:href="#ad"/><use transform="matrix(0.008680555555555556,0,0,0.008680555555555556,19.470486111111114,0)" xlink:href="#K"/></g><use transform="matrix(0.008680555555555556,0,0,0.008680555555555556,0,0)" xlink:href="#Y" id="p"/><path d="M226-283v-166h904v166H226zm0-434v-166h904v166H226" id="ae"/><use transform="matrix(0.008680555555555556,0,0,0.008680555555555556,0,0)" xlink:href="#ae" id="q"/><path d="M677 24c-213 0-288-135-325-197h-20V0H158v-1490h180v551h14c37-59 106-193 324-193 279 0 474 222 474 576 0 356-194 580-473 580zm-27-161c209 0 317-186 317-421 0-232-105-413-317-413-206 0-314 166-314 413 0 249 111 421 314 421" id="af"/><path d="M538 24C308 24 148-78 108-271l171-41c32 123 123 178 257 178 156 0 256-77 256-169 0-77-54-128-164-154l-186-44c-203-48-300-148-300-305 0-192 176-326 414-326 230 0 351 112 402 269l-163 42c-31-80-94-158-238-158-133 0-233 69-233 162 0 83 57 129 188 160l169 40c203 48 298 149 298 302 0 196-179 339-441 339" id="ag"/><path d="M158 0v-1118h174v172h12c41-113 157-188 290-188 26 0 70 2 91 3v181c-11-2-60-10-108-10-161 0-279 109-279 260V0H158" id="ah"/><path d="M481 0L54-1118h197c107 314 236 620 325 951 87-331 217-637 324-951h197L670 0H481" id="ai"/><path d="M598-1118v154H368v674c0 100 37 144 132 144 23 0 62-6 92-12L629-6c-37 13-88 20-134 20-193 0-307-107-307-290v-688H20v-154h168v-266h180v266h230" id="aj"/><path d="M613 24c-304 0-509-231-509-576 0-350 205-580 509-580 305 0 511 230 511 580 0 345-206 576-511 576zm0-161c226 0 329-195 329-415 0-222-103-419-329-419-223 0-326 196-326 419 0 220 103 415 326 415" id="ak"/><g id="r"><use transform="matrix(0.008680555555555556,0,0,0.008680555555555556,0,0)" xlink:href="#Y"/><use transform="matrix(0.008680555555555556,0,0,0.008680555555555556,13.59375,0)" xlink:href="#af"/><use transform="matrix(0.008680555555555556,0,0,0.008680555555555556,24.479166666666668,0)" xlink:href="#ag"/><use transform="matrix(0.008680555555555556,0,0,0.008680555555555556,33.86284722222222,0)" xlink:href="#U"/><use transform="matrix(0.008680555555555556,0,0,0.008680555555555556,44.22743055555556,0)" xlink:href="#ah"/><use transform="matrix(0.008680555555555556,0,0,0.008680555555555556,51.19791666666667,0)" xlink:href="#ai"/><use transform="matrix(0.008680555555555556,0,0,0.008680555555555556,61.10243055555556,0)" xlink:href="#aa"/><use transform="matrix(0.008680555555555556,0,0,0.008680555555555556,71.08506944444444,0)" xlink:href="#aj"/><use transform="matrix(0.008680555555555556,0,0,0.008680555555555556,76.90104166666667,0)" xlink:href="#S"/><use transform="matrix(0.008680555555555556,0,0,0.008680555555555556,81.20659722222223,0)" xlink:href="#ak"/><use transform="matrix(0.008680555555555556,0,0,0.008680555555555556,91.86631944444447,0)" xlink:href="#ab"/></g><use transform="matrix(0.008680555555555556,0,0,0.008680555555555556,0,0)" xlink:href="#W" id="s"/><path d="M537 14c-226 0-379-139-379-422v-710h180v695c0 172 97 275 253 275 160 0 281-109 281-300v-670h181V0H879v-209C806-46 684 14 537 14" id="al"/><path d="M158 0v-1118h175l1 205c55-151 181-225 313-225 147 0 245 90 285 228 53-141 190-228 352-228 194 0 352 125 352 384V0h-181v-749c0-161-105-225-225-225-151 0-243 103-243 244V0H807v-767c0-124-93-207-219-207-131 0-250 92-250 270V0H158" id="am"/><g id="t"><use transform="matrix(0.008680555555555556,0,0,0.008680555555555556,0,0)" xlink:href="#W"/><use transform="matrix(0.008680555555555556,0,0,0.008680555555555556,11.40625,0)" xlink:href="#al"/><use transform="matrix(0.008680555555555556,0,0,0.008680555555555556,21.91840277777778,0)" xlink:href="#af"/><use transform="matrix(0.008680555555555556,0,0,0.008680555555555556,32.80381944444444,0)" xlink:href="#am"/><use transform="matrix(0.008680555555555556,0,0,0.008680555555555556,48.376736111111114,0)" xlink:href="#S"/><use transform="matrix(0.008680555555555556,0,0,0.008680555555555556,52.68229166666667,0)" xlink:href="#ag"/><use transform="matrix(0.008680555555555556,0,0,0.008680555555555556,62.06597222222222,0)" xlink:href="#ag"/><use transform="matrix(0.008680555555555556,0,0,0.008680555555555556,71.44965277777779,0)" xlink:href="#S"/><use transform="matrix(0.008680555555555556,0,0,0.008680555555555556,75.75520833333334,0)" xlink:href="#ak"/><use transform="matrix(0.008680555555555556,0,0,0.008680555555555556,86.41493055555557,0)" xlink:href="#ab"/></g><path d="M783 20c-382 0-661-292-661-764 0-473 279-766 661-766 302 0 548 182 601 489h-190c-42-204-217-313-411-313-268 0-476 208-476 590 0 381 209 588 476 588 195 0 369-110 411-313h190c-52 303-296 489-601 489" id="an"/><use transform="matrix(0.008680555555555556,0,0,0.008680555555555556,0,0)" xlink:href="#an" id="u"/><path d="M678-1118v154H420V0H240v-964H20v-154h220v-149c0-194 155-293 318-293 85 0 141 18 168 30l-50 154c-19-6-47-17-97-17-111 0-159 58-159 166v109h258" id="ao"/><g id="v"><use transform="matrix(0.008680555555555556,0,0,0.008680555555555556,0,0)" xlink:href="#an"/><use transform="matrix(0.008680555555555556,0,0,0.008680555555555556,12.986111111111112,0)" xlink:href="#ak"/><use transform="matrix(0.008680555555555556,0,0,0.008680555555555556,23.645833333333336,0)" xlink:href="#ab"/><use transform="matrix(0.008680555555555556,0,0,0.008680555555555556,34.14930555555556,0)" xlink:href="#ao"/><use transform="matrix(0.008680555555555556,0,0,0.008680555555555556,40.72916666666667,0)" xlink:href="#S"/><use transform="matrix(0.008680555555555556,0,0,0.008680555555555556,45.034722222222236,0)" xlink:href="#ah"/><use transform="matrix(0.008680555555555556,0,0,0.008680555555555556,52.00520833333334,0)" xlink:href="#am"/><use transform="matrix(0.008680555555555556,0,0,0.008680555555555556,67.57812500000001,0)" xlink:href="#aa"/><use transform="matrix(0.008680555555555556,0,0,0.008680555555555556,77.56076388888889,0)" xlink:href="#aj"/><use transform="matrix(0.008680555555555556,0,0,0.008680555555555556,83.37673611111113,0)" xlink:href="#S"/><use transform="matrix(0.008680555555555556,0,0,0.008680555555555556,87.68229166666669,0)" xlink:href="#ak"/><use transform="matrix(0.008680555555555556,0,0,0.008680555555555556,98.34201388888891,0)" xlink:href="#ab"/></g></defs></g></svg>