<svg xmlns="http://www.w3.org/2000/svg" xmlns:xlink="http://www.w3.org/1999/xlink" xmlns:lucid="lucid" width="1442" height="1184.92"><g transform="translate(861.0000000033555 681.603060450459)" lucid:page-tab-id="rZTpDx3kd0J_"><path d="M-860-674.6a6 6 0 0 1 6-6H574a6 6 0 0 1 6 6V496.32a6 6 0 0 1-6 6H-854a6 6 0 0 1-6-6z" stroke="#dfe3e8" stroke-width="2" fill="#fbfbfb"/><path d="M-800 279.57a6 6 0 0 1 6-6h255.8a6 6 0 0 1 6 6v34.66a6 6 0 0 1-6 6H-794a6 6 0 0 1-6-6z" stroke="#000" stroke-opacity="0" stroke-width="2" fill="#6db1ff"/><use xlink:href="#a" transform="matrix(1,0,0,1,-787.9999999999999,285.5672942650478) translate(48.01851851851852 17.77777777777778)"/><use xlink:href="#b" transform="matrix(1,0,0,1,-787.9999999999999,285.5672942650478) translate(138.01851851851853 17.77777777777778)"/><path d="M-800 352.4a6 6 0 0 1 6-6h204.6a6 6 0 0 1 6 6v33.73a6 6 0 0 1-6 6H-794a6 6 0 0 1-6-6z" fill="none"/><use xlink:href="#c" transform="matrix(1,0,0,1,-794.9999999999995,351.4083961705471) translate(0 26.08376736111111)"/><path d="M-800 414.36a6 6 0 0 1 6-6h168.45a6 6 0 0 1 6 6v33.73a6 6 0 0 1-6 6H-794a6 6 0 0 1-6-6z" fill="none"/><use xlink:href="#d" transform="matrix(1,0,0,1,-794.9999999999998,413.3643574703194) translate(0 26.08376736111111)"/><path d="M-250.47-616.43a6 6 0 0 1 6-6h220.53a6 6 0 0 1 6 6v84.96a6 6 0 0 1-6 6h-220.53a6 6 0 0 1-6-6z" stroke="#3a414a" stroke-width="2" fill="#fff"/><use xlink:href="#e" transform="matrix(1,0,0,1,-238.47257482273744,-610.4266470078862) translate(52.12345679012345 26.90277777777778)"/><use xlink:href="#f" transform="matrix(1,0,0,1,-238.47257482273744,-610.4266470078862) translate(90.91975308641975 53.56944444444445)"/><path d="M-517.78-616.43a6 6 0 0 1 6-6h220.53a6 6 0 0 1 6 6v84.96a6 6 0 0 1-6 6h-220.53a6 6 0 0 1-6-6z" fill="#fff"/><path d="M-475.02-622.43h36.75m18.38 0h36.76m18.38 0H-328m18.37 0h18.38a6 6 0 0 1 6 6v28.32m0 28.3v28.33a6 6 0 0 1-6 6h-18.38m-18.37 0h-36.76m-18.38 0h-36.75m-18.37 0h-36.75m-18.38 0h-18.38a6 6 0 0 1-6-6v-28.32m0-28.3v-28.33a6 6 0 0 1 6-6h18.38" stroke="#3a414a" stroke-width="2" fill="none"/><use xlink:href="#g" transform="matrix(1,0,0,1,-505.7777777777778,-610.4266470078862) translate(39.77777777777777 26.90277777777778)"/><use xlink:href="#h" transform="matrix(1,0,0,1,-505.7777777777778,-610.4266470078862) translate(90.91975308641975 53.56944444444445)"/><path d="M16.83-616.43a6 6 0 0 1 6-6h220.53a6 6 0 0 1 6 6v84.96a6 6 0 0 1-6 6H22.83a6 6 0 0 1-6-6z" stroke="#3a414a" stroke-width="2" fill="#fff"/><use xlink:href="#i" transform="matrix(1,0,0,1,28.832628132302943,-610.4266470078862) translate(52.12345679012345 26.90277777777778)"/><use xlink:href="#j" transform="matrix(1,0,0,1,28.832628132302943,-610.4266470078862) translate(90.91975308641975 53.56944444444445)"/><path d="M284.14-616.43a6 6 0 0 1 6-6h220.53a6 6 0 0 1 6 6v84.96a6 6 0 0 1-6 6H290.14a6 6 0 0 1-6-6z" fill="#fff"/><path d="M326.9-622.43h36.75m18.38 0h36.75m18.38 0h36.75m18.4 0h18.37a6 6 0 0 1 6 6v28.32m0 28.3v28.33a6 6 0 0 1-6 6H492.3m-18.4 0h-36.74m-18.38 0h-36.75m-18.38 0H326.9m-18.38 0h-18.38a6 6 0 0 1-6-6v-28.32m0-28.3v-28.33a6 6 0 0 1 6-6h18.38" stroke="#3a414a" stroke-width="2" fill="none"/><use xlink:href="#k" transform="matrix(1,0,0,1,296.1378310873432,-610.4266470078862) translate(39.77777777777777 26.90277777777778)"/><use xlink:href="#l" transform="matrix(1,0,0,1,296.1378310873432,-610.4266470078862) translate(90.91975308641975 53.56944444444445)"/><path d="M-386.56-523.53a6 6 0 0 1 6 6v160.6a6 6 0 0 1-6 6h-30.22a6 6 0 0 1-6-6v-160.6a6 6 0 0 1 6-6z" fill="#6db1ff"/><path d="M-234.1-408.87l-151.4 7.95-.1-1.94 151.5-7.96zm366.25-19.23l-166.47 8.74v-1.95l166.37-8.75z" stroke="#e81313" stroke-width=".05" fill="#e81313"/><path d="M133.15-428.15l-1.03.05-.1-1.94 1.03-.06z" stroke="#e81313" stroke-width=".05" fill="#e81313"/><path d="M-386.15-394.35l-13.37-6.8 12.58-8.18z" fill="#e81313"/><path d="M-385.1-392.7l-16.36-8.35 15.4-10zm-12.47-8.56l10.36 5.28-.62-11.6z" stroke="#e81313" stroke-width=".05" fill="#e81313"/><use xlink:href="#m" transform="matrix(1,0,0,1,-234.097045921965,-427.08722966208353) translate(0 16)"/><use xlink:href="#n" transform="matrix(1,0,0,1,-234.097045921965,-427.08722966208353) translate(133.16666666666669 16)"/><path d="M-133.23 442.7h-1.95v-10.06h1.95zm0-20.13h-1.95v-20.12h1.95zm0-30.2h-1.95v-20.12h1.95zm0-30.18h-1.95v-20.14h1.95zm0-30.2h-1.95v-20.13h1.95zm0-30.2h-1.95v-20.13h1.95zm0-30.2h-1.95V251.5h1.95zm0-30.18h-1.95V221.3h1.95zm0-30.2h-1.95V191.1h1.95zm0-30.2h-1.95V160.9h1.95zm0-30.18h-1.95V130.7h1.95zm0-30.2h-1.95v-20.12h1.95zm0-30.2h-1.95v-20.1l1.95-.02zm0-30.18h-1.95V40.13h1.95zm0-30.2h-1.95V9.95h1.95zm0-30.18h-1.95v-20.13h1.95zm0-30.2h-1.95v-20.13h1.95zm0-30.2h-1.95v-20.12h1.95zm0-30.18h-1.95v-20.13h1.95zm0-30.2h-1.95v-20.12h1.95zm0-30.2h-1.95v-20.12h1.95zm0-30.18h-1.95v-20.13h1.95zm0-30.2h-1.95v-20.12h1.95zm0-30.2h-1.95v-3.47h1.95zm0-30.18h-1.95V-292h1.95zm0-30.2h-1.95v-20.12h1.95zm0-30.2h-1.95v-20.1h1.95zm0-30.18h-1.95v-20.13h1.95zm0-30.2h-1.95v-10.45h1.95zm0-34.45h-1.95v-15.85h1.95zm0-25.92h-1.95v-20.13h1.95zm0-30.2h-1.95v-20.12h1.95zm0-30.18h-1.95v-10.07h1.95z" stroke="#3a414a" stroke-width=".05" fill="#3a414a"/><path d="M-133.23-523.44h-1.95v-1.03h1.95z" fill="#3a414a"/><path stroke="#3a414a" stroke-width=".05" fill="#3a414a"/><path d="M-133.23 443.7h-1.95v-1.02h1.95zM134.07 442.7h-1.95v-10.06h1.95zm0-20.13h-1.95v-20.13h1.95zm0-30.2h-1.95v-13.7h1.95zm0-37.7h-1.95v-12.6h1.95zm0-22.68h-1.95v-20.14h1.95zm0-30.2h-1.95v-20.13h1.95zm0-30.2h-1.95V251.5h1.95zm0-30.2h-1.95V221.3h1.95zm0-30.18h-1.95V191.1h1.95zm0-30.2h-1.95V160.9h1.95zm0-45.37h-1.95v-4.95h1.95zm0-15h-1.95V100.5h1.95zm0-30.2h-1.95V70.3h1.95zm0-30.2h-1.95V40.12h1.95zm0-30.2h-1.95v-.38h1.95zm0-30.2h-1.95v-20.12h1.95zm0-30.18h-1.95v-20.13h1.95zm0-30.2h-1.95v-20.13h1.95zm0-30.2h-1.95v-20.12h1.95zm0-30.18h-1.95v-20.14h1.95zm0-30.2h-1.95v-20.14h1.95zm0-30.2h-1.95v-20.13h1.95zm0-30.2h-1.95v-20.12h1.95zm0-30.2h-1.95v-20.12h1.95zm0-30.18h-1.95V-292h1.95zm0-30.2h-1.95v-20.13h1.95zm0-30.2h-1.95v-20.12h1.95zm0-30.18h-1.95v-20.13h1.95zm0-30.2h-1.95v-20.13h1.95zm0-30.2h-1.95v-20.12h1.95zm0-30.18h-1.95v-20.13h1.95zm0-30.2h-1.95v-20.13h1.95zm0-30.2h-1.95v-10.06h1.95z" stroke="#3a414a" stroke-width=".05" fill="#3a414a"/><path d="M134.07-523.47h-1.95v-1.03h1.95zM134.07 443.7h-1.95v-1.02h1.95z" stroke="#3a414a" stroke-width=".05" fill="#3a414a"/><path d="M415.67 289a6 6 0 0 1 6 6v143.14a6 6 0 0 1-6 6h-30.23a6 6 0 0 1-6-6V295a6 6 0 0 1 6-6z" fill="#6db1ff"/><path d="M-401.5-523.47v10.07m0 10.07v20.14m0 10.08v20.14m0 10.06v20.14m0 10.07v20.13m0 10.07v20.13m0 10.07v20.14m0 10.07v20.15m0 10.07v20.13m0 10.07v20.14m0 10.07v20.14m0 10.07v20.13m0 10.07v20.14m0 10.07v20.14m0 10.06v20.13m0 10.06v20.14m0 10.07v20.14m0 10.08V.1m0 10.08v20.14m0 10.07v20.13m0 10.06v20.13m0 10.07v20.14m0 10.07v20.15m0 10.06v20.15m0 10.07v20.14m0 10.07v20.13m0 10.07v20.14m0 10.07v20.14m0 10.07v20.13m0 10.07v20.14m0 10.06v20.14m0 10.07V423m0 10.07v10.07" stroke="#3a414a" stroke-width="2" fill="none"/><path d="M-400.54-523.44h-1.95v-1.03h1.96z" stroke="#3a414a" stroke-width=".05" fill="#3a414a"/><path d="M-401.5 443.1v1.04M400.4-523.5v10.07m0 10.06v20.13m0 10.07v20.13m0 10.06v20.13m0 10.06v20.14m0 10.07v20.14m0 10.06v20.13m0 10.06v20.12m0 10.07v20.12m0 10.06v20.13m0 10.08v20.13m0 10.07v20.13m0 10.06v20.13m0 10.06v20.13m0 10.05v20.13m0 10.06v20.13m0 10.07v20.13m0 10.06V-.14m0 10.07v20.13m0 10.06v20.13m0 10.06v20.14m0 10.07v20.14m0 10.06v20.13m0 10.06v20.12m0 10.07v20.12m0 10.06v20.13m0 10.08v20.13m0 10.07v20.13m0 10.06V332m0 10.06v20.13m0 10.05v20.13m0 10.06v20.13m0 10.07v10.06M400.4-523.47v-1.03M400.4 442.68v1.02" stroke="#3a414a" stroke-width="2" fill="none"/><path d="M-400.5-353.74L117.12-326M-400.5-353.74l-1-.06" stroke="#e81313" stroke-width="2" fill="none"/><path d="M131.1-325.25l-13.37 6.8.8-14.98z" stroke="#e81313" stroke-width="2" fill="#e81313"/><path d="M-400.53-353.15l250.55 41.57M-400.5-353.14l-1-.17" stroke="#e81313" stroke-width="2" fill="none"/><path d="M-136.18-309.3l-14.04 5.28 2.45-14.8z" stroke="#e81313" stroke-width="2" fill="#e81313"/><path d="M-241.88-248.12l-143.62 10.75-.14-1.95 143.76-10.75zm374.05-27.98l-158.7 11.88v-1.96l158.56-11.86z" stroke="#e81313" stroke-width=".05" fill="#e81313"/><path d="M133.17-276.17l-1.02.07-.15-1.94 1.02-.08z" stroke="#e81313" stroke-width=".05" fill="#e81313"/><path d="M-386-230.8l-13.52-6.5 12.4-8.45z" fill="#e81313"/><path d="M-384.9-229.18l-16.56-7.97 15.18-10.35zm-12.67-8.27l10.47 5.05-.87-11.6z" stroke="#e81313" stroke-width=".05" fill="#e81313"/><use xlink:href="#m" transform="matrix(1,0,0,1,-241.87482369974276,-269.1483332105955) translate(0 16)"/><use xlink:href="#o" transform="matrix(1,0,0,1,-241.87482369974276,-269.1483332105955) translate(133.16666666666669 16)"/><path d="M-331.67-192.68l-53.83 4.77-.17-1.95 54-4.78zm196.55-17.4l-68.94 6.1v-1.96l68.77-6.1z" stroke="#e81313" stroke-width=".05" fill="#e81313"/><path d="M-134.12-210.18l-1.02.1-.18-1.96 1.03-.1z" stroke="#e81313" stroke-width=".05" fill="#e81313"/><path d="M-385.92-181.32l-13.6-6.32 12.28-8.62z" fill="#e81313"/><path d="M-384.8-179.72l-16.66-7.75 15.04-10.56zm-12.78-8.1l10.54 4.9-1.03-11.57z" stroke="#e81313" stroke-width=".05" fill="#e81313"/><use xlink:href="#p" transform="matrix(1,0,0,1,-331.6663140661517,-223.31072074880922) translate(0 16)"/><use xlink:href="#q" transform="matrix(1,0,0,1,-331.6663140661517,-223.31072074880922) translate(0 40)"/><path d="M-150.06-128.1l-.16 1.95-53.84-4.45v-1.96zm-181.6-15.02v1.96l-68.94-5.7.16-1.94z" stroke="#e81313" stroke-width=".05" fill="#e81313"/><path d="M-400.4-148.8l-.17 1.94-1.02-.08.17-1.95z" stroke="#e81313" stroke-width=".05" fill="#e81313"/><path d="M-136.2-125.97l-13.57 6.4 1.24-14.95z" fill="#e81313"/><path d="M-134.26-125.8l-16.62 7.83 1.52-18.3zm-14.4 4.63l10.5-4.96-9.54-6.62z" stroke="#e81313" stroke-width=".05" fill="#e81313"/><use xlink:href="#p" transform="matrix(1,0,0,1,-331.66631406615164,-160.8601170409963) translate(0 16)"/><use xlink:href="#r" transform="matrix(1,0,0,1,-331.66631406615164,-160.8601170409963) translate(0 40)"/><path d="M117.76-25.74l-.45 1.9L10.95-48.92h8.5zM-82.36-72.92h-8.5l-169.4-39.94h8.5zm-249.3-58.78v2l-69.1-16.3.44-1.88z" stroke="#e81313" stroke-width=".05" fill="#e81313"/><path d="M-400.3-147.88l-.44 1.9-1-.24.45-1.9z" stroke="#e81313" stroke-width=".05" fill="#e81313"/><path d="M131.15-21.58l-14.36 4.32 3.43-14.6z" fill="#e81313"/><path d="M133.05-21.13l-17.6 5.3 4.22-17.9zm-14.93 2.45l11.13-3.35L120.8-30z" stroke="#e81313" stroke-width=".05" fill="#e81313"/><use xlink:href="#m" transform="matrix(1,0,0,1,-126.67838398650332,-72.91979648986099) translate(0 16)"/><use xlink:href="#s" transform="matrix(1,0,0,1,-126.67838398650332,-72.91979648986099) translate(133.16666666666669 16)"/><path d="M384.58 41.15l-.2 1.94-163.03-15.87v-1.96zM44.85 8.1v1.97L-133.3-7.26l.18-1.94z" stroke="#008a0e" stroke-width=".05" fill="#008a0e"/><path d="M-133.1-9.2l-.18 1.94-1.02-.1.2-1.94z" stroke="#008a0e" stroke-width=".05" fill="#008a0e"/><path d="M398.4 43.47l-13.64 6.2 1.45-14.92z" fill="#008a0e"/><path d="M400.35 43.66l-16.73 7.6L385.4 33zM385.9 48.1l10.57-4.82-9.46-6.76z" stroke="#008a0e" stroke-width=".05" fill="#008a0e"/><use xlink:href="#t" transform="matrix(1,0,0,1,44.847045921964195,5.66943183238493) translate(0 16)"/><use xlink:href="#u" transform="matrix(1,0,0,1,44.847045921964195,5.66943183238493) translate(109.8888888888889 16)"/><path d="M399.4 60.53L-118.24 88.8M399.38 60.54l1.02-.06" stroke="#008a0e" stroke-width="2" fill="none"/><path d="M-132.2 89.55l12.55-8.2.82 14.98z" stroke="#008a0e" stroke-width="2" fill="#008a0e"/><path d="M399.4 61.7L148.98 92.2M399.38 61.7l1.02-.12" stroke="#008a0e" stroke-width="2" fill="none"/><path d="M135.08 93.9l12-9.02 1.8 14.9z" stroke="#008a0e" stroke-width="2" fill="#008a0e"/><path d="M384.58 171.13l-.2 1.94-155.25-15.1V156zm-347.5-33.8v1.96l-170.4-16.58.2-1.94z" stroke="#008a0e" stroke-width=".05" fill="#008a0e"/><path d="M-133.1 120.78l-.18 1.94-1.02-.1.2-1.94z" stroke="#008a0e" stroke-width=".05" fill="#008a0e"/><path d="M398.4 173.45l-13.64 6.2 1.45-14.92z" fill="#008a0e"/><path d="M400.35 173.64l-16.73 7.6 1.78-18.28zm-14.46 4.43l10.57-4.8-9.46-6.76z" stroke="#008a0e" stroke-width=".05" fill="#008a0e"/><use xlink:href="#t" transform="matrix(1,0,0,1,37.06926814418641,135.65080719055106) translate(0 16)"/><use xlink:href="#v" transform="matrix(1,0,0,1,37.06926814418641,135.65080719055106) translate(109.8888888888889 16)"/><path d="M384.64 216.77l-.23 1.94-65.48-7.83v-1.97zm-170.06-20.35v1.96l-80.6-9.65.23-1.93z" stroke="#008a0e" stroke-width=".05" fill="#008a0e"/><path d="M134.23 186.8l-.23 1.94-1.02-.13.23-1.92z" stroke="#008a0e" stroke-width=".05" fill="#008a0e"/><path d="M398.42 219.4l-13.8 5.9 1.8-14.9z" fill="#008a0e"/><path d="M400.35 219.63l-16.9 7.24 2.2-18.25zm-14.55 4.12l10.68-4.58-9.3-6.96z" stroke="#008a0e" stroke-width=".05" fill="#008a0e"/><g><use xlink:href="#w" transform="matrix(1,0,0,1,214.5829807328176,179.64278426791503) translate(0 16)"/><use xlink:href="#x" transform="matrix(1,0,0,1,214.5829807328176,179.64278426791503) translate(0 40)"/></g><path d="M399.5 288.02l-.2 1.94-64.57-7.12v-1.96zm-169.1-18.64v1.96l-81.52-8.98.22-1.94z" stroke="#008a0e" stroke-width=".05" fill="#008a0e"/><path d="M400.5 288.13l-.2 1.94-1.02-.12.2-1.94z" stroke="#008a0e" stroke-width=".05" fill="#008a0e"/><path d="M147.18 268.73l-12.1-8.88 13.74-6.03z" fill="#008a0e"/><path d="M147.96 270.52l-14.8-10.88 16.8-7.4zm-10.94-10.45l9.37 6.88 1.26-11.56z" stroke="#008a0e" stroke-width=".05" fill="#008a0e"/><g><use xlink:href="#w" transform="matrix(1,0,0,1,230.3980123977284,252.1081234940715) translate(0 16)"/><use xlink:href="#y" transform="matrix(1,0,0,1,230.3980123977284,252.1081234940715) translate(0 40)"/></g><path d="M-118.4 408.65l-.44-1.9L3.9 378.68h8.75zm518.04-118.47l-282.04 64.5h-8.75l290.36-66.4z" stroke="#008a0e" stroke-width=".05" fill="#008a0e"/><path d="M400.62 289.95l-1 .23-.44-1.9 1-.23z" stroke="#008a0e" stroke-width=".05" fill="#008a0e"/><path d="M-117.92 415.23l-14.34-4.42 11-10.2z" fill="#008a0e"/><path d="M-116.6 416.66l-17.56-5.4 13.47-12.52zm-13.76-6.28l11.1 3.42-2.58-11.33z" stroke="#008a0e" stroke-width=".05" fill="#008a0e"/><g><use xlink:href="#t" transform="matrix(1,0,0,1,-18.581230730666647,354.67590935725775) translate(0 16)"/><use xlink:href="#z" transform="matrix(1,0,0,1,-18.581230730666647,354.67590935725775) translate(109.8888888888889 16)"/></g><defs><path d="M212-179c-10-28-35-45-73-45-59 0-87 40-87 99 0 60 29 101 89 101 43 0 62-24 78-52l27 14C228-24 195 4 139 4 59 4 22-46 18-125c-6-104 99-153 187-111 19 9 31 26 39 46" id="A"/><path d="M100-194c62-1 85 37 85 99 1 63-27 99-86 99S16-35 15-95c0-66 28-99 85-99zM99-20c44 1 53-31 53-75 0-43-8-75-51-75s-53 32-53 75 10 74 51 75" id="B"/><path d="M117-194c89-4 53 116 60 194h-32v-121c0-31-8-49-39-48C34-167 62-67 57 0H25l-1-190h30c1 10-1 24 2 32 11-22 29-35 61-36" id="C"/><path d="M59-47c-2 24 18 29 38 22v24C64 9 27 4 27-40v-127H5v-23h24l9-43h21v43h35v23H59v120" id="D"/><path d="M114-163C36-179 61-72 57 0H25l-1-190h30c1 12-1 29 2 39 6-27 23-49 58-41v29" id="E"/><path d="M141-36C126-15 110 5 73 4 37 3 15-17 15-53c-1-64 63-63 125-63 3-35-9-54-41-54-24 1-41 7-42 31l-33-3c5-37 33-52 76-52 45 0 72 20 72 64v82c-1 20 7 32 28 27v20c-31 9-61-2-59-35zM48-53c0 20 12 33 32 33 41-3 63-29 60-74-43 2-92-5-92 41" id="F"/><path d="M96-169c-40 0-48 33-48 73s9 75 48 75c24 0 41-14 43-38l32 2c-6 37-31 61-74 61-59 0-76-41-82-99-10-93 101-131 147-64 4 7 5 14 7 22l-32 3c-4-21-16-35-41-35" id="G"/><g id="a"><use transform="matrix(0.06172839506172839,0,0,0.06172839506172839,0,0)" xlink:href="#A"/><use transform="matrix(0.06172839506172839,0,0,0.06172839506172839,15.987654320987653,0)" xlink:href="#B"/><use transform="matrix(0.06172839506172839,0,0,0.06172839506172839,28.333333333333332,0)" xlink:href="#C"/><use transform="matrix(0.06172839506172839,0,0,0.06172839506172839,40.67901234567901,0)" xlink:href="#D"/><use transform="matrix(0.06172839506172839,0,0,0.06172839506172839,46.851851851851855,0)" xlink:href="#E"/><use transform="matrix(0.06172839506172839,0,0,0.06172839506172839,54.19753086419753,0)" xlink:href="#F"/><use transform="matrix(0.06172839506172839,0,0,0.06172839506172839,66.54320987654322,0)" xlink:href="#G"/><use transform="matrix(0.06172839506172839,0,0,0.06172839506172839,77.65432098765433,0)" xlink:href="#D"/></g><path d="M24-231v-30h32v30H24zM24 0v-190h32V0H24" id="H"/><path d="M108 0H70L1-190h34L89-25l56-165h34" id="I"/><path d="M100-194c63 0 86 42 84 106H49c0 40 14 67 53 68 26 1 43-12 49-29l28 8c-11 28-37 45-77 45C44 4 14-33 15-96c1-61 26-98 85-98zm52 81c6-60-76-77-97-28-3 7-6 17-6 28h103" id="J"/><g id="b"><use transform="matrix(0.06172839506172839,0,0,0.06172839506172839,0,0)" xlink:href="#F"/><use transform="matrix(0.06172839506172839,0,0,0.06172839506172839,12.345679012345679,0)" xlink:href="#G"/><use transform="matrix(0.06172839506172839,0,0,0.06172839506172839,23.45679012345679,0)" xlink:href="#D"/><use transform="matrix(0.06172839506172839,0,0,0.06172839506172839,29.62962962962963,0)" xlink:href="#H"/><use transform="matrix(0.06172839506172839,0,0,0.06172839506172839,34.50617283950617,0)" xlink:href="#I"/><use transform="matrix(0.06172839506172839,0,0,0.06172839506172839,45.61728395061728,0)" xlink:href="#J"/></g><path fill="#e81313" d="M763 24c-353 0-583-224-583-531v-983h190v968c0 214 149 370 393 370 243 0 391-156 391-370v-968h190v983c0 307-230 531-581 531" id="K"/><path fill="#e81313" d="M338-670V0H158v-1118h173l1 207c72-158 192-221 342-221 226 0 378 139 378 422V0H872v-695c0-172-96-275-252-275-161 0-282 109-282 300" id="L"/><path fill="#e81313" d="M471 26C259 26 90-98 90-318c0-256 228-303 435-329 202-27 287-16 287-108 0-139-79-219-234-219-161 0-248 86-283 164l-173-57c86-203 278-265 451-265 150 0 419 46 419 395V0H815v-152h-12C765-73 660 26 471 26zm31-159c199 0 310-134 310-271v-155c-30 35-226 55-295 64-131 17-246 59-246 186 0 116 97 176 231 176" id="M"/><path fill="#e81313" d="M538 24C308 24 148-78 108-271l171-41c32 123 123 178 257 178 156 0 256-77 256-169 0-77-54-128-164-154l-186-44c-203-48-300-148-300-305 0-192 176-326 414-326 230 0 351 112 402 269l-163 42c-31-80-94-158-238-158-133 0-233 69-233 162 0 83 57 129 188 160l169 40c203 48 298 149 298 302 0 196-179 339-441 339" id="N"/><path fill="#e81313" d="M158 0v-1118h180V0H158zm91-1301c-68 0-125-53-125-119s57-119 125-119c69 0 126 53 126 119s-57 119-126 119" id="O"/><path fill="#e81313" d="M611 442c-248 0-391-105-460-228l146-94c47 65 117 165 314 165 178 0 307-82 307-266v-224h-17C863-141 792-18 576-18c-268 0-472-195-472-546 0-346 197-568 476-568 216 0 288 133 326 193h17v-179h175V29c0 289-215 413-487 413zm-5-620c203 0 314-146 314-390 0-237-108-403-314-403-213 0-319 180-319 403 0 230 109 390 319 390" id="P"/><path fill="#e81313" d="M158 0v-1118h175l1 205c55-151 181-225 313-225 147 0 245 90 285 228 53-141 190-228 352-228 194 0 352 125 352 384V0h-181v-749c0-161-105-225-225-225-151 0-243 103-243 244V0H807v-767c0-124-93-207-219-207-131 0-250 92-250 270V0H158" id="Q"/><path fill="#e81313" d="M628 24c-324 0-524-230-524-574 0-343 198-582 503-582 237 0 487 146 487 559v75H286c9 234 145 362 343 362 132 0 231-58 273-172l174 48C1024-91 857 24 628 24zM287-650h624c-17-190-120-322-304-322-192 0-309 151-320 322" id="R"/><path fill="#e81313" d="M598-1118v154H368v674c0 100 37 144 132 144 23 0 62-6 92-12L629-6c-37 13-88 20-134 20-193 0-307-107-307-290v-688H20v-154h168v-266h180v266h230" id="S"/><g id="c"><use transform="matrix(0.010850694444444444,0,0,0.010850694444444444,0,0)" xlink:href="#K"/><use transform="matrix(0.010850694444444444,0,0,0.010850694444444444,16.536458333333332,0)" xlink:href="#L"/><use transform="matrix(0.010850694444444444,0,0,0.010850694444444444,29.665798611111104,0)" xlink:href="#M"/><use transform="matrix(0.010850694444444444,0,0,0.010850694444444444,42.144097222222214,0)" xlink:href="#N"/><use transform="matrix(0.010850694444444444,0,0,0.010850694444444444,53.87369791666666,0)" xlink:href="#N"/><use transform="matrix(0.010850694444444444,0,0,0.010850694444444444,65.6032986111111,0)" xlink:href="#O"/><use transform="matrix(0.010850694444444444,0,0,0.010850694444444444,70.98524305555554,0)" xlink:href="#P"/><use transform="matrix(0.010850694444444444,0,0,0.010850694444444444,84.61371527777777,0)" xlink:href="#L"/><use transform="matrix(0.010850694444444444,0,0,0.010850694444444444,97.74305555555556,0)" xlink:href="#Q"/><use transform="matrix(0.010850694444444444,0,0,0.010850694444444444,117.20920138888887,0)" xlink:href="#R"/><use transform="matrix(0.010850694444444444,0,0,0.010850694444444444,130.16493055555554,0)" xlink:href="#L"/><use transform="matrix(0.010850694444444444,0,0,0.010850694444444444,143.29427083333331,0)" xlink:href="#S"/></g><path fill="#008a0e" d="M52 0l541-1490h220L1361 0h-200l-149-416H398L254 0H52zm404-582h497c-103-290-145-390-251-756-108 377-145 460-246 756" id="T"/><path fill="#008a0e" d="M538 24C308 24 148-78 108-271l171-41c32 123 123 178 257 178 156 0 256-77 256-169 0-77-54-128-164-154l-186-44c-203-48-300-148-300-305 0-192 176-326 414-326 230 0 351 112 402 269l-163 42c-31-80-94-158-238-158-133 0-233 69-233 162 0 83 57 129 188 160l169 40c203 48 298 149 298 302 0 196-179 339-441 339" id="U"/><path fill="#008a0e" d="M158 0v-1118h180V0H158zm91-1301c-68 0-125-53-125-119s57-119 125-119c69 0 126 53 126 119s-57 119-126 119" id="V"/><path fill="#008a0e" d="M611 442c-248 0-391-105-460-228l146-94c47 65 117 165 314 165 178 0 307-82 307-266v-224h-17C863-141 792-18 576-18c-268 0-472-195-472-546 0-346 197-568 476-568 216 0 288 133 326 193h17v-179h175V29c0 289-215 413-487 413zm-5-620c203 0 314-146 314-390 0-237-108-403-314-403-213 0-319 180-319 403 0 230 109 390 319 390" id="W"/><path fill="#008a0e" d="M338-670V0H158v-1118h173l1 207c72-158 192-221 342-221 226 0 378 139 378 422V0H872v-695c0-172-96-275-252-275-161 0-282 109-282 300" id="X"/><path fill="#008a0e" d="M158 0v-1118h175l1 205c55-151 181-225 313-225 147 0 245 90 285 228 53-141 190-228 352-228 194 0 352 125 352 384V0h-181v-749c0-161-105-225-225-225-151 0-243 103-243 244V0H807v-767c0-124-93-207-219-207-131 0-250 92-250 270V0H158" id="Y"/><path fill="#008a0e" d="M628 24c-324 0-524-230-524-574 0-343 198-582 503-582 237 0 487 146 487 559v75H286c9 234 145 362 343 362 132 0 231-58 273-172l174 48C1024-91 857 24 628 24zM287-650h624c-17-190-120-322-304-322-192 0-309 151-320 322" id="Z"/><path fill="#008a0e" d="M598-1118v154H368v674c0 100 37 144 132 144 23 0 62-6 92-12L629-6c-37 13-88 20-134 20-193 0-307-107-307-290v-688H20v-154h168v-266h180v266h230" id="aa"/><g id="d"><use transform="matrix(0.010850694444444444,0,0,0.010850694444444444,0,0)" xlink:href="#T"/><use transform="matrix(0.010850694444444444,0,0,0.010850694444444444,15.33203125,0)" xlink:href="#U"/><use transform="matrix(0.010850694444444444,0,0,0.010850694444444444,27.061631944444443,0)" xlink:href="#U"/><use transform="matrix(0.010850694444444444,0,0,0.010850694444444444,38.791232638888886,0)" xlink:href="#V"/><use transform="matrix(0.010850694444444444,0,0,0.010850694444444444,44.17317708333333,0)" xlink:href="#W"/><use transform="matrix(0.010850694444444444,0,0,0.010850694444444444,57.80164930555555,0)" xlink:href="#X"/><use transform="matrix(0.010850694444444444,0,0,0.010850694444444444,70.93098958333333,0)" xlink:href="#Y"/><use transform="matrix(0.010850694444444444,0,0,0.010850694444444444,90.39713541666666,0)" xlink:href="#Z"/><use transform="matrix(0.010850694444444444,0,0,0.010850694444444444,103.35286458333333,0)" xlink:href="#X"/><use transform="matrix(0.010850694444444444,0,0,0.010850694444444444,116.4822048611111,0)" xlink:href="#aa"/></g><path d="M30-248c87 1 191-15 191 75 0 78-77 80-158 76V0H30v-248zm33 125c57 0 124 11 124-50 0-59-68-47-124-48v98" id="ab"/><path d="M115-194c55 1 70 41 70 98S169 2 115 4C84 4 66-9 55-30l1 105H24l-1-265h31l2 30c10-21 28-34 59-34zm-8 174c40 0 45-34 45-75s-6-73-45-74c-42 0-51 32-51 76 0 43 10 73 51 73" id="ac"/><g id="e"><use transform="matrix(0.06172839506172839,0,0,0.06172839506172839,0,0)" xlink:href="#ab"/><use transform="matrix(0.06172839506172839,0,0,0.06172839506172839,14.814814814814813,0)" xlink:href="#F"/><use transform="matrix(0.06172839506172839,0,0,0.06172839506172839,27.160493827160494,0)" xlink:href="#E"/><use transform="matrix(0.06172839506172839,0,0,0.06172839506172839,34.50617283950617,0)" xlink:href="#D"/><use transform="matrix(0.06172839506172839,0,0,0.06172839506172839,40.67901234567901,0)" xlink:href="#H"/><use transform="matrix(0.06172839506172839,0,0,0.06172839506172839,45.55555555555556,0)" xlink:href="#G"/><use transform="matrix(0.06172839506172839,0,0,0.06172839506172839,56.66666666666667,0)" xlink:href="#H"/><use transform="matrix(0.06172839506172839,0,0,0.06172839506172839,61.543209876543216,0)" xlink:href="#ac"/><use transform="matrix(0.06172839506172839,0,0,0.06172839506172839,73.8888888888889,0)" xlink:href="#F"/><use transform="matrix(0.06172839506172839,0,0,0.06172839506172839,86.23456790123458,0)" xlink:href="#C"/><use transform="matrix(0.06172839506172839,0,0,0.06172839506172839,98.58024691358027,0)" xlink:href="#D"/></g><path d="M24-248c93 1 206-16 204 79-1 75-69 88-152 82V0H24v-248zm52 121c47 0 100 7 100-41 0-47-54-39-100-39v80" id="ad"/><path d="M23 0v-37h61v-169l-59 37v-38l62-41h46v211h57V0H23" id="ae"/><g id="f"><use transform="matrix(0.06172839506172839,0,0,0.06172839506172839,0,0)" xlink:href="#ad"/><use transform="matrix(0.06172839506172839,0,0,0.06172839506172839,14.814814814814813,0)" xlink:href="#ae"/></g><path d="M185-189c-5-48-123-54-124 2 14 75 158 14 163 119 3 78-121 87-175 55-17-10-28-26-33-46l33-7c5 56 141 63 141-1 0-78-155-14-162-118-5-82 145-84 179-34 5 7 8 16 11 25" id="af"/><path d="M179-190L93 31C79 59 56 82 12 73V49c39 6 53-20 64-50L1-190h34L92-34l54-156h33" id="ag"/><path d="M106-169C34-169 62-67 57 0H25v-261h32l-1 103c12-21 28-36 61-36 89 0 53 116 60 194h-32v-121c2-32-8-49-39-48" id="ah"/><path d="M9 0v-24l116-142H16v-24h144v24L44-24h123V0H9" id="ai"/><g id="g"><use transform="matrix(0.06172839506172839,0,0,0.06172839506172839,0,0)" xlink:href="#af"/><use transform="matrix(0.06172839506172839,0,0,0.06172839506172839,14.814814814814813,0)" xlink:href="#ag"/><use transform="matrix(0.06172839506172839,0,0,0.06172839506172839,25.925925925925924,0)" xlink:href="#C"/><use transform="matrix(0.06172839506172839,0,0,0.06172839506172839,38.2716049382716,0)" xlink:href="#G"/><use transform="matrix(0.06172839506172839,0,0,0.06172839506172839,49.38271604938271,0)" xlink:href="#ah"/><use transform="matrix(0.06172839506172839,0,0,0.06172839506172839,61.728395061728385,0)" xlink:href="#E"/><use transform="matrix(0.06172839506172839,0,0,0.06172839506172839,69.07407407407406,0)" xlink:href="#B"/><use transform="matrix(0.06172839506172839,0,0,0.06172839506172839,81.41975308641975,0)" xlink:href="#C"/><use transform="matrix(0.06172839506172839,0,0,0.06172839506172839,93.76543209876543,0)" xlink:href="#H"/><use transform="matrix(0.06172839506172839,0,0,0.06172839506172839,98.64197530864197,0)" xlink:href="#ai"/><use transform="matrix(0.06172839506172839,0,0,0.06172839506172839,109.75308641975309,0)" xlink:href="#J"/><use transform="matrix(0.06172839506172839,0,0,0.06172839506172839,122.09876543209877,0)" xlink:href="#E"/></g><path d="M169-182c-1-43-94-46-97-3 18 66 151 10 154 114 3 95-165 93-204 36-6-8-10-19-12-30l50-8c3 46 112 56 116 5-17-69-150-10-154-114-4-87 153-88 188-35 5 8 8 18 10 28" id="aj"/><g id="h"><use transform="matrix(0.06172839506172839,0,0,0.06172839506172839,0,0)" xlink:href="#aj"/><use transform="matrix(0.06172839506172839,0,0,0.06172839506172839,14.814814814814813,0)" xlink:href="#ae"/></g><g id="i"><use transform="matrix(0.06172839506172839,0,0,0.06172839506172839,0,0)" xlink:href="#ab"/><use transform="matrix(0.06172839506172839,0,0,0.06172839506172839,14.814814814814813,0)" xlink:href="#F"/><use transform="matrix(0.06172839506172839,0,0,0.06172839506172839,27.160493827160494,0)" xlink:href="#E"/><use transform="matrix(0.06172839506172839,0,0,0.06172839506172839,34.50617283950617,0)" xlink:href="#D"/><use transform="matrix(0.06172839506172839,0,0,0.06172839506172839,40.67901234567901,0)" xlink:href="#H"/><use transform="matrix(0.06172839506172839,0,0,0.06172839506172839,45.55555555555556,0)" xlink:href="#G"/><use transform="matrix(0.06172839506172839,0,0,0.06172839506172839,56.66666666666667,0)" xlink:href="#H"/><use transform="matrix(0.06172839506172839,0,0,0.06172839506172839,61.543209876543216,0)" xlink:href="#ac"/><use transform="matrix(0.06172839506172839,0,0,0.06172839506172839,73.8888888888889,0)" xlink:href="#F"/><use transform="matrix(0.06172839506172839,0,0,0.06172839506172839,86.23456790123458,0)" xlink:href="#C"/><use transform="matrix(0.06172839506172839,0,0,0.06172839506172839,98.58024691358027,0)" xlink:href="#D"/></g><path d="M182-182c0 78-84 86-111 141h115V0H12c-6-101 99-100 120-180 1-22-12-31-33-32-23 0-32 14-35 34l-49-3c5-45 32-70 84-70 51 0 83 22 83 69" id="ak"/><g id="j"><use transform="matrix(0.06172839506172839,0,0,0.06172839506172839,0,0)" xlink:href="#ad"/><use transform="matrix(0.06172839506172839,0,0,0.06172839506172839,14.814814814814813,0)" xlink:href="#ak"/></g><g id="k"><use transform="matrix(0.06172839506172839,0,0,0.06172839506172839,0,0)" xlink:href="#af"/><use transform="matrix(0.06172839506172839,0,0,0.06172839506172839,14.814814814814813,0)" xlink:href="#ag"/><use transform="matrix(0.06172839506172839,0,0,0.06172839506172839,25.925925925925924,0)" xlink:href="#C"/><use transform="matrix(0.06172839506172839,0,0,0.06172839506172839,38.2716049382716,0)" xlink:href="#G"/><use transform="matrix(0.06172839506172839,0,0,0.06172839506172839,49.38271604938271,0)" xlink:href="#ah"/><use transform="matrix(0.06172839506172839,0,0,0.06172839506172839,61.728395061728385,0)" xlink:href="#E"/><use transform="matrix(0.06172839506172839,0,0,0.06172839506172839,69.07407407407406,0)" xlink:href="#B"/><use transform="matrix(0.06172839506172839,0,0,0.06172839506172839,81.41975308641975,0)" xlink:href="#C"/><use transform="matrix(0.06172839506172839,0,0,0.06172839506172839,93.76543209876543,0)" xlink:href="#H"/><use transform="matrix(0.06172839506172839,0,0,0.06172839506172839,98.64197530864197,0)" xlink:href="#ai"/><use transform="matrix(0.06172839506172839,0,0,0.06172839506172839,109.75308641975309,0)" xlink:href="#J"/><use transform="matrix(0.06172839506172839,0,0,0.06172839506172839,122.09876543209877,0)" xlink:href="#E"/></g><g id="l"><use transform="matrix(0.06172839506172839,0,0,0.06172839506172839,0,0)" xlink:href="#aj"/><use transform="matrix(0.06172839506172839,0,0,0.06172839506172839,14.814814814814813,0)" xlink:href="#ak"/></g><path fill="#e81313" d="M232-93c-1 65-40 97-104 97C67 4 28-28 28-90v-158h33c8 89-33 224 67 224 102 0 64-133 71-224h33v155" id="al"/><path fill="#e81313" d="M117-194c89-4 53 116 60 194h-32v-121c0-31-8-49-39-48C34-167 62-67 57 0H25l-1-190h30c1 10-1 24 2 32 11-22 29-35 61-36" id="am"/><path fill="#e81313" d="M141-36C126-15 110 5 73 4 37 3 15-17 15-53c-1-64 63-63 125-63 3-35-9-54-41-54-24 1-41 7-42 31l-33-3c5-37 33-52 76-52 45 0 72 20 72 64v82c-1 20 7 32 28 27v20c-31 9-61-2-59-35zM48-53c0 20 12 33 32 33 41-3 63-29 60-74-43 2-92-5-92 41" id="an"/><path fill="#e81313" d="M135-143c-3-34-86-38-87 0 15 53 115 12 119 90S17 21 10-45l28-5c4 36 97 45 98 0-10-56-113-15-118-90-4-57 82-63 122-42 12 7 21 19 24 35" id="ao"/><path fill="#e81313" d="M24-231v-30h32v30H24zM24 0v-190h32V0H24" id="ap"/><path fill="#e81313" d="M177-190C167-65 218 103 67 71c-23-6-38-20-44-43l32-5c15 47 100 32 89-28v-30C133-14 115 1 83 1 29 1 15-40 15-95c0-56 16-97 71-98 29-1 48 16 59 35 1-10 0-23 2-32h30zM94-22c36 0 50-32 50-73 0-42-14-75-50-75-39 0-46 34-46 75s6 73 46 73" id="aq"/><path fill="#e81313" d="M210-169c-67 3-38 105-44 169h-31v-121c0-29-5-50-35-48C34-165 62-65 56 0H25l-1-190h30c1 10-1 24 2 32 10-44 99-50 107 0 11-21 27-35 58-36 85-2 47 119 55 194h-31v-121c0-29-5-49-35-48" id="ar"/><path fill="#e81313" d="M100-194c63 0 86 42 84 106H49c0 40 14 67 53 68 26 1 43-12 49-29l28 8c-11 28-37 45-77 45C44 4 14-33 15-96c1-61 26-98 85-98zm52 81c6-60-76-77-97-28-3 7-6 17-6 28h103" id="as"/><path fill="#e81313" d="M59-47c-2 24 18 29 38 22v24C64 9 27 4 27-40v-127H5v-23h24l9-43h21v43h35v23H59v120" id="at"/><g id="m"><use transform="matrix(0.05555555555555555,0,0,0.05555555555555555,0,0)" xlink:href="#al"/><use transform="matrix(0.05555555555555555,0,0,0.05555555555555555,14.388888888888888,0)" xlink:href="#am"/><use transform="matrix(0.05555555555555555,0,0,0.05555555555555555,25.5,0)" xlink:href="#an"/><use transform="matrix(0.05555555555555555,0,0,0.05555555555555555,36.611111111111114,0)" xlink:href="#ao"/><use transform="matrix(0.05555555555555555,0,0,0.05555555555555555,46.611111111111114,0)" xlink:href="#ao"/><use transform="matrix(0.05555555555555555,0,0,0.05555555555555555,56.611111111111114,0)" xlink:href="#ap"/><use transform="matrix(0.05555555555555555,0,0,0.05555555555555555,61,0)" xlink:href="#aq"/><use transform="matrix(0.05555555555555555,0,0,0.05555555555555555,72.11111111111111,0)" xlink:href="#am"/><use transform="matrix(0.05555555555555555,0,0,0.05555555555555555,83.22222222222223,0)" xlink:href="#ar"/><use transform="matrix(0.05555555555555555,0,0,0.05555555555555555,99.83333333333334,0)" xlink:href="#as"/><use transform="matrix(0.05555555555555555,0,0,0.05555555555555555,110.94444444444446,0)" xlink:href="#am"/><use transform="matrix(0.05555555555555555,0,0,0.05555555555555555,122.05555555555557,0)" xlink:href="#at"/></g><path fill="#e81313" d="M114-163C36-179 61-72 57 0H25l-1-190h30c1 12-1 29 2 39 6-27 23-49 58-41v29" id="au"/><path fill="#e81313" d="M145-31C134-9 116 4 85 4 32 4 16-35 15-94c0-59 17-99 70-100 32-1 48 14 60 33 0-11-1-24 2-32h30l-1 268h-32zM93-21c41 0 51-33 51-76s-8-73-50-73c-40 0-46 35-46 75s5 74 45 74" id="av"/><path fill="#e81313" d="M84 4C-5 8 30-112 23-190h32v120c0 31 7 50 39 49 72-2 45-101 50-169h31l1 190h-30c-1-10 1-25-2-33-11 22-28 36-60 37" id="aw"/><g id="n"><use transform="matrix(0.05555555555555555,0,0,0.05555555555555555,0,0)" xlink:href="#au"/><use transform="matrix(0.05555555555555555,0,0,0.05555555555555555,6.611111111111111,0)" xlink:href="#as"/><use transform="matrix(0.05555555555555555,0,0,0.05555555555555555,17.72222222222222,0)" xlink:href="#av"/><use transform="matrix(0.05555555555555555,0,0,0.05555555555555555,28.833333333333332,0)" xlink:href="#aw"/><use transform="matrix(0.05555555555555555,0,0,0.05555555555555555,39.94444444444444,0)" xlink:href="#as"/><use transform="matrix(0.05555555555555555,0,0,0.05555555555555555,51.05555555555556,0)" xlink:href="#ao"/><use transform="matrix(0.05555555555555555,0,0,0.05555555555555555,61.05555555555555,0)" xlink:href="#at"/></g><path fill="#e81313" d="M115-194c55 1 70 41 70 98S169 2 115 4C84 4 66-9 55-30l1 105H24l-1-265h31l2 30c10-21 28-34 59-34zm-8 174c40 0 45-34 45-75s-6-73-45-74c-42 0-51 32-51 76 0 43 10 73 51 73" id="ax"/><path fill="#e81313" d="M100-194c62-1 85 37 85 99 1 63-27 99-86 99S16-35 15-95c0-66 28-99 85-99zM99-20c44 1 53-31 53-75 0-43-8-75-51-75s-53 32-53 75 10 74 51 75" id="ay"/><g id="o"><use transform="matrix(0.05555555555555555,0,0,0.05555555555555555,0,0)" xlink:href="#au"/><use transform="matrix(0.05555555555555555,0,0,0.05555555555555555,6.611111111111111,0)" xlink:href="#as"/><use transform="matrix(0.05555555555555555,0,0,0.05555555555555555,17.72222222222222,0)" xlink:href="#ao"/><use transform="matrix(0.05555555555555555,0,0,0.05555555555555555,27.72222222222222,0)" xlink:href="#ax"/><use transform="matrix(0.05555555555555555,0,0,0.05555555555555555,38.83333333333333,0)" xlink:href="#ay"/><use transform="matrix(0.05555555555555555,0,0,0.05555555555555555,49.94444444444444,0)" xlink:href="#am"/><use transform="matrix(0.05555555555555555,0,0,0.05555555555555555,61.05555555555555,0)" xlink:href="#ao"/><use transform="matrix(0.05555555555555555,0,0,0.05555555555555555,71.05555555555556,0)" xlink:href="#as"/></g><g id="p"><use transform="matrix(0.05555555555555555,0,0,0.05555555555555555,0,0)" xlink:href="#al"/><use transform="matrix(0.05555555555555555,0,0,0.05555555555555555,14.388888888888888,0)" xlink:href="#am"/><use transform="matrix(0.05555555555555555,0,0,0.05555555555555555,25.5,0)" xlink:href="#an"/><use transform="matrix(0.05555555555555555,0,0,0.05555555555555555,36.611111111111114,0)" xlink:href="#ao"/><use transform="matrix(0.05555555555555555,0,0,0.05555555555555555,46.611111111111114,0)" xlink:href="#ao"/><use transform="matrix(0.05555555555555555,0,0,0.05555555555555555,56.611111111111114,0)" xlink:href="#ap"/><use transform="matrix(0.05555555555555555,0,0,0.05555555555555555,61,0)" xlink:href="#aq"/><use transform="matrix(0.05555555555555555,0,0,0.05555555555555555,72.11111111111111,0)" xlink:href="#am"/><use transform="matrix(0.05555555555555555,0,0,0.05555555555555555,83.22222222222223,0)" xlink:href="#ar"/><use transform="matrix(0.05555555555555555,0,0,0.05555555555555555,99.83333333333334,0)" xlink:href="#as"/><use transform="matrix(0.05555555555555555,0,0,0.05555555555555555,110.94444444444446,0)" xlink:href="#am"/><use transform="matrix(0.05555555555555555,0,0,0.05555555555555555,122.05555555555557,0)" xlink:href="#at"/></g><g id="q"><use transform="matrix(0.05555555555555555,0,0,0.05555555555555555,0,0)" xlink:href="#au"/><use transform="matrix(0.05555555555555555,0,0,0.05555555555555555,6.611111111111111,0)" xlink:href="#as"/><use transform="matrix(0.05555555555555555,0,0,0.05555555555555555,17.72222222222222,0)" xlink:href="#ao"/><use transform="matrix(0.05555555555555555,0,0,0.05555555555555555,27.72222222222222,0)" xlink:href="#ax"/><use transform="matrix(0.05555555555555555,0,0,0.05555555555555555,38.83333333333333,0)" xlink:href="#ay"/><use transform="matrix(0.05555555555555555,0,0,0.05555555555555555,49.94444444444444,0)" xlink:href="#am"/><use transform="matrix(0.05555555555555555,0,0,0.05555555555555555,61.05555555555555,0)" xlink:href="#ao"/><use transform="matrix(0.05555555555555555,0,0,0.05555555555555555,71.05555555555556,0)" xlink:href="#as"/></g><path fill="#e81313" d="M24 0v-261h32V0H24" id="az"/><g id="r"><use transform="matrix(0.05555555555555555,0,0,0.05555555555555555,0,0)" xlink:href="#au"/><use transform="matrix(0.05555555555555555,0,0,0.05555555555555555,6.611111111111111,0)" xlink:href="#as"/><use transform="matrix(0.05555555555555555,0,0,0.05555555555555555,17.72222222222222,0)" xlink:href="#ao"/><use transform="matrix(0.05555555555555555,0,0,0.05555555555555555,27.72222222222222,0)" xlink:href="#aw"/><use transform="matrix(0.05555555555555555,0,0,0.05555555555555555,38.83333333333333,0)" xlink:href="#az"/><use transform="matrix(0.05555555555555555,0,0,0.05555555555555555,43.222222222222214,0)" xlink:href="#at"/></g><g id="s"><use transform="matrix(0.05555555555555555,0,0,0.05555555555555555,0,0)" xlink:href="#au"/><use transform="matrix(0.05555555555555555,0,0,0.05555555555555555,6.611111111111111,0)" xlink:href="#as"/><use transform="matrix(0.05555555555555555,0,0,0.05555555555555555,17.72222222222222,0)" xlink:href="#ao"/><use transform="matrix(0.05555555555555555,0,0,0.05555555555555555,27.72222222222222,0)" xlink:href="#aw"/><use transform="matrix(0.05555555555555555,0,0,0.05555555555555555,38.83333333333333,0)" xlink:href="#az"/><use transform="matrix(0.05555555555555555,0,0,0.05555555555555555,43.222222222222214,0)" xlink:href="#at"/></g><path fill="#008a0e" d="M205 0l-28-72H64L36 0H1l101-248h38L239 0h-34zm-38-99l-47-123c-12 45-31 82-46 123h93" id="aA"/><path fill="#008a0e" d="M135-143c-3-34-86-38-87 0 15 53 115 12 119 90S17 21 10-45l28-5c4 36 97 45 98 0-10-56-113-15-118-90-4-57 82-63 122-42 12 7 21 19 24 35" id="aB"/><path fill="#008a0e" d="M24-231v-30h32v30H24zM24 0v-190h32V0H24" id="aC"/><path fill="#008a0e" d="M177-190C167-65 218 103 67 71c-23-6-38-20-44-43l32-5c15 47 100 32 89-28v-30C133-14 115 1 83 1 29 1 15-40 15-95c0-56 16-97 71-98 29-1 48 16 59 35 1-10 0-23 2-32h30zM94-22c36 0 50-32 50-73 0-42-14-75-50-75-39 0-46 34-46 75s6 73 46 73" id="aD"/><path fill="#008a0e" d="M117-194c89-4 53 116 60 194h-32v-121c0-31-8-49-39-48C34-167 62-67 57 0H25l-1-190h30c1 10-1 24 2 32 11-22 29-35 61-36" id="aE"/><path fill="#008a0e" d="M210-169c-67 3-38 105-44 169h-31v-121c0-29-5-50-35-48C34-165 62-65 56 0H25l-1-190h30c1 10-1 24 2 32 10-44 99-50 107 0 11-21 27-35 58-36 85-2 47 119 55 194h-31v-121c0-29-5-49-35-48" id="aF"/><path fill="#008a0e" d="M100-194c63 0 86 42 84 106H49c0 40 14 67 53 68 26 1 43-12 49-29l28 8c-11 28-37 45-77 45C44 4 14-33 15-96c1-61 26-98 85-98zm52 81c6-60-76-77-97-28-3 7-6 17-6 28h103" id="aG"/><path fill="#008a0e" d="M59-47c-2 24 18 29 38 22v24C64 9 27 4 27-40v-127H5v-23h24l9-43h21v43h35v23H59v120" id="aH"/><g id="t"><use transform="matrix(0.05555555555555555,0,0,0.05555555555555555,0,0)" xlink:href="#aA"/><use transform="matrix(0.05555555555555555,0,0,0.05555555555555555,13.333333333333332,0)" xlink:href="#aB"/><use transform="matrix(0.05555555555555555,0,0,0.05555555555555555,23.333333333333332,0)" xlink:href="#aB"/><use transform="matrix(0.05555555555555555,0,0,0.05555555555555555,33.33333333333333,0)" xlink:href="#aC"/><use transform="matrix(0.05555555555555555,0,0,0.05555555555555555,37.722222222222214,0)" xlink:href="#aD"/><use transform="matrix(0.05555555555555555,0,0,0.05555555555555555,48.83333333333333,0)" xlink:href="#aE"/><use transform="matrix(0.05555555555555555,0,0,0.05555555555555555,59.94444444444444,0)" xlink:href="#aF"/><use transform="matrix(0.05555555555555555,0,0,0.05555555555555555,76.55555555555556,0)" xlink:href="#aG"/><use transform="matrix(0.05555555555555555,0,0,0.05555555555555555,87.66666666666667,0)" xlink:href="#aE"/><use transform="matrix(0.05555555555555555,0,0,0.05555555555555555,98.77777777777779,0)" xlink:href="#aH"/></g><path fill="#008a0e" d="M114-163C36-179 61-72 57 0H25l-1-190h30c1 12-1 29 2 39 6-27 23-49 58-41v29" id="aI"/><path fill="#008a0e" d="M145-31C134-9 116 4 85 4 32 4 16-35 15-94c0-59 17-99 70-100 32-1 48 14 60 33 0-11-1-24 2-32h30l-1 268h-32zM93-21c41 0 51-33 51-76s-8-73-50-73c-40 0-46 35-46 75s5 74 45 74" id="aJ"/><path fill="#008a0e" d="M84 4C-5 8 30-112 23-190h32v120c0 31 7 50 39 49 72-2 45-101 50-169h31l1 190h-30c-1-10 1-25-2-33-11 22-28 36-60 37" id="aK"/><g id="u"><use transform="matrix(0.05555555555555555,0,0,0.05555555555555555,0,0)" xlink:href="#aI"/><use transform="matrix(0.05555555555555555,0,0,0.05555555555555555,6.611111111111111,0)" xlink:href="#aG"/><use transform="matrix(0.05555555555555555,0,0,0.05555555555555555,17.72222222222222,0)" xlink:href="#aJ"/><use transform="matrix(0.05555555555555555,0,0,0.05555555555555555,28.833333333333332,0)" xlink:href="#aK"/><use transform="matrix(0.05555555555555555,0,0,0.05555555555555555,39.94444444444444,0)" xlink:href="#aG"/><use transform="matrix(0.05555555555555555,0,0,0.05555555555555555,51.05555555555556,0)" xlink:href="#aB"/><use transform="matrix(0.05555555555555555,0,0,0.05555555555555555,61.05555555555555,0)" xlink:href="#aH"/></g><path fill="#008a0e" d="M115-194c55 1 70 41 70 98S169 2 115 4C84 4 66-9 55-30l1 105H24l-1-265h31l2 30c10-21 28-34 59-34zm-8 174c40 0 45-34 45-75s-6-73-45-74c-42 0-51 32-51 76 0 43 10 73 51 73" id="aL"/><path fill="#008a0e" d="M100-194c62-1 85 37 85 99 1 63-27 99-86 99S16-35 15-95c0-66 28-99 85-99zM99-20c44 1 53-31 53-75 0-43-8-75-51-75s-53 32-53 75 10 74 51 75" id="aM"/><g id="v"><use transform="matrix(0.05555555555555555,0,0,0.05555555555555555,0,0)" xlink:href="#aI"/><use transform="matrix(0.05555555555555555,0,0,0.05555555555555555,6.611111111111111,0)" xlink:href="#aG"/><use transform="matrix(0.05555555555555555,0,0,0.05555555555555555,17.72222222222222,0)" xlink:href="#aB"/><use transform="matrix(0.05555555555555555,0,0,0.05555555555555555,27.72222222222222,0)" xlink:href="#aL"/><use transform="matrix(0.05555555555555555,0,0,0.05555555555555555,38.83333333333333,0)" xlink:href="#aM"/><use transform="matrix(0.05555555555555555,0,0,0.05555555555555555,49.94444444444444,0)" xlink:href="#aE"/><use transform="matrix(0.05555555555555555,0,0,0.05555555555555555,61.05555555555555,0)" xlink:href="#aB"/><use transform="matrix(0.05555555555555555,0,0,0.05555555555555555,71.05555555555556,0)" xlink:href="#aG"/></g><g id="w"><use transform="matrix(0.05555555555555555,0,0,0.05555555555555555,0,0)" xlink:href="#aA"/><use transform="matrix(0.05555555555555555,0,0,0.05555555555555555,13.333333333333332,0)" xlink:href="#aB"/><use transform="matrix(0.05555555555555555,0,0,0.05555555555555555,23.333333333333332,0)" xlink:href="#aB"/><use transform="matrix(0.05555555555555555,0,0,0.05555555555555555,33.33333333333333,0)" xlink:href="#aC"/><use transform="matrix(0.05555555555555555,0,0,0.05555555555555555,37.722222222222214,0)" xlink:href="#aD"/><use transform="matrix(0.05555555555555555,0,0,0.05555555555555555,48.83333333333333,0)" xlink:href="#aE"/><use transform="matrix(0.05555555555555555,0,0,0.05555555555555555,59.94444444444444,0)" xlink:href="#aF"/><use transform="matrix(0.05555555555555555,0,0,0.05555555555555555,76.55555555555556,0)" xlink:href="#aG"/><use transform="matrix(0.05555555555555555,0,0,0.05555555555555555,87.66666666666667,0)" xlink:href="#aE"/><use transform="matrix(0.05555555555555555,0,0,0.05555555555555555,98.77777777777779,0)" xlink:href="#aH"/></g><g id="x"><use transform="matrix(0.05555555555555555,0,0,0.05555555555555555,0,0)" xlink:href="#aI"/><use transform="matrix(0.05555555555555555,0,0,0.05555555555555555,6.611111111111111,0)" xlink:href="#aG"/><use transform="matrix(0.05555555555555555,0,0,0.05555555555555555,17.72222222222222,0)" xlink:href="#aB"/><use transform="matrix(0.05555555555555555,0,0,0.05555555555555555,27.72222222222222,0)" xlink:href="#aL"/><use transform="matrix(0.05555555555555555,0,0,0.05555555555555555,38.83333333333333,0)" xlink:href="#aM"/><use transform="matrix(0.05555555555555555,0,0,0.05555555555555555,49.94444444444444,0)" xlink:href="#aE"/><use transform="matrix(0.05555555555555555,0,0,0.05555555555555555,61.05555555555555,0)" xlink:href="#aB"/><use transform="matrix(0.05555555555555555,0,0,0.05555555555555555,71.05555555555556,0)" xlink:href="#aG"/></g><path fill="#008a0e" d="M24 0v-261h32V0H24" id="aN"/><g id="y"><use transform="matrix(0.05555555555555555,0,0,0.05555555555555555,0,0)" xlink:href="#aI"/><use transform="matrix(0.05555555555555555,0,0,0.05555555555555555,6.611111111111111,0)" xlink:href="#aG"/><use transform="matrix(0.05555555555555555,0,0,0.05555555555555555,17.72222222222222,0)" xlink:href="#aB"/><use transform="matrix(0.05555555555555555,0,0,0.05555555555555555,27.72222222222222,0)" xlink:href="#aK"/><use transform="matrix(0.05555555555555555,0,0,0.05555555555555555,38.83333333333333,0)" xlink:href="#aN"/><use transform="matrix(0.05555555555555555,0,0,0.05555555555555555,43.222222222222214,0)" xlink:href="#aH"/></g><g id="z"><use transform="matrix(0.05555555555555555,0,0,0.05555555555555555,0,0)" xlink:href="#aI"/><use transform="matrix(0.05555555555555555,0,0,0.05555555555555555,6.611111111111111,0)" xlink:href="#aG"/><use transform="matrix(0.05555555555555555,0,0,0.05555555555555555,17.72222222222222,0)" xlink:href="#aB"/><use transform="matrix(0.05555555555555555,0,0,0.05555555555555555,27.72222222222222,0)" xlink:href="#aK"/><use transform="matrix(0.05555555555555555,0,0,0.05555555555555555,38.83333333333333,0)" xlink:href="#aN"/><use transform="matrix(0.05555555555555555,0,0,0.05555555555555555,43.222222222222214,0)" xlink:href="#aH"/></g></defs></g></svg>