<svg xmlns="http://www.w3.org/2000/svg" xmlns:xlink="http://www.w3.org/1999/xlink" xmlns:lucid="lucid" width="1062" height="502"><g transform="translate(1001.0000000080513 -838.999999996251)" lucid:page-tab-id="0_0"><path d="M-1500 500H500v1000h-2000z" fill="#fff"/><path d="M-1000 846a6 6 0 0 1 6-6H54a6 6 0 0 1 6 6v488a6 6 0 0 1-6 6H-994a6 6 0 0 1-6-6z" stroke="#dfe3e8" stroke-width="2" fill="#fbfbfb"/><path d="M-960 886a6 6 0 0 1 6-6h272a6 6 0 0 1 6 6v294c-47.43-50.1-76.96-50.1-94.86-50.1-28.4 0-66.17 50.1-94.57 50.1-17.6 0-47.43 0-94.57-50.1z" stroke="#282c33" stroke-width="2" fill="#fff"/><use xlink:href="#a" transform="matrix(1,0,0,1,-955,885) translate(39.78395061728398 17.77777777777778)"/><use xlink:href="#b" transform="matrix(1,0,0,1,-955,885) translate(137.5 44.44444444444444)"/><use xlink:href="#c" transform="matrix(1,0,0,1,-955,885) translate(35.18518518518519 71.11111111111111)"/><use xlink:href="#d" transform="matrix(1,0,0,1,-955,885) translate(96.85185185185186 71.11111111111111)"/><use xlink:href="#b" transform="matrix(1,0,0,1,-955,885) translate(137.5 97.77777777777777)"/><use xlink:href="#e" transform="matrix(1,0,0,1,-955,885) translate(77.71604938271605 124.44444444444446)"/><use xlink:href="#f" transform="matrix(1,0,0,1,-955,885) translate(78.9506172839506 151.11111111111111)"/><use xlink:href="#b" transform="matrix(1,0,0,1,-955,885) translate(137.5 177.77777777777777)"/><use xlink:href="#g" transform="matrix(1,0,0,1,-955,885) translate(98.7037037037037 204.44444444444443)"/><use xlink:href="#h" transform="matrix(1,0,0,1,-955,885) translate(163.9506172839506 204.44444444444443)"/><use xlink:href="#i" transform="matrix(1,0,0,1,-955,885) translate(46.20370370370371 231.1111111111111)"/><use xlink:href="#j" transform="matrix(1,0,0,1,-955,885) translate(117.74691358024691 231.1111111111111)"/><use xlink:href="#k" transform="matrix(1,0,0,1,-955,885) translate(153.54938271604937 231.1111111111111)"/><path d="M-616 886a6 6 0 0 1 6-6h272a6 6 0 0 1 6 6v326c-47.43-55.44-76.96-55.44-94.86-55.44-28.4 0-66.17 55.44-94.57 55.44-17.6 0-47.43 0-94.57-55.44z" fill="#fff"/><path d="M-589.85 880h20.15m10.07 0h20.15m10.07 0h20.14m10.07 0h20.16m10.08 0h20.14m10.08 0h20.15m10.08 0h20.15m10.07 0h20.15m10.08 0H-338a6 6 0 0 1 6 6v9.88m0 9.88v19.75m0 9.9v19.75m0 9.88v19.76m0 9.87v19.75m0 9.88v19.76m0 9.88v19.76m0 9.88v19.75m0 9.88v19.77m0 9.88v19.76m0 9.88v19.76m0 9.88v9.88l-6.35-7.06m-6.44-6.96l-7.62-7.63-6.1-5.48m-7.3-6.07l-1.52-1.23-6.15-4.45-5.5-3.56-2.5-1.43m-8.43-4.36l-3.04-1.34-4.08-1.55-3.92-1.25-3.8-1-3.18-.66m-9.42-1.17l-4.7-.2-4.8-.04-1.17.03-1.27.1-1.36.17-1.47.28-1.6.4-1.8.52-.42.15m-8.44 3.86l-1.43.8-4.17 2.58-5.77 4.04-3.93 3.08m-7.3 5.75l-14.43 11.72m-7.2 5.86l-3.88 3.16-5.8 4.03-4.15 2.58-1.44.8m-8.43 3.85l-.42.15-1.8.54-1.6.4-1.47.27-1.36.17-1.26.1-1.2.03-8.25-.16-1.2-.1m-9.4-1.18l-1.67-.32-3.8-.92-3.9-1.16-4.03-1.45-4.24-1.77-.34-.16m-8.4-4.34l-.66-.36-5.32-3.3-5.9-4.1-3.75-2.94m-7.3-6.06l-3.07-2.67-8.7-8.38-1.9-2.04m-6.45-6.93l-1.86-2-4.42-5.1v-10m0-10.03v-20.05m0-10.02v-20.04m0-10v-20.05m0-10.02v-20.04m0-10.03v-20.04m0-10.02v-20.04m0-10.02V936.1m0-10.02v-20.04m0-10.02V886a6 6 0 0 1 6-6h10.07" stroke="#282c33" stroke-width="2" fill="none"/><use xlink:href="#a" transform="matrix(1,0,0,1,-611.0000000000001,885) translate(39.78395061728398 21.94965277777778)"/><use xlink:href="#b" transform="matrix(1,0,0,1,-611.0000000000001,885) translate(137.5 48.61631944444444)"/><use xlink:href="#c" transform="matrix(1,0,0,1,-611.0000000000001,885) translate(35.18518518518519 75.28298611111111)"/><use xlink:href="#d" transform="matrix(1,0,0,1,-611.0000000000001,885) translate(96.85185185185186 75.28298611111111)"/><use xlink:href="#b" transform="matrix(1,0,0,1,-611.0000000000001,885) translate(137.5 101.94965277777777)"/><use xlink:href="#e" transform="matrix(1,0,0,1,-611.0000000000001,885) translate(77.71604938271605 128.61631944444446)"/><use xlink:href="#l" transform="matrix(1,0,0,1,-611.0000000000001,885) translate(75.8641975308642 155.28298611111111)"/><use xlink:href="#m" transform="matrix(1,0,0,1,-611.0000000000001,885) translate(80.15432098765432 181.94965277777777)"/><use xlink:href="#b" transform="matrix(1,0,0,1,-611.0000000000001,885) translate(137.5 208.61631944444443)"/><use xlink:href="#g" transform="matrix(1,0,0,1,-611.0000000000001,885) translate(98.7037037037037 235.2829861111111)"/><use xlink:href="#n" transform="matrix(1,0,0,1,-611.0000000000001,885) translate(163.9506172839506 235.2829861111111)"/><use xlink:href="#i" transform="matrix(1,0,0,1,-611.0000000000001,885) translate(46.20370370370371 261.94965277777777)"/><use xlink:href="#j" transform="matrix(1,0,0,1,-611.0000000000001,885) translate(117.74691358024691 261.94965277777777)"/><use xlink:href="#k" transform="matrix(1,0,0,1,-611.0000000000001,885) translate(153.54938271604937 261.94965277777777)"/><path d="M-674.5 1046h41.12" stroke="#3a414a" fill="none"/><path d="M-674.5 1046.47h-.5v-.94h.5z" stroke="#3a414a" stroke-width=".05" fill="#3a414a"/><path d="M-618.62 1046l-14.26 4.63v-9.27z" stroke="#3a414a" fill="#3a414a"/><path d="M-272 886a6 6 0 0 1 6-6H6a6 6 0 0 1 6 6v326c-47.43-55.44-76.96-55.44-94.86-55.44-28.4 0-66.17 55.44-94.57 55.44-17.6 0-47.43 0-94.57-55.44z" stroke="#282c33" stroke-width="2" fill="#fff"/><use xlink:href="#a" transform="matrix(1,0,0,1,-267.0000000000002,885) translate(39.78395061728398 21.94965277777778)"/><use xlink:href="#b" transform="matrix(1,0,0,1,-267.0000000000002,885) translate(137.5 48.61631944444444)"/><use xlink:href="#c" transform="matrix(1,0,0,1,-267.0000000000002,885) translate(35.18518518518519 75.28298611111111)"/><use xlink:href="#d" transform="matrix(1,0,0,1,-267.0000000000002,885) translate(96.85185185185186 75.28298611111111)"/><use xlink:href="#b" transform="matrix(1,0,0,1,-267.0000000000002,885) translate(137.5 101.94965277777777)"/><use xlink:href="#e" transform="matrix(1,0,0,1,-267.0000000000002,885) translate(77.71604938271605 128.61631944444446)"/><use xlink:href="#l" transform="matrix(1,0,0,1,-267.0000000000002,885) translate(75.8641975308642 155.28298611111111)"/><use xlink:href="#m" transform="matrix(1,0,0,1,-267.0000000000002,885) translate(80.15432098765432 181.94965277777777)"/><use xlink:href="#b" transform="matrix(1,0,0,1,-267.0000000000002,885) translate(137.5 208.61631944444443)"/><use xlink:href="#g" transform="matrix(1,0,0,1,-267.0000000000002,885) translate(98.7037037037037 235.2829861111111)"/><use xlink:href="#o" transform="matrix(1,0,0,1,-267.0000000000002,885) translate(163.9506172839506 235.2829861111111)"/><use xlink:href="#p" transform="matrix(1,0,0,1,-267.0000000000002,885) translate(3.6111111111111143 261.94965277777777)"/><use xlink:href="#j" transform="matrix(1,0,0,1,-267.0000000000002,885) translate(75.15432098765432 261.94965277777777)"/><use xlink:href="#q" transform="matrix(1,0,0,1,-267.0000000000002,885) translate(110.95679012345678 261.94965277777777)"/><use xlink:href="#r" transform="matrix(1,0,0,1,-267.0000000000002,885) translate(198.54938271604937 261.94965277777777)"/><path d="M-330.5 1046h41.12" stroke="#3a414a" fill="none"/><path d="M-330.5 1046.47h-.5v-.94h.5z" stroke="#3a414a" stroke-width=".05" fill="#3a414a"/><path d="M-274.62 1046l-14.26 4.63v-9.27z" stroke="#3a414a" fill="#3a414a"/><path d="M-960 1214a6 6 0 0 1 6-6h114.67a6 6 0 0 1 6 6v79.33c-21.16-14.25-34.33-14.25-42.3-14.25-12.68 0-29.52 14.25-42.2 14.25-7.84 0-21.14 0-42.17-14.25z" stroke="#282c33" stroke-width="2" fill="#fff"/><g><use xlink:href="#s" transform="matrix(1,0,0,1,-955,1212.9999999999222) translate(35.135802469135804 21.65277777777778)"/><use xlink:href="#t" transform="matrix(1,0,0,1,-955,1212.9999999999222) translate(5.475308641975303 48.31944444444444)"/></g><path d="M-802.67 1214a6 6 0 0 1 6-6H-682a6 6 0 0 1 6 6v79.33c-21.15-14.25-34.33-14.25-42.3-14.25-12.67 0-29.52 14.25-42.2 14.25-7.84 0-21.14 0-42.17-14.25z" fill="#fff"/><path d="M-777.56 1208h19.12m9.55 0h19.12m9.56 0h19.1m9.56 0h9.56a6 6 0 0 1 6 6v8.82m0 8.8v17.64m0 8.8v17.64m0 8.82v8.8l-6.5-3.86m-6.62-3.65l-6.63-2.93-7.08-2.2-.45-.07m-7.47-1.16l-6.74-.36h-.8l-2.26.14-3.02.56-4.7 1.46-4.32 1.83m-13.76 5.82l-8.86 3.74-3 .55-2.27.13-7.52-.35m-7.45-1.16l-.36-.07-7.08-2.17-6.7-2.97m-6.6-3.64l-6.15-3.66-.32-.22v-10.84m0-10.85v-21.7m0-10.85V1214a6 6 0 0 1 6-6h9.56" stroke="#282c33" stroke-width="2" fill="none"/><g><use xlink:href="#u" transform="matrix(1,0,0,1,-797.6666666666666,1212.9999999999222) translate(14.73456790123457 37.15277777777778)"/></g><path d="M-960 886a6 6 0 0 1 6-6h272a6 6 0 0 1 6 6v294c-47.43-50.1-76.96-50.1-94.86-50.1-28.4 0-66.17 50.1-94.57 50.1-17.6 0-47.43 0-94.57-50.1z" stroke="#282c33" stroke-width="2" fill="#fff"/><g><use xlink:href="#a" transform="matrix(1,0,0,1,-955,885) translate(39.78395061728398 17.77777777777778)"/><use xlink:href="#b" transform="matrix(1,0,0,1,-955,885) translate(137.5 44.44444444444444)"/><use xlink:href="#c" transform="matrix(1,0,0,1,-955,885) translate(35.18518518518519 71.11111111111111)"/><use xlink:href="#d" transform="matrix(1,0,0,1,-955,885) translate(96.85185185185186 71.11111111111111)"/><use xlink:href="#b" transform="matrix(1,0,0,1,-955,885) translate(137.5 97.77777777777777)"/><use xlink:href="#e" transform="matrix(1,0,0,1,-955,885) translate(77.71604938271605 124.44444444444446)"/><use xlink:href="#f" transform="matrix(1,0,0,1,-955,885) translate(78.9506172839506 151.11111111111111)"/><use xlink:href="#b" transform="matrix(1,0,0,1,-955,885) translate(137.5 177.77777777777777)"/><use xlink:href="#g" transform="matrix(1,0,0,1,-955,885) translate(98.7037037037037 204.44444444444443)"/><use xlink:href="#h" transform="matrix(1,0,0,1,-955,885) translate(163.9506172839506 204.44444444444443)"/><use xlink:href="#i" transform="matrix(1,0,0,1,-955,885) translate(46.20370370370371 231.1111111111111)"/><use xlink:href="#j" transform="matrix(1,0,0,1,-955,885) translate(117.74691358024691 231.1111111111111)"/><use xlink:href="#k" transform="matrix(1,0,0,1,-955,885) translate(153.54938271604937 231.1111111111111)"/></g><path d="M-616 886a6 6 0 0 1 6-6h272a6 6 0 0 1 6 6v326c-47.43-55.44-76.96-55.44-94.86-55.44-28.4 0-66.17 55.44-94.57 55.44-17.6 0-47.43 0-94.57-55.44z" fill="#fff"/><path d="M-589.85 880h20.15m10.07 0h20.15m10.07 0h20.14m10.07 0h20.16m10.08 0h20.14m10.08 0h20.15m10.08 0h20.15m10.07 0h20.15m10.08 0H-338a6 6 0 0 1 6 6v9.88m0 9.88v19.75m0 9.9v19.75m0 9.88v19.76m0 9.87v19.75m0 9.88v19.76m0 9.88v19.76m0 9.88v19.75m0 9.88v19.77m0 9.88v19.76m0 9.88v19.76m0 9.88v9.88l-6.35-7.06m-6.44-6.96l-7.62-7.63-6.1-5.48m-7.3-6.07l-1.52-1.23-6.15-4.45-5.5-3.56-2.5-1.43m-8.43-4.36l-3.04-1.34-4.08-1.55-3.92-1.25-3.8-1-3.18-.66m-9.42-1.17l-4.7-.2-4.8-.04-1.17.03-1.27.1-1.36.17-1.47.28-1.6.4-1.8.52-.42.15m-8.44 3.86l-1.43.8-4.17 2.58-5.77 4.04-3.93 3.08m-7.3 5.75l-14.43 11.72m-7.2 5.86l-3.88 3.16-5.8 4.03-4.15 2.58-1.44.8m-8.43 3.85l-.42.15-1.8.54-1.6.4-1.47.27-1.36.17-1.26.1-1.2.03-8.25-.16-1.2-.1m-9.4-1.18l-1.67-.32-3.8-.92-3.9-1.16-4.03-1.45-4.24-1.77-.34-.16m-8.4-4.34l-.66-.36-5.32-3.3-5.9-4.1-3.75-2.94m-7.3-6.06l-3.07-2.67-8.7-8.38-1.9-2.04m-6.45-6.93l-1.86-2-4.42-5.1v-10m0-10.03v-20.05m0-10.02v-20.04m0-10v-20.05m0-10.02v-20.04m0-10.03v-20.04m0-10.02v-20.04m0-10.02V936.1m0-10.02v-20.04m0-10.02V886a6 6 0 0 1 6-6h10.07" stroke="#282c33" stroke-width="2" fill="none"/><g><use xlink:href="#a" transform="matrix(1,0,0,1,-611.0000000000001,885) translate(39.78395061728398 21.94965277777778)"/><use xlink:href="#b" transform="matrix(1,0,0,1,-611.0000000000001,885) translate(137.5 48.61631944444444)"/><use xlink:href="#c" transform="matrix(1,0,0,1,-611.0000000000001,885) translate(35.18518518518519 75.28298611111111)"/><use xlink:href="#d" transform="matrix(1,0,0,1,-611.0000000000001,885) translate(96.85185185185186 75.28298611111111)"/><use xlink:href="#b" transform="matrix(1,0,0,1,-611.0000000000001,885) translate(137.5 101.94965277777777)"/><use xlink:href="#e" transform="matrix(1,0,0,1,-611.0000000000001,885) translate(77.71604938271605 128.61631944444446)"/><use xlink:href="#l" transform="matrix(1,0,0,1,-611.0000000000001,885) translate(75.8641975308642 155.28298611111111)"/><use xlink:href="#m" transform="matrix(1,0,0,1,-611.0000000000001,885) translate(80.15432098765432 181.94965277777777)"/><use xlink:href="#b" transform="matrix(1,0,0,1,-611.0000000000001,885) translate(137.5 208.61631944444443)"/><use xlink:href="#g" transform="matrix(1,0,0,1,-611.0000000000001,885) translate(98.7037037037037 235.2829861111111)"/><use xlink:href="#n" transform="matrix(1,0,0,1,-611.0000000000001,885) translate(163.9506172839506 235.2829861111111)"/><use xlink:href="#i" transform="matrix(1,0,0,1,-611.0000000000001,885) translate(46.20370370370371 261.94965277777777)"/><use xlink:href="#j" transform="matrix(1,0,0,1,-611.0000000000001,885) translate(117.74691358024691 261.94965277777777)"/><use xlink:href="#k" transform="matrix(1,0,0,1,-611.0000000000001,885) translate(153.54938271604937 261.94965277777777)"/></g><path d="M-674.5 1046h41.12" stroke="#3a414a" fill="none"/><path d="M-674.5 1046.47h-.5v-.94h.5z" stroke="#3a414a" stroke-width=".05" fill="#3a414a"/><path d="M-618.62 1046l-14.26 4.63v-9.27z" stroke="#3a414a" fill="#3a414a"/><path d="M-272 886a6 6 0 0 1 6-6H6a6 6 0 0 1 6 6v326c-47.43-55.44-76.96-55.44-94.86-55.44-28.4 0-66.17 55.44-94.57 55.44-17.6 0-47.43 0-94.57-55.44z" stroke="#282c33" stroke-width="2" fill="#fff"/><g><use xlink:href="#a" transform="matrix(1,0,0,1,-267.0000000000002,885) translate(39.78395061728398 21.94965277777778)"/><use xlink:href="#b" transform="matrix(1,0,0,1,-267.0000000000002,885) translate(137.5 48.61631944444444)"/><use xlink:href="#c" transform="matrix(1,0,0,1,-267.0000000000002,885) translate(35.18518518518519 75.28298611111111)"/><use xlink:href="#d" transform="matrix(1,0,0,1,-267.0000000000002,885) translate(96.85185185185186 75.28298611111111)"/><use xlink:href="#b" transform="matrix(1,0,0,1,-267.0000000000002,885) translate(137.5 101.94965277777777)"/><use xlink:href="#e" transform="matrix(1,0,0,1,-267.0000000000002,885) translate(77.71604938271605 128.61631944444446)"/><use xlink:href="#l" transform="matrix(1,0,0,1,-267.0000000000002,885) translate(75.8641975308642 155.28298611111111)"/><use xlink:href="#m" transform="matrix(1,0,0,1,-267.0000000000002,885) translate(80.15432098765432 181.94965277777777)"/><use xlink:href="#b" transform="matrix(1,0,0,1,-267.0000000000002,885) translate(137.5 208.61631944444443)"/><use xlink:href="#g" transform="matrix(1,0,0,1,-267.0000000000002,885) translate(98.7037037037037 235.2829861111111)"/><use xlink:href="#o" transform="matrix(1,0,0,1,-267.0000000000002,885) translate(163.9506172839506 235.2829861111111)"/><use xlink:href="#p" transform="matrix(1,0,0,1,-267.0000000000002,885) translate(3.6111111111111143 261.94965277777777)"/><use xlink:href="#j" transform="matrix(1,0,0,1,-267.0000000000002,885) translate(75.15432098765432 261.94965277777777)"/><use xlink:href="#q" transform="matrix(1,0,0,1,-267.0000000000002,885) translate(110.95679012345678 261.94965277777777)"/><use xlink:href="#r" transform="matrix(1,0,0,1,-267.0000000000002,885) translate(198.54938271604937 261.94965277777777)"/></g><path d="M-330.5 1046h41.12" stroke="#3a414a" fill="none"/><path d="M-330.5 1046.47h-.5v-.94h.5z" stroke="#3a414a" stroke-width=".05" fill="#3a414a"/><path d="M-274.62 1046l-14.26 4.63v-9.27z" stroke="#3a414a" fill="#3a414a"/><path d="M-960 1214a6 6 0 0 1 6-6h114.67a6 6 0 0 1 6 6v79.33c-21.16-14.25-34.33-14.25-42.3-14.25-12.68 0-29.52 14.25-42.2 14.25-7.84 0-21.14 0-42.17-14.25z" stroke="#282c33" stroke-width="2" fill="#fff"/><g><use xlink:href="#s" transform="matrix(1,0,0,1,-955,1212.9999999999222) translate(35.135802469135804 21.65277777777778)"/><use xlink:href="#t" transform="matrix(1,0,0,1,-955,1212.9999999999222) translate(5.475308641975303 48.31944444444444)"/></g><path d="M-802.67 1214a6 6 0 0 1 6-6H-682a6 6 0 0 1 6 6v79.33c-21.15-14.25-34.33-14.25-42.3-14.25-12.67 0-29.52 14.25-42.2 14.25-7.84 0-21.14 0-42.17-14.25z" fill="#fff"/><path d="M-777.56 1208h19.12m9.55 0h19.12m9.56 0h19.1m9.56 0h9.56a6 6 0 0 1 6 6v8.82m0 8.8v17.64m0 8.8v17.64m0 8.82v8.8l-6.5-3.86m-6.62-3.65l-6.63-2.93-7.08-2.2-.45-.07m-7.47-1.16l-6.74-.36h-.8l-2.26.14-3.02.56-4.7 1.46-4.32 1.83m-13.76 5.82l-8.86 3.74-3 .55-2.27.13-7.52-.35m-7.45-1.16l-.36-.07-7.08-2.17-6.7-2.97m-6.6-3.64l-6.15-3.66-.32-.22v-10.84m0-10.85v-21.7m0-10.85V1214a6 6 0 0 1 6-6h9.56" stroke="#282c33" stroke-width="2" fill="none"/><g><use xlink:href="#u" transform="matrix(1,0,0,1,-797.6666666666666,1212.9999999999222) translate(14.73456790123457 37.15277777777778)"/></g><defs><path fill="#3a414a" d="M24-248c93 1 206-16 204 79-1 75-69 88-152 82V0H24v-248zm52 121c47 0 100 7 100-41 0-47-54-39-100-39v80" id="v"/><path fill="#3a414a" d="M133-34C117-15 103 5 69 4 32 3 11-16 11-54c-1-60 55-63 116-61 1-26-3-47-28-47-18 1-26 9-28 27l-52-2c7-38 36-58 82-57s74 22 75 68l1 82c-1 14 12 18 25 15v27c-30 8-71 5-69-32zm-48 3c29 0 43-24 42-57-32 0-66-3-65 30 0 17 8 27 23 27" id="w"/><path fill="#3a414a" d="M135-150c-39-12-60 13-60 57V0H25l-1-190h47c2 13-1 29 3 40 6-28 27-53 61-41v41" id="x"/><path fill="#3a414a" d="M115-3C79 11 28 4 28-45v-112H4v-33h27l15-45h31v45h36v33H77v99c-1 23 16 31 38 25v30" id="y"/><path fill="#3a414a" d="M123 10C108 53 80 86 19 72V37c35 8 53-11 59-39L3-190h52l48 148c12-52 28-100 44-148h51" id="z"/><path fill="#3a414a" d="M136-208V0H84v-208H4v-40h212v40h-80" id="A"/><path fill="#3a414a" d="M110-194c64 0 96 36 96 99 0 64-35 99-97 99-61 0-95-36-95-99 0-62 34-99 96-99zm-1 164c35 0 45-28 45-65 0-40-10-65-43-65-34 0-45 26-45 65 0 36 10 65 43 65" id="B"/><path fill="#3a414a" d="M25-224v-37h50v37H25zM25 0v-190h50V0H25" id="C"/><path fill="#3a414a" d="M190-63c-7 42-38 67-86 67-59 0-84-38-90-98-12-110 154-137 174-36l-49 2c-2-19-15-32-35-32-30 0-35 28-38 64-6 74 65 87 74 30" id="D"/><path fill="#3a414a" d="M135-194c53 0 70 44 70 98 0 56-19 98-73 100-31 1-45-17-59-34 3 33 2 69 2 105H25l-1-265h48c2 10 0 23 3 31 11-24 29-35 60-35zM114-30c33 0 39-31 40-66 0-38-9-64-40-64-56 0-55 130 0 130" id="E"/><path fill="#3a414a" d="M135-194c87-1 58 113 63 194h-50c-7-57 23-157-34-157-59 0-34 97-39 157H25l-1-190h47c2 12-1 28 3 38 12-26 28-41 61-42" id="F"/><g id="a"><use transform="matrix(0.06172839506172839,0,0,0.06172839506172839,0,0)" xlink:href="#v"/><use transform="matrix(0.06172839506172839,0,0,0.06172839506172839,14.814814814814813,0)" xlink:href="#w"/><use transform="matrix(0.06172839506172839,0,0,0.06172839506172839,27.160493827160494,0)" xlink:href="#x"/><use transform="matrix(0.06172839506172839,0,0,0.06172839506172839,35.80246913580247,0)" xlink:href="#y"/><use transform="matrix(0.06172839506172839,0,0,0.06172839506172839,43.148148148148145,0)" xlink:href="#z"/><use transform="matrix(0.06172839506172839,0,0,0.06172839506172839,55.49382716049382,0)" xlink:href="#A"/><use transform="matrix(0.06172839506172839,0,0,0.06172839506172839,67.34567901234567,0)" xlink:href="#B"/><use transform="matrix(0.06172839506172839,0,0,0.06172839506172839,80.86419753086419,0)" xlink:href="#v"/><use transform="matrix(0.06172839506172839,0,0,0.06172839506172839,95.679012345679,0)" xlink:href="#w"/><use transform="matrix(0.06172839506172839,0,0,0.06172839506172839,108.02469135802468,0)" xlink:href="#x"/><use transform="matrix(0.06172839506172839,0,0,0.06172839506172839,116.66666666666666,0)" xlink:href="#y"/><use transform="matrix(0.06172839506172839,0,0,0.06172839506172839,124.01234567901234,0)" xlink:href="#C"/><use transform="matrix(0.06172839506172839,0,0,0.06172839506172839,130.1851851851852,0)" xlink:href="#D"/><use transform="matrix(0.06172839506172839,0,0,0.06172839506172839,142.53086419753086,0)" xlink:href="#C"/><use transform="matrix(0.06172839506172839,0,0,0.06172839506172839,148.7037037037037,0)" xlink:href="#E"/><use transform="matrix(0.06172839506172839,0,0,0.06172839506172839,162.2222222222222,0)" xlink:href="#w"/><use transform="matrix(0.06172839506172839,0,0,0.06172839506172839,174.56790123456787,0)" xlink:href="#F"/><use transform="matrix(0.06172839506172839,0,0,0.06172839506172839,188.08641975308637,0)" xlink:href="#y"/></g><path fill="#3a414a" d="M115-194c55 1 70 41 70 98S169 2 115 4C84 4 66-9 55-30l1 105H24l-1-265h31l2 30c10-21 28-34 59-34zm-8 174c40 0 45-34 45-75s-6-73-45-74c-42 0-51 32-51 76 0 43 10 73 51 73" id="G"/><path fill="#3a414a" d="M141-36C126-15 110 5 73 4 37 3 15-17 15-53c-1-64 63-63 125-63 3-35-9-54-41-54-24 1-41 7-42 31l-33-3c5-37 33-52 76-52 45 0 72 20 72 64v82c-1 20 7 32 28 27v20c-31 9-61-2-59-35zM48-53c0 20 12 33 32 33 41-3 63-29 60-74-43 2-92-5-92 41" id="H"/><path fill="#3a414a" d="M114-163C36-179 61-72 57 0H25l-1-190h30c1 12-1 29 2 39 6-27 23-49 58-41v29" id="I"/><path fill="#3a414a" d="M59-47c-2 24 18 29 38 22v24C64 9 27 4 27-40v-127H5v-23h24l9-43h21v43h35v23H59v120" id="J"/><path fill="#3a414a" d="M179-190L93 31C79 59 56 82 12 73V49c39 6 53-20 64-50L1-190h34L92-34l54-156h33" id="K"/><path fill="#3a414a" d="M33-154v-36h34v36H33zM33 0v-36h34V0H33" id="L"/><g id="c"><use transform="matrix(0.06172839506172839,0,0,0.06172839506172839,0,0)" xlink:href="#G"/><use transform="matrix(0.06172839506172839,0,0,0.06172839506172839,12.345679012345679,0)" xlink:href="#H"/><use transform="matrix(0.06172839506172839,0,0,0.06172839506172839,24.691358024691358,0)" xlink:href="#I"/><use transform="matrix(0.06172839506172839,0,0,0.06172839506172839,32.03703703703704,0)" xlink:href="#J"/><use transform="matrix(0.06172839506172839,0,0,0.06172839506172839,38.20987654320988,0)" xlink:href="#K"/><use transform="matrix(0.06172839506172839,0,0,0.06172839506172839,49.32098765432099,0)" xlink:href="#L"/></g><path fill="#3a414a" d="M199 0l-22-63H83L61 0H9l90-248h61L250 0h-51zm-33-102l-36-108c-10 38-24 72-36 108h72" id="M"/><path fill="#3a414a" d="M25 0v-261h50V0H25" id="N"/><path fill="#3a414a" d="M185-48c-13 30-37 53-82 52C43 2 14-33 14-96s30-98 90-98c62 0 83 45 84 108H66c0 31 8 55 39 56 18 0 30-7 34-22zm-45-69c5-46-57-63-70-21-2 6-4 13-4 21h74" id="O"/><path fill="#3a414a" d="M35-132v-50h50v50H35zM35 0v-49h50V0H35" id="P"/><path fill="#3a414a" d="M135-194c52 0 70 43 70 98 0 56-19 99-73 100-30 1-46-15-58-35L72 0H24l1-261h50v104c11-23 29-37 60-37zM114-30c31 0 40-27 40-66 0-37-7-63-39-63s-41 28-41 65c0 36 8 64 40 64" id="Q"/><path fill="#3a414a" d="M23 0v-37h61v-169l-59 37v-38l62-41h46v211h57V0H23" id="R"/><path fill="#3a414a" d="M182-182c0 78-84 86-111 141h115V0H12c-6-101 99-100 120-180 1-22-12-31-33-32-23 0-32 14-35 34l-49-3c5-45 32-70 84-70 51 0 83 22 83 69" id="S"/><path fill="#3a414a" d="M128-127c34 4 56 21 59 58 7 91-148 94-172 28-4-9-6-17-7-26l51-5c1 24 16 35 40 36 23 0 39-12 38-36-1-31-31-36-65-34v-40c32 2 59-3 59-33 0-20-13-33-34-33s-33 13-35 32l-50-3c6-44 37-68 86-68 50 0 83 20 83 66 0 35-22 52-53 58" id="T"/><g id="d"><use transform="matrix(0.06172839506172839,0,0,0.06172839506172839,0,0)" xlink:href="#M"/><use transform="matrix(0.06172839506172839,0,0,0.06172839506172839,15.987654320987653,0)" xlink:href="#N"/><use transform="matrix(0.06172839506172839,0,0,0.06172839506172839,22.160493827160494,0)" xlink:href="#C"/><use transform="matrix(0.06172839506172839,0,0,0.06172839506172839,28.333333333333332,0)" xlink:href="#D"/><use transform="matrix(0.06172839506172839,0,0,0.06172839506172839,40.67901234567901,0)" xlink:href="#O"/><use transform="matrix(0.06172839506172839,0,0,0.06172839506172839,53.02469135802469,0)" xlink:href="#P"/><use transform="matrix(0.06172839506172839,0,0,0.06172839506172839,60.37037037037037,0)" xlink:href="#P"/><use transform="matrix(0.06172839506172839,0,0,0.06172839506172839,67.71604938271605,0)" xlink:href="#w"/><use transform="matrix(0.06172839506172839,0,0,0.06172839506172839,80.06172839506173,0)" xlink:href="#Q"/><use transform="matrix(0.06172839506172839,0,0,0.06172839506172839,93.58024691358025,0)" xlink:href="#D"/><use transform="matrix(0.06172839506172839,0,0,0.06172839506172839,105.92592592592594,0)" xlink:href="#R"/><use transform="matrix(0.06172839506172839,0,0,0.06172839506172839,118.27160493827162,0)" xlink:href="#S"/><use transform="matrix(0.06172839506172839,0,0,0.06172839506172839,130.6172839506173,0)" xlink:href="#T"/></g><path fill="#3a414a" d="M24-231v-30h32v30H24zM24 0v-190h32V0H24" id="U"/><path fill="#3a414a" d="M96-169c-40 0-48 33-48 73s9 75 48 75c24 0 41-14 43-38l32 2c-6 37-31 61-74 61-59 0-76-41-82-99-10-93 101-131 147-64 4 7 5 14 7 22l-32 3c-4-21-16-35-41-35" id="V"/><path fill="#3a414a" d="M117-194c89-4 53 116 60 194h-32v-121c0-31-8-49-39-48C34-167 62-67 57 0H25l-1-190h30c1 10-1 24 2 32 11-22 29-35 61-36" id="W"/><path fill="#3a414a" d="M135-143c-3-34-86-38-87 0 15 53 115 12 119 90S17 21 10-45l28-5c4 36 97 45 98 0-10-56-113-15-118-90-4-57 82-63 122-42 12 7 21 19 24 35" id="X"/><g id="e"><use transform="matrix(0.06172839506172839,0,0,0.06172839506172839,0,0)" xlink:href="#G"/><use transform="matrix(0.06172839506172839,0,0,0.06172839506172839,12.345679012345679,0)" xlink:href="#H"/><use transform="matrix(0.06172839506172839,0,0,0.06172839506172839,24.691358024691358,0)" xlink:href="#I"/><use transform="matrix(0.06172839506172839,0,0,0.06172839506172839,32.03703703703704,0)" xlink:href="#J"/><use transform="matrix(0.06172839506172839,0,0,0.06172839506172839,38.20987654320988,0)" xlink:href="#U"/><use transform="matrix(0.06172839506172839,0,0,0.06172839506172839,43.086419753086425,0)" xlink:href="#V"/><use transform="matrix(0.06172839506172839,0,0,0.06172839506172839,54.19753086419753,0)" xlink:href="#U"/><use transform="matrix(0.06172839506172839,0,0,0.06172839506172839,59.074074074074076,0)" xlink:href="#G"/><use transform="matrix(0.06172839506172839,0,0,0.06172839506172839,71.41975308641976,0)" xlink:href="#H"/><use transform="matrix(0.06172839506172839,0,0,0.06172839506172839,83.76543209876544,0)" xlink:href="#W"/><use transform="matrix(0.06172839506172839,0,0,0.06172839506172839,96.11111111111113,0)" xlink:href="#J"/><use transform="matrix(0.06172839506172839,0,0,0.06172839506172839,102.28395061728396,0)" xlink:href="#X"/><use transform="matrix(0.06172839506172839,0,0,0.06172839506172839,113.39506172839508,0)" xlink:href="#L"/></g><g id="f"><use transform="matrix(0.06172839506172839,0,0,0.06172839506172839,0,0)" xlink:href="#v"/><use transform="matrix(0.06172839506172839,0,0,0.06172839506172839,14.814814814814813,0)" xlink:href="#R"/><use transform="matrix(0.06172839506172839,0,0,0.06172839506172839,27.160493827160494,0)" xlink:href="#P"/><use transform="matrix(0.06172839506172839,0,0,0.06172839506172839,34.50617283950617,0)" xlink:href="#P"/><use transform="matrix(0.06172839506172839,0,0,0.06172839506172839,41.85185185185185,0)" xlink:href="#w"/><use transform="matrix(0.06172839506172839,0,0,0.06172839506172839,54.197530864197525,0)" xlink:href="#Q"/><use transform="matrix(0.06172839506172839,0,0,0.06172839506172839,67.71604938271604,0)" xlink:href="#D"/><use transform="matrix(0.06172839506172839,0,0,0.06172839506172839,80.06172839506172,0)" xlink:href="#R"/><use transform="matrix(0.06172839506172839,0,0,0.06172839506172839,92.4074074074074,0)" xlink:href="#S"/><use transform="matrix(0.06172839506172839,0,0,0.06172839506172839,104.75308641975309,0)" xlink:href="#T"/></g><path fill="#3a414a" d="M100-194c63 0 86 42 84 106H49c0 40 14 67 53 68 26 1 43-12 49-29l28 8c-11 28-37 45-77 45C44 4 14-33 15-96c1-61 26-98 85-98zm52 81c6-60-76-77-97-28-3 7-6 17-6 28h103" id="Y"/><path fill="#3a414a" d="M24 0v-261h32V0H24" id="Z"/><g id="g"><use transform="matrix(0.06172839506172839,0,0,0.06172839506172839,0,0)" xlink:href="#X"/><use transform="matrix(0.06172839506172839,0,0,0.06172839506172839,11.11111111111111,0)" xlink:href="#Y"/><use transform="matrix(0.06172839506172839,0,0,0.06172839506172839,23.45679012345679,0)" xlink:href="#I"/><use transform="matrix(0.06172839506172839,0,0,0.06172839506172839,30.80246913580247,0)" xlink:href="#U"/><use transform="matrix(0.06172839506172839,0,0,0.06172839506172839,35.67901234567901,0)" xlink:href="#H"/><use transform="matrix(0.06172839506172839,0,0,0.06172839506172839,48.02469135802469,0)" xlink:href="#Z"/><use transform="matrix(0.06172839506172839,0,0,0.06172839506172839,52.901234567901234,0)" xlink:href="#L"/></g><use transform="matrix(0.06172839506172839,0,0,0.06172839506172839,0,0)" xlink:href="#R" id="h"/><path fill="#3a414a" d="M177-190C167-65 218 103 67 71c-23-6-38-20-44-43l32-5c15 47 100 32 89-28v-30C133-14 115 1 83 1 29 1 15-40 15-95c0-56 16-97 71-98 29-1 48 16 59 35 1-10 0-23 2-32h30zM94-22c36 0 50-32 50-73 0-42-14-75-50-75-39 0-46 34-46 75s6 73 46 73" id="aa"/><path fill="#3a414a" d="M85-194c31 0 48 13 60 33l-1-100h32l1 261h-30c-2-10 0-23-3-31C134-8 116 4 85 4 32 4 16-35 15-94c0-66 23-100 70-100zm9 24c-40 0-46 34-46 75 0 40 6 74 45 74 42 0 51-32 51-76 0-42-9-74-50-73" id="ab"/><g id="i"><use transform="matrix(0.06172839506172839,0,0,0.06172839506172839,0,0)" xlink:href="#X"/><use transform="matrix(0.06172839506172839,0,0,0.06172839506172839,11.11111111111111,0)" xlink:href="#U"/><use transform="matrix(0.06172839506172839,0,0,0.06172839506172839,15.987654320987653,0)" xlink:href="#aa"/><use transform="matrix(0.06172839506172839,0,0,0.06172839506172839,28.333333333333332,0)" xlink:href="#W"/><use transform="matrix(0.06172839506172839,0,0,0.06172839506172839,40.67901234567901,0)" xlink:href="#Y"/><use transform="matrix(0.06172839506172839,0,0,0.06172839506172839,53.02469135802469,0)" xlink:href="#ab"/></g><path fill="#3a414a" d="M115-194c53 0 69 39 70 98 0 66-23 100-70 100C84 3 66-7 56-30L54 0H23l1-261h32v101c10-23 28-34 59-34zm-8 174c40 0 45-34 45-75 0-40-5-75-45-74-42 0-51 32-51 76 0 43 10 73 51 73" id="ac"/><g id="j"><use transform="matrix(0.06172839506172839,0,0,0.06172839506172839,0,0)" xlink:href="#ac"/><use transform="matrix(0.06172839506172839,0,0,0.06172839506172839,12.345679012345679,0)" xlink:href="#K"/><use transform="matrix(0.06172839506172839,0,0,0.06172839506172839,23.45679012345679,0)" xlink:href="#L"/></g><g id="k"><use transform="matrix(0.06172839506172839,0,0,0.06172839506172839,0,0)" xlink:href="#w"/><use transform="matrix(0.06172839506172839,0,0,0.06172839506172839,12.345679012345679,0)" xlink:href="#Q"/><use transform="matrix(0.06172839506172839,0,0,0.06172839506172839,25.864197530864196,0)" xlink:href="#D"/><use transform="matrix(0.06172839506172839,0,0,0.06172839506172839,38.20987654320987,0)" xlink:href="#R"/><use transform="matrix(0.06172839506172839,0,0,0.06172839506172839,50.55555555555555,0)" xlink:href="#S"/><use transform="matrix(0.06172839506172839,0,0,0.06172839506172839,62.90123456790123,0)" xlink:href="#T"/></g><path fill="#3a414a" d="M76-54c-1 42 2 86-19 110H24C36 42 46 24 48 0H25v-54h51" id="ad"/><g id="l"><use transform="matrix(0.06172839506172839,0,0,0.06172839506172839,0,0)" xlink:href="#v"/><use transform="matrix(0.06172839506172839,0,0,0.06172839506172839,14.814814814814813,0)" xlink:href="#R"/><use transform="matrix(0.06172839506172839,0,0,0.06172839506172839,27.160493827160494,0)" xlink:href="#P"/><use transform="matrix(0.06172839506172839,0,0,0.06172839506172839,34.50617283950617,0)" xlink:href="#P"/><use transform="matrix(0.06172839506172839,0,0,0.06172839506172839,41.85185185185185,0)" xlink:href="#w"/><use transform="matrix(0.06172839506172839,0,0,0.06172839506172839,54.197530864197525,0)" xlink:href="#Q"/><use transform="matrix(0.06172839506172839,0,0,0.06172839506172839,67.71604938271604,0)" xlink:href="#D"/><use transform="matrix(0.06172839506172839,0,0,0.06172839506172839,80.06172839506172,0)" xlink:href="#R"/><use transform="matrix(0.06172839506172839,0,0,0.06172839506172839,92.4074074074074,0)" xlink:href="#S"/><use transform="matrix(0.06172839506172839,0,0,0.06172839506172839,104.75308641975309,0)" xlink:href="#T"/><use transform="matrix(0.06172839506172839,0,0,0.06172839506172839,117.09876543209877,0)" xlink:href="#ad"/></g><path fill="#008a0e" d="M24-248c93 1 206-16 204 79-1 75-69 88-152 82V0H24v-248zm52 121c47 0 100 7 100-41 0-47-54-39-100-39v80" id="ae"/><path fill="#008a0e" d="M182-182c0 78-84 86-111 141h115V0H12c-6-101 99-100 120-180 1-22-12-31-33-32-23 0-32 14-35 34l-49-3c5-45 32-70 84-70 51 0 83 22 83 69" id="af"/><path fill="#008a0e" d="M35-132v-50h50v50H35zM35 0v-49h50V0H35" id="ag"/><path fill="#008a0e" d="M144 0l-44-69L55 0H2l70-98-66-92h53l41 62 40-62h54l-67 91 71 99h-54" id="ah"/><path fill="#008a0e" d="M123 10C108 53 80 86 19 72V37c35 8 53-11 59-39L3-190h52l48 148c12-52 28-100 44-148h51" id="ai"/><path fill="#008a0e" d="M12 0v-35l95-120H19v-35h142v35L67-36h103V0H12" id="aj"/><path fill="#008a0e" d="M52 0c1-96 47-148 87-207H15v-41h169v40c-36 62-79 113-81 208H52" id="ak"/><path fill="#008a0e" d="M138-131c27 9 52 24 51 61 0 53-36 74-89 74S11-19 11-69c0-35 22-54 51-61-78-25-46-121 38-121 51 0 83 19 83 66 0 30-18 49-45 54zm-38-16c24 0 32-13 32-36 1-23-11-34-32-34-22 0-33 12-32 34 0 22 9 36 32 36zm1 116c27 0 37-17 37-43 0-25-13-39-39-39-24 0-37 15-37 40 0 27 11 42 39 42" id="al"/><path fill="#008a0e" d="M99-251c69 0 84 53 88 123 5 99-61 162-144 118-15-8-21-25-26-45l46-6c4 31 50 33 63 7 7-15 12-36 12-60-9 18-29 28-54 28-48 0-72-32-72-82 0-55 31-83 87-83zm-1 128c24 0 37-16 37-39 0-27-10-51-37-51-25 0-35 19-35 45 0 25 10 45 35 45" id="am"/><g id="m"><use transform="matrix(0.06172839506172839,0,0,0.06172839506172839,0,0)" xlink:href="#ae"/><use transform="matrix(0.06172839506172839,0,0,0.06172839506172839,14.814814814814813,0)" xlink:href="#af"/><use transform="matrix(0.06172839506172839,0,0,0.06172839506172839,27.160493827160494,0)" xlink:href="#ag"/><use transform="matrix(0.06172839506172839,0,0,0.06172839506172839,34.50617283950617,0)" xlink:href="#ag"/><use transform="matrix(0.06172839506172839,0,0,0.06172839506172839,41.85185185185185,0)" xlink:href="#ah"/><use transform="matrix(0.06172839506172839,0,0,0.06172839506172839,54.197530864197525,0)" xlink:href="#ai"/><use transform="matrix(0.06172839506172839,0,0,0.06172839506172839,66.5432098765432,0)" xlink:href="#aj"/><use transform="matrix(0.06172839506172839,0,0,0.06172839506172839,77.65432098765432,0)" xlink:href="#ak"/><use transform="matrix(0.06172839506172839,0,0,0.06172839506172839,90,0)" xlink:href="#al"/><use transform="matrix(0.06172839506172839,0,0,0.06172839506172839,102.34567901234568,0)" xlink:href="#am"/></g><use transform="matrix(0.06172839506172839,0,0,0.06172839506172839,0,0)" xlink:href="#af" id="n"/><use transform="matrix(0.06172839506172839,0,0,0.06172839506172839,0,0)" xlink:href="#af" id="o"/><g id="p"><use transform="matrix(0.06172839506172839,0,0,0.06172839506172839,0,0)" xlink:href="#X"/><use transform="matrix(0.06172839506172839,0,0,0.06172839506172839,11.11111111111111,0)" xlink:href="#U"/><use transform="matrix(0.06172839506172839,0,0,0.06172839506172839,15.987654320987653,0)" xlink:href="#aa"/><use transform="matrix(0.06172839506172839,0,0,0.06172839506172839,28.333333333333332,0)" xlink:href="#W"/><use transform="matrix(0.06172839506172839,0,0,0.06172839506172839,40.67901234567901,0)" xlink:href="#Y"/><use transform="matrix(0.06172839506172839,0,0,0.06172839506172839,53.02469135802469,0)" xlink:href="#ab"/></g><g id="q"><use transform="matrix(0.06172839506172839,0,0,0.06172839506172839,0,0)" xlink:href="#w"/><use transform="matrix(0.06172839506172839,0,0,0.06172839506172839,12.345679012345679,0)" xlink:href="#Q"/><use transform="matrix(0.06172839506172839,0,0,0.06172839506172839,25.864197530864196,0)" xlink:href="#D"/><use transform="matrix(0.06172839506172839,0,0,0.06172839506172839,38.20987654320987,0)" xlink:href="#R"/><use transform="matrix(0.06172839506172839,0,0,0.06172839506172839,50.55555555555555,0)" xlink:href="#S"/><use transform="matrix(0.06172839506172839,0,0,0.06172839506172839,62.90123456790123,0)" xlink:href="#T"/><use transform="matrix(0.06172839506172839,0,0,0.06172839506172839,75.24691358024691,0)" xlink:href="#ad"/></g><g id="r"><use transform="matrix(0.06172839506172839,0,0,0.06172839506172839,0,0)" xlink:href="#ah"/><use transform="matrix(0.06172839506172839,0,0,0.06172839506172839,12.345679012345679,0)" xlink:href="#ai"/><use transform="matrix(0.06172839506172839,0,0,0.06172839506172839,24.691358024691358,0)" xlink:href="#aj"/><use transform="matrix(0.06172839506172839,0,0,0.06172839506172839,35.80246913580247,0)" xlink:href="#ak"/><use transform="matrix(0.06172839506172839,0,0,0.06172839506172839,48.148148148148145,0)" xlink:href="#al"/><use transform="matrix(0.06172839506172839,0,0,0.06172839506172839,60.49382716049382,0)" xlink:href="#am"/></g><path fill="#3a414a" d="M63-220v92h138v28H63V0H30v-248h175v28H63" id="an"/><path fill="#3a414a" d="M84 4C-5 8 30-112 23-190h32v120c0 31 7 50 39 49 72-2 45-101 50-169h31l1 190h-30c-1-10 1-25-2-33-11 22-28 36-60 37" id="ao"/><g id="s"><use transform="matrix(0.06172839506172839,0,0,0.06172839506172839,0,0)" xlink:href="#an"/><use transform="matrix(0.06172839506172839,0,0,0.06172839506172839,13.518518518518517,0)" xlink:href="#ao"/><use transform="matrix(0.06172839506172839,0,0,0.06172839506172839,25.864197530864196,0)" xlink:href="#Z"/><use transform="matrix(0.06172839506172839,0,0,0.06172839506172839,30.74074074074074,0)" xlink:href="#Z"/><use transform="matrix(0.06172839506172839,0,0,0.06172839506172839,35.617283950617285,0)" xlink:href="#K"/></g><path fill="#3a414a" d="M205 0l-28-72H64L36 0H1l101-248h38L239 0h-34zm-38-99l-47-123c-12 45-31 82-46 123h93" id="ap"/><path fill="#3a414a" d="M106-169C34-169 62-67 57 0H25v-261h32l-1 103c12-21 28-36 61-36 89 0 53 116 60 194h-32v-121c2-32-8-49-39-48" id="aq"/><path fill="#3a414a" d="M100-194c62-1 85 37 85 99 1 63-27 99-86 99S16-35 15-95c0-66 28-99 85-99zM99-20c44 1 53-31 53-75 0-43-8-75-51-75s-53 32-53 75 10 74 51 75" id="ar"/><path fill="#3a414a" d="M9 0v-24l116-142H16v-24h144v24L44-24h123V0H9" id="as"/><g id="t"><use transform="matrix(0.06172839506172839,0,0,0.06172839506172839,0,0)" xlink:href="#ap"/><use transform="matrix(0.06172839506172839,0,0,0.06172839506172839,14.814814814814813,0)" xlink:href="#ao"/><use transform="matrix(0.06172839506172839,0,0,0.06172839506172839,27.160493827160494,0)" xlink:href="#J"/><use transform="matrix(0.06172839506172839,0,0,0.06172839506172839,33.333333333333336,0)" xlink:href="#aq"/><use transform="matrix(0.06172839506172839,0,0,0.06172839506172839,45.67901234567901,0)" xlink:href="#ar"/><use transform="matrix(0.06172839506172839,0,0,0.06172839506172839,58.02469135802469,0)" xlink:href="#I"/><use transform="matrix(0.06172839506172839,0,0,0.06172839506172839,65.37037037037037,0)" xlink:href="#U"/><use transform="matrix(0.06172839506172839,0,0,0.06172839506172839,70.24691358024691,0)" xlink:href="#as"/><use transform="matrix(0.06172839506172839,0,0,0.06172839506172839,81.35802469135803,0)" xlink:href="#Y"/><use transform="matrix(0.06172839506172839,0,0,0.06172839506172839,93.70370370370371,0)" xlink:href="#ab"/></g><path fill="#3a414a" d="M30-248c87 1 191-15 191 75 0 78-77 80-158 76V0H30v-248zm33 125c57 0 124 11 124-50 0-59-68-47-124-48v98" id="at"/><g id="u"><use transform="matrix(0.06172839506172839,0,0,0.06172839506172839,0,0)" xlink:href="#at"/><use transform="matrix(0.06172839506172839,0,0,0.06172839506172839,14.814814814814813,0)" xlink:href="#I"/><use transform="matrix(0.06172839506172839,0,0,0.06172839506172839,22.160493827160494,0)" xlink:href="#ar"/><use transform="matrix(0.06172839506172839,0,0,0.06172839506172839,34.50617283950617,0)" xlink:href="#G"/><use transform="matrix(0.06172839506172839,0,0,0.06172839506172839,46.85185185185185,0)" xlink:href="#ar"/><use transform="matrix(0.06172839506172839,0,0,0.06172839506172839,59.197530864197525,0)" xlink:href="#X"/><use transform="matrix(0.06172839506172839,0,0,0.06172839506172839,70.30864197530863,0)" xlink:href="#H"/><use transform="matrix(0.06172839506172839,0,0,0.06172839506172839,82.65432098765432,0)" xlink:href="#Z"/></g></defs></g></svg>