<svg xmlns="http://www.w3.org/2000/svg" xmlns:xlink="http://www.w3.org/1999/xlink" xmlns:lucid="lucid" width="1220" height="362"><g transform="translate(-140 -129)" lucid:page-tab-id="0_0"><path d="M160 220h1180v220H160z" stroke="#000" stroke-opacity="0" stroke-width="2" fill="#f4f4f4"/><path d="M160 241h160v60H160z" stroke="#000" stroke-opacity="0" stroke-width="2" fill="#fff" fill-opacity="0"/><use xlink:href="#a" transform="matrix(1,0,0,1,165,246) translate(12.71604938271605 29.444444444444443)"/><use xlink:href="#b" transform="matrix(1,0,0,1,165,246) translate(49.75308641975309 29.444444444444443)"/><use xlink:href="#c" transform="matrix(1,0,0,1,165,246) translate(122.46913580246914 29.444444444444443)"/><path d="M180 180h200v60H180z" stroke="#000" stroke-opacity="0" stroke-width="2" fill="#fff" fill-opacity="0"/><use xlink:href="#d" transform="matrix(1,0,0,1,185,185) translate(0 17.77777777777778)"/><use xlink:href="#e" transform="matrix(1,0,0,1,185,185) translate(56.79012345679012 17.77777777777778)"/><path d="M400 479.53V140" fill="none"/><path d="M400 479.53v-18.86m0-18.87v-37.72m0-18.87v-37.7m0-18.87V290.9m0-18.86V234.3m0-18.85v-37.72m0-18.87V140" stroke="#b2b2b2" stroke-width="2" fill="none"/><path d="M160 480V140" fill="none"/><path d="M160 480v-18.9m0-18.88v-37.78m0-18.88v-37.78m0-18.9v-37.77m0-18.88v-37.78m0-18.88v-37.78m0-18.9V140" stroke="#b2b2b2" stroke-width="2" fill="none"/><path d="M720 477.64V140" fill="none"/><path d="M720 477.64v-18.76m0-18.76v-37.5m0-18.77v-37.52m0-18.75v-37.52m0-18.76v-37.5m0-18.77v-37.5m0-18.77V140" stroke="#b2b2b2" stroke-width="2" fill="none"/><path d="M420 180h200v60H420z" stroke="#000" stroke-opacity="0" stroke-width="2" fill="#fff" fill-opacity="0"/><use xlink:href="#f" transform="matrix(1,0,0,1,425,185) translate(0 17.77777777777778)"/><use xlink:href="#e" transform="matrix(1,0,0,1,425,185) translate(19.753086419753085 17.77777777777778)"/><path d="M740 180h200v60H740z" stroke="#000" stroke-opacity="0" stroke-width="2" fill="#fff" fill-opacity="0"/><use xlink:href="#f" transform="matrix(1,0,0,1,745,185) translate(0 17.77777777777778)"/><use xlink:href="#e" transform="matrix(1,0,0,1,745,185) translate(19.753086419753085 17.77777777777778)"/><path d="M842 294v98.66M838 294v98.66" stroke="#000" stroke-width="2" fill="none"/><path d="M840 389.42l-4.64-14.26h9.28z" stroke="#000" stroke-width="2"/><path d="M740 254h260v63.33H740z" stroke="#000" stroke-opacity="0" stroke-width="2" fill="#fff" fill-opacity="0"/><use xlink:href="#g" transform="matrix(1,0,0,1,745,259) translate(0 17.77777777777778)"/><use xlink:href="#h" transform="matrix(1,0,0,1,745,259) translate(45.67901234567901 17.77777777777778)"/><use xlink:href="#i" transform="matrix(1,0,0,1,745,259) translate(66.66666666666666 17.77777777777778)"/><use xlink:href="#b" transform="matrix(1,0,0,1,745,259) translate(111.04938271604937 17.77777777777778)"/><use xlink:href="#j" transform="matrix(1,0,0,1,745,259) translate(183.76543209876542 17.77777777777778)"/><path d="M780 393.67h140V440H780z" stroke="#000" stroke-opacity="0" stroke-width="2" fill="#fff" fill-opacity="0"/><use xlink:href="#a" transform="matrix(1,0,0,1,785,398.66666666666663) translate(0 17.77777777777778)"/><use xlink:href="#b" transform="matrix(1,0,0,1,785,398.66666666666663) translate(37.03703703703704 17.77777777777778)"/><use xlink:href="#k" transform="matrix(1,0,0,1,785,398.66666666666663) translate(109.75308641975309 17.77777777777778)"/><path d="M960 477.64V140" fill="none"/><path d="M960 477.64v-18.76m0-18.76v-37.5m0-18.77v-37.52m0-18.75v-37.52m0-18.76v-37.5m0-18.77v-37.5m0-18.77V140" stroke="#b2b2b2" stroke-width="2" fill="none"/><path d="M320 271l9.55-5.64 10.42-5.58 11.37-5.48 12.4-5.35 13.5-5.18 14.72-4.94 15.95-4.62 17.24-4.2 18.5-3.73 19.72-3.1 20.8-2.4 21.63-1.57 22.2-.68 22.45.24 22.27 1.18 21.72 2.06 20.82 2.86 19.66 3.55 18.3 4.1 16.85 4.52 15.37 4.82 13.92 5.02 12.55 5.12 11.28 5.17 5.88 3" stroke="#000" stroke-width="2" fill="none"/><path d="M320.5 271.86l-.5.3v-1.17z"/><path d="M742.17 267.43l-14.72-2.88 4.5-8.1z" stroke="#000" stroke-width="2"/><path d="M522 294v98.66M518 294v98.66" stroke="#000" stroke-width="2" fill="none"/><path d="M520 389.42l-4.64-14.26h9.28z" stroke="#000" stroke-width="2"/><path d="M420 254h260v63.33H420z" stroke="#000" stroke-opacity="0" stroke-width="2" fill="#fff" fill-opacity="0"/><g><use xlink:href="#g" transform="matrix(1,0,0,1,425,259) translate(0 17.77777777777778)"/><use xlink:href="#h" transform="matrix(1,0,0,1,425,259) translate(45.67901234567901 17.77777777777778)"/><use xlink:href="#i" transform="matrix(1,0,0,1,425,259) translate(66.66666666666666 17.77777777777778)"/><use xlink:href="#b" transform="matrix(1,0,0,1,425,259) translate(111.04938271604937 17.77777777777778)"/><use xlink:href="#j" transform="matrix(1,0,0,1,425,259) translate(183.76543209876542 17.77777777777778)"/></g><path d="M460 393.67h160V440H460z" stroke="#000" stroke-opacity="0" stroke-width="2" fill="#fff" fill-opacity="0"/><g><use xlink:href="#a" transform="matrix(1,0,0,1,465,398.66666666666663) translate(0 17.77777777777778)"/><use xlink:href="#b" transform="matrix(1,0,0,1,465,398.66666666666663) translate(37.03703703703704 17.77777777777778)"/><use xlink:href="#l" transform="matrix(1,0,0,1,465,398.66666666666663) translate(109.75308641975309 17.77777777777778)"/></g><path d="M320 271l81.76.27" stroke="#000" stroke-width="2" fill="none"/><path d="M320 270v1-1zM416.76 271.32l-14.28 4.6.03-9.28z"/><path d="M420 271.33l-18.52 5.95.04-12.02zm-16.5 3.2l10.03-3.22-10.02-3.28z"/><defs><path d="M33 0v-248h34V0H33" id="m"/><path d="M100-194c62-1 85 37 85 99 1 63-27 99-86 99S16-35 15-95c0-66 28-99 85-99zM99-20c44 1 53-31 53-75 0-43-8-75-51-75s-53 32-53 75 10 74 51 75" id="n"/><path d="M84 4C-5 8 30-112 23-190h32v120c0 31 7 50 39 49 72-2 45-101 50-169h31l1 190h-30c-1-10 1-25-2-33-11 22-28 36-60 37" id="o"/><g id="a"><use transform="matrix(0.06172839506172839,0,0,0.06172839506172839,0,0)" xlink:href="#m"/><use transform="matrix(0.06172839506172839,0,0,0.06172839506172839,6.172839506172839,0)" xlink:href="#n"/><use transform="matrix(0.06172839506172839,0,0,0.06172839506172839,18.51851851851852,0)" xlink:href="#o"/></g><path d="M194-70c0 46-34 64-81 66v29H91V-4C42-5 12-27 4-67l30-6c5 28 25 41 57 43v-87c-38-9-76-20-76-67 1-42 33-58 76-59v-23h22v23c45 0 67 20 76 56l-31 6c-5-23-18-35-45-37v78c41 10 81 20 81 70zm-81 41c51 7 71-66 19-77-6-2-12-4-19-6v83zM91-219c-47-6-63 57-18 69 6 2 12 3 18 5v-74" id="p"/><path d="M182-130c37 4 62 22 62 59C244 23 116-4 24 0v-248c84 5 203-23 205 63 0 31-19 50-47 55zM76-148c40-3 101 13 101-30 0-44-60-28-101-31v61zm0 110c48-3 116 14 116-37 0-48-69-32-116-35v72" id="q"/><path d="M133-34C117-15 103 5 69 4 32 3 11-16 11-54c-1-60 55-63 116-61 1-26-3-47-28-47-18 1-26 9-28 27l-52-2c7-38 36-58 82-57s74 22 75 68l1 82c-1 14 12 18 25 15v27c-30 8-71 5-69-32zm-48 3c29 0 43-24 42-57-32 0-66-3-65 30 0 17 8 27 23 27" id="r"/><path d="M135-194c87-1 58 113 63 194h-50c-7-57 23-157-34-157-59 0-34 97-39 157H25l-1-190h47c2 12-1 28 3 38 12-26 28-41 61-42" id="s"/><path d="M147 0L96-86 75-71V0H25v-261h50v150l67-79h53l-66 74L201 0h-54" id="t"/><g id="b"><use transform="matrix(0.06172839506172839,0,0,0.06172839506172839,0,0)" xlink:href="#p"/><use transform="matrix(0.06172839506172839,0,0,0.06172839506172839,12.345679012345679,0)" xlink:href="#q"/><use transform="matrix(0.06172839506172839,0,0,0.06172839506172839,28.333333333333332,0)" xlink:href="#r"/><use transform="matrix(0.06172839506172839,0,0,0.06172839506172839,40.67901234567901,0)" xlink:href="#s"/><use transform="matrix(0.06172839506172839,0,0,0.06172839506172839,54.19753086419753,0)" xlink:href="#t"/></g><path d="M205 0l-28-72H64L36 0H1l101-248h38L239 0h-34zm-38-99l-47-123c-12 45-31 82-46 123h93" id="u"/><g id="c"><use transform="matrix(0.06172839506172839,0,0,0.06172839506172839,0,0)" xlink:href="#u"/><path d="M-1.1 1.54h17.03v1.63H-1.1z"/></g><path d="M160-131c35 5 61 23 61 61C221 17 115-2 30 0v-248c76 3 177-17 177 60 0 33-19 50-47 57zm-97-11c50-1 110 9 110-42 0-47-63-36-110-37v79zm0 115c55-2 124 14 124-45 0-56-70-42-124-44v89" id="v"/><path d="M141-36C126-15 110 5 73 4 37 3 15-17 15-53c-1-64 63-63 125-63 3-35-9-54-41-54-24 1-41 7-42 31l-33-3c5-37 33-52 76-52 45 0 72 20 72 64v82c-1 20 7 32 28 27v20c-31 9-61-2-59-35zM48-53c0 20 12 33 32 33 41-3 63-29 60-74-43 2-92-5-92 41" id="w"/><path d="M117-194c89-4 53 116 60 194h-32v-121c0-31-8-49-39-48C34-167 62-67 57 0H25l-1-190h30c1 10-1 24 2 32 11-22 29-35 61-36" id="x"/><path d="M143 0L79-87 56-68V0H24v-261h32v163l83-92h37l-77 82L181 0h-38" id="y"/><g id="d"><use transform="matrix(0.06172839506172839,0,0,0.06172839506172839,0,0)" xlink:href="#v"/><use transform="matrix(0.06172839506172839,0,0,0.06172839506172839,14.814814814814813,0)" xlink:href="#w"/><use transform="matrix(0.06172839506172839,0,0,0.06172839506172839,27.160493827160494,0)" xlink:href="#x"/><use transform="matrix(0.06172839506172839,0,0,0.06172839506172839,39.50617283950617,0)" xlink:href="#y"/></g><path d="M96-169c-40 0-48 33-48 73s9 75 48 75c24 0 41-14 43-38l32 2c-6 37-31 61-74 61-59 0-76-41-82-99-10-93 101-131 147-64 4 7 5 14 7 22l-32 3c-4-21-16-35-41-35" id="z"/><path d="M210-169c-67 3-38 105-44 169h-31v-121c0-29-5-50-35-48C34-165 62-65 56 0H25l-1-190h30c1 10-1 24 2 32 10-44 99-50 107 0 11-21 27-35 58-36 85-2 47 119 55 194h-31v-121c0-29-5-49-35-48" id="A"/><path d="M24-231v-30h32v30H24zM24 0v-190h32V0H24" id="B"/><path d="M59-47c-2 24 18 29 38 22v24C64 9 27 4 27-40v-127H5v-23h24l9-43h21v43h35v23H59v120" id="C"/><path d="M135-143c-3-34-86-38-87 0 15 53 115 12 119 90S17 21 10-45l28-5c4 36 97 45 98 0-10-56-113-15-118-90-4-57 82-63 122-42 12 7 21 19 24 35" id="D"/><g id="e"><use transform="matrix(0.06172839506172839,0,0,0.06172839506172839,0,0)" xlink:href="#z"/><use transform="matrix(0.06172839506172839,0,0,0.06172839506172839,11.11111111111111,0)" xlink:href="#n"/><use transform="matrix(0.06172839506172839,0,0,0.06172839506172839,23.45679012345679,0)" xlink:href="#A"/><use transform="matrix(0.06172839506172839,0,0,0.06172839506172839,41.91358024691358,0)" xlink:href="#A"/><use transform="matrix(0.06172839506172839,0,0,0.06172839506172839,60.37037037037037,0)" xlink:href="#B"/><use transform="matrix(0.06172839506172839,0,0,0.06172839506172839,65.24691358024691,0)" xlink:href="#C"/><use transform="matrix(0.06172839506172839,0,0,0.06172839506172839,71.41975308641975,0)" xlink:href="#D"/></g><use transform="matrix(0.06172839506172839,0,0,0.06172839506172839,0,0)" xlink:href="#u" id="f"/><path d="M24 0v-248h195v40H76v63h132v40H76v65h150V0H24" id="E"/><path d="M144 0l-44-69L55 0H2l70-98-66-92h53l41 62 40-62h54l-67 91 71 99h-54" id="F"/><path d="M185-48c-13 30-37 53-82 52C43 2 14-33 14-96s30-98 90-98c62 0 83 45 84 108H66c0 31 8 55 39 56 18 0 30-7 34-22zm-45-69c5-46-57-63-70-21-2 6-4 13-4 21h74" id="G"/><g id="g"><use transform="matrix(0.06172839506172839,0,0,0.06172839506172839,0,0)" xlink:href="#E"/><use transform="matrix(0.06172839506172839,0,0,0.06172839506172839,14.814814814814813,0)" xlink:href="#F"/><use transform="matrix(0.06172839506172839,0,0,0.06172839506172839,27.160493827160494,0)" xlink:href="#G"/></g><use transform="matrix(0.06172839506172839,0,0,0.06172839506172839,0,0)" xlink:href="#u" id="h"/><path d="M87 75C49 33 22-17 22-94c0-76 28-126 65-167h31c-38 41-64 92-64 168S80 34 118 75H87" id="H"/><g id="i"><use transform="matrix(0.06172839506172839,0,0,0.06172839506172839,0,0)" xlink:href="#H"/><use transform="matrix(0.06172839506172839,0,0,0.06172839506172839,7.345679012345679,0)" xlink:href="#m"/><use transform="matrix(0.06172839506172839,0,0,0.06172839506172839,13.518518518518519,0)" xlink:href="#n"/><use transform="matrix(0.06172839506172839,0,0,0.06172839506172839,25.864197530864196,0)" xlink:href="#o"/></g><path d="M33-261c38 41 65 92 65 168S71 34 33 75H2C39 34 66-17 66-93S39-220 2-261h31" id="I"/><g id="j"><use transform="matrix(0.06172839506172839,0,0,0.06172839506172839,0,0)" xlink:href="#u"/><path d="M-1.1 1.54h17.03v1.63H-1.1z"/><use transform="matrix(0.06172839506172839,0,0,0.06172839506172839,14.814814814814813,0)" xlink:href="#I"/></g><path d="M30-248c87 1 191-15 191 75 0 78-77 80-158 76V0H30v-248zm33 125c57 0 124 11 124-50 0-59-68-47-124-48v98" id="J"/><g id="k"><use transform="matrix(0.06172839506172839,0,0,0.06172839506172839,0,0)" xlink:href="#J"/><path d="M-1.1 1.54h17.03v1.63H-1.1z"/></g><g id="l"><use transform="matrix(0.06172839506172839,0,0,0.06172839506172839,0,0)" xlink:href="#v"/><path d="M-1.1 1.54h17.03v1.63H-1.1z"/></g></defs></g></svg>