<svg xmlns="http://www.w3.org/2000/svg" xmlns:xlink="http://www.w3.org/1999/xlink" xmlns:lucid="lucid" width="781" height="843.69"><g transform="translate(0.5 1.6889511609287524)" lucid:page-tab-id="0_0"><path d="M0 0h777.62v1099.78H0z" fill="#fff"/><path d="M580 324.8a6 6 0 0 1 6-6h148a6 6 0 0 1 6 6v108a6 6 0 0 1-6 6H586a6 6 0 0 1-6-6z" stroke="#3a414a" fill="#fff"/><use xlink:href="#a" transform="matrix(1,0,0,1,592,330.81104883907125) translate(43.95679012345679 53.77777777777778)"/><path d="M80 324.8a6 6 0 0 1 6-6h148a6 6 0 0 1 6 6v108a6 6 0 0 1-6 6H86a6 6 0 0 1-6-6z" stroke="#3a414a" fill="#fff"/><use xlink:href="#b" transform="matrix(1,0,0,1,92,330.8110488390712) translate(14.358024691358025 53.77777777777778)"/><use xlink:href="#c" transform="matrix(1,0,0,1,92,330.8110488390712) translate(85.8395061728395 53.77777777777778)"/><path d="M150.47 581.93h-.94v-41.8h.94zm0-84.45h-.94V439.8h.94z" stroke="#3a414a" stroke-width=".05" fill="#3a414a"/><path d="M150.47 439.82h-.94v-.5h.94z" fill="#3a414a"/><path stroke="#3a414a" stroke-width=".05" fill="#3a414a"/><path d="M150 596.7l-4.63-14.27h9.26z" fill="#3a414a"/><path d="M150 598.23l-5.3-16.28h10.6zm-3.98-15.33l3.98 12.26 3.98-12.26z" stroke="#3a414a" stroke-width=".05" fill="#3a414a"/><use xlink:href="#d" transform="matrix(1,0,0,1,101.67901234567901,497.47768057757827) translate(4.449444444444445 14.222222222222223)"/><use xlink:href="#e" transform="matrix(1,0,0,1,101.67901234567901,497.47768057757827) translate(0.005000000000002558 35.55555555555556)"/><use xlink:href="#f" transform="matrix(1,0,0,1,101.67901234567901,497.47768057757827) translate(57.14080246913581 35.55555555555556)"/><path d="M276.9 379.3H241v-.96h35.9zm286.22 0h-20v-.96h20z" stroke="#3a414a" stroke-width=".05" fill="#3a414a"/><path d="M241 379.3h-.5v-.96h.5z" fill="#3a414a"/><path stroke="#3a414a" stroke-width=".05" fill="#3a414a"/><path d="M577.88 378.8l-14.26 4.65v-9.27z" fill="#3a414a"/><path d="M579.42 378.8l-16.28 5.3v-10.58zm-15.33 4l12.24-4-12.25-3.97z" stroke="#3a414a" stroke-width=".05" fill="#3a414a"/><use xlink:href="#g" transform="matrix(1,0,0,1,276.88888888888886,357.4777155057379) translate(0.0049999999999954525 14.222222222222223)"/><use xlink:href="#h" transform="matrix(1,0,0,1,276.88888888888886,357.4777155057379) translate(44.35067901234568 14.222222222222223)"/><use xlink:href="#i" transform="matrix(1,0,0,1,276.88888888888886,357.4777155057379) translate(123.21487654320988 14.222222222222223)"/><use xlink:href="#j" transform="matrix(1,0,0,1,276.88888888888886,357.4777155057379) translate(138.0296913580247 14.222222222222223)"/><use xlink:href="#k" transform="matrix(1,0,0,1,276.88888888888886,357.4777155057379) translate(218.96796296296299 14.222222222222223)"/><use xlink:href="#l" transform="matrix(1,0,0,1,276.88888888888886,357.4777155057379) translate(31.560555555555567 35.55555555555556)"/><use xlink:href="#m" transform="matrix(1,0,0,1,276.88888888888886,357.4777155057379) translate(46.37537037037038 35.55555555555556)"/><use xlink:href="#n" transform="matrix(1,0,0,1,276.88888888888886,357.4777155057379) translate(109.4864814814815 35.55555555555556)"/><use xlink:href="#o" transform="matrix(1,0,0,1,276.88888888888886,357.4777155057379) translate(205.0420370370371 35.55555555555556)"/><path d="M660.48 586.48h-.96V531h.96zm0-98.15h-.96V439.8h.96z" stroke="#3a414a" stroke-width=".05" fill="#3a414a"/><path d="M660.48 439.82h-.96v-.5h.96z" fill="#3a414a"/><path stroke="#3a414a" stroke-width=".05" fill="#3a414a"/><path d="M660 601.25l-4.63-14.27h9.26z" fill="#3a414a"/><path d="M660 602.8l-5.3-16.3h10.6zm-3.98-15.34L660 599.7l3.98-12.24z" stroke="#3a414a" stroke-width=".05" fill="#3a414a"/><use xlink:href="#p" transform="matrix(1,0,0,1,564.3456790123457,488.3312858448638) translate(11.80746913580245 14.222222222222223)"/><use xlink:href="#q" transform="matrix(1,0,0,1,564.3456790123457,488.3312858448638) translate(93.68401234567901 14.222222222222223)"/><use xlink:href="#r" transform="matrix(1,0,0,1,564.3456790123457,488.3312858448638) translate(143.06672839506174 14.222222222222223)"/><use xlink:href="#s" transform="matrix(1,0,0,1,564.3456790123457,488.3312858448638) translate(0.0049999999999954525 35.55555555555556)"/><use xlink:href="#t" transform="matrix(1,0,0,1,564.3456790123457,488.3312858448638) translate(36.449444444444445 35.55555555555556)"/><use xlink:href="#u" transform="matrix(1,0,0,1,564.3456790123457,488.3312858448638) translate(105.43709876543213 35.55555555555556)"/><path d="M40 24.8a6 6 0 0 1 6-6h148a6 6 0 0 1 6 6v108a6 6 0 0 1-6 6H46a6 6 0 0 1-6-6z" stroke="#3a414a" fill="#fff"/><use xlink:href="#v" transform="matrix(1,0,0,1,45,23.811048839071248) translate(-0.7716049382716079 46.111111111111114)"/><use xlink:href="#w" transform="matrix(1,0,0,1,45,23.811048839071248) translate(5.401234567901241 72.77777777777777)"/><use xlink:href="#x" transform="matrix(1,0,0,1,45,23.811048839071248) translate(76.88271604938272 72.77777777777777)"/><path d="M123.98 301.93h-.95v-51.25h.95zm0-136.58h-.95V139.8h.95z" stroke="#3a414a" stroke-width=".05" fill="#3a414a"/><path d="M123.98 139.82h-.95v-.5h.95z" fill="#3a414a"/><path stroke="#3a414a" stroke-width=".05" fill="#3a414a"/><path d="M123.5 316.7l-4.63-14.27h9.27z" fill="#3a414a"/><path d="M123.5 318.23l-5.28-16.28h10.57zm-3.97-15.33l3.98 12.25 4-12.25z" stroke="#3a414a" stroke-width=".05" fill="#3a414a"/><use xlink:href="#y" transform="matrix(1,0,0,1,54.04953828695433,165.35168182013462) translate(0.9432716049382464 14.222222222222223)"/><use xlink:href="#z" transform="matrix(1,0,0,1,54.04953828695433,165.35168182013462) translate(83.80746913580245 14.222222222222223)"/><use xlink:href="#A" transform="matrix(1,0,0,1,54.04953828695433,165.35168182013462) translate(24.15314814814814 35.55555555555556)"/><use xlink:href="#B" transform="matrix(1,0,0,1,54.04953828695433,165.35168182013462) translate(28.079074074074057 56.88888888888889)"/><use xlink:href="#C" transform="matrix(1,0,0,1,54.04953828695433,165.35168182013462) translate(69.46179012345678 56.88888888888889)"/><use xlink:href="#D" transform="matrix(1,0,0,1,54.04953828695433,165.35168182013462) translate(0.0049999999999954525 78.22222222222223)"/><path d="M241 328.3h322.12" stroke="#3a414a" fill="none"/><path d="M241 328.8h-.5v-.96h.5z" stroke="#3a414a" stroke-width=".05" fill="#3a414a"/><path d="M577.88 328.3l-14.26 4.65v-9.27z" stroke="#3a414a" fill="#3a414a"/><use xlink:href="#g" transform="matrix(1,0,0,1,273.0122989201464,260.3114736462395) translate(38.9432716049383 14.222222222222223)"/><use xlink:href="#E" transform="matrix(1,0,0,1,273.0122989201464,260.3114736462395) translate(83.28895061728399 14.222222222222223)"/><use xlink:href="#F" transform="matrix(1,0,0,1,273.0122989201464,260.3114736462395) translate(172.02969135802473 14.222222222222223)"/><use xlink:href="#s" transform="matrix(1,0,0,1,273.0122989201464,260.3114736462395) translate(0.0049999999999954525 35.55555555555556)"/><use xlink:href="#G" transform="matrix(1,0,0,1,273.0122989201464,260.3114736462395) translate(36.449444444444445 35.55555555555556)"/><use xlink:href="#H" transform="matrix(1,0,0,1,273.0122989201464,260.3114736462395) translate(132.00500000000002 35.55555555555556)"/><use xlink:href="#I" transform="matrix(1,0,0,1,273.0122989201464,260.3114736462395) translate(176.44944444444448 35.55555555555556)"/><use xlink:href="#J" transform="matrix(1,0,0,1,273.0122989201464,260.3114736462395) translate(212.89388888888894 35.55555555555556)"/><use xlink:href="#K" transform="matrix(1,0,0,1,273.0122989201464,260.3114736462395) translate(72.91858024691362 56.88888888888889)"/><use xlink:href="#L" transform="matrix(1,0,0,1,273.0122989201464,260.3114736462395) translate(104.4247530864198 56.88888888888889)"/><use xlink:href="#M" transform="matrix(1,0,0,1,273.0122989201464,260.3114736462395) translate(161.5605555555556 56.88888888888889)"/><path d="M590.45 24.6a7.8 7.8 0 0 1 7.55-5.8h156a4.6 4.6 0 0 1 4.45 5.8L729.55 133a7.8 7.8 0 0 1-7.55 5.8H566a4.6 4.6 0 0 1-4.45-5.8z" stroke="#3a414a" fill="#fff"/><g><use xlink:href="#N" transform="matrix(1,0,0,1,565,23.811048839071248) translate(17.01 48.71527777777778)"/><use xlink:href="#O" transform="matrix(1,0,0,1,565,23.811048839071248) translate(10.01 71.82638888888889)"/><use xlink:href="#P" transform="matrix(1,0,0,1,565,23.811048839071248) translate(20.824814814814815 71.82638888888889)"/><use xlink:href="#Q" transform="matrix(1,0,0,1,565,23.811048839071248) translate(64.23222222222222 71.82638888888889)"/></g><path d="M574.98 78.8H236.15a6 6 0 0 0-6 6v217.13" stroke="#3a414a" fill="none"/><path d="M575.36 79.3h-.4v-.96h.65z" stroke="#3a414a" stroke-width=".05" fill="#3a414a"/><path d="M230.15 316.7l-4.64-14.27h9.28z" stroke="#3a414a" fill="#3a414a"/><g><use xlink:href="#R" transform="matrix(1,0,0,1,346.55733692040315,32.14438217240458) translate(3.5111728395061803 14.222222222222223)"/><use xlink:href="#S" transform="matrix(1,0,0,1,346.55733692040315,32.14438217240458) translate(0.005000000000002558 35.55555555555556)"/><use xlink:href="#T" transform="matrix(1,0,0,1,346.55733692040315,32.14438217240458) translate(44.35067901234569 35.55555555555556)"/></g><path d="M560 609.37a6 6 0 0 1 6-6h188a6 6 0 0 1 6 6v148a6 6 0 0 1-6 6H566a6 6 0 0 1-6-6z" stroke="#3a414a" fill="#fff"/><g><use xlink:href="#U" transform="matrix(1,0,0,1,572,615.3666043946266) translate(63.370370370370374 73.02777777777777)"/></g><path d="M680 712.04a6 6 0 0 1 6-6h68a6 6 0 0 1 6 6v46.8a6 6 0 0 1-6 6h-68a6 6 0 0 1-6-6z" stroke="#3a414a" fill="#fff"/><g><use xlink:href="#V" transform="matrix(1,0,0,1,685,711.0417445067163) translate(12.664401582994788 11.507428164754026)"/><use xlink:href="#W" transform="matrix(1,0,0,1,685,711.0417445067163) translate(11.066147671223394 28.768570411885065)"/><use xlink:href="#X" transform="matrix(1,0,0,1,685,711.0417445067163) translate(22.613532183771706 46.029712659016106)"/></g><path d="M560 709.07a6 6 0 0 1 6-6h68a6 6 0 0 1 6 6v49.78a6 6 0 0 1-6 6h-68a6 6 0 0 1-6-6z" stroke="#3a414a" fill="#fff"/><g><use xlink:href="#V" transform="matrix(1,0,0,1,565,708.0693666043944) translate(12.664401582994788 14.757428164754026)"/><use xlink:href="#Y" transform="matrix(1,0,0,1,565,708.0693666043944) translate(1.0770607226521918 32.018570411885065)"/><use xlink:href="#X" transform="matrix(1,0,0,1,565,708.0693666043944) translate(22.613532183771706 49.279712659016106)"/></g><path d="M280 761.88c0 10-58.2 18.12-130 18.12s-130-8.1-130-18.12V616.93c0-10 58.2-18.12 130-18.12s130 8.12 130 18.13z" stroke="#3a414a" fill="#fff"/><path d="M280 616.93c0 10-58.2 18.12-130 18.12s-130-8.1-130-18.12" stroke="#3a414a" fill="none"/><path d="M140 701.42a6 6 0 0 1 6-6h118a6 6 0 0 1 6 6v55.95a6 6 0 0 1-6 6H146a6 6 0 0 1-6-6z" stroke="#3a414a" fill="#fff"/><g><use xlink:href="#Z" transform="matrix(1,0,0,1,145,700.4207477092784) translate(26.722222222222236 19.624999999999993)"/><use xlink:href="#aa" transform="matrix(1,0,0,1,145,700.4207477092784) translate(12.83333333333335 43.624999999999986)"/><use xlink:href="#ab" transform="matrix(1,0,0,1,145,700.4207477092784) translate(72.72222222222223 43.624999999999986)"/></g><path d="M30 651.46a6 6 0 0 1 6-6h118a6 6 0 0 1 6 6v55.94a6 6 0 0 1-6 6H36a6 6 0 0 1-6-6z" stroke="#3a414a" fill="#fff"/><g><use xlink:href="#ac" transform="matrix(1,0,0,1,35,650.4546917157425) translate(12.833333333333357 19.624999999999993)"/><use xlink:href="#aa" transform="matrix(1,0,0,1,35,650.4546917157425) translate(12.83333333333335 43.624999999999986)"/><use xlink:href="#ab" transform="matrix(1,0,0,1,35,650.4546917157425) translate(72.72222222222223 43.624999999999986)"/></g><path d="M200.5 820h103.12M200.5 820h-.5" stroke="#3a414a" fill="none"/><path d="M318.38 820l-14.26 4.63v-9.26z" stroke="#3a414a" fill="#3a414a"/><g><use xlink:href="#ad" transform="matrix(1,0,0,1,174.78256432306335,796.3017613640662) translate(0.0049999999999954525 10.041989146873057)"/><use xlink:href="#ae" transform="matrix(1,0,0,1,174.78256432306335,796.3017613640662) translate(18.450181453805023 10.041989146873057)"/><use xlink:href="#af" transform="matrix(1,0,0,1,174.78256432306335,796.3017613640662) translate(76.22648706619619 10.041989146873057)"/><use xlink:href="#ag" transform="matrix(1,0,0,1,174.78256432306335,796.3017613640662) translate(136.72249807253215 10.041989146873057)"/><use xlink:href="#ah" transform="matrix(1,0,0,1,174.78256432306335,796.3017613640662) translate(155.48149168717697 10.041989146873057)"/></g><path d="M563.1 420.48H241v-.96h322.1z" stroke="#3a414a" stroke-width=".05" fill="#3a414a"/><path d="M241 420.48h-.5v-.96h.5z" fill="#3a414a"/><path stroke="#3a414a" stroke-width=".05" fill="#3a414a"/><path d="M577.88 420l-14.26 4.63v-9.26z" fill="#3a414a"/><path d="M579.42 420l-16.28 5.3v-10.6zm-15.33 3.98l12.24-3.98-12.25-3.98z" stroke="#3a414a" stroke-width=".05" fill="#3a414a"/><g><use xlink:href="#g" transform="matrix(1,0,0,1,290.69139616260907,423.99999999999994) translate(0.0049999999999954525 14.222222222222223)"/><use xlink:href="#ai" transform="matrix(1,0,0,1,290.69139616260907,423.99999999999994) translate(44.35067901234568 14.222222222222223)"/><use xlink:href="#i" transform="matrix(1,0,0,1,290.69139616260907,423.99999999999994) translate(95.60993827160495 14.222222222222223)"/><use xlink:href="#j" transform="matrix(1,0,0,1,290.69139616260907,423.99999999999994) translate(110.42475308641977 14.222222222222223)"/><use xlink:href="#aj" transform="matrix(1,0,0,1,290.69139616260907,423.99999999999994) translate(191.36302469135805 14.222222222222223)"/><use xlink:href="#l" transform="matrix(1,0,0,1,290.69139616260907,423.99999999999994) translate(31.560555555555567 35.55555555555556)"/><use xlink:href="#m" transform="matrix(1,0,0,1,290.69139616260907,423.99999999999994) translate(46.37537037037038 35.55555555555556)"/><use xlink:href="#ak" transform="matrix(1,0,0,1,290.69139616260907,423.99999999999994) translate(109.4864814814815 35.55555555555556)"/><use xlink:href="#o" transform="matrix(1,0,0,1,290.69139616260907,423.99999999999994) translate(177.43709876543213 35.55555555555556)"/></g><defs><path fill="#3a414a" d="M194 0L95-120 63-95V0H30v-248h33v124l119-124h40L117-140 236 0h-42" id="al"/><path fill="#3a414a" d="M240 0l2-218c-23 76-54 145-80 218h-23L58-218 59 0H30v-248h44l77 211c21-75 51-140 76-211h43V0h-30" id="am"/><path fill="#3a414a" d="M185-189c-5-48-123-54-124 2 14 75 158 14 163 119 3 78-121 87-175 55-17-10-28-26-33-46l33-7c5 56 141 63 141-1 0-78-155-14-162-118-5-82 145-84 179-34 5 7 8 16 11 25" id="an"/><g id="a"><use transform="matrix(0.06172839506172839,0,0,0.06172839506172839,0,0)" xlink:href="#al"/><use transform="matrix(0.06172839506172839,0,0,0.06172839506172839,14.814814814814813,0)" xlink:href="#am"/><use transform="matrix(0.06172839506172839,0,0,0.06172839506172839,33.2716049382716,0)" xlink:href="#an"/></g><path fill="#3a414a" d="M212-179c-10-28-35-45-73-45-59 0-87 40-87 99 0 60 29 101 89 101 43 0 62-24 78-52l27 14C228-24 195 4 139 4 59 4 22-46 18-125c-6-104 99-153 187-111 19 9 31 26 39 46" id="ao"/><path fill="#3a414a" d="M114-163C36-179 61-72 57 0H25l-1-190h30c1 12-1 29 2 39 6-27 23-49 58-41v29" id="ap"/><path fill="#3a414a" d="M179-190L93 31C79 59 56 82 12 73V49c39 6 53-20 64-50L1-190h34L92-34l54-156h33" id="aq"/><path fill="#3a414a" d="M115-194c55 1 70 41 70 98S169 2 115 4C84 4 66-9 55-30l1 105H24l-1-265h31l2 30c10-21 28-34 59-34zm-8 174c40 0 45-34 45-75s-6-73-45-74c-42 0-51 32-51 76 0 43 10 73 51 73" id="ar"/><path fill="#3a414a" d="M59-47c-2 24 18 29 38 22v24C64 9 27 4 27-40v-127H5v-23h24l9-43h21v43h35v23H59v120" id="as"/><path fill="#3a414a" d="M100-194c62-1 85 37 85 99 1 63-27 99-86 99S16-35 15-95c0-66 28-99 85-99zM99-20c44 1 53-31 53-75 0-43-8-75-51-75s-53 32-53 75 10 74 51 75" id="at"/><g id="b"><use transform="matrix(0.06172839506172839,0,0,0.06172839506172839,0,0)" xlink:href="#ao"/><use transform="matrix(0.06172839506172839,0,0,0.06172839506172839,15.987654320987653,0)" xlink:href="#ap"/><use transform="matrix(0.06172839506172839,0,0,0.06172839506172839,23.333333333333332,0)" xlink:href="#aq"/><use transform="matrix(0.06172839506172839,0,0,0.06172839506172839,34.44444444444444,0)" xlink:href="#ar"/><use transform="matrix(0.06172839506172839,0,0,0.06172839506172839,46.79012345679012,0)" xlink:href="#as"/><use transform="matrix(0.06172839506172839,0,0,0.06172839506172839,52.96296296296296,0)" xlink:href="#at"/></g><path fill="#3a414a" d="M205 0l-28-72H64L36 0H1l101-248h38L239 0h-34zm-38-99l-47-123c-12 45-31 82-46 123h93" id="au"/><path fill="#3a414a" d="M30-248c87 1 191-15 191 75 0 78-77 80-158 76V0H30v-248zm33 125c57 0 124 11 124-50 0-59-68-47-124-48v98" id="av"/><path fill="#3a414a" d="M33 0v-248h34V0H33" id="aw"/><g id="c"><use transform="matrix(0.06172839506172839,0,0,0.06172839506172839,0,0)" xlink:href="#au"/><use transform="matrix(0.06172839506172839,0,0,0.06172839506172839,14.814814814814813,0)" xlink:href="#av"/><use transform="matrix(0.06172839506172839,0,0,0.06172839506172839,29.629629629629626,0)" xlink:href="#aw"/></g><path fill="#333" d="M169-182c-1-43-94-46-97-3 18 66 151 10 154 114 3 95-165 93-204 36-6-8-10-19-12-30l50-8c3 46 112 56 116 5-17-69-150-10-154-114-4-87 153-88 188-35 5 8 8 18 10 28" id="ax"/><path fill="#333" d="M115-3C79 11 28 4 28-45v-112H4v-33h27l15-45h31v45h36v33H77v99c-1 23 16 31 38 25v30" id="ay"/><path fill="#333" d="M110-194c64 0 96 36 96 99 0 64-35 99-97 99-61 0-95-36-95-99 0-62 34-99 96-99zm-1 164c35 0 45-28 45-65 0-40-10-65-43-65-34 0-45 26-45 65 0 36 10 65 43 65" id="az"/><path fill="#333" d="M135-150c-39-12-60 13-60 57V0H25l-1-190h47c2 13-1 29 3 40 6-28 27-53 61-41v41" id="aA"/><path fill="#333" d="M185-48c-13 30-37 53-82 52C43 2 14-33 14-96s30-98 90-98c62 0 83 45 84 108H66c0 31 8 55 39 56 18 0 30-7 34-22zm-45-69c5-46-57-63-70-21-2 6-4 13-4 21h74" id="aB"/><path fill="#333" d="M4 7l51-268h42L46 7H4" id="aC"/><path fill="#333" d="M133-34C117-15 103 5 69 4 32 3 11-16 11-54c-1-60 55-63 116-61 1-26-3-47-28-47-18 1-26 9-28 27l-52-2c7-38 36-58 82-57s74 22 75 68l1 82c-1 14 12 18 25 15v27c-30 8-71 5-69-32zm-48 3c29 0 43-24 42-57-32 0-66-3-65 30 0 17 8 27 23 27" id="aD"/><path fill="#333" d="M88-194c31-1 46 15 58 34l-1-101h50l1 261h-48c-2-10 0-23-3-31C134-8 116 4 84 4 32 4 16-41 15-95c0-56 19-97 73-99zm17 164c33 0 40-30 41-66 1-37-9-64-41-64s-38 30-39 65c0 43 13 65 39 65" id="aE"/><g id="d"><use transform="matrix(0.04938271604938272,0,0,0.04938271604938272,0,0)" xlink:href="#ax"/><use transform="matrix(0.04938271604938272,0,0,0.04938271604938272,11.851851851851853,0)" xlink:href="#ay"/><use transform="matrix(0.04938271604938272,0,0,0.04938271604938272,17.728395061728396,0)" xlink:href="#az"/><use transform="matrix(0.04938271604938272,0,0,0.04938271604938272,28.543209876543205,0)" xlink:href="#aA"/><use transform="matrix(0.04938271604938272,0,0,0.04938271604938272,35.45679012345679,0)" xlink:href="#aB"/><use transform="matrix(0.04938271604938272,0,0,0.04938271604938272,45.333333333333336,0)" xlink:href="#aC"/><use transform="matrix(0.04938271604938272,0,0,0.04938271604938272,50.27160493827161,0)" xlink:href="#aA"/><use transform="matrix(0.04938271604938272,0,0,0.04938271604938272,57.18518518518519,0)" xlink:href="#aB"/><use transform="matrix(0.04938271604938272,0,0,0.04938271604938272,67.06172839506173,0)" xlink:href="#aD"/><use transform="matrix(0.04938271604938272,0,0,0.04938271604938272,76.93827160493828,0)" xlink:href="#aE"/></g><path fill="#333" d="M135-194c53 0 70 44 70 98 0 56-19 98-73 100-31 1-45-17-59-34 3 33 2 69 2 105H25l-1-265h48c2 10 0 23 3 31 11-24 29-35 60-35zM114-30c33 0 39-31 40-66 0-38-9-64-40-64-56 0-55 130 0 130" id="aF"/><path fill="#333" d="M85 4C-2 5 27-109 22-190h50c7 57-23 150 33 157 60-5 35-97 40-157h50l1 190h-47c-2-12 1-28-3-38-12 25-28 42-61 42" id="aG"/><path fill="#333" d="M135-194c52 0 70 43 70 98 0 56-19 99-73 100-30 1-46-15-58-35L72 0H24l1-261h50v104c11-23 29-37 60-37zM114-30c31 0 40-27 40-66 0-37-7-63-39-63s-41 28-41 65c0 36 8 64 40 64" id="aH"/><path fill="#333" d="M25 0v-261h50V0H25" id="aI"/><path fill="#333" d="M25-224v-37h50v37H25zM25 0v-190h50V0H25" id="aJ"/><path fill="#333" d="M190-63c-7 42-38 67-86 67-59 0-84-38-90-98-12-110 154-137 174-36l-49 2c-2-19-15-32-35-32-30 0-35 28-38 64-6 74 65 87 74 30" id="aK"/><g id="e"><use transform="matrix(0.04938271604938272,0,0,0.04938271604938272,0,0)" xlink:href="#aF"/><use transform="matrix(0.04938271604938272,0,0,0.04938271604938272,10.814814814814815,0)" xlink:href="#aG"/><use transform="matrix(0.04938271604938272,0,0,0.04938271604938272,21.62962962962963,0)" xlink:href="#aH"/><use transform="matrix(0.04938271604938272,0,0,0.04938271604938272,32.44444444444444,0)" xlink:href="#aI"/><use transform="matrix(0.04938271604938272,0,0,0.04938271604938272,37.382716049382715,0)" xlink:href="#aJ"/><use transform="matrix(0.04938271604938272,0,0,0.04938271604938272,42.32098765432099,0)" xlink:href="#aK"/></g><path fill="#333" d="M147 0L96-86 75-71V0H25v-261h50v150l67-79h53l-66 74L201 0h-54" id="aL"/><path fill="#333" d="M123 10C108 53 80 86 19 72V37c35 8 53-11 59-39L3-190h52l48 148c12-52 28-100 44-148h51" id="aM"/><path fill="#333" d="M137-138c1-29-70-34-71-4 15 46 118 7 119 86 1 83-164 76-172 9l43-7c4 19 20 25 44 25 33 8 57-30 24-41C81-84 22-81 20-136c-2-80 154-74 161-7" id="aN"/><g id="f"><use transform="matrix(0.04938271604938272,0,0,0.04938271604938272,0,0)" xlink:href="#aL"/><use transform="matrix(0.04938271604938272,0,0,0.04938271604938272,9.876543209876544,0)" xlink:href="#aB"/><use transform="matrix(0.04938271604938272,0,0,0.04938271604938272,19.75308641975309,0)" xlink:href="#aM"/><use transform="matrix(0.04938271604938272,0,0,0.04938271604938272,29.629629629629633,0)" xlink:href="#aN"/></g><path fill="#333" d="M195 0l-88-114-31 24V0H24v-248h52v113l112-113h60L142-143 257 0h-62" id="aO"/><path fill="#333" d="M230 0l2-204L168 0h-37L68-204 70 0H24v-248h70l56 185 57-185h69V0h-46" id="aP"/><g id="g"><use transform="matrix(0.04938271604938272,0,0,0.04938271604938272,0,0)" xlink:href="#aO"/><use transform="matrix(0.04938271604938272,0,0,0.04938271604938272,12.790123456790125,0)" xlink:href="#aP"/><use transform="matrix(0.04938271604938272,0,0,0.04938271604938272,27.555555555555557,0)" xlink:href="#ax"/></g><g id="h"><use transform="matrix(0.04938271604938272,0,0,0.04938271604938272,0,0)" xlink:href="#aE"/><use transform="matrix(0.04938271604938272,0,0,0.04938271604938272,10.814814814814815,0)" xlink:href="#aB"/><use transform="matrix(0.04938271604938272,0,0,0.04938271604938272,20.69135802469136,0)" xlink:href="#aK"/><use transform="matrix(0.04938271604938272,0,0,0.04938271604938272,30.567901234567906,0)" xlink:href="#aA"/><use transform="matrix(0.04938271604938272,0,0,0.04938271604938272,37.48148148148149,0)" xlink:href="#aM"/><use transform="matrix(0.04938271604938272,0,0,0.04938271604938272,47.35802469135803,0)" xlink:href="#aF"/><use transform="matrix(0.04938271604938272,0,0,0.04938271604938272,58.17283950617284,0)" xlink:href="#ay"/><use transform="matrix(0.04938271604938272,0,0,0.04938271604938272,64.0493827160494,0)" xlink:href="#aN"/></g><use transform="matrix(0.04938271604938272,0,0,0.04938271604938272,0,0)" xlink:href="#aD" id="i"/><path fill="#333" d="M220-157c-53 9-28 100-34 157h-49v-107c1-27-5-49-29-50C55-147 81-57 75 0H25l-1-190h47c2 12-1 28 3 38 10-53 101-56 108 0 13-22 24-43 59-42 82 1 51 116 57 194h-49v-107c-1-25-5-48-29-50" id="aQ"/><path fill="#333" d="M195-6C206 82 75 100 31 46c-4-6-6-13-8-21l49-6c3 16 16 24 34 25 40 0 42-37 40-79-11 22-30 35-61 35-53 0-70-43-70-97 0-56 18-96 73-97 30 0 46 14 59 34l2-30h47zm-90-29c32 0 41-27 41-63 0-35-9-62-40-62-32 0-39 29-40 63 0 36 9 62 39 62" id="aR"/><g id="j"><use transform="matrix(0.04938271604938272,0,0,0.04938271604938272,0,0)" xlink:href="#aQ"/><use transform="matrix(0.04938271604938272,0,0,0.04938271604938272,15.80246913580247,0)" xlink:href="#aB"/><use transform="matrix(0.04938271604938272,0,0,0.04938271604938272,25.679012345679016,0)" xlink:href="#aN"/><use transform="matrix(0.04938271604938272,0,0,0.04938271604938272,35.55555555555556,0)" xlink:href="#aN"/><use transform="matrix(0.04938271604938272,0,0,0.04938271604938272,45.4320987654321,0)" xlink:href="#aD"/><use transform="matrix(0.04938271604938272,0,0,0.04938271604938272,55.308641975308646,0)" xlink:href="#aR"/><use transform="matrix(0.04938271604938272,0,0,0.04938271604938272,66.12345679012346,0)" xlink:href="#aB"/></g><path fill="#333" d="M135-194c87-1 58 113 63 194h-50c-7-57 23-157-34-157-59 0-34 97-39 157H25l-1-190h47c2 12-1 28 3 38 12-26 28-41 61-42" id="aS"/><g id="k"><use transform="matrix(0.04938271604938272,0,0,0.04938271604938272,0,0)" xlink:href="#aG"/><use transform="matrix(0.04938271604938272,0,0,0.04938271604938272,10.814814814814815,0)" xlink:href="#aN"/><use transform="matrix(0.04938271604938272,0,0,0.04938271604938272,20.69135802469136,0)" xlink:href="#aJ"/><use transform="matrix(0.04938271604938272,0,0,0.04938271604938272,25.629629629629633,0)" xlink:href="#aS"/><use transform="matrix(0.04938271604938272,0,0,0.04938271604938272,36.44444444444445,0)" xlink:href="#aR"/></g><use transform="matrix(0.04938271604938272,0,0,0.04938271604938272,0,0)" xlink:href="#aD" id="l"/><path fill="#333" d="M128 0H69L1-190h53L99-40l48-150h52" id="aT"/><g id="m"><use transform="matrix(0.04938271604938272,0,0,0.04938271604938272,0,0)" xlink:href="#aF"/><use transform="matrix(0.04938271604938272,0,0,0.04938271604938272,10.814814814814815,0)" xlink:href="#aA"/><use transform="matrix(0.04938271604938272,0,0,0.04938271604938272,17.728395061728396,0)" xlink:href="#aJ"/><use transform="matrix(0.04938271604938272,0,0,0.04938271604938272,22.666666666666668,0)" xlink:href="#aT"/><use transform="matrix(0.04938271604938272,0,0,0.04938271604938272,32.543209876543216,0)" xlink:href="#aD"/><use transform="matrix(0.04938271604938272,0,0,0.04938271604938272,42.41975308641976,0)" xlink:href="#ay"/><use transform="matrix(0.04938271604938272,0,0,0.04938271604938272,48.296296296296305,0)" xlink:href="#aB"/></g><g id="n"><use transform="matrix(0.04938271604938272,0,0,0.04938271604938272,0,0)" xlink:href="#aB"/><use transform="matrix(0.04938271604938272,0,0,0.04938271604938272,9.876543209876544,0)" xlink:href="#aS"/><use transform="matrix(0.04938271604938272,0,0,0.04938271604938272,20.69135802469136,0)" xlink:href="#aK"/><use transform="matrix(0.04938271604938272,0,0,0.04938271604938272,30.567901234567906,0)" xlink:href="#aA"/><use transform="matrix(0.04938271604938272,0,0,0.04938271604938272,37.48148148148149,0)" xlink:href="#aM"/><use transform="matrix(0.04938271604938272,0,0,0.04938271604938272,47.35802469135803,0)" xlink:href="#aF"/><use transform="matrix(0.04938271604938272,0,0,0.04938271604938272,58.17283950617284,0)" xlink:href="#ay"/><use transform="matrix(0.04938271604938272,0,0,0.04938271604938272,64.0493827160494,0)" xlink:href="#aJ"/><use transform="matrix(0.04938271604938272,0,0,0.04938271604938272,68.98765432098767,0)" xlink:href="#az"/><use transform="matrix(0.04938271604938272,0,0,0.04938271604938272,79.80246913580248,0)" xlink:href="#aS"/></g><g id="o"><use transform="matrix(0.04938271604938272,0,0,0.04938271604938272,0,0)" xlink:href="#aL"/><use transform="matrix(0.04938271604938272,0,0,0.04938271604938272,9.876543209876544,0)" xlink:href="#aB"/><use transform="matrix(0.04938271604938272,0,0,0.04938271604938272,19.75308641975309,0)" xlink:href="#aM"/></g><path fill="#333" d="M67-125c0 54 23 88 75 88 28 0 53-7 68-21v-34h-60v-39h108v91C232-14 192 4 140 4 58 4 20-42 15-125 8-236 126-280 215-234c19 10 29 26 37 47l-47 15c-11-23-29-39-63-39-53 1-75 33-75 86" id="aU"/><g id="p"><use transform="matrix(0.04938271604938272,0,0,0.04938271604938272,0,0)" xlink:href="#aU"/><use transform="matrix(0.04938271604938272,0,0,0.04938271604938272,13.827160493827162,0)" xlink:href="#aB"/><use transform="matrix(0.04938271604938272,0,0,0.04938271604938272,23.703703703703706,0)" xlink:href="#aS"/><use transform="matrix(0.04938271604938272,0,0,0.04938271604938272,34.51851851851852,0)" xlink:href="#aB"/><use transform="matrix(0.04938271604938272,0,0,0.04938271604938272,44.39506172839506,0)" xlink:href="#aA"/><use transform="matrix(0.04938271604938272,0,0,0.04938271604938272,51.308641975308646,0)" xlink:href="#aD"/><use transform="matrix(0.04938271604938272,0,0,0.04938271604938272,61.18518518518519,0)" xlink:href="#ay"/><use transform="matrix(0.04938271604938272,0,0,0.04938271604938272,67.06172839506173,0)" xlink:href="#aB"/></g><path fill="#333" d="M76-54c-1 42 2 86-19 110H24C36 42 46 24 48 0H25v-54h51" id="aV"/><g id="q"><use transform="matrix(0.04938271604938272,0,0,0.04938271604938272,0,0)" xlink:href="#aL"/><use transform="matrix(0.04938271604938272,0,0,0.04938271604938272,9.876543209876544,0)" xlink:href="#aB"/><use transform="matrix(0.04938271604938272,0,0,0.04938271604938272,19.75308641975309,0)" xlink:href="#aM"/><use transform="matrix(0.04938271604938272,0,0,0.04938271604938272,29.629629629629633,0)" xlink:href="#aN"/><use transform="matrix(0.04938271604938272,0,0,0.04938271604938272,39.50617283950618,0)" xlink:href="#aV"/></g><g id="r"><use transform="matrix(0.04938271604938272,0,0,0.04938271604938272,0,0)" xlink:href="#aN"/><use transform="matrix(0.04938271604938272,0,0,0.04938271604938272,9.876543209876544,0)" xlink:href="#aJ"/><use transform="matrix(0.04938271604938272,0,0,0.04938271604938272,14.814814814814817,0)" xlink:href="#aR"/><use transform="matrix(0.04938271604938272,0,0,0.04938271604938272,25.629629629629633,0)" xlink:href="#aS"/></g><g id="s"><use transform="matrix(0.04938271604938272,0,0,0.04938271604938272,0,0)" xlink:href="#aD"/><use transform="matrix(0.04938271604938272,0,0,0.04938271604938272,9.876543209876544,0)" xlink:href="#aS"/><use transform="matrix(0.04938271604938272,0,0,0.04938271604938272,20.69135802469136,0)" xlink:href="#aE"/></g><g id="t"><use transform="matrix(0.04938271604938272,0,0,0.04938271604938272,0,0)" xlink:href="#aE"/><use transform="matrix(0.04938271604938272,0,0,0.04938271604938272,10.814814814814815,0)" xlink:href="#aB"/><use transform="matrix(0.04938271604938272,0,0,0.04938271604938272,20.69135802469136,0)" xlink:href="#aK"/><use transform="matrix(0.04938271604938272,0,0,0.04938271604938272,30.567901234567906,0)" xlink:href="#aA"/><use transform="matrix(0.04938271604938272,0,0,0.04938271604938272,37.48148148148149,0)" xlink:href="#aM"/><use transform="matrix(0.04938271604938272,0,0,0.04938271604938272,47.35802469135803,0)" xlink:href="#aF"/><use transform="matrix(0.04938271604938272,0,0,0.04938271604938272,58.17283950617284,0)" xlink:href="#ay"/></g><g id="u"><use transform="matrix(0.04938271604938272,0,0,0.04938271604938272,0,0)" xlink:href="#aQ"/><use transform="matrix(0.04938271604938272,0,0,0.04938271604938272,15.80246913580247,0)" xlink:href="#aB"/><use transform="matrix(0.04938271604938272,0,0,0.04938271604938272,25.679012345679016,0)" xlink:href="#aN"/><use transform="matrix(0.04938271604938272,0,0,0.04938271604938272,35.55555555555556,0)" xlink:href="#aN"/><use transform="matrix(0.04938271604938272,0,0,0.04938271604938272,45.4320987654321,0)" xlink:href="#aD"/><use transform="matrix(0.04938271604938272,0,0,0.04938271604938272,55.308641975308646,0)" xlink:href="#aR"/><use transform="matrix(0.04938271604938272,0,0,0.04938271604938272,66.12345679012346,0)" xlink:href="#aB"/><use transform="matrix(0.04938271604938272,0,0,0.04938271604938272,76,0)" xlink:href="#aN"/></g><path fill="#3a414a" d="M141-36C126-15 110 5 73 4 37 3 15-17 15-53c-1-64 63-63 125-63 3-35-9-54-41-54-24 1-41 7-42 31l-33-3c5-37 33-52 76-52 45 0 72 20 72 64v82c-1 20 7 32 28 27v20c-31 9-61-2-59-35zM48-53c0 20 12 33 32 33 41-3 63-29 60-74-43 2-92-5-92 41" id="aW"/><path fill="#3a414a" d="M117-194c89-4 53 116 60 194h-32v-121c0-31-8-49-39-48C34-167 62-67 57 0H25l-1-190h30c1 10-1 24 2 32 11-22 29-35 61-36" id="aX"/><path fill="#3a414a" d="M16-82v-28h88v28H16" id="aY"/><path fill="#3a414a" d="M24-231v-30h32v30H24zM24 0v-190h32V0H24" id="aZ"/><path fill="#3a414a" d="M100-194c63 0 86 42 84 106H49c0 40 14 67 53 68 26 1 43-12 49-29l28 8c-11 28-37 45-77 45C44 4 14-33 15-96c1-61 26-98 85-98zm52 81c6-60-76-77-97-28-3 7-6 17-6 28h103" id="ba"/><path fill="#3a414a" d="M24 0v-261h32V0H24" id="bb"/><g id="v"><use transform="matrix(0.06172839506172839,0,0,0.06172839506172839,0,0)" xlink:href="#ao"/><use transform="matrix(0.06172839506172839,0,0,0.06172839506172839,15.987654320987653,0)" xlink:href="#aW"/><use transform="matrix(0.06172839506172839,0,0,0.06172839506172839,28.333333333333332,0)" xlink:href="#aX"/><use transform="matrix(0.06172839506172839,0,0,0.06172839506172839,40.67901234567901,0)" xlink:href="#as"/><use transform="matrix(0.06172839506172839,0,0,0.06172839506172839,46.851851851851855,0)" xlink:href="#at"/><use transform="matrix(0.06172839506172839,0,0,0.06172839506172839,59.19753086419753,0)" xlink:href="#aX"/><use transform="matrix(0.06172839506172839,0,0,0.06172839506172839,71.54320987654322,0)" xlink:href="#aY"/><use transform="matrix(0.06172839506172839,0,0,0.06172839506172839,78.8888888888889,0)" xlink:href="#aZ"/><use transform="matrix(0.06172839506172839,0,0,0.06172839506172839,83.76543209876544,0)" xlink:href="#aX"/><use transform="matrix(0.06172839506172839,0,0,0.06172839506172839,96.11111111111113,0)" xlink:href="#as"/><use transform="matrix(0.06172839506172839,0,0,0.06172839506172839,102.28395061728396,0)" xlink:href="#ba"/><use transform="matrix(0.06172839506172839,0,0,0.06172839506172839,114.62962962962965,0)" xlink:href="#ap"/><use transform="matrix(0.06172839506172839,0,0,0.06172839506172839,121.97530864197533,0)" xlink:href="#aX"/><use transform="matrix(0.06172839506172839,0,0,0.06172839506172839,134.32098765432102,0)" xlink:href="#aW"/><use transform="matrix(0.06172839506172839,0,0,0.06172839506172839,146.66666666666669,0)" xlink:href="#bb"/></g><g id="w"><use transform="matrix(0.06172839506172839,0,0,0.06172839506172839,0,0)" xlink:href="#ao"/><use transform="matrix(0.06172839506172839,0,0,0.06172839506172839,15.987654320987653,0)" xlink:href="#ap"/><use transform="matrix(0.06172839506172839,0,0,0.06172839506172839,23.333333333333332,0)" xlink:href="#aq"/><use transform="matrix(0.06172839506172839,0,0,0.06172839506172839,34.44444444444444,0)" xlink:href="#ar"/><use transform="matrix(0.06172839506172839,0,0,0.06172839506172839,46.79012345679012,0)" xlink:href="#as"/><use transform="matrix(0.06172839506172839,0,0,0.06172839506172839,52.96296296296296,0)" xlink:href="#at"/></g><path fill="#3a414a" d="M135-143c-3-34-86-38-87 0 15 53 115 12 119 90S17 21 10-45l28-5c4 36 97 45 98 0-10-56-113-15-118-90-4-57 82-63 122-42 12 7 21 19 24 35" id="bc"/><g id="x"><use transform="matrix(0.06172839506172839,0,0,0.06172839506172839,0,0)" xlink:href="#ao"/><use transform="matrix(0.06172839506172839,0,0,0.06172839506172839,15.987654320987653,0)" xlink:href="#bb"/><use transform="matrix(0.06172839506172839,0,0,0.06172839506172839,20.864197530864196,0)" xlink:href="#aZ"/><use transform="matrix(0.06172839506172839,0,0,0.06172839506172839,25.74074074074074,0)" xlink:href="#ba"/><use transform="matrix(0.06172839506172839,0,0,0.06172839506172839,38.08641975308642,0)" xlink:href="#aX"/><use transform="matrix(0.06172839506172839,0,0,0.06172839506172839,50.432098765432094,0)" xlink:href="#as"/><use transform="matrix(0.06172839506172839,0,0,0.06172839506172839,56.60493827160494,0)" xlink:href="#bc"/></g><path fill="#333" d="M24 0v-248h195v40H76v63h132v40H76v65h150V0H24" id="bd"/><path fill="#333" d="M144 0l-44-69L55 0H2l70-98-66-92h53l41 62 40-62h54l-67 91 71 99h-54" id="be"/><g id="y"><use transform="matrix(0.04938271604938272,0,0,0.04938271604938272,0,0)" xlink:href="#bd"/><use transform="matrix(0.04938271604938272,0,0,0.04938271604938272,11.851851851851853,0)" xlink:href="#be"/><use transform="matrix(0.04938271604938272,0,0,0.04938271604938272,21.7283950617284,0)" xlink:href="#aB"/><use transform="matrix(0.04938271604938272,0,0,0.04938271604938272,31.60493827160494,0)" xlink:href="#aK"/><use transform="matrix(0.04938271604938272,0,0,0.04938271604938272,41.48148148148149,0)" xlink:href="#aG"/><use transform="matrix(0.04938271604938272,0,0,0.04938271604938272,52.2962962962963,0)" xlink:href="#ay"/><use transform="matrix(0.04938271604938272,0,0,0.04938271604938272,58.17283950617284,0)" xlink:href="#aB"/><use transform="matrix(0.04938271604938272,0,0,0.04938271604938272,68.0493827160494,0)" xlink:href="#aN"/></g><g id="z"><use transform="matrix(0.04938271604938272,0,0,0.04938271604938272,0,0)" xlink:href="#aK"/><use transform="matrix(0.04938271604938272,0,0,0.04938271604938272,9.876543209876544,0)" xlink:href="#aA"/><use transform="matrix(0.04938271604938272,0,0,0.04938271604938272,16.790123456790127,0)" xlink:href="#aM"/><use transform="matrix(0.04938271604938272,0,0,0.04938271604938272,26.666666666666668,0)" xlink:href="#aF"/><use transform="matrix(0.04938271604938272,0,0,0.04938271604938272,37.48148148148149,0)" xlink:href="#ay"/><use transform="matrix(0.04938271604938272,0,0,0.04938271604938272,43.35802469135803,0)" xlink:href="#az"/></g><g id="A"><use transform="matrix(0.04938271604938272,0,0,0.04938271604938272,0,0)" xlink:href="#az"/><use transform="matrix(0.04938271604938272,0,0,0.04938271604938272,10.814814814814815,0)" xlink:href="#aF"/><use transform="matrix(0.04938271604938272,0,0,0.04938271604938272,21.62962962962963,0)" xlink:href="#aB"/><use transform="matrix(0.04938271604938272,0,0,0.04938271604938272,31.506172839506174,0)" xlink:href="#aA"/><use transform="matrix(0.04938271604938272,0,0,0.04938271604938272,38.41975308641975,0)" xlink:href="#aD"/><use transform="matrix(0.04938271604938272,0,0,0.04938271604938272,48.2962962962963,0)" xlink:href="#ay"/><use transform="matrix(0.04938271604938272,0,0,0.04938271604938272,54.17283950617284,0)" xlink:href="#aJ"/><use transform="matrix(0.04938271604938272,0,0,0.04938271604938272,59.111111111111114,0)" xlink:href="#az"/><use transform="matrix(0.04938271604938272,0,0,0.04938271604938272,69.92592592592592,0)" xlink:href="#aS"/><use transform="matrix(0.04938271604938272,0,0,0.04938271604938272,80.74074074074073,0)" xlink:href="#aN"/></g><path fill="#333" d="M67-93c0 74 22 123 53 168H70C40 30 18-18 18-93s22-123 52-168h50c-32 44-53 94-53 168" id="bf"/><path fill="#333" d="M24 0v-54h51V0H24" id="bg"/><g id="B"><use transform="matrix(0.04938271604938272,0,0,0.04938271604938272,0,0)" xlink:href="#bf"/><use transform="matrix(0.04938271604938272,0,0,0.04938271604938272,5.8765432098765435,0)" xlink:href="#aB"/><use transform="matrix(0.04938271604938272,0,0,0.04938271604938272,15.753086419753087,0)" xlink:href="#bg"/><use transform="matrix(0.04938271604938272,0,0,0.04938271604938272,20.69135802469136,0)" xlink:href="#aR"/><use transform="matrix(0.04938271604938272,0,0,0.04938271604938272,31.506172839506174,0)" xlink:href="#bg"/></g><g id="C"><use transform="matrix(0.04938271604938272,0,0,0.04938271604938272,0,0)" xlink:href="#aN"/><use transform="matrix(0.04938271604938272,0,0,0.04938271604938272,9.876543209876544,0)" xlink:href="#aJ"/><use transform="matrix(0.04938271604938272,0,0,0.04938271604938272,14.814814814814817,0)" xlink:href="#aR"/><use transform="matrix(0.04938271604938272,0,0,0.04938271604938272,25.629629629629633,0)" xlink:href="#aS"/><use transform="matrix(0.04938271604938272,0,0,0.04938271604938272,36.44444444444445,0)" xlink:href="#aV"/></g><path fill="#333" d="M102-93c0 74-22 123-52 168H0C30 29 54-18 53-93c0-74-22-123-53-168h50c30 45 52 94 52 168" id="bh"/><g id="D"><use transform="matrix(0.04938271604938272,0,0,0.04938271604938272,0,0)" xlink:href="#aB"/><use transform="matrix(0.04938271604938272,0,0,0.04938271604938272,9.876543209876544,0)" xlink:href="#aS"/><use transform="matrix(0.04938271604938272,0,0,0.04938271604938272,20.69135802469136,0)" xlink:href="#aK"/><use transform="matrix(0.04938271604938272,0,0,0.04938271604938272,30.567901234567906,0)" xlink:href="#aA"/><use transform="matrix(0.04938271604938272,0,0,0.04938271604938272,37.48148148148149,0)" xlink:href="#aM"/><use transform="matrix(0.04938271604938272,0,0,0.04938271604938272,47.35802469135803,0)" xlink:href="#aF"/><use transform="matrix(0.04938271604938272,0,0,0.04938271604938272,58.17283950617284,0)" xlink:href="#ay"/><use transform="matrix(0.04938271604938272,0,0,0.04938271604938272,64.0493827160494,0)" xlink:href="#aC"/><use transform="matrix(0.04938271604938272,0,0,0.04938271604938272,68.98765432098767,0)" xlink:href="#aE"/><use transform="matrix(0.04938271604938272,0,0,0.04938271604938272,79.80246913580248,0)" xlink:href="#aB"/><use transform="matrix(0.04938271604938272,0,0,0.04938271604938272,89.67901234567903,0)" xlink:href="#aK"/><use transform="matrix(0.04938271604938272,0,0,0.04938271604938272,99.55555555555557,0)" xlink:href="#aA"/><use transform="matrix(0.04938271604938272,0,0,0.04938271604938272,106.46913580246914,0)" xlink:href="#aM"/><use transform="matrix(0.04938271604938272,0,0,0.04938271604938272,116.34567901234568,0)" xlink:href="#aF"/><use transform="matrix(0.04938271604938272,0,0,0.04938271604938272,127.16049382716051,0)" xlink:href="#ay"/><use transform="matrix(0.04938271604938272,0,0,0.04938271604938272,133.03703703703704,0)" xlink:href="#bh"/></g><g id="E"><use transform="matrix(0.04938271604938272,0,0,0.04938271604938272,0,0)" xlink:href="#aR"/><use transform="matrix(0.04938271604938272,0,0,0.04938271604938272,10.814814814814815,0)" xlink:href="#aB"/><use transform="matrix(0.04938271604938272,0,0,0.04938271604938272,20.69135802469136,0)" xlink:href="#aS"/><use transform="matrix(0.04938271604938272,0,0,0.04938271604938272,31.506172839506174,0)" xlink:href="#aB"/><use transform="matrix(0.04938271604938272,0,0,0.04938271604938272,41.38271604938272,0)" xlink:href="#aA"/><use transform="matrix(0.04938271604938272,0,0,0.04938271604938272,48.296296296296305,0)" xlink:href="#aD"/><use transform="matrix(0.04938271604938272,0,0,0.04938271604938272,58.17283950617284,0)" xlink:href="#ay"/><use transform="matrix(0.04938271604938272,0,0,0.04938271604938272,64.0493827160494,0)" xlink:href="#aB"/><use transform="matrix(0.04938271604938272,0,0,0.04938271604938272,73.92592592592594,0)" xlink:href="#aN"/></g><g id="F"><use transform="matrix(0.04938271604938272,0,0,0.04938271604938272,0,0)" xlink:href="#aN"/><use transform="matrix(0.04938271604938272,0,0,0.04938271604938272,9.876543209876544,0)" xlink:href="#aJ"/><use transform="matrix(0.04938271604938272,0,0,0.04938271604938272,14.814814814814817,0)" xlink:href="#aR"/><use transform="matrix(0.04938271604938272,0,0,0.04938271604938272,25.629629629629633,0)" xlink:href="#aS"/><use transform="matrix(0.04938271604938272,0,0,0.04938271604938272,36.44444444444445,0)" xlink:href="#aJ"/><use transform="matrix(0.04938271604938272,0,0,0.04938271604938272,41.38271604938272,0)" xlink:href="#aS"/><use transform="matrix(0.04938271604938272,0,0,0.04938271604938272,52.19753086419754,0)" xlink:href="#aR"/></g><g id="G"><use transform="matrix(0.04938271604938272,0,0,0.04938271604938272,0,0)" xlink:href="#aB"/><use transform="matrix(0.04938271604938272,0,0,0.04938271604938272,9.876543209876544,0)" xlink:href="#aS"/><use transform="matrix(0.04938271604938272,0,0,0.04938271604938272,20.69135802469136,0)" xlink:href="#aK"/><use transform="matrix(0.04938271604938272,0,0,0.04938271604938272,30.567901234567906,0)" xlink:href="#aA"/><use transform="matrix(0.04938271604938272,0,0,0.04938271604938272,37.48148148148149,0)" xlink:href="#aM"/><use transform="matrix(0.04938271604938272,0,0,0.04938271604938272,47.35802469135803,0)" xlink:href="#aF"/><use transform="matrix(0.04938271604938272,0,0,0.04938271604938272,58.17283950617284,0)" xlink:href="#ay"/><use transform="matrix(0.04938271604938272,0,0,0.04938271604938272,64.0493827160494,0)" xlink:href="#aJ"/><use transform="matrix(0.04938271604938272,0,0,0.04938271604938272,68.98765432098767,0)" xlink:href="#az"/><use transform="matrix(0.04938271604938272,0,0,0.04938271604938272,79.80246913580248,0)" xlink:href="#aS"/></g><g id="H"><use transform="matrix(0.04938271604938272,0,0,0.04938271604938272,0,0)" xlink:href="#aL"/><use transform="matrix(0.04938271604938272,0,0,0.04938271604938272,9.876543209876544,0)" xlink:href="#aB"/><use transform="matrix(0.04938271604938272,0,0,0.04938271604938272,19.75308641975309,0)" xlink:href="#aM"/><use transform="matrix(0.04938271604938272,0,0,0.04938271604938272,29.629629629629633,0)" xlink:href="#aN"/></g><g id="I"><use transform="matrix(0.04938271604938272,0,0,0.04938271604938272,0,0)" xlink:href="#aD"/><use transform="matrix(0.04938271604938272,0,0,0.04938271604938272,9.876543209876544,0)" xlink:href="#aS"/><use transform="matrix(0.04938271604938272,0,0,0.04938271604938272,20.69135802469136,0)" xlink:href="#aE"/></g><g id="J"><use transform="matrix(0.04938271604938272,0,0,0.04938271604938272,0,0)" xlink:href="#aA"/><use transform="matrix(0.04938271604938272,0,0,0.04938271604938272,6.913580246913581,0)" xlink:href="#aB"/><use transform="matrix(0.04938271604938272,0,0,0.04938271604938272,16.790123456790127,0)" xlink:href="#ay"/><use transform="matrix(0.04938271604938272,0,0,0.04938271604938272,22.66666666666667,0)" xlink:href="#aG"/><use transform="matrix(0.04938271604938272,0,0,0.04938271604938272,33.48148148148149,0)" xlink:href="#aA"/><use transform="matrix(0.04938271604938272,0,0,0.04938271604938272,40.39506172839507,0)" xlink:href="#aS"/><use transform="matrix(0.04938271604938272,0,0,0.04938271604938272,51.209876543209894,0)" xlink:href="#aN"/></g><path fill="#333" d="M114-157C55-157 80-60 75 0H25v-261h50l-1 109c12-26 28-41 61-42 86-1 58 113 63 194h-50c-7-57 23-157-34-157" id="bi"/><g id="K"><use transform="matrix(0.04938271604938272,0,0,0.04938271604938272,0,0)" xlink:href="#ay"/><use transform="matrix(0.04938271604938272,0,0,0.04938271604938272,5.8765432098765435,0)" xlink:href="#bi"/><use transform="matrix(0.04938271604938272,0,0,0.04938271604938272,16.691358024691358,0)" xlink:href="#aB"/></g><g id="L"><use transform="matrix(0.04938271604938272,0,0,0.04938271604938272,0,0)" xlink:href="#aF"/><use transform="matrix(0.04938271604938272,0,0,0.04938271604938272,10.814814814814815,0)" xlink:href="#aG"/><use transform="matrix(0.04938271604938272,0,0,0.04938271604938272,21.62962962962963,0)" xlink:href="#aH"/><use transform="matrix(0.04938271604938272,0,0,0.04938271604938272,32.44444444444444,0)" xlink:href="#aI"/><use transform="matrix(0.04938271604938272,0,0,0.04938271604938272,37.382716049382715,0)" xlink:href="#aJ"/><use transform="matrix(0.04938271604938272,0,0,0.04938271604938272,42.32098765432099,0)" xlink:href="#aK"/></g><g id="M"><use transform="matrix(0.04938271604938272,0,0,0.04938271604938272,0,0)" xlink:href="#aL"/><use transform="matrix(0.04938271604938272,0,0,0.04938271604938272,9.876543209876544,0)" xlink:href="#aB"/><use transform="matrix(0.04938271604938272,0,0,0.04938271604938272,19.75308641975309,0)" xlink:href="#aM"/><use transform="matrix(0.04938271604938272,0,0,0.04938271604938272,29.629629629629633,0)" xlink:href="#aN"/></g><path fill="#3a414a" d="M101-234c-31-9-42 10-38 44h38v23H63V0H32v-167H5v-23h27c-7-52 17-82 69-68v24" id="bj"/><path fill="#3a414a" d="M177-190C167-65 218 103 67 71c-23-6-38-20-44-43l32-5c15 47 100 32 89-28v-30C133-14 115 1 83 1 29 1 15-40 15-95c0-56 16-97 71-98 29-1 48 16 59 35 1-10 0-23 2-32h30zM94-22c36 0 50-32 50-73 0-42-14-75-50-75-39 0-46 34-46 75s6 73 46 73" id="bk"/><path fill="#3a414a" d="M84 4C-5 8 30-112 23-190h32v120c0 31 7 50 39 49 72-2 45-101 50-169h31l1 190h-30c-1-10 1-25-2-33-11 22-28 36-60 37" id="bl"/><g id="N"><use transform="matrix(0.06172839506172839,0,0,0.06172839506172839,0,0)" xlink:href="#ao"/><use transform="matrix(0.06172839506172839,0,0,0.06172839506172839,15.987654320987653,0)" xlink:href="#at"/><use transform="matrix(0.06172839506172839,0,0,0.06172839506172839,28.333333333333332,0)" xlink:href="#aX"/><use transform="matrix(0.06172839506172839,0,0,0.06172839506172839,40.67901234567901,0)" xlink:href="#bj"/><use transform="matrix(0.06172839506172839,0,0,0.06172839506172839,46.851851851851855,0)" xlink:href="#aZ"/><use transform="matrix(0.06172839506172839,0,0,0.06172839506172839,51.7283950617284,0)" xlink:href="#bk"/><use transform="matrix(0.06172839506172839,0,0,0.06172839506172839,64.07407407407408,0)" xlink:href="#bl"/><use transform="matrix(0.06172839506172839,0,0,0.06172839506172839,76.41975308641976,0)" xlink:href="#ap"/><use transform="matrix(0.06172839506172839,0,0,0.06172839506172839,83.76543209876544,0)" xlink:href="#aW"/><use transform="matrix(0.06172839506172839,0,0,0.06172839506172839,96.11111111111113,0)" xlink:href="#as"/><use transform="matrix(0.06172839506172839,0,0,0.06172839506172839,102.28395061728396,0)" xlink:href="#aZ"/><use transform="matrix(0.06172839506172839,0,0,0.06172839506172839,107.16049382716051,0)" xlink:href="#at"/><use transform="matrix(0.06172839506172839,0,0,0.06172839506172839,119.50617283950619,0)" xlink:href="#aX"/></g><use transform="matrix(0.049382716049382706,0,0,0.049382716049382706,0,0)" xlink:href="#aY" id="O"/><g id="P"><use transform="matrix(0.049382716049382706,0,0,0.049382716049382706,0,0)" xlink:href="#al"/><use transform="matrix(0.049382716049382706,0,0,0.049382716049382706,11.85185185185185,0)" xlink:href="#am"/><use transform="matrix(0.049382716049382706,0,0,0.049382716049382706,26.617283950617278,0)" xlink:href="#an"/></g><path fill="#3a414a" d="M85-194c31 0 48 13 60 33l-1-100h32l1 261h-30c-2-10 0-23-3-31C134-8 116 4 85 4 32 4 16-35 15-94c0-66 23-100 70-100zm9 24c-40 0-46 34-46 75 0 40 6 74 45 74 42 0 51-32 51-76 0-42-9-74-50-73" id="bm"/><g id="Q"><use transform="matrix(0.049382716049382706,0,0,0.049382716049382706,0,0)" xlink:href="#ao"/><use transform="matrix(0.049382716049382706,0,0,0.049382716049382706,12.790123456790122,0)" xlink:href="#ap"/><use transform="matrix(0.049382716049382706,0,0,0.049382716049382706,18.666666666666664,0)" xlink:href="#ba"/><use transform="matrix(0.049382716049382706,0,0,0.049382716049382706,28.543209876543205,0)" xlink:href="#bm"/><use transform="matrix(0.049382716049382706,0,0,0.049382716049382706,38.419753086419746,0)" xlink:href="#ba"/><use transform="matrix(0.049382716049382706,0,0,0.049382716049382706,48.29629629629629,0)" xlink:href="#aX"/><use transform="matrix(0.049382716049382706,0,0,0.049382716049382706,58.17283950617284,0)" xlink:href="#as"/><use transform="matrix(0.049382716049382706,0,0,0.049382716049382706,63.11111111111111,0)" xlink:href="#aZ"/><use transform="matrix(0.049382716049382706,0,0,0.049382716049382706,67.01234567901234,0)" xlink:href="#aW"/><use transform="matrix(0.049382716049382706,0,0,0.049382716049382706,76.88888888888889,0)" xlink:href="#bb"/><use transform="matrix(0.049382716049382706,0,0,0.049382716049382706,80.79012345679011,0)" xlink:href="#bc"/></g><path fill="#333" d="M67-125c0 53 21 87 73 88 37 1 54-22 65-47l45 17C233-25 199 4 140 4 58 4 20-42 15-125 8-235 124-281 211-232c18 10 29 29 36 50l-46 12c-8-25-30-41-62-41-52 0-71 34-72 86" id="bn"/><path fill="#333" d="M121-226c-27-7-43 5-38 36h38v33H83V0H34v-157H6v-33h28c-9-59 32-81 87-68v32" id="bo"/><g id="R"><use transform="matrix(0.04938271604938272,0,0,0.04938271604938272,0,0)" xlink:href="#bn"/><use transform="matrix(0.04938271604938272,0,0,0.04938271604938272,12.790123456790125,0)" xlink:href="#az"/><use transform="matrix(0.04938271604938272,0,0,0.04938271604938272,23.60493827160494,0)" xlink:href="#aS"/><use transform="matrix(0.04938271604938272,0,0,0.04938271604938272,34.41975308641975,0)" xlink:href="#bo"/><use transform="matrix(0.04938271604938272,0,0,0.04938271604938272,40.2962962962963,0)" xlink:href="#aJ"/><use transform="matrix(0.04938271604938272,0,0,0.04938271604938272,45.23456790123457,0)" xlink:href="#aR"/><use transform="matrix(0.04938271604938272,0,0,0.04938271604938272,56.04938271604939,0)" xlink:href="#aG"/><use transform="matrix(0.04938271604938272,0,0,0.04938271604938272,66.8641975308642,0)" xlink:href="#aA"/><use transform="matrix(0.04938271604938272,0,0,0.04938271604938272,73.77777777777779,0)" xlink:href="#aB"/></g><g id="S"><use transform="matrix(0.04938271604938272,0,0,0.04938271604938272,0,0)" xlink:href="#aO"/><use transform="matrix(0.04938271604938272,0,0,0.04938271604938272,12.790123456790125,0)" xlink:href="#aP"/><use transform="matrix(0.04938271604938272,0,0,0.04938271604938272,27.555555555555557,0)" xlink:href="#ax"/></g><g id="T"><use transform="matrix(0.04938271604938272,0,0,0.04938271604938272,0,0)" xlink:href="#aK"/><use transform="matrix(0.04938271604938272,0,0,0.04938271604938272,9.876543209876544,0)" xlink:href="#aI"/><use transform="matrix(0.04938271604938272,0,0,0.04938271604938272,14.814814814814817,0)" xlink:href="#aJ"/><use transform="matrix(0.04938271604938272,0,0,0.04938271604938272,19.75308641975309,0)" xlink:href="#aB"/><use transform="matrix(0.04938271604938272,0,0,0.04938271604938272,29.629629629629633,0)" xlink:href="#aS"/><use transform="matrix(0.04938271604938272,0,0,0.04938271604938272,40.44444444444445,0)" xlink:href="#ay"/></g><path fill="#3a414a" d="M197 0v-115H63V0H30v-248h33v105h134v-105h34V0h-34" id="bp"/><g id="U"><use transform="matrix(0.06172839506172839,0,0,0.06172839506172839,0,0)" xlink:href="#bp"/><use transform="matrix(0.06172839506172839,0,0,0.06172839506172839,15.987654320987653,0)" xlink:href="#an"/><use transform="matrix(0.06172839506172839,0,0,0.06172839506172839,30.80246913580247,0)" xlink:href="#am"/></g><path fill="#3a414a" d="M108 0H70L1-190h34L89-25l56-165h34" id="bq"/><g id="V"><use transform="matrix(0.039956347794284815,0,0,0.039956347794284815,0,0)" xlink:href="#av"/><use transform="matrix(0.039956347794284815,0,0,0.039956347794284815,9.589523470628356,0)" xlink:href="#ap"/><use transform="matrix(0.039956347794284815,0,0,0.039956347794284815,14.344328858148248,0)" xlink:href="#aZ"/><use transform="matrix(0.039956347794284815,0,0,0.039956347794284815,17.50088033389675,0)" xlink:href="#bq"/><use transform="matrix(0.039956347794284815,0,0,0.039956347794284815,24.693022936868015,0)" xlink:href="#aW"/><use transform="matrix(0.039956347794284815,0,0,0.039956347794284815,32.684292495724975,0)" xlink:href="#as"/><use transform="matrix(0.039956347794284815,0,0,0.039956347794284815,36.67992727515346,0)" xlink:href="#ba"/></g><g id="W"><use transform="matrix(0.039956347794284815,0,0,0.039956347794284815,0,0)" xlink:href="#an"/><use transform="matrix(0.039956347794284815,0,0,0.039956347794284815,9.589523470628356,0)" xlink:href="#aZ"/><use transform="matrix(0.039956347794284815,0,0,0.039956347794284815,12.746074946376856,0)" xlink:href="#bk"/><use transform="matrix(0.039956347794284815,0,0,0.039956347794284815,20.737344505233825,0)" xlink:href="#aX"/><use transform="matrix(0.039956347794284815,0,0,0.039956347794284815,28.728614064090785,0)" xlink:href="#aZ"/><use transform="matrix(0.039956347794284815,0,0,0.039956347794284815,31.885165539839285,0)" xlink:href="#aX"/><use transform="matrix(0.039956347794284815,0,0,0.039956347794284815,39.87643509869625,0)" xlink:href="#bk"/></g><g id="X"><use transform="matrix(0.039956347794284815,0,0,0.039956347794284815,0,0)" xlink:href="#al"/><use transform="matrix(0.039956347794284815,0,0,0.039956347794284815,9.589523470628356,0)" xlink:href="#ba"/><use transform="matrix(0.039956347794284815,0,0,0.039956347794284815,17.58079302948532,0)" xlink:href="#aq"/></g><path fill="#3a414a" d="M30 0v-248h187v28H63v79h144v27H63v87h162V0H30" id="br"/><path fill="#3a414a" d="M96-169c-40 0-48 33-48 73s9 75 48 75c24 0 41-14 43-38l32 2c-6 37-31 61-74 61-59 0-76-41-82-99-10-93 101-131 147-64 4 7 5 14 7 22l-32 3c-4-21-16-35-41-35" id="bs"/><g id="Y"><use transform="matrix(0.039956347794284815,0,0,0.039956347794284815,0,0)" xlink:href="#br"/><use transform="matrix(0.039956347794284815,0,0,0.039956347794284815,9.589523470628356,0)" xlink:href="#aX"/><use transform="matrix(0.039956347794284815,0,0,0.039956347794284815,17.58079302948532,0)" xlink:href="#bs"/><use transform="matrix(0.039956347794284815,0,0,0.039956347794284815,24.772935632456583,0)" xlink:href="#ap"/><use transform="matrix(0.039956347794284815,0,0,0.039956347794284815,29.52774101997648,0)" xlink:href="#aq"/><use transform="matrix(0.039956347794284815,0,0,0.039956347794284815,36.71988362294775,0)" xlink:href="#ar"/><use transform="matrix(0.039956347794284815,0,0,0.039956347794284815,44.711153181804704,0)" xlink:href="#as"/><use transform="matrix(0.039956347794284815,0,0,0.039956347794284815,48.70678796123319,0)" xlink:href="#aZ"/><use transform="matrix(0.039956347794284815,0,0,0.039956347794284815,51.86333943698169,0)" xlink:href="#at"/><use transform="matrix(0.039956347794284815,0,0,0.039956347794284815,59.85460899583865,0)" xlink:href="#aX"/></g><g id="Z"><use transform="matrix(0.05555555555555554,0,0,0.05555555555555554,0,0)" xlink:href="#an"/><use transform="matrix(0.05555555555555554,0,0,0.05555555555555554,13.333333333333329,0)" xlink:href="#aZ"/><use transform="matrix(0.05555555555555554,0,0,0.05555555555555554,17.722222222222214,0)" xlink:href="#bk"/><use transform="matrix(0.05555555555555554,0,0,0.05555555555555554,28.833333333333325,0)" xlink:href="#aX"/><use transform="matrix(0.05555555555555554,0,0,0.05555555555555554,39.94444444444443,0)" xlink:href="#aZ"/><use transform="matrix(0.05555555555555554,0,0,0.05555555555555554,44.333333333333314,0)" xlink:href="#aX"/><use transform="matrix(0.05555555555555554,0,0,0.05555555555555554,55.44444444444442,0)" xlink:href="#bk"/></g><path fill="#3a414a" d="M115-194c53 0 69 39 70 98 0 66-23 100-70 100C84 3 66-7 56-30L54 0H23l1-261h32v101c10-23 28-34 59-34zm-8 174c40 0 45-34 45-75 0-40-5-75-45-74-42 0-51 32-51 76 0 43 10 73 51 73" id="bt"/><g id="aa"><use transform="matrix(0.05555555555555554,0,0,0.05555555555555554,0,0)" xlink:href="#av"/><use transform="matrix(0.05555555555555554,0,0,0.05555555555555554,13.333333333333329,0)" xlink:href="#bl"/><use transform="matrix(0.05555555555555554,0,0,0.05555555555555554,24.444444444444436,0)" xlink:href="#bt"/><use transform="matrix(0.05555555555555554,0,0,0.05555555555555554,35.55555555555554,0)" xlink:href="#bb"/><use transform="matrix(0.05555555555555554,0,0,0.05555555555555554,39.94444444444443,0)" xlink:href="#aZ"/><use transform="matrix(0.05555555555555554,0,0,0.05555555555555554,44.333333333333314,0)" xlink:href="#bs"/></g><g id="ab"><use transform="matrix(0.05555555555555554,0,0,0.05555555555555554,0,0)" xlink:href="#al"/><use transform="matrix(0.05555555555555554,0,0,0.05555555555555554,13.333333333333329,0)" xlink:href="#ba"/><use transform="matrix(0.05555555555555554,0,0,0.05555555555555554,24.444444444444436,0)" xlink:href="#aq"/></g><g id="ac"><use transform="matrix(0.05555555555555554,0,0,0.05555555555555554,0,0)" xlink:href="#br"/><use transform="matrix(0.05555555555555554,0,0,0.05555555555555554,13.333333333333329,0)" xlink:href="#aX"/><use transform="matrix(0.05555555555555554,0,0,0.05555555555555554,24.444444444444436,0)" xlink:href="#bs"/><use transform="matrix(0.05555555555555554,0,0,0.05555555555555554,34.44444444444443,0)" xlink:href="#ap"/><use transform="matrix(0.05555555555555554,0,0,0.05555555555555554,41.055555555555536,0)" xlink:href="#aq"/><use transform="matrix(0.05555555555555554,0,0,0.05555555555555554,51.05555555555553,0)" xlink:href="#ar"/><use transform="matrix(0.05555555555555554,0,0,0.05555555555555554,62.166666666666636,0)" xlink:href="#as"/><use transform="matrix(0.05555555555555554,0,0,0.05555555555555554,67.72222222222219,0)" xlink:href="#aZ"/><use transform="matrix(0.05555555555555554,0,0,0.05555555555555554,72.11111111111107,0)" xlink:href="#at"/><use transform="matrix(0.05555555555555554,0,0,0.05555555555555554,83.22222222222217,0)" xlink:href="#aX"/></g><path fill="#333" d="M62-158H24l-5-90h48" id="bu"/><path fill="#333" d="M199 0l-22-63H83L61 0H9l90-248h61L250 0h-51zm-33-102l-36-108c-10 38-24 72-36 108h72" id="bv"/><g id="ad"><use transform="matrix(0.034868017871087,0,0,0.034868017871087,0,0)" xlink:href="#bu"/><use transform="matrix(0.034868017871087,0,0,0.034868017871087,2.9637815190423953,0)" xlink:href="#bv"/><use transform="matrix(0.034868017871087,0,0,0.034868017871087,11.994598147653932,0)" xlink:href="#bu"/></g><g id="ae"><use transform="matrix(0.034868017871087,0,0,0.034868017871087,0,0)" xlink:href="#aF"/><use transform="matrix(0.034868017871087,0,0,0.034868017871087,7.636095913768053,0)" xlink:href="#aB"/><use transform="matrix(0.034868017871087,0,0,0.034868017871087,14.609699487985454,0)" xlink:href="#aA"/><use transform="matrix(0.034868017871087,0,0,0.034868017871087,19.491221989937635,0)" xlink:href="#bo"/><use transform="matrix(0.034868017871087,0,0,0.034868017871087,23.640516116596988,0)" xlink:href="#az"/><use transform="matrix(0.034868017871087,0,0,0.034868017871087,31.27661203036504,0)" xlink:href="#aA"/><use transform="matrix(0.034868017871087,0,0,0.034868017871087,36.15813453231722,0)" xlink:href="#aQ"/><use transform="matrix(0.034868017871087,0,0,0.034868017871087,47.31590025106506,0)" xlink:href="#aN"/></g><g id="af"><use transform="matrix(0.034868017871087,0,0,0.034868017871087,0,0)" xlink:href="#az"/><use transform="matrix(0.034868017871087,0,0,0.034868017871087,7.636095913768053,0)" xlink:href="#aF"/><use transform="matrix(0.034868017871087,0,0,0.034868017871087,15.272191827536107,0)" xlink:href="#aB"/><use transform="matrix(0.034868017871087,0,0,0.034868017871087,22.245795401753508,0)" xlink:href="#aA"/><use transform="matrix(0.034868017871087,0,0,0.034868017871087,27.127317903705688,0)" xlink:href="#aD"/><use transform="matrix(0.034868017871087,0,0,0.034868017871087,34.10092147792309,0)" xlink:href="#ay"/><use transform="matrix(0.034868017871087,0,0,0.034868017871087,38.25021560458244,0)" xlink:href="#aJ"/><use transform="matrix(0.034868017871087,0,0,0.034868017871087,41.73701739169115,0)" xlink:href="#az"/><use transform="matrix(0.034868017871087,0,0,0.034868017871087,49.373113305459206,0)" xlink:href="#aS"/></g><g id="ag"><use transform="matrix(0.034868017871087,0,0,0.034868017871087,0,0)" xlink:href="#az"/><use transform="matrix(0.034868017871087,0,0,0.034868017871087,7.636095913768053,0)" xlink:href="#aS"/></g><path fill="#333" d="M182-130c37 4 62 22 62 59C244 23 116-4 24 0v-248c84 5 203-23 205 63 0 31-19 50-47 55zM76-148c40-3 101 13 101-30 0-44-60-28-101-31v61zm0 110c48-3 116 14 116-37 0-48-69-32-116-35v72" id="bw"/><g id="ah"><use transform="matrix(0.034868017871087,0,0,0.034868017871087,0,0)" xlink:href="#bu"/><use transform="matrix(0.034868017871087,0,0,0.034868017871087,2.9637815190423953,0)" xlink:href="#bw"/><use transform="matrix(0.034868017871087,0,0,0.034868017871087,11.994598147653932,0)" xlink:href="#bu"/></g><g id="ai"><use transform="matrix(0.04938271604938272,0,0,0.04938271604938272,0,0)" xlink:href="#aN"/><use transform="matrix(0.04938271604938272,0,0,0.04938271604938272,9.876543209876544,0)" xlink:href="#aJ"/><use transform="matrix(0.04938271604938272,0,0,0.04938271604938272,14.814814814814817,0)" xlink:href="#aR"/><use transform="matrix(0.04938271604938272,0,0,0.04938271604938272,25.629629629629633,0)" xlink:href="#aS"/><use transform="matrix(0.04938271604938272,0,0,0.04938271604938272,36.44444444444445,0)" xlink:href="#aN"/></g><g id="aj"><use transform="matrix(0.04938271604938272,0,0,0.04938271604938272,0,0)" xlink:href="#aG"/><use transform="matrix(0.04938271604938272,0,0,0.04938271604938272,10.814814814814815,0)" xlink:href="#aN"/><use transform="matrix(0.04938271604938272,0,0,0.04938271604938272,20.69135802469136,0)" xlink:href="#aJ"/><use transform="matrix(0.04938271604938272,0,0,0.04938271604938272,25.629629629629633,0)" xlink:href="#aS"/><use transform="matrix(0.04938271604938272,0,0,0.04938271604938272,36.44444444444445,0)" xlink:href="#aR"/></g><g id="ak"><use transform="matrix(0.04938271604938272,0,0,0.04938271604938272,0,0)" xlink:href="#aN"/><use transform="matrix(0.04938271604938272,0,0,0.04938271604938272,9.876543209876544,0)" xlink:href="#aJ"/><use transform="matrix(0.04938271604938272,0,0,0.04938271604938272,14.814814814814817,0)" xlink:href="#aR"/><use transform="matrix(0.04938271604938272,0,0,0.04938271604938272,25.629629629629633,0)" xlink:href="#aS"/><use transform="matrix(0.04938271604938272,0,0,0.04938271604938272,36.44444444444445,0)" xlink:href="#aJ"/><use transform="matrix(0.04938271604938272,0,0,0.04938271604938272,41.38271604938272,0)" xlink:href="#aS"/><use transform="matrix(0.04938271604938272,0,0,0.04938271604938272,52.19753086419754,0)" xlink:href="#aR"/></g></defs></g></svg>