<svg xmlns="http://www.w3.org/2000/svg" xmlns:xlink="http://www.w3.org/1999/xlink" xmlns:lucid="lucid" width="1479" height="640"><g transform="translate(-20 -300)" lucid:page-tab-id="0_0"><path d="M0 0h1870.4v1323.2H0z" fill="#fff"/><path d="M400 320h240v240H400z" stroke="#000" stroke-width="2" fill="#c1e4f7"/><use xlink:href="#a" transform="matrix(1,0,0,1,405,325) translate(68.6 97)"/><use xlink:href="#b" transform="matrix(1,0,0,1,405,325) translate(75.32499999999999 118.6)"/><use xlink:href="#c" transform="matrix(1,0,0,1,405,325) translate(78.07499999999999 140.2)"/><path d="M320 440h80v120h-80z" stroke="#000" stroke-width="2" fill="#c1e4f7"/><use xlink:href="#d" transform="matrix(1,0,0,1,325,445) translate(13.524999999999999 47.8)"/><use xlink:href="#e" transform="matrix(1,0,0,1,325,445) translate(20.5 69.4)"/><path d="M320 320h80v120h-80z" stroke="#000" stroke-width="2" fill="#c1e4f7"/><use xlink:href="#f" transform="matrix(1,0,0,1,325,325) translate(14.25 47.8)"/><use xlink:href="#e" transform="matrix(1,0,0,1,325,325) translate(20.5 69.4)"/><path d="M560 552c0 4.42-17.9 8-40 8s-40-3.58-40-8v-64c0-4.42 17.9-8 40-8s40 3.58 40 8z" stroke="#000" stroke-width="2" fill="#c1e4f7"/><path d="M560 488c0 4.42-17.9 8-40 8s-40-3.58-40-8" stroke="#000" stroke-width="2" fill="none"/><use xlink:href="#g" transform="matrix(1,0,0,1,485,501) translate(-0.9500000000000028 19.799999999999997)"/><use xlink:href="#h" transform="matrix(1,0,0,1,485,501) translate(14 41.4)"/><path d="M40 399.92L200 380v120H40z" stroke="#000" stroke-width="2" fill="#c1e4f7"/><use xlink:href="#g" transform="matrix(1,0,0,1,45,405) translate(39.05 27)"/><use xlink:href="#i" transform="matrix(1,0,0,1,45,405) translate(49.55 48.6)"/><use xlink:href="#j" transform="matrix(1,0,0,1,45,405) translate(61.025 70.2)"/><path d="M202 401.33h58V380h40.5" stroke="#000" stroke-width="2" fill="none"/><path d="M202.03 402.33H201v-2h1.03"/><path d="M315.76 380l-14.26 4.64v-9.28z" stroke="#000" stroke-width="2"/><path d="M318 500h-58v-78.67h-40.5" stroke="#000" stroke-width="2" fill="none"/><path d="M319 501h-1.03v-2H319"/><path d="M204.24 421.33l14.26-4.63v9.27z" stroke="#000" stroke-width="2"/><path d="M478 541.33h-28V500h-30.5" stroke="#000" stroke-width="2" fill="none"/><path d="M479 542.33h-1.03v-2H479"/><path d="M404.24 500l14.26-4.64v9.28z" stroke="#000" stroke-width="2"/><path d="M402 380h55v124h3.5" stroke="#000" stroke-width="2" fill="none"/><path d="M402.03 381H401v-2h1.03"/><path d="M475.76 504l-14.26 4.64v-9.28z" stroke="#000" stroke-width="2"/><path d="M1207 320h240v240h-240z" stroke="#000" stroke-width="2" fill="#c7e8ac"/><use xlink:href="#k" transform="matrix(1,0,0,1,1212,325) translate(82.07499999999999 97)"/><use xlink:href="#b" transform="matrix(1,0,0,1,1212,325) translate(75.32499999999999 118.6)"/><use xlink:href="#c" transform="matrix(1,0,0,1,1212,325) translate(78.07499999999999 140.2)"/><path d="M1127 320h80v80h-80z" stroke="#000" stroke-width="2" fill="#c7e8ac"/><use xlink:href="#d" transform="matrix(1,0,0,1,1132,325) translate(13.524999999999999 27.799999999999997)"/><use xlink:href="#e" transform="matrix(1,0,0,1,1132,325) translate(20.5 49.4)"/><path d="M1127 400h80v80h-80z" stroke="#000" stroke-width="2" fill="#c7e8ac"/><use xlink:href="#f" transform="matrix(1,0,0,1,1132,405) translate(14.25 27.799999999999997)"/><use xlink:href="#e" transform="matrix(1,0,0,1,1132,405) translate(20.5 49.4)"/><path d="M1367 392c0 4.42-17.9 8-40 8s-40-3.58-40-8v-64c0-4.42 17.9-8 40-8s40 3.58 40 8z" stroke="#000" stroke-width="2" fill="#c7e8ac"/><path d="M1367 328c0 4.42-17.9 8-40 8s-40-3.58-40-8" stroke="#000" stroke-width="2" fill="none"/><use xlink:href="#g" transform="matrix(1,0,0,1,1292,341) translate(-0.9500000000000028 19.799999999999997)"/><use xlink:href="#h" transform="matrix(1,0,0,1,1292,341) translate(14 41.4)"/><path d="M1285 344h-28v16h-30.5" stroke="#000" stroke-width="2" fill="none"/><path d="M1286 345h-1.03v-2h1.03"/><path d="M1211.24 360l14.26-4.64v9.28z" stroke="#000" stroke-width="2"/><path d="M1209 440h38v-62.67h20.5" stroke="#000" stroke-width="2" fill="none"/><path d="M1209.03 441H1208v-2h1.03"/><path d="M1282.76 377.33l-14.26 4.64v-9.27z" stroke="#000" stroke-width="2"/><path d="M1127 480h80v80h-80z" stroke="#000" stroke-width="2" fill="#c7e8ac"/><use xlink:href="#l" transform="matrix(1,0,0,1,1132,485) translate(5.549999999999997 27.799999999999997)"/><use xlink:href="#e" transform="matrix(1,0,0,1,1132,485) translate(20.5 49.4)"/><path d="M642 440h188v80h277.5" stroke="#000" stroke-width="2" fill="none"/><path d="M642.03 441H641v-2h1.03"/><path d="M1122.76 520l-14.26 4.64v-9.28z" stroke="#000" stroke-width="2"/><use xlink:href="#l" transform="matrix(1,0,0,1,714.2333333333333,444) translate(21.655 14.4)"/><use xlink:href="#m" transform="matrix(1,0,0,1,714.2333333333333,444) translate(15.155000000000001 36)"/><use xlink:href="#n" transform="matrix(1,0,0,1,714.2333333333333,444) translate(0.005000000000002558 57.6)"/><path d="M561.7 517.97l1.4-1.36m5.5-5.4l2.75-2.7m5.5-5.43l2.76-2.7m5.52-5.42l2.76-2.7m5.5-5.43l2.76-2.7m5.5-5.42l2.76-2.7m5.5-5.43l2.76-2.7m5.5-5.42l2.76-2.7m5.5-5.42l1.4-1.36" stroke="#000" stroke-width="2" fill="none"/><path d="M562.43 518.66l-1.43 1.4v-2.8l.03-.03"/><path d="M638.7 442.27l-6.93 13.3-6.5-6.6z" stroke="#000" stroke-width="2"/><use xlink:href="#o" transform="matrix(1,0,0,1,577.9426356945162,495.95465776843446) translate(21.48 14.4)"/><use xlink:href="#p" transform="matrix(1,0,0,1,577.9426356945162,495.95465776843446) translate(0.004999999999999005 36)"/><path d="M1367 552c0 4.42-17.9 8-40 8s-40-3.58-40-8v-64c0-4.42 17.9-8 40-8s40 3.58 40 8z" stroke="#000" stroke-width="2" fill="#c7e8ac"/><path d="M1367 488c0 4.42-17.9 8-40 8s-40-3.58-40-8" stroke="#000" stroke-width="2" fill="none"/><use xlink:href="#q" transform="matrix(1,0,0,1,1292,501) translate(2.0249999999999986 19.799999999999997)"/><use xlink:href="#n" transform="matrix(1,0,0,1,1292,501) translate(-16.1 41.4)"/><path d="M1209 520h58.5" stroke="#000" stroke-width="2" fill="none"/><path d="M1209.03 521H1208v-2h1.03"/><path d="M1282.76 520l-14.26 4.64v-9.28z" stroke="#000" stroke-width="2"/><path d="M1389 521h-20v-2h18v-30.87h2m0-21.6h-2V393h-.5v-2h2.5"/><path d="M1369.03 521H1368v-2h1.03M1385.5 396.64l-14.26-4.64 14.26-4.64z"/><path d="M1386.5 398l-18.5-6 18.5-6m-12.03 6l10.03 3.26v-6.52"/><use xlink:href="#r" transform="matrix(1,0,0,1,1349.525,466.5333333333333) translate(0 14.4)"/><path d="M720 800h160v120H720z" stroke="#000" stroke-width="2" fill="#a3d977"/><use xlink:href="#s" transform="matrix(1,0,0,1,725,805) translate(31.525 58.6)"/><path d="M1489 887.67H899.5v-2H1487V441h-38v-2h40"/><path d="M1449.03 441H1448v-2h1.03M898.5 891.3l-14.26-4.63 14.26-4.64z"/><path d="M899.5 892.68l-18.5-6 18.5-6.03m-12.03 6.02l10.03 3.26v-6.52"/><use xlink:href="#t" transform="matrix(1,0,0,1,902.0621074128153,895.3019215822909) translate(0 14.4)"/><use xlink:href="#u" transform="matrix(1,0,0,1,902.0621074128153,895.3019215822909) translate(68.80000000000001 14.4)"/><use xlink:href="#v" transform="matrix(1,0,0,1,902.0621074128153,895.3019215822909) translate(129.60000000000002 14.4)"/><use xlink:href="#w" transform="matrix(1,0,0,1,902.0621074128153,895.3019215822909) translate(167.55 14.4)"/><use xlink:href="#x" transform="matrix(1,0,0,1,902.0621074128153,895.3019215822909) translate(244.45000000000002 14.4)"/><path d="M1435.62 426.2l-1.4 1.42-2.22-2.2 1.42-1.42m-2.95-2.94l-1.4 1.4-4.42-4.4 1.4-1.4m-2.93-2.96l-1.42 1.42-4.4-4.42 1.4-1.4m-2.94-2.95l-1.4 1.4-4.43-4.4 1.42-1.42m-2.95-2.94l-1.4 1.4-4.42-4.4 1.4-1.42m-2.93-2.95l-1.42 1.42-4.4-4.42 1.4-1.4m-2.94-2.95l-1.42 1.4-4.42-4.4 1.42-1.42m-2.95-2.94l-1.4 1.4-4.42-4.4 1.42-1.4m-2.94-2.96l-1.42 1.42-4.4-4.42 1.4-1.4m-2.94-2.95l-1.4 1.42-2.22-2.2 1.4-1.42"/><path d="M1369.43 360.02l-1.4 1.4-.03-2.83M1445.7 437.7l-13.35-6.8 6.55-6.55z"/><path d="M1448 440l-17.33-8.83 8.5-8.5m-5.14 7.97l9.4 4.78-4.8-9.4"/><use xlink:href="#o" transform="matrix(1,0,0,1,1398.0496446572527,352.8753553427475) translate(21.48 14.4)"/><use xlink:href="#p" transform="matrix(1,0,0,1,1398.0496446572527,352.8753553427475) translate(0.004999999999999005 36)"/><path d="M900 359.92L1060 340v120H900z" stroke="#000" stroke-width="2" fill="#c7e8ac"/><use xlink:href="#g" transform="matrix(1,0,0,1,905,365) translate(39.05 27)"/><use xlink:href="#i" transform="matrix(1,0,0,1,905,365) translate(49.55 48.6)"/><use xlink:href="#j" transform="matrix(1,0,0,1,905,365) translate(61.025 70.2)"/><path d="M1125 360h-45.5" stroke="#000" stroke-width="2" fill="none"/><path d="M1126 361h-1.03v-2h1.03"/><path d="M1064.24 360l14.26-4.64v9.28z" stroke="#000" stroke-width="2"/><path d="M1062 428h31.5v12h14" stroke="#000" stroke-width="2" fill="none"/><path d="M1062.03 429H1061v-2h1.03"/><path d="M1122.76 440l-14.26 4.64v-9.28z" stroke="#000" stroke-width="2"/><path d="M380 601.6h260v120H380z" stroke="#000" stroke-width="2" fill="#c1e4f7"/><use xlink:href="#g" transform="matrix(1,0,0,1,385,606.5999999999767) translate(89.05 47.8)"/><use xlink:href="#y" transform="matrix(1,0,0,1,385,606.5999999999767) translate(102.075 69.4)"/><path d="M640 713.95c0 3.67-17.9 6.65-40 6.65s-40-2.98-40-6.65v-53.2c0-3.67 17.9-6.65 40-6.65s40 2.98 40 6.65z" stroke="#000" stroke-width="2" fill="#c1e4f7"/><path d="M640 660.75c0 3.67-17.9 6.65-40 6.65s-40-2.98-40-6.65" stroke="#000" stroke-width="2" fill="none"/><use xlink:href="#g" transform="matrix(1,0,0,1,565,672.3999999999767) translate(-0.9500000000000028 14.799999999999999)"/><use xlink:href="#h" transform="matrix(1,0,0,1,565,672.3999999999767) translate(14 36.4)"/><path d="M718 860H510V741.1" stroke="#000" stroke-width="2" fill="none"/><path d="M719 861h-1.03v-2H719"/><path d="M510 725.84l4.64 14.26h-9.28z" stroke="#000" stroke-width="2"/><use xlink:href="#z" transform="matrix(1,0,0,1,518,800.1912443195605) translate(0 14.4)"/><use xlink:href="#A" transform="matrix(1,0,0,1,518,800.1912443195605) translate(0 36)"/><use xlink:href="#x" transform="matrix(1,0,0,1,518,800.1912443195605) translate(76.9 36)"/><path d="M320 601.6h60v120h-60z" stroke="#000" stroke-width="2" fill="#c1e4f7"/><use xlink:href="#B" transform="matrix(1,0,0,1,325,606.5999999999767) translate(2.0749999999999993 47.8)"/><use xlink:href="#e" transform="matrix(1,0,0,1,325,606.5999999999767) translate(10.5 69.4)"/><path d="M510.8 722.02L544 698.15" stroke="#000" stroke-width="2" fill="none"/><path d="M511.26 722.6h-2.97l1.95-1.4"/><path d="M556.37 689.24l-8.87 12.1-5.4-7.53z" stroke="#000" stroke-width="2"/><path d="M600 652.1V628H399.5" stroke="#000" stroke-width="2" fill="none"/><path d="M601 653.15l-1-.05-1 .03v-1.06h2"/><path d="M384.24 628l14.26-4.64v9.28z" stroke="#000" stroke-width="2"/><path d="M1187 600.6h253v120h-253z" stroke="#000" stroke-width="2" fill="#c7e8ac"/><use xlink:href="#g" transform="matrix(1,0,0,1,1192,605.5999999999767) translate(85.55 47.8)"/><use xlink:href="#y" transform="matrix(1,0,0,1,1192,605.5999999999767) translate(98.575 69.4)"/><path d="M1433 713.95c0 3.67-16.34 6.65-36.5 6.65s-36.5-2.98-36.5-6.65v-53.2c0-3.67 16.34-6.65 36.5-6.65s36.5 2.98 36.5 6.65z" stroke="#000" stroke-width="2" fill="#c7e8ac"/><path d="M1433 660.75c0 3.67-16.34 6.65-36.5 6.65s-36.5-2.98-36.5-6.65" stroke="#000" stroke-width="2" fill="none"/><use xlink:href="#g" transform="matrix(1,0,0,1,1365,672.3999999999767) translate(-4.450000000000003 14.799999999999999)"/><use xlink:href="#h" transform="matrix(1,0,0,1,1365,672.3999999999767) translate(10.5 36.4)"/><path d="M1127 600.6h60v120h-60z" stroke="#000" stroke-width="2" fill="#c7e8ac"/><g><use xlink:href="#B" transform="matrix(1,0,0,1,1132,605.5999999999767) translate(2.0749999999999993 47.8)"/><use xlink:href="#e" transform="matrix(1,0,0,1,1132,605.5999999999767) translate(10.5 69.4)"/></g><path d="M1314.3 721l29.92-22.52" stroke="#000" stroke-width="2" fill="none"/><path d="M1314.78 721.6h-2.94l1.88-1.42"/><path d="M1356.42 689.3l-8.6 12.28-5.6-7.4z" stroke="#000" stroke-width="2"/><path d="M1396.5 652.1v-18.77h-190" stroke="#000" stroke-width="2" fill="none"/><path d="M1397.5 653.16l-.98-.06-1.02.03v-1.06h2"/><path d="M1191.24 633.33l14.26-4.63v9.27z" stroke="#000" stroke-width="2"/><path d="M800 798v-37.7h513.5v-20.2" stroke="#000" stroke-width="2" fill="none"/><path d="M801 799h-2v-1.03h2"/><path d="M1313.5 724.84l4.64 14.26h-9.28z" stroke="#000" stroke-width="2"/><g><use xlink:href="#z" transform="matrix(1,0,0,1,854.0209900991772,713.0999999999884) translate(0 14.4)"/><use xlink:href="#A" transform="matrix(1,0,0,1,854.0209900991772,713.0999999999884) translate(0 36)"/><use xlink:href="#x" transform="matrix(1,0,0,1,854.0209900991772,713.0999999999884) translate(76.9 36)"/></g><path d="M1489 830.33h-4.32v-2h2.32v-1.66h2m-8.3 3.66h-6v-2h6m-9.98 2h-5.98v-2h5.98m-9.97 2h-5.98v-2h5.98m-9.97 2h-5.98v-2h5.98m-9.96 2h-6v-2h6m-9.97 2h-6v-2h6m-9.97 2h-5.98v-2h5.98m-9.97 2h-5.97v-2h5.98m-9.96 2h-5.98v-2h5.98m-9.97 2H1385v-2h5.97m-9.97 2h-5.98v-2h5.98m-9.97 2h-5.98v-2h5.98m-9.97 2h-5.98v-2h5.98m-9.97 2h-6v-2h6m-9.97 2h-6v-2h6m-9.97 2h-5.98v-2h5.98m-9.97 2h-6v-2h6m-9.98 2h-5.98v-2h5.98m-9.97 2h-5.98v-2h5.98m-9.97 2h-5.98v-2h5.98m-9.97 2h-5.97v-2h5.98m-9.96 2h-5.98v-2h5.98m-9.97 2h-5.98v-2h5.97m-9.96 2h-5.98v-2h6m-9.98 2h-5.98v-2h5.98m-9.97 2h-5.98v-2h5.97m-9.97 2h-5.98v-2h5.98m-9.97 2h-5.98v-2h5.98m-9.97 2h-5.98v-2h5.98m-9.97 2h-6v-2h6m-9.98 2h-5.98v-2h5.98m-9.97 2h-5.98v-2h5.98m-9.97 2h-5.98v-2h5.98m-9.96 2h-6v-2h6m-9.97 2h-5.98v-2h5.98m-9.97 2h-5.98v-2h5.98m-9.97 2h-5.97v-2h5.98m-9.96 2h-5.98v-2h5.98m-9.97 2h-5.98v-2h5.97m-9.97 2h-5.98v-2h5.98m-9.97 2h-5.98v-2h5.98m-9.97 2h-5.98v-2h5.98m-9.96 2h-6v-2h6m-9.97 2h-5.98v-2h5.98m-9.97 2h-5.98v-2h5.98m-9.97 2h-6v-2h6m-9.98 2h-5.98v-2h5.98m-9.97 2h-5.98v-2h5.98m-9.97 2h-5.98v-2h5.98m-9.97 2h-5.97v-2h5.98m-9.96 2h-5.98v-2h5.98m-9.96 2h-6v-2h6m-9.97 2h-5.98v-2h6m-9.98 2h-5.98v-2h5.98m-9.97 2h-5.98v-2h5.97m-9.97 2h-5.98v-2h5.98m-9.97 2h-5.98v-2h5.98m-9.97 2h-5.98v-2h5.98m-9.97 2h-3v-2h3m586.5-5.64h-2v-6h2m0-3.98h-2v-5.98h2m0-4h-2v-5.97h2m0-4h-2v-5.97h2m0-4h-2v-5.97h2m0-4h-2v-5.97h2m0-4h-2v-5.97h2m0-4h-2v-5.98h2m0-4h-2v-5.97h2m0-3.98h-2v-6h2m0-3.97h-2v-5.98h2m0-4h-2v-5.97h2m0-4h-2v-5.97h2m0-4h-2v-5.97h2m0-3.98h-2v-5.98h2m0-4h-2v-5.97h2m0-4h-2v-5.97h2m0-4h-2v-5.97h2m0-3.98h-2v-6h2m0-3.97h-2v-6h2m0-3.97h-2v-5.97h2m0-4h-2v-5.97h2m0-4h-2v-5.97h2m0-4h-2v-5.98h2m0-4h-2v-5.97h2m0-4h-2v-5.97h2m0-4h-2v-5.97h2m0-3.98h-2v-5.98h2m0-3.98h-2v-6h2m0-3.97h-2v-6h2m0-3.98h-2v-5.98h2m0-4h-2v-5.97h2m0-4h-2v-5.97h2m0-4h-2v-5.97h2m0-4h-2v-5.97h2m0-4h-2v-5.97h2m0-4h-2v-5.98h2m0-3.98h-2v-6h2m0-3.97h-2V441h-1.1v-2h3.1m-37 2h-3v-2h3m9.96 2h-5.98v-2h5.98m9.97 2h-5.98v-2h5.98m9.97 2h-5.98v-2h5.98"/><path d="M1449.03 441H1448v-2h1.03M898.5 833.97l-14.26-4.64 14.26-4.63z"/><path d="M899.5 835.35l-18.5-6.02 18.5-6m-12.03 6l10.03 3.26v-6.53"/><g><use xlink:href="#C" transform="matrix(1,0,0,1,911.0749434318186,837.9685882489576) translate(0 14.4)"/><use xlink:href="#D" transform="matrix(1,0,0,1,911.0749434318186,837.9685882489576) translate(50.900000000000006 14.4)"/><use xlink:href="#v" transform="matrix(1,0,0,1,911.0749434318186,837.9685882489576) translate(75.9 14.4)"/><use xlink:href="#E" transform="matrix(1,0,0,1,911.0749434318186,837.9685882489576) translate(113.85000000000001 14.4)"/></g><path d="M318 641.33h-68V440h-30.5" stroke="#000" stroke-width="2" fill="none"/><path d="M319 642.33h-1.03v-2H319"/><path d="M204.24 440l14.26-4.64v9.28z" stroke="#000" stroke-width="2"/><path d="M1125 660.6h-31.5V378.67h-14" stroke="#000" stroke-width="2" fill="none"/><path d="M1126 661.6h-1.03v-2h1.03"/><path d="M1064.24 378.67l14.26-4.64v9.27z" stroke="#000" stroke-width="2"/><path d="M40 680h160v120H40z" stroke="#000" stroke-width="2" fill="#e5e5e5"/><g><use xlink:href="#F" transform="matrix(1,0,0,1,45,685) translate(17.549999999999997 37)"/><use xlink:href="#G" transform="matrix(1,0,0,1,45,685) translate(62.55 37)"/><use xlink:href="#H" transform="matrix(1,0,0,1,45,685) translate(127.45 37)"/><use xlink:href="#I" transform="matrix(1,0,0,1,45,685) translate(52.525 58.6)"/><use xlink:href="#J" transform="matrix(1,0,0,1,45,685) translate(24.049999999999997 80.20000000000002)"/></g><path d="M318 684h-58v56h-40.5" stroke="#000" stroke-width="2" fill="none"/><path d="M319 685h-1.03v-2H319"/><path d="M204.24 740l14.26-4.64v9.28z" stroke="#000" stroke-width="2"/><path d="M1125 690.67H754.67v89.83" stroke="#000" stroke-width="2" fill="none"/><path d="M1126 691.67h-1.03v-2h1.03"/><path d="M754.67 795.76l-4.64-14.26h9.27z" stroke="#000" stroke-width="2"/><defs><path d="M24-248c93 1 206-16 204 79-1 75-69 88-152 82V0H24v-248zm52 121c47 0 100 7 100-41 0-47-54-39-100-39v80" id="K"/><path d="M133-34C117-15 103 5 69 4 32 3 11-16 11-54c-1-60 55-63 116-61 1-26-3-47-28-47-18 1-26 9-28 27l-52-2c7-38 36-58 82-57s74 22 75 68l1 82c-1 14 12 18 25 15v27c-30 8-71 5-69-32zm-48 3c29 0 43-24 42-57-32 0-66-3-65 30 0 17 8 27 23 27" id="L"/><path d="M135-150c-39-12-60 13-60 57V0H25l-1-190h47c2 13-1 29 3 40 6-28 27-53 61-41v41" id="M"/><path d="M115-3C79 11 28 4 28-45v-112H4v-33h27l15-45h31v45h36v33H77v99c-1 23 16 31 38 25v30" id="N"/><path d="M25-224v-37h50v37H25zM25 0v-190h50V0H25" id="O"/><path d="M190-63c-7 42-38 67-86 67-59 0-84-38-90-98-12-110 154-137 174-36l-49 2c-2-19-15-32-35-32-30 0-35 28-38 64-6 74 65 87 74 30" id="P"/><path d="M135-194c53 0 70 44 70 98 0 56-19 98-73 100-31 1-45-17-59-34 3 33 2 69 2 105H25l-1-265h48c2 10 0 23 3 31 11-24 29-35 60-35zM114-30c33 0 39-31 40-66 0-38-9-64-40-64-56 0-55 130 0 130" id="Q"/><path d="M135-194c87-1 58 113 63 194h-50c-7-57 23-157-34-157-59 0-34 97-39 157H25l-1-190h47c2 12-1 28 3 38 12-26 28-41 61-42" id="R"/><g id="a"><use transform="matrix(0.05,0,0,0.05,0,0)" xlink:href="#K"/><use transform="matrix(0.05,0,0,0.05,12,0)" xlink:href="#L"/><use transform="matrix(0.05,0,0,0.05,22,0)" xlink:href="#M"/><use transform="matrix(0.05,0,0,0.05,29,0)" xlink:href="#N"/><use transform="matrix(0.05,0,0,0.05,34.95,0)" xlink:href="#O"/><use transform="matrix(0.05,0,0,0.05,39.95,0)" xlink:href="#P"/><use transform="matrix(0.05,0,0,0.05,49.95,0)" xlink:href="#O"/><use transform="matrix(0.05,0,0,0.05,54.95,0)" xlink:href="#Q"/><use transform="matrix(0.05,0,0,0.05,65.9,0)" xlink:href="#L"/><use transform="matrix(0.05,0,0,0.05,75.9,0)" xlink:href="#R"/><use transform="matrix(0.05,0,0,0.05,86.85000000000001,0)" xlink:href="#N"/></g><path d="M136-208V0H84v-208H4v-40h212v40h-80" id="S"/><path d="M110-194c64 0 96 36 96 99 0 64-35 99-97 99-61 0-95-36-95-99 0-62 34-99 96-99zm-1 164c35 0 45-28 45-65 0-40-10-65-43-65-34 0-45 26-45 65 0 36 10 65 43 65" id="T"/><path d="M25 0v-261h50V0H25" id="U"/><path d="M195-6C206 82 75 100 31 46c-4-6-6-13-8-21l49-6c3 16 16 24 34 25 40 0 42-37 40-79-11 22-30 35-61 35-53 0-70-43-70-97 0-56 18-96 73-97 30 0 46 14 59 34l2-30h47zm-90-29c32 0 41-27 41-63 0-35-9-62-40-62-32 0-39 29-40 63 0 36 9 62 39 62" id="V"/><path d="M123 10C108 53 80 86 19 72V37c35 8 53-11 59-39L3-190h52l48 148c12-52 28-100 44-148h51" id="W"/><g id="b"><use transform="matrix(0.05,0,0,0.05,0,0)" xlink:href="#S"/><use transform="matrix(0.05,0,0,0.05,9.600000000000001,0)" xlink:href="#T"/><use transform="matrix(0.05,0,0,0.05,20.550000000000004,0)" xlink:href="#Q"/><use transform="matrix(0.05,0,0,0.05,31.500000000000007,0)" xlink:href="#T"/><use transform="matrix(0.05,0,0,0.05,42.45000000000001,0)" xlink:href="#U"/><use transform="matrix(0.05,0,0,0.05,47.45000000000001,0)" xlink:href="#T"/><use transform="matrix(0.05,0,0,0.05,58.40000000000001,0)" xlink:href="#V"/><use transform="matrix(0.05,0,0,0.05,69.35000000000001,0)" xlink:href="#W"/></g><path d="M230 0l2-204L168 0h-37L68-204 70 0H24v-248h70l56 185 57-185h69V0h-46" id="X"/><path d="M185-48c-13 30-37 53-82 52C43 2 14-33 14-96s30-98 90-98c62 0 83 45 84 108H66c0 31 8 55 39 56 18 0 30-7 34-22zm-45-69c5-46-57-63-70-21-2 6-4 13-4 21h74" id="Y"/><g id="c"><use transform="matrix(0.05,0,0,0.05,0,0)" xlink:href="#X"/><use transform="matrix(0.05,0,0,0.05,14.950000000000001,0)" xlink:href="#L"/><use transform="matrix(0.05,0,0,0.05,24.950000000000003,0)" xlink:href="#R"/><use transform="matrix(0.05,0,0,0.05,35.900000000000006,0)" xlink:href="#L"/><use transform="matrix(0.05,0,0,0.05,45.900000000000006,0)" xlink:href="#V"/><use transform="matrix(0.05,0,0,0.05,56.85,0)" xlink:href="#Y"/><use transform="matrix(0.05,0,0,0.05,66.85000000000001,0)" xlink:href="#M"/></g><path d="M233-177c-1 41-23 64-60 70L243 0h-38l-65-103H63V0H30v-248c88 3 205-21 203 71zM63-129c60-2 137 13 137-47 0-61-80-42-137-45v92" id="Z"/><path d="M100-194c63 0 86 42 84 106H49c0 40 14 67 53 68 26 1 43-12 49-29l28 8c-11 28-37 45-77 45C44 4 14-33 15-96c1-61 26-98 85-98zm52 81c6-60-76-77-97-28-3 7-6 17-6 28h103" id="aa"/><path d="M141-36C126-15 110 5 73 4 37 3 15-17 15-53c-1-64 63-63 125-63 3-35-9-54-41-54-24 1-41 7-42 31l-33-3c5-37 33-52 76-52 45 0 72 20 72 64v82c-1 20 7 32 28 27v20c-31 9-61-2-59-35zM48-53c0 20 12 33 32 33 41-3 63-29 60-74-43 2-92-5-92 41" id="ab"/><path d="M85-194c31 0 48 13 60 33l-1-100h32l1 261h-30c-2-10 0-23-3-31C134-8 116 4 85 4 32 4 16-35 15-94c0-66 23-100 70-100zm9 24c-40 0-46 34-46 75 0 40 6 74 45 74 42 0 51-32 51-76 0-42-9-74-50-73" id="ac"/><g id="d"><use transform="matrix(0.05,0,0,0.05,0,0)" xlink:href="#Z"/><use transform="matrix(0.05,0,0,0.05,12.950000000000001,0)" xlink:href="#aa"/><use transform="matrix(0.05,0,0,0.05,22.950000000000003,0)" xlink:href="#ab"/><use transform="matrix(0.05,0,0,0.05,32.95,0)" xlink:href="#ac"/></g><path d="M205 0l-28-72H64L36 0H1l101-248h38L239 0h-34zm-38-99l-47-123c-12 45-31 82-46 123h93" id="ad"/><path d="M30-248c87 1 191-15 191 75 0 78-77 80-158 76V0H30v-248zm33 125c57 0 124 11 124-50 0-59-68-47-124-48v98" id="ae"/><path d="M33 0v-248h34V0H33" id="af"/><g id="e"><use transform="matrix(0.05,0,0,0.05,0,0)" xlink:href="#ad"/><use transform="matrix(0.05,0,0,0.05,12,0)" xlink:href="#ae"/><use transform="matrix(0.05,0,0,0.05,24,0)" xlink:href="#af"/></g><path d="M266 0h-40l-56-210L115 0H75L2-248h35L96-30l15-64 43-154h32l59 218 59-218h35" id="ag"/><path d="M114-163C36-179 61-72 57 0H25l-1-190h30c1 12-1 29 2 39 6-27 23-49 58-41v29" id="ah"/><path d="M24-231v-30h32v30H24zM24 0v-190h32V0H24" id="ai"/><path d="M59-47c-2 24 18 29 38 22v24C64 9 27 4 27-40v-127H5v-23h24l9-43h21v43h35v23H59v120" id="aj"/><g id="f"><use transform="matrix(0.05,0,0,0.05,0,0)" xlink:href="#ag"/><use transform="matrix(0.05,0,0,0.05,16.599999999999998,0)" xlink:href="#ah"/><use transform="matrix(0.05,0,0,0.05,22.549999999999997,0)" xlink:href="#ai"/><use transform="matrix(0.05,0,0,0.05,26.499999999999996,0)" xlink:href="#aj"/><use transform="matrix(0.05,0,0,0.05,31.499999999999996,0)" xlink:href="#aa"/></g><path d="M127-220V0H93v-220H8v-28h204v28h-85" id="ak"/><path d="M100-194c62-1 85 37 85 99 1 63-27 99-86 99S16-35 15-95c0-66 28-99 85-99zM99-20c44 1 53-31 53-75 0-43-8-75-51-75s-53 32-53 75 10 74 51 75" id="al"/><path d="M115-194c55 1 70 41 70 98S169 2 115 4C84 4 66-9 55-30l1 105H24l-1-265h31l2 30c10-21 28-34 59-34zm-8 174c40 0 45-34 45-75s-6-73-45-74c-42 0-51 32-51 76 0 43 10 73 51 73" id="am"/><path d="M24 0v-261h32V0H24" id="an"/><path d="M177-190C167-65 218 103 67 71c-23-6-38-20-44-43l32-5c15 47 100 32 89-28v-30C133-14 115 1 83 1 29 1 15-40 15-95c0-56 16-97 71-98 29-1 48 16 59 35 1-10 0-23 2-32h30zM94-22c36 0 50-32 50-73 0-42-14-75-50-75-39 0-46 34-46 75s6 73 46 73" id="ao"/><path d="M179-190L93 31C79 59 56 82 12 73V49c39 6 53-20 64-50L1-190h34L92-34l54-156h33" id="ap"/><g id="g"><use transform="matrix(0.05,0,0,0.05,0,0)" xlink:href="#ak"/><use transform="matrix(0.05,0,0,0.05,8.950000000000001,0)" xlink:href="#al"/><use transform="matrix(0.05,0,0,0.05,18.950000000000003,0)" xlink:href="#am"/><use transform="matrix(0.05,0,0,0.05,28.950000000000003,0)" xlink:href="#al"/><use transform="matrix(0.05,0,0,0.05,38.95,0)" xlink:href="#an"/><use transform="matrix(0.05,0,0,0.05,42.900000000000006,0)" xlink:href="#al"/><use transform="matrix(0.05,0,0,0.05,52.900000000000006,0)" xlink:href="#ao"/><use transform="matrix(0.05,0,0,0.05,62.900000000000006,0)" xlink:href="#ap"/></g><path d="M185-189c-5-48-123-54-124 2 14 75 158 14 163 119 3 78-121 87-175 55-17-10-28-26-33-46l33-7c5 56 141 63 141-1 0-78-155-14-162-118-5-82 145-84 179-34 5 7 8 16 11 25" id="aq"/><g id="h"><use transform="matrix(0.05,0,0,0.05,0,0)" xlink:href="#aq"/><use transform="matrix(0.05,0,0,0.05,12,0)" xlink:href="#aj"/><use transform="matrix(0.05,0,0,0.05,17,0)" xlink:href="#ab"/><use transform="matrix(0.05,0,0,0.05,27,0)" xlink:href="#aj"/><use transform="matrix(0.05,0,0,0.05,32,0)" xlink:href="#aa"/></g><path d="M210-169c-67 3-38 105-44 169h-31v-121c0-29-5-50-35-48C34-165 62-65 56 0H25l-1-190h30c1 10-1 24 2 32 10-44 99-50 107 0 11-21 27-35 58-36 85-2 47 119 55 194h-31v-121c0-29-5-49-35-48" id="ar"/><path d="M117-194c89-4 53 116 60 194h-32v-121c0-31-8-49-39-48C34-167 62-67 57 0H25l-1-190h30c1 10-1 24 2 32 11-22 29-35 61-36" id="as"/><g id="i"><use transform="matrix(0.05,0,0,0.05,0,0)" xlink:href="#ad"/><use transform="matrix(0.05,0,0,0.05,12,0)" xlink:href="#ac"/><use transform="matrix(0.05,0,0,0.05,22,0)" xlink:href="#ar"/><use transform="matrix(0.05,0,0,0.05,36.95,0)" xlink:href="#ai"/><use transform="matrix(0.05,0,0,0.05,40.900000000000006,0)" xlink:href="#as"/></g><path d="M212-179c-10-28-35-45-73-45-59 0-87 40-87 99 0 60 29 101 89 101 43 0 62-24 78-52l27 14C228-24 195 4 139 4 59 4 22-46 18-125c-6-104 99-153 187-111 19 9 31 26 39 46" id="at"/><path d="M30 0v-248h33v221h125V0H30" id="au"/><g id="j"><use transform="matrix(0.05,0,0,0.05,0,0)" xlink:href="#at"/><use transform="matrix(0.05,0,0,0.05,12.950000000000001,0)" xlink:href="#au"/><use transform="matrix(0.05,0,0,0.05,22.950000000000003,0)" xlink:href="#af"/></g><path d="M24-248c120-7 223 5 221 122C244-46 201 0 124 0H24v-248zM76-40c74 7 117-18 117-86 0-67-45-88-117-82v168" id="av"/><path d="M220-157c-53 9-28 100-34 157h-49v-107c1-27-5-49-29-50C55-147 81-57 75 0H25l-1-190h47c2 12-1 28 3 38 10-53 101-56 108 0 13-22 24-43 59-42 82 1 51 116 57 194h-49v-107c-1-25-5-48-29-50" id="aw"/><g id="k"><use transform="matrix(0.05,0,0,0.05,0,0)" xlink:href="#av"/><use transform="matrix(0.05,0,0,0.05,12.950000000000001,0)" xlink:href="#T"/><use transform="matrix(0.05,0,0,0.05,23.900000000000002,0)" xlink:href="#aw"/><use transform="matrix(0.05,0,0,0.05,39.900000000000006,0)" xlink:href="#L"/><use transform="matrix(0.05,0,0,0.05,49.900000000000006,0)" xlink:href="#O"/><use transform="matrix(0.05,0,0,0.05,54.900000000000006,0)" xlink:href="#R"/></g><path d="M84 4C-5 8 30-112 23-190h32v120c0 31 7 50 39 49 72-2 45-101 50-169h31l1 190h-30c-1-10 1-25-2-33-11 22-28 36-60 37" id="ax"/><path d="M115-194c53 0 69 39 70 98 0 66-23 100-70 100C84 3 66-7 56-30L54 0H23l1-261h32v101c10-23 28-34 59-34zm-8 174c40 0 45-34 45-75 0-40-5-75-45-74-42 0-51 32-51 76 0 43 10 73 51 73" id="ay"/><path d="M135-143c-3-34-86-38-87 0 15 53 115 12 119 90S17 21 10-45l28-5c4 36 97 45 98 0-10-56-113-15-118-90-4-57 82-63 122-42 12 7 21 19 24 35" id="az"/><path d="M106-169C34-169 62-67 57 0H25v-261h32l-1 103c12-21 28-36 61-36 89 0 53 116 60 194h-32v-121c2-32-8-49-39-48" id="aA"/><g id="l"><use transform="matrix(0.05,0,0,0.05,0,0)" xlink:href="#ae"/><use transform="matrix(0.05,0,0,0.05,12,0)" xlink:href="#ax"/><use transform="matrix(0.05,0,0,0.05,22,0)" xlink:href="#ay"/><use transform="matrix(0.05,0,0,0.05,32,0)" xlink:href="#an"/><use transform="matrix(0.05,0,0,0.05,35.95,0)" xlink:href="#ai"/><use transform="matrix(0.05,0,0,0.05,39.900000000000006,0)" xlink:href="#az"/><use transform="matrix(0.05,0,0,0.05,48.900000000000006,0)" xlink:href="#aA"/></g><g id="m"><use transform="matrix(0.05,0,0,0.05,0,0)" xlink:href="#ak"/><use transform="matrix(0.05,0,0,0.05,8.950000000000001,0)" xlink:href="#al"/><use transform="matrix(0.05,0,0,0.05,18.950000000000003,0)" xlink:href="#am"/><use transform="matrix(0.05,0,0,0.05,28.950000000000003,0)" xlink:href="#al"/><use transform="matrix(0.05,0,0,0.05,38.95,0)" xlink:href="#an"/><use transform="matrix(0.05,0,0,0.05,42.900000000000006,0)" xlink:href="#al"/><use transform="matrix(0.05,0,0,0.05,52.900000000000006,0)" xlink:href="#ao"/><use transform="matrix(0.05,0,0,0.05,62.900000000000006,0)" xlink:href="#ap"/></g><path d="M96-169c-40 0-48 33-48 73s9 75 48 75c24 0 41-14 43-38l32 2c-6 37-31 61-74 61-59 0-76-41-82-99-10-93 101-131 147-64 4 7 5 14 7 22l-32 3c-4-21-16-35-41-35" id="aB"/><g id="n"><use transform="matrix(0.05,0,0,0.05,0,0)" xlink:href="#ak"/><use transform="matrix(0.05,0,0,0.05,10.3,0)" xlink:href="#ah"/><use transform="matrix(0.05,0,0,0.05,16.25,0)" xlink:href="#ab"/><use transform="matrix(0.05,0,0,0.05,26.25,0)" xlink:href="#as"/><use transform="matrix(0.05,0,0,0.05,36.25,0)" xlink:href="#az"/><use transform="matrix(0.05,0,0,0.05,45.25,0)" xlink:href="#ab"/><use transform="matrix(0.05,0,0,0.05,55.25,0)" xlink:href="#aB"/><use transform="matrix(0.05,0,0,0.05,64.25,0)" xlink:href="#aj"/><use transform="matrix(0.05,0,0,0.05,69.25,0)" xlink:href="#ai"/><use transform="matrix(0.05,0,0,0.05,73.2,0)" xlink:href="#al"/><use transform="matrix(0.05,0,0,0.05,83.2,0)" xlink:href="#as"/><use transform="matrix(0.05,0,0,0.05,93.2,0)" xlink:href="#az"/></g><g id="o"><use transform="matrix(0.05,0,0,0.05,0,0)" xlink:href="#al"/><use transform="matrix(0.05,0,0,0.05,10,0)" xlink:href="#as"/></g><g id="p"><use transform="matrix(0.05,0,0,0.05,0,0)" xlink:href="#at"/><use transform="matrix(0.05,0,0,0.05,12.950000000000001,0)" xlink:href="#aA"/><use transform="matrix(0.05,0,0,0.05,22.950000000000003,0)" xlink:href="#ab"/><use transform="matrix(0.05,0,0,0.05,32.95,0)" xlink:href="#as"/><use transform="matrix(0.05,0,0,0.05,42.95,0)" xlink:href="#ao"/><use transform="matrix(0.05,0,0,0.05,52.95,0)" xlink:href="#aa"/></g><g id="q"><use transform="matrix(0.05,0,0,0.05,0,0)" xlink:href="#ae"/><use transform="matrix(0.05,0,0,0.05,12,0)" xlink:href="#aa"/><use transform="matrix(0.05,0,0,0.05,22,0)" xlink:href="#as"/><use transform="matrix(0.05,0,0,0.05,32,0)" xlink:href="#ac"/><use transform="matrix(0.05,0,0,0.05,42,0)" xlink:href="#ai"/><use transform="matrix(0.05,0,0,0.05,45.95,0)" xlink:href="#as"/><use transform="matrix(0.05,0,0,0.05,55.95,0)" xlink:href="#ao"/></g><path d="M108 0H70L1-190h34L89-25l56-165h34" id="aC"/><g id="r"><use transform="matrix(0.05,0,0,0.05,0,0)" xlink:href="#ad"/><use transform="matrix(0.05,0,0,0.05,12,0)" xlink:href="#am"/><use transform="matrix(0.05,0,0,0.05,22,0)" xlink:href="#am"/><use transform="matrix(0.05,0,0,0.05,32,0)" xlink:href="#ah"/><use transform="matrix(0.05,0,0,0.05,37.95,0)" xlink:href="#al"/><use transform="matrix(0.05,0,0,0.05,47.95,0)" xlink:href="#aC"/><use transform="matrix(0.05,0,0,0.05,56.95,0)" xlink:href="#aa"/><use transform="matrix(0.05,0,0,0.05,66.95,0)" xlink:href="#ac"/></g><path d="M145-31C134-9 116 4 85 4 32 4 16-35 15-94c0-59 17-99 70-100 32-1 48 14 60 33 0-11-1-24 2-32h30l-1 268h-32zM93-21c41 0 51-33 51-76s-8-73-50-73c-40 0-46 35-46 75s5 74 45 74" id="aD"/><g id="s"><use transform="matrix(0.05,0,0,0.05,0,0)" xlink:href="#aq"/><use transform="matrix(0.05,0,0,0.05,12,0)" xlink:href="#aa"/><use transform="matrix(0.05,0,0,0.05,22,0)" xlink:href="#aD"/><use transform="matrix(0.05,0,0,0.05,32,0)" xlink:href="#ax"/><use transform="matrix(0.05,0,0,0.05,42,0)" xlink:href="#aa"/><use transform="matrix(0.05,0,0,0.05,52,0)" xlink:href="#as"/><use transform="matrix(0.05,0,0,0.05,62,0)" xlink:href="#aB"/><use transform="matrix(0.05,0,0,0.05,71,0)" xlink:href="#aa"/><use transform="matrix(0.05,0,0,0.05,81,0)" xlink:href="#ah"/></g><g id="t"><use transform="matrix(0.05,0,0,0.05,0,0)" xlink:href="#Z"/><use transform="matrix(0.05,0,0,0.05,12.950000000000001,0)" xlink:href="#aa"/><use transform="matrix(0.05,0,0,0.05,22.950000000000003,0)" xlink:href="#an"/><use transform="matrix(0.05,0,0,0.05,26.900000000000002,0)" xlink:href="#ai"/><use transform="matrix(0.05,0,0,0.05,30.85,0)" xlink:href="#ab"/><use transform="matrix(0.05,0,0,0.05,40.85,0)" xlink:href="#ay"/><use transform="matrix(0.05,0,0,0.05,50.85,0)" xlink:href="#an"/><use transform="matrix(0.05,0,0,0.05,54.800000000000004,0)" xlink:href="#ap"/></g><path d="M30-248c118-7 216 8 213 122C240-48 200 0 122 0H30v-248zM63-27c89 8 146-16 146-99s-60-101-146-95v194" id="aE"/><g id="u"><use transform="matrix(0.05,0,0,0.05,0,0)" xlink:href="#aE"/><use transform="matrix(0.05,0,0,0.05,12.950000000000001,0)" xlink:href="#aa"/><use transform="matrix(0.05,0,0,0.05,22.950000000000003,0)" xlink:href="#an"/><use transform="matrix(0.05,0,0,0.05,26.900000000000002,0)" xlink:href="#ai"/><use transform="matrix(0.05,0,0,0.05,30.85,0)" xlink:href="#aC"/><use transform="matrix(0.05,0,0,0.05,39.85,0)" xlink:href="#aa"/><use transform="matrix(0.05,0,0,0.05,49.85,0)" xlink:href="#ah"/></g><path d="M206 0h-36l-40-164L89 0H53L-1-190h32L70-26l43-164h34l41 164 42-164h31" id="aF"/><g id="v"><use transform="matrix(0.05,0,0,0.05,0,0)" xlink:href="#as"/><use transform="matrix(0.05,0,0,0.05,10,0)" xlink:href="#aa"/><use transform="matrix(0.05,0,0,0.05,20,0)" xlink:href="#aF"/></g><g id="w"><use transform="matrix(0.05,0,0,0.05,0,0)" xlink:href="#ak"/><use transform="matrix(0.05,0,0,0.05,8.950000000000001,0)" xlink:href="#al"/><use transform="matrix(0.05,0,0,0.05,18.950000000000003,0)" xlink:href="#am"/><use transform="matrix(0.05,0,0,0.05,28.950000000000003,0)" xlink:href="#al"/><use transform="matrix(0.05,0,0,0.05,38.95,0)" xlink:href="#an"/><use transform="matrix(0.05,0,0,0.05,42.900000000000006,0)" xlink:href="#al"/><use transform="matrix(0.05,0,0,0.05,52.900000000000006,0)" xlink:href="#ao"/><use transform="matrix(0.05,0,0,0.05,62.900000000000006,0)" xlink:href="#ap"/></g><g id="x"><use transform="matrix(0.05,0,0,0.05,0,0)" xlink:href="#ak"/><use transform="matrix(0.05,0,0,0.05,10.3,0)" xlink:href="#ah"/><use transform="matrix(0.05,0,0,0.05,16.25,0)" xlink:href="#ab"/><use transform="matrix(0.05,0,0,0.05,26.25,0)" xlink:href="#as"/><use transform="matrix(0.05,0,0,0.05,36.25,0)" xlink:href="#az"/><use transform="matrix(0.05,0,0,0.05,45.25,0)" xlink:href="#ab"/><use transform="matrix(0.05,0,0,0.05,55.25,0)" xlink:href="#aB"/><use transform="matrix(0.05,0,0,0.05,64.25,0)" xlink:href="#aj"/><use transform="matrix(0.05,0,0,0.05,69.25,0)" xlink:href="#ai"/><use transform="matrix(0.05,0,0,0.05,73.2,0)" xlink:href="#al"/><use transform="matrix(0.05,0,0,0.05,83.2,0)" xlink:href="#as"/><use transform="matrix(0.05,0,0,0.05,93.2,0)" xlink:href="#az"/></g><g id="y"><use transform="matrix(0.05,0,0,0.05,0,0)" xlink:href="#at"/><use transform="matrix(0.05,0,0,0.05,12.950000000000001,0)" xlink:href="#an"/><use transform="matrix(0.05,0,0,0.05,16.900000000000002,0)" xlink:href="#ai"/><use transform="matrix(0.05,0,0,0.05,20.85,0)" xlink:href="#aa"/><use transform="matrix(0.05,0,0,0.05,30.85,0)" xlink:href="#as"/><use transform="matrix(0.05,0,0,0.05,40.85,0)" xlink:href="#aj"/></g><g id="z"><use transform="matrix(0.05,0,0,0.05,0,0)" xlink:href="#aE"/><use transform="matrix(0.05,0,0,0.05,12.950000000000001,0)" xlink:href="#aa"/><use transform="matrix(0.05,0,0,0.05,22.950000000000003,0)" xlink:href="#an"/><use transform="matrix(0.05,0,0,0.05,26.900000000000002,0)" xlink:href="#ai"/><use transform="matrix(0.05,0,0,0.05,30.85,0)" xlink:href="#aC"/><use transform="matrix(0.05,0,0,0.05,39.85,0)" xlink:href="#aa"/><use transform="matrix(0.05,0,0,0.05,49.85,0)" xlink:href="#ah"/></g><g id="A"><use transform="matrix(0.05,0,0,0.05,0,0)" xlink:href="#ak"/><use transform="matrix(0.05,0,0,0.05,8.950000000000001,0)" xlink:href="#al"/><use transform="matrix(0.05,0,0,0.05,18.950000000000003,0)" xlink:href="#am"/><use transform="matrix(0.05,0,0,0.05,28.950000000000003,0)" xlink:href="#al"/><use transform="matrix(0.05,0,0,0.05,38.95,0)" xlink:href="#an"/><use transform="matrix(0.05,0,0,0.05,42.900000000000006,0)" xlink:href="#al"/><use transform="matrix(0.05,0,0,0.05,52.900000000000006,0)" xlink:href="#ao"/><use transform="matrix(0.05,0,0,0.05,62.900000000000006,0)" xlink:href="#ap"/></g><g id="B"><use transform="matrix(0.05,0,0,0.05,0,0)" xlink:href="#at"/><use transform="matrix(0.05,0,0,0.05,12.950000000000001,0)" xlink:href="#an"/><use transform="matrix(0.05,0,0,0.05,16.900000000000002,0)" xlink:href="#ai"/><use transform="matrix(0.05,0,0,0.05,20.85,0)" xlink:href="#aa"/><use transform="matrix(0.05,0,0,0.05,30.85,0)" xlink:href="#as"/><use transform="matrix(0.05,0,0,0.05,40.85,0)" xlink:href="#aj"/></g><path d="M190 0L58-211 59 0H30v-248h39L202-35l-2-213h31V0h-41" id="aG"/><path d="M101-234c-31-9-42 10-38 44h38v23H63V0H32v-167H5v-23h27c-7-52 17-82 69-68v24" id="aH"/><g id="C"><use transform="matrix(0.05,0,0,0.05,0,0)" xlink:href="#aG"/><use transform="matrix(0.05,0,0,0.05,12.950000000000001,0)" xlink:href="#al"/><use transform="matrix(0.05,0,0,0.05,22.950000000000003,0)" xlink:href="#aj"/><use transform="matrix(0.05,0,0,0.05,27.950000000000003,0)" xlink:href="#ai"/><use transform="matrix(0.05,0,0,0.05,31.900000000000002,0)" xlink:href="#aH"/><use transform="matrix(0.05,0,0,0.05,36.900000000000006,0)" xlink:href="#ap"/></g><g id="D"><use transform="matrix(0.05,0,0,0.05,0,0)" xlink:href="#al"/><use transform="matrix(0.05,0,0,0.05,10,0)" xlink:href="#as"/></g><g id="E"><use transform="matrix(0.05,0,0,0.05,0,0)" xlink:href="#ae"/><use transform="matrix(0.05,0,0,0.05,12,0)" xlink:href="#ab"/><use transform="matrix(0.05,0,0,0.05,22,0)" xlink:href="#ah"/><use transform="matrix(0.05,0,0,0.05,27.950000000000003,0)" xlink:href="#aj"/><use transform="matrix(0.05,0,0,0.05,32.95,0)" xlink:href="#ai"/><use transform="matrix(0.05,0,0,0.05,36.900000000000006,0)" xlink:href="#aB"/><use transform="matrix(0.05,0,0,0.05,45.900000000000006,0)" xlink:href="#ai"/><use transform="matrix(0.05,0,0,0.05,49.85000000000001,0)" xlink:href="#am"/><use transform="matrix(0.05,0,0,0.05,59.85,0)" xlink:href="#ab"/><use transform="matrix(0.05,0,0,0.05,69.85000000000001,0)" xlink:href="#as"/><use transform="matrix(0.05,0,0,0.05,79.85000000000001,0)" xlink:href="#aj"/><use transform="matrix(0.05,0,0,0.05,84.85000000000001,0)" xlink:href="#az"/></g><g id="F"><use transform="matrix(0.05,0,0,0.05,0,0)" xlink:href="#aq"/><use transform="matrix(0.05,0,0,0.05,12,0)" xlink:href="#ap"/><use transform="matrix(0.05,0,0,0.05,21,0)" xlink:href="#as"/><use transform="matrix(0.05,0,0,0.05,31,0)" xlink:href="#aB"/></g><g id="G"><use transform="matrix(0.05,0,0,0.05,0,0)" xlink:href="#aq"/><use transform="matrix(0.05,0,0,0.05,12,0)" xlink:href="#aa"/><use transform="matrix(0.05,0,0,0.05,22,0)" xlink:href="#ah"/><use transform="matrix(0.05,0,0,0.05,27.950000000000003,0)" xlink:href="#aC"/><use transform="matrix(0.05,0,0,0.05,36.95,0)" xlink:href="#ai"/><use transform="matrix(0.05,0,0,0.05,40.900000000000006,0)" xlink:href="#aB"/><use transform="matrix(0.05,0,0,0.05,49.900000000000006,0)" xlink:href="#aa"/></g><path d="M0 4l72-265h28L28 4H0" id="aI"/><use transform="matrix(0.05,0,0,0.05,0,0)" xlink:href="#aI" id="H"/><path d="M140-251c81 0 123 46 123 126C263-46 219 4 140 4 59 4 17-45 17-125s42-126 123-126zm0 227c63 0 89-41 89-101s-29-99-89-99c-61 0-89 39-89 99S79-25 140-24" id="aJ"/><g id="I"><use transform="matrix(0.05,0,0,0.05,0,0)" xlink:href="#aJ"/><use transform="matrix(0.05,0,0,0.05,14,0)" xlink:href="#aj"/><use transform="matrix(0.05,0,0,0.05,19,0)" xlink:href="#aA"/><use transform="matrix(0.05,0,0,0.05,29,0)" xlink:href="#aa"/><use transform="matrix(0.05,0,0,0.05,39,0)" xlink:href="#ah"/></g><g id="J"><use transform="matrix(0.05,0,0,0.05,0,0)" xlink:href="#at"/><use transform="matrix(0.05,0,0,0.05,12.950000000000001,0)" xlink:href="#al"/><use transform="matrix(0.05,0,0,0.05,22.950000000000003,0)" xlink:href="#ar"/><use transform="matrix(0.05,0,0,0.05,37.900000000000006,0)" xlink:href="#am"/><use transform="matrix(0.05,0,0,0.05,47.900000000000006,0)" xlink:href="#al"/><use transform="matrix(0.05,0,0,0.05,57.900000000000006,0)" xlink:href="#as"/><use transform="matrix(0.05,0,0,0.05,67.9,0)" xlink:href="#aa"/><use transform="matrix(0.05,0,0,0.05,77.9,0)" xlink:href="#as"/><use transform="matrix(0.05,0,0,0.05,87.9,0)" xlink:href="#aj"/><use transform="matrix(0.05,0,0,0.05,92.9,0)" xlink:href="#az"/></g></defs></g></svg>