<svg xmlns="http://www.w3.org/2000/svg" xmlns:xlink="http://www.w3.org/1999/xlink" xmlns:lucid="lucid" width="1820" height="1038.4"><g transform="translate(-20 -20)" lucid:page-tab-id="0_0"><path d="M0 0h1870.4v1323.2H0z" fill="#fff"/><path d="M40 59.92L200 40v120H40z" stroke="#000" stroke-width="2" fill="#b2d6ef"/><use xlink:href="#a" transform="matrix(1,0,0,1,45,65) translate(27.574999999999996 16.19999999999999)"/><use xlink:href="#b" transform="matrix(1,0,0,1,45,65) translate(60.525 16.19999999999999)"/><use xlink:href="#c" transform="matrix(1,0,0,1,45,65) translate(70.525 16.19999999999999)"/><use xlink:href="#d" transform="matrix(1,0,0,1,45,65) translate(39.05 37.79999999999999)"/><use xlink:href="#e" transform="matrix(1,0,0,1,45,65) translate(22.549999999999997 59.39999999999999)"/><use xlink:href="#f" transform="matrix(1,0,0,1,45,65) translate(41.525 81)"/><path d="M280 40h160v120H280z" stroke="#000" stroke-width="2" fill="#b2d6ef"/><use xlink:href="#g" transform="matrix(1,0,0,1,285,45) translate(1.0999999999999943 47.8)"/><use xlink:href="#h" transform="matrix(1,0,0,1,285,45) translate(78 47.8)"/><use xlink:href="#i" transform="matrix(1,0,0,1,285,45) translate(21.799999999999997 69.4)"/><use xlink:href="#j" transform="matrix(1,0,0,1,285,45) translate(68.3 69.4)"/><path d="M520 40h160v120H520z" stroke="#000" stroke-width="2" fill="#b2d6ef"/><use xlink:href="#k" transform="matrix(1,0,0,1,525,45) translate(32.574999999999996 47.8)"/><use xlink:href="#l" transform="matrix(1,0,0,1,525,45) translate(1.0999999999999943 69.4)"/><use xlink:href="#m" transform="matrix(1,0,0,1,525,45) translate(78 69.4)"/><path d="M760 40h160v120H760z" stroke="#000" stroke-width="2" fill="#b2d6ef"/><use xlink:href="#k" transform="matrix(1,0,0,1,765,45) translate(32.574999999999996 37)"/><use xlink:href="#d" transform="matrix(1,0,0,1,765,45) translate(39.05 58.6)"/><use xlink:href="#n" transform="matrix(1,0,0,1,765,45) translate(32.074999999999996 80.20000000000002)"/><path d="M660 328c0 6.63-26.86 12-60 12s-60-5.37-60-12v-96c0-6.63 26.86-12 60-12s60 5.37 60 12z" stroke="#000" stroke-width="2" fill="#b2d6ef"/><path d="M660 232c0 6.63-26.86 12-60 12s-60-5.37-60-12" stroke="#000" stroke-width="2" fill="none"/><use xlink:href="#o" transform="matrix(1,0,0,1,545,249) translate(12.049999999999997 35.8)"/><use xlink:href="#p" transform="matrix(1,0,0,1,545,249) translate(33.525 57.4)"/><path d="M520 400h160v120H520z" stroke="#000" stroke-width="2" fill="#c7e8ac"/><use xlink:href="#q" transform="matrix(1,0,0,1,525,405) translate(11.624999999999993 58.6)"/><use xlink:href="#j" transform="matrix(1,0,0,1,525,405) translate(78.475 58.6)"/><path d="M280 400h160v120H280z" stroke="#000" stroke-width="2" fill="#c7e8ac"/><use xlink:href="#q" transform="matrix(1,0,0,1,285,405) translate(5.625 37)"/><use xlink:href="#d" transform="matrix(1,0,0,1,285,405) translate(72.47500000000001 37)"/><use xlink:href="#r" transform="matrix(1,0,0,1,285,405) translate(3.5749999999999886 58.6)"/><use xlink:href="#s" transform="matrix(1,0,0,1,285,405) translate(79.475 58.6)"/><use xlink:href="#j" transform="matrix(1,0,0,1,285,405) translate(45.05 80.20000000000002)"/><path d="M40 400h160v120H40z" stroke="#000" stroke-width="2" fill="#c7e8ac"/><use xlink:href="#t" transform="matrix(1,0,0,1,45,405) translate(5.549999999999997 26.19999999999999)"/><use xlink:href="#u" transform="matrix(1,0,0,1,45,405) translate(77.5 26.19999999999999)"/><use xlink:href="#v" transform="matrix(1,0,0,1,45,405) translate(47.025 47.79999999999999)"/><use xlink:href="#w" transform="matrix(1,0,0,1,45,405) translate(87.975 47.79999999999999)"/><use xlink:href="#x" transform="matrix(1,0,0,1,45,405) translate(20.525 69.39999999999999)"/><use xlink:href="#y" transform="matrix(1,0,0,1,45,405) translate(14.574999999999996 91)"/><use xlink:href="#z" transform="matrix(1,0,0,1,45,405) translate(78.57499999999999 91)"/><path d="M40 601.6h160v120H40z" stroke="#000" stroke-width="2" fill="#c7e8ac"/><use xlink:href="#q" transform="matrix(1,0,0,1,45,606.5999999999999) translate(5.625 47.8)"/><use xlink:href="#d" transform="matrix(1,0,0,1,45,606.5999999999999) translate(72.47500000000001 47.8)"/><use xlink:href="#m" transform="matrix(1,0,0,1,45,606.5999999999999) translate(39.55 69.4)"/><path d="M180 868c0 6.63-26.86 12-60 12s-60-5.37-60-12v-96c0-6.63 26.86-12 60-12s60 5.37 60 12z" stroke="#000" stroke-width="2" fill="#c7e8ac"/><path d="M180 772c0 6.63-26.86 12-60 12s-60-5.37-60-12" stroke="#000" stroke-width="2" fill="none"/><use xlink:href="#o" transform="matrix(1,0,0,1,65,789) translate(12.049999999999997 35.8)"/><use xlink:href="#p" transform="matrix(1,0,0,1,65,789) translate(33.525 57.4)"/><path d="M280 601.6h160v120H280z" stroke="#000" stroke-width="2" fill="#c7e8ac"/><use xlink:href="#q" transform="matrix(1,0,0,1,285,606.5999999999999) translate(5.625 47.8)"/><use xlink:href="#A" transform="matrix(1,0,0,1,285,606.5999999999999) translate(72.47500000000001 47.8)"/><use xlink:href="#B" transform="matrix(1,0,0,1,285,606.5999999999999) translate(32.074999999999996 69.4)"/><path d="M520 601.6h160v120H520z" stroke="#000" stroke-width="2" fill="#c7e8ac"/><use xlink:href="#C" transform="matrix(1,0,0,1,525,606.5999999999999) translate(38.525 47.8)"/><use xlink:href="#D" transform="matrix(1,0,0,1,525,606.5999999999999) translate(34.12499999999999 69.4)"/><path d="M855.2 481.6h160v120h-160z" stroke="#000" stroke-width="2" fill="#c7e8ac"/><use xlink:href="#E" transform="matrix(1,0,0,1,860.1999999999999,486.5999999999999) translate(31.525 58.6)"/><path d="M1100 40h160v120h-160z" stroke="#000" stroke-width="2" fill="#b2d6ef"/><use xlink:href="#F" transform="matrix(1,0,0,1,1105,45) translate(6.099999999999994 47.8)"/><use xlink:href="#G" transform="matrix(1,0,0,1,1105,45) translate(69.05 47.8)"/><use xlink:href="#H" transform="matrix(1,0,0,1,1105,45) translate(19.625 69.4)"/><use xlink:href="#I" transform="matrix(1,0,0,1,1105,45) translate(84.525 69.4)"/><path d="M1080 500h160v120h-160z" stroke="#000" stroke-width="2" fill="#c7e8ac"/><use xlink:href="#F" transform="matrix(1,0,0,1,1085,505) translate(6.099999999999994 47.8)"/><use xlink:href="#G" transform="matrix(1,0,0,1,1085,505) translate(69.05 47.8)"/><use xlink:href="#H" transform="matrix(1,0,0,1,1085,505) translate(19.625 69.4)"/><use xlink:href="#I" transform="matrix(1,0,0,1,1085,505) translate(84.525 69.4)"/><path d="M180 328c0 6.63-26.86 12-60 12s-60-5.37-60-12v-96c0-6.63 26.86-12 60-12s60 5.37 60 12z" stroke="#000" stroke-width="2" fill="#c7e8ac"/><path d="M180 232c0 6.63-26.86 12-60 12s-60-5.37-60-12" stroke="#000" stroke-width="2" fill="none"/><use xlink:href="#J" transform="matrix(1,0,0,1,65,249) translate(21.525 35.8)"/><use xlink:href="#p" transform="matrix(1,0,0,1,65,249) translate(33.525 57.4)"/><path d="M1460 148c0 6.63-26.86 12-60 12s-60-5.37-60-12V52c0-6.63 26.86-12 60-12s60 5.37 60 12z" stroke="#000" stroke-width="2" fill="#b2d6ef"/><path d="M1460 52c0 6.63-26.86 12-60 12s-60-5.37-60-12" stroke="#000" stroke-width="2" fill="none"/><use xlink:href="#K" transform="matrix(1,0,0,1,1345,69) translate(24.074999999999996 25)"/><use xlink:href="#d" transform="matrix(1,0,0,1,1345,69) translate(19.049999999999997 46.6)"/><use xlink:href="#p" transform="matrix(1,0,0,1,1345,69) translate(33.525 68.2)"/><path d="M1440 608c0 6.63-26.86 12-60 12s-60-5.37-60-12v-96c0-6.63 26.86-12 60-12s60 5.37 60 12z" stroke="#000" stroke-width="2" fill="#c7e8ac"/><path d="M1440 512c0 6.63-26.86 12-60 12s-60-5.37-60-12" stroke="#000" stroke-width="2" fill="none"/><use xlink:href="#K" transform="matrix(1,0,0,1,1325,529) translate(24.074999999999996 25)"/><use xlink:href="#d" transform="matrix(1,0,0,1,1325,529) translate(19.049999999999997 46.6)"/><use xlink:href="#p" transform="matrix(1,0,0,1,1325,529) translate(33.525 68.2)"/><path d="M202 100h58.5" stroke="#000" stroke-width="2" fill="none"/><path d="M202.03 101H201v-2h1.03"/><path d="M275.76 100l-14.26 4.64v-9.28z" stroke="#000" stroke-width="2"/><path d="M442 100h58.5" stroke="#000" stroke-width="2" fill="none"/><path d="M442.03 101H441v-2h1.03"/><path d="M515.76 100l-14.26 4.64v-9.28z" stroke="#000" stroke-width="2"/><path d="M682 100h58.5" stroke="#000" stroke-width="2" fill="none"/><path d="M682.03 101H681v-2h1.03"/><path d="M755.76 100l-14.26 4.64v-9.28z" stroke="#000" stroke-width="2"/><path d="M840 162v158.8h35.43v141.3" stroke="#000" stroke-width="2" fill="none"/><path d="M841 162.03h-2V161h2"/><path d="M875.43 477.36l-4.63-14.26h9.27z" stroke="#000" stroke-width="2"/><path d="M518 460h-58.5" stroke="#000" stroke-width="2" fill="none"/><path d="M519 461h-1.03v-2H519"/><path d="M444.24 460l14.26-4.64v9.28z" stroke="#000" stroke-width="2"/><path d="M600 162v38.5" stroke="#000" stroke-width="2" fill="none"/><path d="M601 162.03h-2V161h2"/><path d="M600 215.76l-4.64-14.26h9.28z" stroke="#000" stroke-width="2"/><path d="M260.5 460h-41" stroke="#000" stroke-width="2" fill="none"/><path d="M275.76 460l-14.26 4.64v-9.28zM204.24 460l14.26-4.64v9.28z" stroke="#000" stroke-width="2"/><path d="M120 398v-2.9m0-3.84v-5.77m0-3.86v-5.78m0-3.85v-5.76m0-3.85v-2.9" stroke="#000" stroke-width="2" fill="none"/><path d="M121 399h-2v-1.03h2"/><path d="M120 344.24l4.64 14.26h-9.28z" stroke="#000" stroke-width="2"/><path d="M360 522v38.8H120v21.3" stroke="#000" stroke-width="2" fill="none"/><path d="M361 522.03h-2V521h2"/><path d="M120 597.36l-4.64-14.26h9.28z" stroke="#000" stroke-width="2"/><path d="M113.33 723.6v17.13" stroke="#000" stroke-width="2" fill="none"/><path d="M114.33 723.63h-2v-1.03h2"/><path d="M113.33 756l-4.63-14.28h9.27z" stroke="#000" stroke-width="2"/><path d="M202 661.6h58.5" stroke="#000" stroke-width="2" fill="none"/><path d="M202.03 662.6H201v-2h1.03"/><path d="M275.76 661.6l-14.26 4.64v-9.28z" stroke="#000" stroke-width="2"/><path d="M442 661.6h58.5" stroke="#000" stroke-width="2" fill="none"/><path d="M442.03 662.6H441v-2h1.03"/><path d="M515.76 661.6l-14.26 4.64v-9.28z" stroke="#000" stroke-width="2"/><path d="M682 661.6h85.6v-120h68.1" stroke="#000" stroke-width="2" fill="none"/><path d="M682.03 662.6H681v-2h1.03"/><path d="M850.96 541.6l-14.26 4.64v-9.28z" stroke="#000" stroke-width="2"/><path d="M935.2 479.6V320.8H1180V179.5" stroke="#000" stroke-width="2" fill="none"/><path d="M936.2 480.6h-2v-1.03h2"/><path d="M1180 164.24l4.64 14.26h-9.28z" stroke="#000" stroke-width="2"/><path d="M1017.2 541.6h30.4V560h12.9" stroke="#000" stroke-width="2" fill="none"/><path d="M1017.23 542.6h-1.03v-2h1.03"/><path d="M1075.76 560l-14.26 4.64v-9.28z" stroke="#000" stroke-width="2"/><path d="M1262 100h58.5" stroke="#000" stroke-width="2" fill="none"/><path d="M1262.03 101H1261v-2h1.03"/><path d="M1335.76 100l-14.26 4.64v-9.28z" stroke="#000" stroke-width="2"/><path d="M1242 560h58.5" stroke="#000" stroke-width="2" fill="none"/><path d="M1242.03 561H1241v-2h1.03"/><path d="M1315.76 560l-14.26 4.64v-9.28z" stroke="#000" stroke-width="2"/><path d="M1660 80h160v60h-160z" stroke="#000" stroke-width="2" fill="#b2d6ef"/><use xlink:href="#L" transform="matrix(1,0,0,1,1665,85) translate(10.074999999999989 17.799999999999997)"/><use xlink:href="#M" transform="matrix(1,0,0,1,1665,85) translate(99.925 17.799999999999997)"/><use xlink:href="#N" transform="matrix(1,0,0,1,1665,85) translate(30.525 39.4)"/><path d="M1660 530h160v60h-160z" stroke="#000" stroke-width="2" fill="#b2d6ef"/><use xlink:href="#O" transform="matrix(1,0,0,1,1665,535) translate(23.049999999999997 17.799999999999997)"/><use xlink:href="#M" transform="matrix(1,0,0,1,1665,535) translate(86.95 17.799999999999997)"/><use xlink:href="#N" transform="matrix(1,0,0,1,1665,535) translate(30.525 39.4)"/><path d="M940 180h160v120H940z" stroke="#000" stroke-width="2" fill="#b2d6ef"/><use xlink:href="#g" transform="matrix(1,0,0,1,945,185) translate(1.0999999999999943 47.8)"/><use xlink:href="#h" transform="matrix(1,0,0,1,945,185) translate(78 47.8)"/><use xlink:href="#P" transform="matrix(1,0,0,1,945,185) translate(21.074999999999996 69.4)"/><use xlink:href="#j" transform="matrix(1,0,0,1,945,185) translate(69.025 69.4)"/><path d="M280 760h160v120H280z" stroke="#000" stroke-width="2" fill="#c7e8ac"/><g><use xlink:href="#g" transform="matrix(1,0,0,1,285,765) translate(1.0999999999999943 47.8)"/><use xlink:href="#h" transform="matrix(1,0,0,1,285,765) translate(78 47.8)"/><use xlink:href="#i" transform="matrix(1,0,0,1,285,765) translate(21.799999999999997 69.4)"/><use xlink:href="#j" transform="matrix(1,0,0,1,285,765) translate(68.3 69.4)"/></g><path d="M40 938.32l160-19.92v120H40z" stroke="#000" stroke-width="2" fill="#c7e8ac"/><g><use xlink:href="#a" transform="matrix(1,0,0,1,45,943.4000000000001) translate(27.574999999999996 16.19999999999999)"/><use xlink:href="#b" transform="matrix(1,0,0,1,45,943.4000000000001) translate(60.525 16.19999999999999)"/><use xlink:href="#c" transform="matrix(1,0,0,1,45,943.4000000000001) translate(70.525 16.19999999999999)"/><use xlink:href="#d" transform="matrix(1,0,0,1,45,943.4000000000001) translate(39.05 37.79999999999999)"/><use xlink:href="#e" transform="matrix(1,0,0,1,45,943.4000000000001) translate(22.549999999999997 59.39999999999999)"/><use xlink:href="#f" transform="matrix(1,0,0,1,45,943.4000000000001) translate(41.525 81)"/></g><path d="M1380 622v356.4H459.5" stroke="#000" stroke-width="2" fill="none"/><path d="M1380 621l1-.03v1.06h-2v-1.07"/><path d="M444.24 978.4l14.26-4.64v9.28z" stroke="#000" stroke-width="2"/><path d="M182 820h48v114h30.5" stroke="#000" stroke-width="2" fill="none"/><path d="M182.03 821H181v-2h1.03"/><path d="M275.76 934l-14.26 4.64v-9.28z" stroke="#000" stroke-width="2"/><path d="M219.5 978.4h41" stroke="#000" stroke-width="2" fill="none"/><path d="M204.24 978.4l14.26-4.64v9.28zM275.76 978.4l-14.26 4.64v-9.28z" stroke="#000" stroke-width="2"/><path d="M202 920.67h38V820h20.5" stroke="#000" stroke-width="2" fill="none"/><path d="M202.03 921.67H201v-2h1.03"/><path d="M275.76 820l-14.26 4.64v-9.28z" stroke="#000" stroke-width="2"/><path d="M360 758v-17.2H180.97" stroke="#000" stroke-width="2" fill="none"/><path d="M361 759h-2v-1.03h2"/><path d="M180.72 725.84l4.87 14.18-9.28.16z" stroke="#000" stroke-width="2"/><path d="M662 280h138v-40h120.5" stroke="#000" stroke-width="2" fill="none"/><path d="M662.03 281H661v-2h1.03"/><path d="M935.76 240l-14.26 4.64v-9.28z" stroke="#000" stroke-width="2"/><path d="M1400 162v78h-280.5" stroke="#000" stroke-width="2" fill="none"/><path d="M1400 161l1-.03v1.06h-2v-1.07"/><path d="M1104.24 240l14.26-4.64v9.28z" stroke="#000" stroke-width="2"/><path d="M538 280H195.33V179.5" stroke="#000" stroke-width="2" fill="none"/><path d="M539 281h-1.03v-2H539"/><path d="M195.33 164.24l4.64 14.26h-9.27z" stroke="#000" stroke-width="2"/><path d="M1240 270h160v120h-160z" stroke="#000" stroke-width="2" fill="#b2d6ef"/><g><use xlink:href="#Q" transform="matrix(1,0,0,1,1245,275) translate(39.05 37)"/><use xlink:href="#R" transform="matrix(1,0,0,1,1245,275) translate(26.549999999999997 58.6)"/><use xlink:href="#j" transform="matrix(1,0,0,1,1245,275) translate(45.05 80.20000000000002)"/></g><path d="M1203.33 162v53h97.34v35.5" stroke="#000" stroke-width="2" fill="none"/><path d="M1204.33 162.03h-2V161h2"/><path d="M1300.67 265.76l-4.64-14.26h9.27z" stroke="#000" stroke-width="2"/><path d="M1080 721.6h160v120h-160z" stroke="#000" stroke-width="2" fill="#c7e8ac"/><g><use xlink:href="#Q" transform="matrix(1,0,0,1,1085,726.5999999999999) translate(39.05 37)"/><use xlink:href="#R" transform="matrix(1,0,0,1,1085,726.5999999999999) translate(26.549999999999997 58.6)"/><use xlink:href="#j" transform="matrix(1,0,0,1,1085,726.5999999999999) translate(45.05 80.20000000000002)"/></g><path d="M1160 622v80.1" stroke="#000" stroke-width="2" fill="none"/><path d="M1161 622.03h-2V621h2"/><path d="M1160 717.36l-4.64-14.26h9.28z" stroke="#000" stroke-width="2"/><path d="M202 1020.67h438V781.6h420.5" stroke="#000" stroke-width="2" fill="none"/><path d="M202.03 1021.67H201v-2h1.03"/><path d="M1075.76 781.6l-14.26 4.64v-9.28z" stroke="#000" stroke-width="2"/><path d="M280 918.4h160v120H280z" stroke="#000" stroke-width="2" fill="#c7e8ac"/><g><use xlink:href="#g" transform="matrix(1,0,0,1,285,923.4000000000001) translate(1.0999999999999943 47.8)"/><use xlink:href="#h" transform="matrix(1,0,0,1,285,923.4000000000001) translate(78 47.8)"/><use xlink:href="#P" transform="matrix(1,0,0,1,285,923.4000000000001) translate(21.074999999999996 69.4)"/><use xlink:href="#j" transform="matrix(1,0,0,1,285,923.4000000000001) translate(69.025 69.4)"/></g><path d="M853.2 495.2h-85.6V460h-68.1" stroke="#000" stroke-width="2" fill="none"/><path d="M854.2 496.2h-1.03v-2h1.03"/><path d="M684.24 460l14.26-4.64v9.28z" stroke="#000" stroke-width="2"/><defs><path d="M212-179c-10-28-35-45-73-45-59 0-87 40-87 99 0 60 29 101 89 101 43 0 62-24 78-52l27 14C228-24 195 4 139 4 59 4 22-46 18-125c-6-104 99-153 187-111 19 9 31 26 39 46" id="S"/><path d="M30 0v-248h33v221h125V0H30" id="T"/><path d="M33 0v-248h34V0H33" id="U"/><g id="a"><use transform="matrix(0.05,0,0,0.05,0,0)" xlink:href="#S"/><use transform="matrix(0.05,0,0,0.05,12.950000000000001,0)" xlink:href="#T"/><use transform="matrix(0.05,0,0,0.05,22.950000000000003,0)" xlink:href="#U"/></g><path d="M0 4l72-265h28L28 4H0" id="V"/><use transform="matrix(0.05,0,0,0.05,0,0)" xlink:href="#V" id="b"/><path d="M143 4C61 4 22-44 18-125c-5-107 100-154 193-111 17 8 29 25 37 43l-32 9c-13-25-37-40-76-40-61 0-88 39-88 99 0 61 29 100 91 101 35 0 62-11 79-27v-45h-74v-28h105v86C228-13 192 4 143 4" id="W"/><path d="M233-177c-1 41-23 64-60 70L243 0h-38l-65-103H63V0H30v-248c88 3 205-21 203 71zM63-129c60-2 137 13 137-47 0-61-80-42-137-45v92" id="X"/><path d="M30-248c87 1 191-15 191 75 0 78-77 80-158 76V0H30v-248zm33 125c57 0 124 11 124-50 0-59-68-47-124-48v98" id="Y"/><g id="c"><use transform="matrix(0.05,0,0,0.05,0,0)" xlink:href="#W"/><use transform="matrix(0.05,0,0,0.05,14,0)" xlink:href="#X"/><use transform="matrix(0.05,0,0,0.05,26.950000000000003,0)" xlink:href="#Y"/><use transform="matrix(0.05,0,0,0.05,38.95,0)" xlink:href="#S"/></g><path d="M127-220V0H93v-220H8v-28h204v28h-85" id="Z"/><path d="M100-194c62-1 85 37 85 99 1 63-27 99-86 99S16-35 15-95c0-66 28-99 85-99zM99-20c44 1 53-31 53-75 0-43-8-75-51-75s-53 32-53 75 10 74 51 75" id="aa"/><path d="M115-194c55 1 70 41 70 98S169 2 115 4C84 4 66-9 55-30l1 105H24l-1-265h31l2 30c10-21 28-34 59-34zm-8 174c40 0 45-34 45-75s-6-73-45-74c-42 0-51 32-51 76 0 43 10 73 51 73" id="ab"/><path d="M24 0v-261h32V0H24" id="ac"/><path d="M177-190C167-65 218 103 67 71c-23-6-38-20-44-43l32-5c15 47 100 32 89-28v-30C133-14 115 1 83 1 29 1 15-40 15-95c0-56 16-97 71-98 29-1 48 16 59 35 1-10 0-23 2-32h30zM94-22c36 0 50-32 50-73 0-42-14-75-50-75-39 0-46 34-46 75s6 73 46 73" id="ad"/><path d="M179-190L93 31C79 59 56 82 12 73V49c39 6 53-20 64-50L1-190h34L92-34l54-156h33" id="ae"/><g id="d"><use transform="matrix(0.05,0,0,0.05,0,0)" xlink:href="#Z"/><use transform="matrix(0.05,0,0,0.05,8.950000000000001,0)" xlink:href="#aa"/><use transform="matrix(0.05,0,0,0.05,18.950000000000003,0)" xlink:href="#ab"/><use transform="matrix(0.05,0,0,0.05,28.950000000000003,0)" xlink:href="#aa"/><use transform="matrix(0.05,0,0,0.05,38.95,0)" xlink:href="#ac"/><use transform="matrix(0.05,0,0,0.05,42.900000000000006,0)" xlink:href="#aa"/><use transform="matrix(0.05,0,0,0.05,52.900000000000006,0)" xlink:href="#ad"/><use transform="matrix(0.05,0,0,0.05,62.900000000000006,0)" xlink:href="#ae"/></g><path d="M240 0l2-218c-23 76-54 145-80 218h-23L58-218 59 0H30v-248h44l77 211c21-75 51-140 76-211h43V0h-30" id="af"/><path d="M141-36C126-15 110 5 73 4 37 3 15-17 15-53c-1-64 63-63 125-63 3-35-9-54-41-54-24 1-41 7-42 31l-33-3c5-37 33-52 76-52 45 0 72 20 72 64v82c-1 20 7 32 28 27v20c-31 9-61-2-59-35zM48-53c0 20 12 33 32 33 41-3 63-29 60-74-43 2-92-5-92 41" id="ag"/><path d="M117-194c89-4 53 116 60 194h-32v-121c0-31-8-49-39-48C34-167 62-67 57 0H25l-1-190h30c1 10-1 24 2 32 11-22 29-35 61-36" id="ah"/><path d="M100-194c63 0 86 42 84 106H49c0 40 14 67 53 68 26 1 43-12 49-29l28 8c-11 28-37 45-77 45C44 4 14-33 15-96c1-61 26-98 85-98zm52 81c6-60-76-77-97-28-3 7-6 17-6 28h103" id="ai"/><path d="M210-169c-67 3-38 105-44 169h-31v-121c0-29-5-50-35-48C34-165 62-65 56 0H25l-1-190h30c1 10-1 24 2 32 10-44 99-50 107 0 11-21 27-35 58-36 85-2 47 119 55 194h-31v-121c0-29-5-49-35-48" id="aj"/><path d="M59-47c-2 24 18 29 38 22v24C64 9 27 4 27-40v-127H5v-23h24l9-43h21v43h35v23H59v120" id="ak"/><g id="e"><use transform="matrix(0.05,0,0,0.05,0,0)" xlink:href="#af"/><use transform="matrix(0.05,0,0,0.05,14.950000000000001,0)" xlink:href="#ag"/><use transform="matrix(0.05,0,0,0.05,24.950000000000003,0)" xlink:href="#ah"/><use transform="matrix(0.05,0,0,0.05,34.95,0)" xlink:href="#ag"/><use transform="matrix(0.05,0,0,0.05,44.95,0)" xlink:href="#ad"/><use transform="matrix(0.05,0,0,0.05,54.95,0)" xlink:href="#ai"/><use transform="matrix(0.05,0,0,0.05,64.95,0)" xlink:href="#aj"/><use transform="matrix(0.05,0,0,0.05,79.9,0)" xlink:href="#ai"/><use transform="matrix(0.05,0,0,0.05,89.9,0)" xlink:href="#ah"/><use transform="matrix(0.05,0,0,0.05,99.9,0)" xlink:href="#ak"/></g><path d="M145-31C134-9 116 4 85 4 32 4 16-35 15-94c0-59 17-99 70-100 32-1 48 14 60 33 0-11-1-24 2-32h30l-1 268h-32zM93-21c41 0 51-33 51-76s-8-73-50-73c-40 0-46 35-46 75s5 74 45 74" id="al"/><path d="M84 4C-5 8 30-112 23-190h32v120c0 31 7 50 39 49 72-2 45-101 50-169h31l1 190h-30c-1-10 1-25-2-33-11 22-28 36-60 37" id="am"/><path d="M135-143c-3-34-86-38-87 0 15 53 115 12 119 90S17 21 10-45l28-5c4 36 97 45 98 0-10-56-113-15-118-90-4-57 82-63 122-42 12 7 21 19 24 35" id="an"/><g id="f"><use transform="matrix(0.05,0,0,0.05,0,0)" xlink:href="#X"/><use transform="matrix(0.05,0,0,0.05,12.950000000000001,0)" xlink:href="#ai"/><use transform="matrix(0.05,0,0,0.05,22.950000000000003,0)" xlink:href="#al"/><use transform="matrix(0.05,0,0,0.05,32.95,0)" xlink:href="#am"/><use transform="matrix(0.05,0,0,0.05,42.95,0)" xlink:href="#ai"/><use transform="matrix(0.05,0,0,0.05,52.95,0)" xlink:href="#an"/><use transform="matrix(0.05,0,0,0.05,61.95,0)" xlink:href="#ak"/></g><g id="g"><use transform="matrix(0.05,0,0,0.05,0,0)" xlink:href="#Z"/><use transform="matrix(0.05,0,0,0.05,8.950000000000001,0)" xlink:href="#aa"/><use transform="matrix(0.05,0,0,0.05,18.950000000000003,0)" xlink:href="#ab"/><use transform="matrix(0.05,0,0,0.05,28.950000000000003,0)" xlink:href="#aa"/><use transform="matrix(0.05,0,0,0.05,38.95,0)" xlink:href="#ac"/><use transform="matrix(0.05,0,0,0.05,42.900000000000006,0)" xlink:href="#aa"/><use transform="matrix(0.05,0,0,0.05,52.900000000000006,0)" xlink:href="#ad"/><use transform="matrix(0.05,0,0,0.05,62.900000000000006,0)" xlink:href="#ae"/></g><path d="M114-163C36-179 61-72 57 0H25l-1-190h30c1 12-1 29 2 39 6-27 23-49 58-41v29" id="ao"/><g id="h"><use transform="matrix(0.05,0,0,0.05,0,0)" xlink:href="#af"/><use transform="matrix(0.05,0,0,0.05,14.950000000000001,0)" xlink:href="#ag"/><use transform="matrix(0.05,0,0,0.05,24.950000000000003,0)" xlink:href="#ah"/><use transform="matrix(0.05,0,0,0.05,34.95,0)" xlink:href="#ag"/><use transform="matrix(0.05,0,0,0.05,44.95,0)" xlink:href="#ad"/><use transform="matrix(0.05,0,0,0.05,54.95,0)" xlink:href="#ai"/><use transform="matrix(0.05,0,0,0.05,64.95,0)" xlink:href="#ao"/></g><path d="M266 0h-40l-56-210L115 0H75L2-248h35L96-30l15-64 43-154h32l59 218 59-218h35" id="ap"/><path d="M24-231v-30h32v30H24zM24 0v-190h32V0H24" id="aq"/><g id="i"><use transform="matrix(0.05,0,0,0.05,0,0)" xlink:href="#ap"/><use transform="matrix(0.05,0,0,0.05,16.599999999999998,0)" xlink:href="#ao"/><use transform="matrix(0.05,0,0,0.05,22.549999999999997,0)" xlink:href="#aq"/><use transform="matrix(0.05,0,0,0.05,26.499999999999996,0)" xlink:href="#ak"/><use transform="matrix(0.05,0,0,0.05,31.499999999999996,0)" xlink:href="#ai"/></g><path d="M185-189c-5-48-123-54-124 2 14 75 158 14 163 119 3 78-121 87-175 55-17-10-28-26-33-46l33-7c5 56 141 63 141-1 0-78-155-14-162-118-5-82 145-84 179-34 5 7 8 16 11 25" id="ar"/><path d="M108 0H70L1-190h34L89-25l56-165h34" id="as"/><path d="M96-169c-40 0-48 33-48 73s9 75 48 75c24 0 41-14 43-38l32 2c-6 37-31 61-74 61-59 0-76-41-82-99-10-93 101-131 147-64 4 7 5 14 7 22l-32 3c-4-21-16-35-41-35" id="at"/><g id="j"><use transform="matrix(0.05,0,0,0.05,0,0)" xlink:href="#ar"/><use transform="matrix(0.05,0,0,0.05,12,0)" xlink:href="#ai"/><use transform="matrix(0.05,0,0,0.05,22,0)" xlink:href="#ao"/><use transform="matrix(0.05,0,0,0.05,27.950000000000003,0)" xlink:href="#as"/><use transform="matrix(0.05,0,0,0.05,36.95,0)" xlink:href="#aq"/><use transform="matrix(0.05,0,0,0.05,40.900000000000006,0)" xlink:href="#at"/><use transform="matrix(0.05,0,0,0.05,49.900000000000006,0)" xlink:href="#ai"/></g><g id="k"><use transform="matrix(0.05,0,0,0.05,0,0)" xlink:href="#Y"/><use transform="matrix(0.05,0,0,0.05,12,0)" xlink:href="#ag"/><use transform="matrix(0.05,0,0,0.05,22,0)" xlink:href="#ao"/><use transform="matrix(0.05,0,0,0.05,27.950000000000003,0)" xlink:href="#ak"/><use transform="matrix(0.05,0,0,0.05,32.95,0)" xlink:href="#aq"/><use transform="matrix(0.05,0,0,0.05,36.900000000000006,0)" xlink:href="#at"/><use transform="matrix(0.05,0,0,0.05,45.900000000000006,0)" xlink:href="#aq"/><use transform="matrix(0.05,0,0,0.05,49.85000000000001,0)" xlink:href="#ab"/><use transform="matrix(0.05,0,0,0.05,59.85,0)" xlink:href="#ag"/><use transform="matrix(0.05,0,0,0.05,69.85000000000001,0)" xlink:href="#ah"/><use transform="matrix(0.05,0,0,0.05,79.85000000000001,0)" xlink:href="#ak"/></g><g id="l"><use transform="matrix(0.05,0,0,0.05,0,0)" xlink:href="#Z"/><use transform="matrix(0.05,0,0,0.05,8.950000000000001,0)" xlink:href="#aa"/><use transform="matrix(0.05,0,0,0.05,18.950000000000003,0)" xlink:href="#ab"/><use transform="matrix(0.05,0,0,0.05,28.950000000000003,0)" xlink:href="#aa"/><use transform="matrix(0.05,0,0,0.05,38.95,0)" xlink:href="#ac"/><use transform="matrix(0.05,0,0,0.05,42.900000000000006,0)" xlink:href="#aa"/><use transform="matrix(0.05,0,0,0.05,52.900000000000006,0)" xlink:href="#ad"/><use transform="matrix(0.05,0,0,0.05,62.900000000000006,0)" xlink:href="#ae"/></g><g id="m"><use transform="matrix(0.05,0,0,0.05,0,0)" xlink:href="#af"/><use transform="matrix(0.05,0,0,0.05,14.950000000000001,0)" xlink:href="#ag"/><use transform="matrix(0.05,0,0,0.05,24.950000000000003,0)" xlink:href="#ah"/><use transform="matrix(0.05,0,0,0.05,34.95,0)" xlink:href="#ag"/><use transform="matrix(0.05,0,0,0.05,44.95,0)" xlink:href="#ad"/><use transform="matrix(0.05,0,0,0.05,54.95,0)" xlink:href="#ai"/><use transform="matrix(0.05,0,0,0.05,64.95,0)" xlink:href="#ao"/></g><path d="M30-248c118-7 216 8 213 122C240-48 200 0 122 0H30v-248zM63-27c89 8 146-16 146-99s-60-101-146-95v194" id="au"/><path d="M106-169C34-169 62-67 57 0H25v-261h32l-1 103c12-21 28-36 61-36 89 0 53 116 60 194h-32v-121c2-32-8-49-39-48" id="av"/><g id="n"><use transform="matrix(0.05,0,0,0.05,0,0)" xlink:href="#au"/><use transform="matrix(0.05,0,0,0.05,12.950000000000001,0)" xlink:href="#aq"/><use transform="matrix(0.05,0,0,0.05,16.900000000000002,0)" xlink:href="#an"/><use transform="matrix(0.05,0,0,0.05,25.900000000000002,0)" xlink:href="#ab"/><use transform="matrix(0.05,0,0,0.05,35.900000000000006,0)" xlink:href="#ag"/><use transform="matrix(0.05,0,0,0.05,45.900000000000006,0)" xlink:href="#ak"/><use transform="matrix(0.05,0,0,0.05,50.900000000000006,0)" xlink:href="#at"/><use transform="matrix(0.05,0,0,0.05,59.900000000000006,0)" xlink:href="#av"/><use transform="matrix(0.05,0,0,0.05,69.9,0)" xlink:href="#ai"/><use transform="matrix(0.05,0,0,0.05,79.9,0)" xlink:href="#ao"/></g><path d="M205 0l-28-72H64L36 0H1l101-248h38L239 0h-34zm-38-99l-47-123c-12 45-31 82-46 123h93" id="aw"/><path d="M9 0v-24l116-142H16v-24h144v24L44-24h123V0H9" id="ax"/><path d="M85-194c31 0 48 13 60 33l-1-100h32l1 261h-30c-2-10 0-23-3-31C134-8 116 4 85 4 32 4 16-35 15-94c0-66 23-100 70-100zm9 24c-40 0-46 34-46 75 0 40 6 74 45 74 42 0 51-32 51-76 0-42-9-74-50-73" id="ay"/><g id="o"><use transform="matrix(0.05,0,0,0.05,0,0)" xlink:href="#aw"/><use transform="matrix(0.05,0,0,0.05,12,0)" xlink:href="#am"/><use transform="matrix(0.05,0,0,0.05,22,0)" xlink:href="#ak"/><use transform="matrix(0.05,0,0,0.05,27,0)" xlink:href="#av"/><use transform="matrix(0.05,0,0,0.05,37,0)" xlink:href="#aa"/><use transform="matrix(0.05,0,0,0.05,47,0)" xlink:href="#ao"/><use transform="matrix(0.05,0,0,0.05,52.95,0)" xlink:href="#aq"/><use transform="matrix(0.05,0,0,0.05,56.900000000000006,0)" xlink:href="#ax"/><use transform="matrix(0.05,0,0,0.05,65.9,0)" xlink:href="#ai"/><use transform="matrix(0.05,0,0,0.05,75.9,0)" xlink:href="#ay"/></g><g id="p"><use transform="matrix(0.05,0,0,0.05,0,0)" xlink:href="#ar"/><use transform="matrix(0.05,0,0,0.05,12,0)" xlink:href="#ak"/><use transform="matrix(0.05,0,0,0.05,17,0)" xlink:href="#aa"/><use transform="matrix(0.05,0,0,0.05,27,0)" xlink:href="#ao"/><use transform="matrix(0.05,0,0,0.05,32.95,0)" xlink:href="#ai"/></g><g id="q"><use transform="matrix(0.05,0,0,0.05,0,0)" xlink:href="#au"/><use transform="matrix(0.05,0,0,0.05,12.950000000000001,0)" xlink:href="#aa"/><use transform="matrix(0.05,0,0,0.05,22.950000000000003,0)" xlink:href="#aj"/><use transform="matrix(0.05,0,0,0.05,37.900000000000006,0)" xlink:href="#ag"/><use transform="matrix(0.05,0,0,0.05,47.900000000000006,0)" xlink:href="#aq"/><use transform="matrix(0.05,0,0,0.05,51.85,0)" xlink:href="#ah"/></g><g id="r"><use transform="matrix(0.05,0,0,0.05,0,0)" xlink:href="#af"/><use transform="matrix(0.05,0,0,0.05,14.950000000000001,0)" xlink:href="#ag"/><use transform="matrix(0.05,0,0,0.05,24.950000000000003,0)" xlink:href="#ah"/><use transform="matrix(0.05,0,0,0.05,34.95,0)" xlink:href="#ag"/><use transform="matrix(0.05,0,0,0.05,44.95,0)" xlink:href="#ad"/><use transform="matrix(0.05,0,0,0.05,54.95,0)" xlink:href="#ai"/><use transform="matrix(0.05,0,0,0.05,64.95,0)" xlink:href="#ao"/></g><g id="s"><use transform="matrix(0.05,0,0,0.05,0,0)" xlink:href="#X"/><use transform="matrix(0.05,0,0,0.05,12.950000000000001,0)" xlink:href="#ai"/><use transform="matrix(0.05,0,0,0.05,22.950000000000003,0)" xlink:href="#al"/><use transform="matrix(0.05,0,0,0.05,32.95,0)" xlink:href="#am"/><use transform="matrix(0.05,0,0,0.05,42.95,0)" xlink:href="#ai"/><use transform="matrix(0.05,0,0,0.05,52.95,0)" xlink:href="#an"/><use transform="matrix(0.05,0,0,0.05,61.95,0)" xlink:href="#ak"/></g><g id="t"><use transform="matrix(0.05,0,0,0.05,0,0)" xlink:href="#X"/><use transform="matrix(0.05,0,0,0.05,12.950000000000001,0)" xlink:href="#ai"/><use transform="matrix(0.05,0,0,0.05,22.950000000000003,0)" xlink:href="#al"/><use transform="matrix(0.05,0,0,0.05,32.95,0)" xlink:href="#am"/><use transform="matrix(0.05,0,0,0.05,42.95,0)" xlink:href="#ai"/><use transform="matrix(0.05,0,0,0.05,52.95,0)" xlink:href="#an"/><use transform="matrix(0.05,0,0,0.05,61.95,0)" xlink:href="#ak"/></g><g id="u"><use transform="matrix(0.05,0,0,0.05,0,0)" xlink:href="#ar"/><use transform="matrix(0.05,0,0,0.05,12,0)" xlink:href="#ak"/><use transform="matrix(0.05,0,0,0.05,17,0)" xlink:href="#ao"/><use transform="matrix(0.05,0,0,0.05,22.95,0)" xlink:href="#ag"/><use transform="matrix(0.05,0,0,0.05,32.95,0)" xlink:href="#ak"/><use transform="matrix(0.05,0,0,0.05,37.95,0)" xlink:href="#ai"/><use transform="matrix(0.05,0,0,0.05,47.95,0)" xlink:href="#ad"/><use transform="matrix(0.05,0,0,0.05,57.95,0)" xlink:href="#ae"/></g><path d="M87 75C49 33 22-17 22-94c0-76 28-126 65-167h31c-38 41-64 92-64 168S80 34 118 75H87" id="az"/><g id="v"><use transform="matrix(0.05,0,0,0.05,0,0)" xlink:href="#az"/><use transform="matrix(0.05,0,0,0.05,5.95,0)" xlink:href="#aa"/><use transform="matrix(0.05,0,0,0.05,15.949999999999998,0)" xlink:href="#ah"/><use transform="matrix(0.05,0,0,0.05,25.950000000000003,0)" xlink:href="#ai"/></g><path d="M101-234c-31-9-42 10-38 44h38v23H63V0H32v-167H5v-23h27c-7-52 17-82 69-68v24" id="aA"/><g id="w"><use transform="matrix(0.05,0,0,0.05,0,0)" xlink:href="#aa"/><use transform="matrix(0.05,0,0,0.05,10,0)" xlink:href="#aA"/></g><path d="M68-38c1 34 0 65-14 84H32c9-13 17-26 17-46H33v-38h35" id="aB"/><g id="x"><use transform="matrix(0.05,0,0,0.05,0,0)" xlink:href="#aw"/><use transform="matrix(0.05,0,0,0.05,12,0)" xlink:href="#am"/><use transform="matrix(0.05,0,0,0.05,22,0)" xlink:href="#ak"/><use transform="matrix(0.05,0,0,0.05,27,0)" xlink:href="#aa"/><use transform="matrix(0.05,0,0,0.05,37,0)" xlink:href="#aw"/><use transform="matrix(0.05,0,0,0.05,49,0)" xlink:href="#ab"/><use transform="matrix(0.05,0,0,0.05,59,0)" xlink:href="#ab"/><use transform="matrix(0.05,0,0,0.05,69,0)" xlink:href="#ao"/><use transform="matrix(0.05,0,0,0.05,74.95,0)" xlink:href="#aa"/><use transform="matrix(0.05,0,0,0.05,84.95,0)" xlink:href="#as"/><use transform="matrix(0.05,0,0,0.05,93.95,0)" xlink:href="#ai"/><use transform="matrix(0.05,0,0,0.05,103.95,0)" xlink:href="#aB"/></g><path d="M140-251c81 0 123 46 123 126C263-53 228-8 163 1c7 30 30 48 69 40v23c-55 16-95-15-103-61C56-3 17-48 17-125c0-80 42-126 123-126zm0 227c63 0 89-41 89-101s-29-99-89-99c-61 0-89 39-89 99S79-25 140-24" id="aC"/><g id="y"><use transform="matrix(0.05,0,0,0.05,0,0)" xlink:href="#aC"/><use transform="matrix(0.05,0,0,0.05,14,0)" xlink:href="#am"/><use transform="matrix(0.05,0,0,0.05,24,0)" xlink:href="#ai"/><use transform="matrix(0.05,0,0,0.05,34,0)" xlink:href="#am"/><use transform="matrix(0.05,0,0,0.05,44,0)" xlink:href="#ai"/><use transform="matrix(0.05,0,0,0.05,54,0)" xlink:href="#aB"/></g><path d="M24-231v-30h32v30H24zM-9 49c24 4 33-6 33-30v-209h32V24c2 40-23 58-65 49V49" id="aD"/><path d="M33-261c38 41 65 92 65 168S71 34 33 75H2C39 34 66-17 66-93S39-220 2-261h31" id="aE"/><g id="z"><use transform="matrix(0.05,0,0,0.05,0,0)" xlink:href="#X"/><use transform="matrix(0.05,0,0,0.05,12.950000000000001,0)" xlink:href="#ai"/><use transform="matrix(0.05,0,0,0.05,22.950000000000003,0)" xlink:href="#aD"/><use transform="matrix(0.05,0,0,0.05,26.900000000000002,0)" xlink:href="#ai"/><use transform="matrix(0.05,0,0,0.05,36.900000000000006,0)" xlink:href="#at"/><use transform="matrix(0.05,0,0,0.05,45.900000000000006,0)" xlink:href="#ak"/><use transform="matrix(0.05,0,0,0.05,50.900000000000006,0)" xlink:href="#aE"/></g><g id="A"><use transform="matrix(0.05,0,0,0.05,0,0)" xlink:href="#Z"/><use transform="matrix(0.05,0,0,0.05,8.950000000000001,0)" xlink:href="#aa"/><use transform="matrix(0.05,0,0,0.05,18.950000000000003,0)" xlink:href="#ab"/><use transform="matrix(0.05,0,0,0.05,28.950000000000003,0)" xlink:href="#aa"/><use transform="matrix(0.05,0,0,0.05,38.95,0)" xlink:href="#ac"/><use transform="matrix(0.05,0,0,0.05,42.900000000000006,0)" xlink:href="#aa"/><use transform="matrix(0.05,0,0,0.05,52.900000000000006,0)" xlink:href="#ad"/><use transform="matrix(0.05,0,0,0.05,62.900000000000006,0)" xlink:href="#ae"/></g><g id="B"><use transform="matrix(0.05,0,0,0.05,0,0)" xlink:href="#au"/><use transform="matrix(0.05,0,0,0.05,12.950000000000001,0)" xlink:href="#aq"/><use transform="matrix(0.05,0,0,0.05,16.900000000000002,0)" xlink:href="#an"/><use transform="matrix(0.05,0,0,0.05,25.900000000000002,0)" xlink:href="#ab"/><use transform="matrix(0.05,0,0,0.05,35.900000000000006,0)" xlink:href="#ag"/><use transform="matrix(0.05,0,0,0.05,45.900000000000006,0)" xlink:href="#ak"/><use transform="matrix(0.05,0,0,0.05,50.900000000000006,0)" xlink:href="#at"/><use transform="matrix(0.05,0,0,0.05,59.900000000000006,0)" xlink:href="#av"/><use transform="matrix(0.05,0,0,0.05,69.9,0)" xlink:href="#ai"/><use transform="matrix(0.05,0,0,0.05,79.9,0)" xlink:href="#ao"/></g><g id="C"><use transform="matrix(0.05,0,0,0.05,0,0)" xlink:href="#af"/><use transform="matrix(0.05,0,0,0.05,14.950000000000001,0)" xlink:href="#ai"/><use transform="matrix(0.05,0,0,0.05,24.950000000000003,0)" xlink:href="#an"/><use transform="matrix(0.05,0,0,0.05,33.95,0)" xlink:href="#an"/><use transform="matrix(0.05,0,0,0.05,42.95,0)" xlink:href="#ag"/><use transform="matrix(0.05,0,0,0.05,52.95,0)" xlink:href="#ad"/><use transform="matrix(0.05,0,0,0.05,62.95,0)" xlink:href="#ai"/></g><path d="M63-220v92h138v28H63V0H30v-248h175v28H63" id="aF"/><path d="M206 0h-36l-40-164L89 0H53L-1-190h32L70-26l43-164h34l41 164 42-164h31" id="aG"/><g id="D"><use transform="matrix(0.05,0,0,0.05,0,0)" xlink:href="#aF"/><use transform="matrix(0.05,0,0,0.05,10.950000000000001,0)" xlink:href="#aa"/><use transform="matrix(0.05,0,0,0.05,20.950000000000003,0)" xlink:href="#ao"/><use transform="matrix(0.05,0,0,0.05,26.900000000000002,0)" xlink:href="#aG"/><use transform="matrix(0.05,0,0,0.05,39.85,0)" xlink:href="#ag"/><use transform="matrix(0.05,0,0,0.05,49.85,0)" xlink:href="#ao"/><use transform="matrix(0.05,0,0,0.05,55.800000000000004,0)" xlink:href="#ay"/><use transform="matrix(0.05,0,0,0.05,65.80000000000001,0)" xlink:href="#ai"/><use transform="matrix(0.05,0,0,0.05,75.80000000000001,0)" xlink:href="#ao"/></g><g id="E"><use transform="matrix(0.05,0,0,0.05,0,0)" xlink:href="#ar"/><use transform="matrix(0.05,0,0,0.05,12,0)" xlink:href="#ai"/><use transform="matrix(0.05,0,0,0.05,22,0)" xlink:href="#al"/><use transform="matrix(0.05,0,0,0.05,32,0)" xlink:href="#am"/><use transform="matrix(0.05,0,0,0.05,42,0)" xlink:href="#ai"/><use transform="matrix(0.05,0,0,0.05,52,0)" xlink:href="#ah"/><use transform="matrix(0.05,0,0,0.05,62,0)" xlink:href="#at"/><use transform="matrix(0.05,0,0,0.05,71,0)" xlink:href="#ai"/><use transform="matrix(0.05,0,0,0.05,81,0)" xlink:href="#ao"/></g><g id="F"><use transform="matrix(0.05,0,0,0.05,0,0)" xlink:href="#U"/><use transform="matrix(0.05,0,0,0.05,5,0)" xlink:href="#ay"/><use transform="matrix(0.05,0,0,0.05,15,0)" xlink:href="#ai"/><use transform="matrix(0.05,0,0,0.05,25,0)" xlink:href="#ah"/><use transform="matrix(0.05,0,0,0.05,35,0)" xlink:href="#ak"/><use transform="matrix(0.05,0,0,0.05,40,0)" xlink:href="#aq"/><use transform="matrix(0.05,0,0,0.05,43.95,0)" xlink:href="#ak"/><use transform="matrix(0.05,0,0,0.05,48.95,0)" xlink:href="#ae"/></g><g id="G"><use transform="matrix(0.05,0,0,0.05,0,0)" xlink:href="#Y"/><use transform="matrix(0.05,0,0,0.05,12,0)" xlink:href="#ao"/><use transform="matrix(0.05,0,0,0.05,17.95,0)" xlink:href="#aa"/><use transform="matrix(0.05,0,0,0.05,27.950000000000003,0)" xlink:href="#as"/><use transform="matrix(0.05,0,0,0.05,36.95,0)" xlink:href="#aq"/><use transform="matrix(0.05,0,0,0.05,40.900000000000006,0)" xlink:href="#ay"/><use transform="matrix(0.05,0,0,0.05,50.900000000000006,0)" xlink:href="#aq"/><use transform="matrix(0.05,0,0,0.05,54.85,0)" xlink:href="#ah"/><use transform="matrix(0.05,0,0,0.05,64.85000000000001,0)" xlink:href="#ad"/></g><g id="H"><use transform="matrix(0.05,0,0,0.05,0,0)" xlink:href="#ar"/><use transform="matrix(0.05,0,0,0.05,12,0)" xlink:href="#ai"/><use transform="matrix(0.05,0,0,0.05,22,0)" xlink:href="#ao"/><use transform="matrix(0.05,0,0,0.05,27.950000000000003,0)" xlink:href="#as"/><use transform="matrix(0.05,0,0,0.05,36.95,0)" xlink:href="#aq"/><use transform="matrix(0.05,0,0,0.05,40.900000000000006,0)" xlink:href="#at"/><use transform="matrix(0.05,0,0,0.05,49.900000000000006,0)" xlink:href="#ai"/></g><g id="I"><use transform="matrix(0.05,0,0,0.05,0,0)" xlink:href="#S"/><use transform="matrix(0.05,0,0,0.05,12.950000000000001,0)" xlink:href="#ac"/><use transform="matrix(0.05,0,0,0.05,16.900000000000002,0)" xlink:href="#aq"/><use transform="matrix(0.05,0,0,0.05,20.85,0)" xlink:href="#ai"/><use transform="matrix(0.05,0,0,0.05,30.85,0)" xlink:href="#ah"/><use transform="matrix(0.05,0,0,0.05,40.85,0)" xlink:href="#ak"/></g><g id="J"><use transform="matrix(0.05,0,0,0.05,0,0)" xlink:href="#X"/><use transform="matrix(0.05,0,0,0.05,12.950000000000001,0)" xlink:href="#ai"/><use transform="matrix(0.05,0,0,0.05,22.950000000000003,0)" xlink:href="#al"/><use transform="matrix(0.05,0,0,0.05,32.95,0)" xlink:href="#am"/><use transform="matrix(0.05,0,0,0.05,42.95,0)" xlink:href="#ai"/><use transform="matrix(0.05,0,0,0.05,52.95,0)" xlink:href="#an"/><use transform="matrix(0.05,0,0,0.05,61.95,0)" xlink:href="#ak"/></g><g id="K"><use transform="matrix(0.05,0,0,0.05,0,0)" xlink:href="#au"/><use transform="matrix(0.05,0,0,0.05,12.950000000000001,0)" xlink:href="#aa"/><use transform="matrix(0.05,0,0,0.05,22.950000000000003,0)" xlink:href="#aj"/><use transform="matrix(0.05,0,0,0.05,37.900000000000006,0)" xlink:href="#ag"/><use transform="matrix(0.05,0,0,0.05,47.900000000000006,0)" xlink:href="#aq"/><use transform="matrix(0.05,0,0,0.05,51.85,0)" xlink:href="#ah"/></g><g id="L"><use transform="matrix(0.05,0,0,0.05,0,0)" xlink:href="#Y"/><use transform="matrix(0.05,0,0,0.05,12,0)" xlink:href="#ag"/><use transform="matrix(0.05,0,0,0.05,22,0)" xlink:href="#ao"/><use transform="matrix(0.05,0,0,0.05,27.950000000000003,0)" xlink:href="#ak"/><use transform="matrix(0.05,0,0,0.05,32.95,0)" xlink:href="#aq"/><use transform="matrix(0.05,0,0,0.05,36.900000000000006,0)" xlink:href="#at"/><use transform="matrix(0.05,0,0,0.05,45.900000000000006,0)" xlink:href="#aq"/><use transform="matrix(0.05,0,0,0.05,49.85000000000001,0)" xlink:href="#ab"/><use transform="matrix(0.05,0,0,0.05,59.85,0)" xlink:href="#ag"/><use transform="matrix(0.05,0,0,0.05,69.85000000000001,0)" xlink:href="#ah"/><use transform="matrix(0.05,0,0,0.05,79.85000000000001,0)" xlink:href="#ak"/></g><g id="M"><use transform="matrix(0.05,0,0,0.05,0,0)" xlink:href="#ah"/><use transform="matrix(0.05,0,0,0.05,10,0)" xlink:href="#aa"/><use transform="matrix(0.05,0,0,0.05,20,0)" xlink:href="#ay"/><use transform="matrix(0.05,0,0,0.05,30,0)" xlink:href="#ai"/></g><g id="N"><use transform="matrix(0.05,0,0,0.05,0,0)" xlink:href="#at"/><use transform="matrix(0.05,0,0,0.05,9,0)" xlink:href="#aa"/><use transform="matrix(0.05,0,0,0.05,19,0)" xlink:href="#aj"/><use transform="matrix(0.05,0,0,0.05,33.95,0)" xlink:href="#ab"/><use transform="matrix(0.05,0,0,0.05,43.95,0)" xlink:href="#aa"/><use transform="matrix(0.05,0,0,0.05,53.95,0)" xlink:href="#ah"/><use transform="matrix(0.05,0,0,0.05,63.95,0)" xlink:href="#ai"/><use transform="matrix(0.05,0,0,0.05,73.95,0)" xlink:href="#ah"/><use transform="matrix(0.05,0,0,0.05,83.95,0)" xlink:href="#ak"/></g><g id="O"><use transform="matrix(0.05,0,0,0.05,0,0)" xlink:href="#ay"/><use transform="matrix(0.05,0,0,0.05,10,0)" xlink:href="#aa"/><use transform="matrix(0.05,0,0,0.05,20,0)" xlink:href="#aj"/><use transform="matrix(0.05,0,0,0.05,34.95,0)" xlink:href="#ag"/><use transform="matrix(0.05,0,0,0.05,44.95,0)" xlink:href="#aq"/><use transform="matrix(0.05,0,0,0.05,48.900000000000006,0)" xlink:href="#ah"/></g><g id="P"><use transform="matrix(0.05,0,0,0.05,0,0)" xlink:href="#X"/><use transform="matrix(0.05,0,0,0.05,12.950000000000001,0)" xlink:href="#ai"/><use transform="matrix(0.05,0,0,0.05,22.950000000000003,0)" xlink:href="#ag"/><use transform="matrix(0.05,0,0,0.05,32.95,0)" xlink:href="#ay"/></g><g id="Q"><use transform="matrix(0.05,0,0,0.05,0,0)" xlink:href="#Z"/><use transform="matrix(0.05,0,0,0.05,8.950000000000001,0)" xlink:href="#aa"/><use transform="matrix(0.05,0,0,0.05,18.950000000000003,0)" xlink:href="#ab"/><use transform="matrix(0.05,0,0,0.05,28.950000000000003,0)" xlink:href="#aa"/><use transform="matrix(0.05,0,0,0.05,38.95,0)" xlink:href="#ac"/><use transform="matrix(0.05,0,0,0.05,42.900000000000006,0)" xlink:href="#aa"/><use transform="matrix(0.05,0,0,0.05,52.900000000000006,0)" xlink:href="#ad"/><use transform="matrix(0.05,0,0,0.05,62.900000000000006,0)" xlink:href="#ae"/></g><g id="R"><use transform="matrix(0.05,0,0,0.05,0,0)" xlink:href="#aw"/><use transform="matrix(0.05,0,0,0.05,12,0)" xlink:href="#ad"/><use transform="matrix(0.05,0,0,0.05,22,0)" xlink:href="#ad"/><use transform="matrix(0.05,0,0,0.05,32,0)" xlink:href="#ao"/><use transform="matrix(0.05,0,0,0.05,37.95,0)" xlink:href="#ai"/><use transform="matrix(0.05,0,0,0.05,47.95,0)" xlink:href="#ad"/><use transform="matrix(0.05,0,0,0.05,57.95,0)" xlink:href="#ag"/><use transform="matrix(0.05,0,0,0.05,67.95,0)" xlink:href="#ak"/><use transform="matrix(0.05,0,0,0.05,72.95,0)" xlink:href="#aq"/><use transform="matrix(0.05,0,0,0.05,76.9,0)" xlink:href="#aa"/><use transform="matrix(0.05,0,0,0.05,86.9,0)" xlink:href="#ah"/></g></defs></g></svg>