<svg xmlns="http://www.w3.org/2000/svg" xmlns:xlink="http://www.w3.org/1999/xlink" xmlns:lucid="lucid" width="1200" height="937"><g transform="translate(-160 -43)" lucid:page-tab-id="0_0"><path d="M441.38 210h180v120h-180z" stroke="#000" stroke-opacity="0" stroke-width="2" fill="#c1e4f7"/><use xlink:href="#a" transform="matrix(1,0,0,1,446.375,215) translate(27.685185185185176 59.44444444444444)"/><path d="M180 280h140v80H180z" stroke="#000" stroke-opacity="0" stroke-width="2" fill="#99d5ca"/><use xlink:href="#b" transform="matrix(1,0,0,1,185,285) translate(40.98765432098766 39.44444444444444)"/><path d="M320.98 319.8l119.42-25.6" stroke="#000" stroke-width="2" fill="none"/><path d="M321.2 320.76l-1.2.26v-2.04l.8-.17zM441.38 295.02l-.8.17-.42-1.96 1.2-.26z"/><path d="M380 262v111.33" fill="none"/><path d="M380 262v5.57m0 7.42v11.12m0 7.42v11.14m0 7.42v11.13m0 7.43v11.13m0 7.4v11.14m0 7.43v5.56M380 262.05V260M380 373.28v2.05" stroke="#19967d" stroke-width="4" fill="none"/><path d="M460 380v60H300v-60z" stroke="#000" stroke-opacity="0" stroke-width="2" fill="#fff" fill-opacity="0"/><use xlink:href="#c" transform="matrix(1,-2.4492935982947064e-16,2.4492935982947064e-16,1,305,385) translate(8.370370370370381 30.333333333333336)"/><use xlink:href="#d" transform="matrix(1,-2.4492935982947064e-16,2.4492935982947064e-16,1,305,385) translate(98.66666666666667 30.333333333333336)"/><path d="M382 218h-4v-5.83h4zm0-13.6h-4v-11.66h4zm0-19.43h-4V173.3h4zm0-19.43h-4V153.9h4zm0-19.43h-4v-11.64h4zm0-19.4h-4v-11.67h4zm0-19.44h-4V96h4z" fill="#19967d"/><path d="M382 220h-4v-2.05h4z" fill="#19967d"/><path fill="#19967d"/><use xlink:href="#e" transform="matrix(1,0,0,1,317.1111111111111,64) translate(0 21.333333333333336)"/><use xlink:href="#d" transform="matrix(1,0,0,1,317.1111111111111,64) translate(82.81481481481482 21.333333333333336)"/><path d="M320.87 160.5l119.64 69" stroke="#000" stroke-width="2" fill="none"/><path d="M321.4 159.65l-1 1.73-.4-.23v-2.3zM441.38 228.85v2.3l-1.4-.8 1-1.73z"/><path d="M840 420h218.14v100H840z" stroke="#000" stroke-opacity="0" stroke-width="2" fill="#ffdba9"/><use xlink:href="#f" transform="matrix(1,0,0,1,845,425) translate(53.358024691358025 49.44444444444444)"/><path d="M731.7 449H839v2H729.7V271H622.36v-2H731.7z"/><path d="M622.4 271h-1.02v-2h1.02zM840 451h-1.03v-2H840z"/><path d="M441.38 630h180v120h-180z" stroke="#000" stroke-opacity="0" stroke-width="2" fill="#c1e4f7"/><use xlink:href="#g" transform="matrix(1,0,0,1,446.375,635) translate(27.685185185185176 59.44444444444444)"/><path d="M180 700h140v80H180z" stroke="#000" stroke-opacity="0" stroke-width="2" fill="#99d5ca"/><use xlink:href="#h" transform="matrix(1,0,0,1,185,705) translate(45.24691358024691 39.44444444444444)"/><path d="M320.9 739.56l119.58-59.12" stroke="#000" stroke-width="2" fill="none"/><path d="M321.36 740.44l-1.36.68v-2.24l.48-.23zM441.38 681.12l-.48.23-.9-1.8 1.38-.67z"/><path d="M380 682v216" fill="none"/><path d="M380 682v5.9m0 7.85v11.78m0 7.85v11.78m0 7.86v11.78m0 7.85v11.8m0 7.84v11.77m0 7.86v11.78m0 7.86v11.8m0 7.84v11.78m0 7.86v11.78m0 7.85v11.78m0 7.86v5.9M380 682.05V680" stroke="#19967d" stroke-width="4" fill="none"/><path d="M382 900h-4v-2.05h4z" fill="#19967d"/><path d="M460 900v60H300v-60z" stroke="#000" stroke-opacity="0" stroke-width="2" fill="#fff" fill-opacity="0"/><use xlink:href="#c" transform="matrix(1,-2.4492935982947064e-16,2.4492935982947064e-16,1,305,904.9999999999999) translate(8.370370370370381 30.333333333333336)"/><use xlink:href="#d" transform="matrix(1,-2.4492935982947064e-16,2.4492935982947064e-16,1,305,904.9999999999999) translate(98.66666666666667 30.333333333333336)"/><path d="M180 800h140v80H180z" stroke="#000" stroke-opacity="0" stroke-width="2" fill="#99d5ca"/><use xlink:href="#i" transform="matrix(1,0,0,1,185,805) translate(39.69135802469136 39.44444444444444)"/><path d="M320.66 839.25L440.7 703.42" stroke="#000" stroke-width="2" fill="none"/><path d="M321.43 839.9l-1.43 1.6v-2.87zM441.38 704.04l-1.43-1.27 1.43-1.6z"/><path d="M382 638h-4v-5.83h4zm0-13.6h-4v-11.66h4zm0-19.43h-4V593.3h4zm0-19.43h-4V573.9h4zm0-19.43h-4v-11.64h4zm0-19.4h-4v-11.67h4zm0-19.44h-4V516h4z" fill="#19967d"/><path d="M382 640h-4v-2.05h4z" fill="#19967d"/><path fill="#19967d"/><use xlink:href="#e" transform="matrix(1,0,0,1,317.1111111111111,484) translate(0 21.333333333333336)"/><use xlink:href="#d" transform="matrix(1,0,0,1,317.1111111111111,484) translate(82.81481481481482 21.333333333333336)"/><path d="M320.87 580.5l119.64 69" stroke="#000" stroke-width="2" fill="none"/><path d="M321.4 579.65l-1 1.73-.4-.23v-2.3zM441.38 648.85v2.3l-1.4-.8 1-1.73z"/><path d="M180 120h140v80H180z" stroke="#000" stroke-opacity="0" stroke-width="2" fill="#f9d2de"/><use xlink:href="#j" transform="matrix(1,0,0,1,185,125) translate(36.01851851851852 39.44444444444444)"/><path d="M180 540h140v80H180z" stroke="#000" stroke-opacity="0" stroke-width="2" fill="#f9d2de"/><use xlink:href="#j" transform="matrix(1,0,0,1,185,545) translate(36.01851851851852 39.44444444444444)"/><path d="M622.38 690h108.3V490H839" stroke="#000" stroke-width="2" fill="none"/><path d="M622.4 691h-1.02v-2h1.02zM840 491h-1.03v-2H840z"/><path d="M1200 430h140v80h-140z" stroke="#000" stroke-opacity="0" stroke-width="2" fill="#f9d2de"/><use xlink:href="#j" transform="matrix(1,0,0,1,1205,435) translate(36.01851851851852 39.44444444444444)"/><path d="M1102 558h-4v-5.88h4zm0-13.72h-4v-11.76h4zm0-19.6h-4v-11.76h4zm0-19.6h-4v-11.76h4zm0-19.6h-4v-11.76h4zm0-19.6h-4v-11.76h4zm0-19.6h-4v-11.76h4zm0-19.6h-4v-11.76h4zm0-19.6h-4v-11.76h4zm0-19.6h-4V376h4z" fill="#19967d"/><path d="M1102 560h-4v-2.05h4z" fill="#19967d"/><path fill="#19967d"/><use xlink:href="#e" transform="matrix(1,0,0,1,1037.111111111111,344) translate(0 21.333333333333336)"/><use xlink:href="#d" transform="matrix(1,0,0,1,1037.111111111111,344) translate(82.81481481481482 21.333333333333336)"/><path d="M1059.14 470H1199" stroke="#000" stroke-width="2" fill="none"/><path d="M1059.16 471h-1.02v-2h1.02zM1200 471h-1.03v-2h1.03z"/><path d="M802 558h-4v-5.88h4zm0-13.72h-4v-11.76h4zm0-19.6h-4v-11.76h4zm0-19.6h-4v-11.76h4zm0-19.6h-4v-11.76h4zm0-19.6h-4v-11.76h4zm0-19.6h-4v-11.76h4zm0-19.6h-4v-11.76h4zm0-19.6h-4v-11.76h4zm0-19.6h-4V376h4z" fill="#19967d"/><path d="M802 560h-4v-2.05h4z" fill="#19967d"/><path fill="#19967d"/><g><use xlink:href="#k" transform="matrix(1,0,0,1,734.8888888888889,344) translate(0 21.333333333333336)"/><use xlink:href="#l" transform="matrix(1,0,0,1,734.8888888888889,344) translate(87.25925925925927 21.333333333333336)"/></g><defs><path d="M115-194c55 1 70 41 70 98S169 2 115 4C84 4 66-9 55-30l1 105H24l-1-265h31l2 30c10-21 28-34 59-34zm-8 174c40 0 45-34 45-75s-6-73-45-74c-42 0-51 32-51 76 0 43 10 73 51 73" id="m"/><path d="M141-36C126-15 110 5 73 4 37 3 15-17 15-53c-1-64 63-63 125-63 3-35-9-54-41-54-24 1-41 7-42 31l-33-3c5-37 33-52 76-52 45 0 72 20 72 64v82c-1 20 7 32 28 27v20c-31 9-61-2-59-35zM48-53c0 20 12 33 32 33 41-3 63-29 60-74-43 2-92-5-92 41" id="n"/><path d="M114-163C36-179 61-72 57 0H25l-1-190h30c1 12-1 29 2 39 6-27 23-49 58-41v29" id="o"/><path d="M59-47c-2 24 18 29 38 22v24C64 9 27 4 27-40v-127H5v-23h24l9-43h21v43h35v23H59v120" id="p"/><path d="M24-231v-30h32v30H24zM24 0v-190h32V0H24" id="q"/><path d="M96-169c-40 0-48 33-48 73s9 75 48 75c24 0 41-14 43-38l32 2c-6 37-31 61-74 61-59 0-76-41-82-99-10-93 101-131 147-64 4 7 5 14 7 22l-32 3c-4-21-16-35-41-35" id="r"/><path d="M117-194c89-4 53 116 60 194h-32v-121c0-31-8-49-39-48C34-167 62-67 57 0H25l-1-190h30c1 10-1 24 2 32 11-22 29-35 61-36" id="s"/><path d="M27 0v-27h64v-190l-56 39v-29l58-41h29v221h61V0H27" id="t"/><g id="a"><use transform="matrix(0.06172839506172839,0,0,0.06172839506172839,0,0)" xlink:href="#m"/><use transform="matrix(0.06172839506172839,0,0,0.06172839506172839,12.345679012345679,0)" xlink:href="#n"/><use transform="matrix(0.06172839506172839,0,0,0.06172839506172839,24.691358024691358,0)" xlink:href="#o"/><use transform="matrix(0.06172839506172839,0,0,0.06172839506172839,32.03703703703704,0)" xlink:href="#p"/><use transform="matrix(0.06172839506172839,0,0,0.06172839506172839,38.20987654320988,0)" xlink:href="#q"/><use transform="matrix(0.06172839506172839,0,0,0.06172839506172839,43.086419753086425,0)" xlink:href="#r"/><use transform="matrix(0.06172839506172839,0,0,0.06172839506172839,54.19753086419753,0)" xlink:href="#q"/><use transform="matrix(0.06172839506172839,0,0,0.06172839506172839,59.074074074074076,0)" xlink:href="#m"/><use transform="matrix(0.06172839506172839,0,0,0.06172839506172839,71.41975308641976,0)" xlink:href="#n"/><use transform="matrix(0.06172839506172839,0,0,0.06172839506172839,83.76543209876544,0)" xlink:href="#s"/><use transform="matrix(0.06172839506172839,0,0,0.06172839506172839,96.11111111111113,0)" xlink:href="#p"/><use transform="matrix(0.06172839506172839,0,0,0.06172839506172839,102.28395061728396,0)" xlink:href="#t"/></g><path d="M205 0l-28-72H64L36 0H1l101-248h38L239 0h-34zm-38-99l-47-123c-12 45-31 82-46 123h93" id="u"/><path d="M24 0v-261h32V0H24" id="v"/><path d="M100-194c63 0 86 42 84 106H49c0 40 14 67 53 68 26 1 43-12 49-29l28 8c-11 28-37 45-77 45C44 4 14-33 15-96c1-61 26-98 85-98zm52 81c6-60-76-77-97-28-3 7-6 17-6 28h103" id="w"/><g id="b"><use transform="matrix(0.06172839506172839,0,0,0.06172839506172839,0,0)" xlink:href="#u"/><use transform="matrix(0.06172839506172839,0,0,0.06172839506172839,14.814814814814813,0)" xlink:href="#v"/><use transform="matrix(0.06172839506172839,0,0,0.06172839506172839,19.691358024691354,0)" xlink:href="#q"/><use transform="matrix(0.06172839506172839,0,0,0.06172839506172839,24.5679012345679,0)" xlink:href="#r"/><use transform="matrix(0.06172839506172839,0,0,0.06172839506172839,35.67901234567901,0)" xlink:href="#w"/></g><path fill="#19967d" d="M30 0v-248h33v221h125V0H30" id="x"/><path fill="#19967d" d="M100-194c63 0 86 42 84 106H49c0 40 14 67 53 68 26 1 43-12 49-29l28 8c-11 28-37 45-77 45C44 4 14-33 15-96c1-61 26-98 85-98zm52 81c6-60-76-77-97-28-3 7-6 17-6 28h103" id="y"/><path fill="#19967d" d="M85-194c31 0 48 13 60 33l-1-100h32l1 261h-30c-2-10 0-23-3-31C134-8 116 4 85 4 32 4 16-35 15-94c0-66 23-100 70-100zm9 24c-40 0-46 34-46 75 0 40 6 74 45 74 42 0 51-32 51-76 0-42-9-74-50-73" id="z"/><path fill="#19967d" d="M177-190C167-65 218 103 67 71c-23-6-38-20-44-43l32-5c15 47 100 32 89-28v-30C133-14 115 1 83 1 29 1 15-40 15-95c0-56 16-97 71-98 29-1 48 16 59 35 1-10 0-23 2-32h30zM94-22c36 0 50-32 50-73 0-42-14-75-50-75-39 0-46 34-46 75s6 73 46 73" id="A"/><path fill="#19967d" d="M114-163C36-179 61-72 57 0H25l-1-190h30c1 12-1 29 2 39 6-27 23-49 58-41v29" id="B"/><g id="c"><use transform="matrix(0.07407407407407408,0,0,0.07407407407407408,0,0)" xlink:href="#x"/><use transform="matrix(0.07407407407407408,0,0,0.07407407407407408,14.814814814814817,0)" xlink:href="#y"/><use transform="matrix(0.07407407407407408,0,0,0.07407407407407408,29.629629629629633,0)" xlink:href="#z"/><use transform="matrix(0.07407407407407408,0,0,0.07407407407407408,44.44444444444445,0)" xlink:href="#A"/><use transform="matrix(0.07407407407407408,0,0,0.07407407407407408,59.25925925925927,0)" xlink:href="#y"/><use transform="matrix(0.07407407407407408,0,0,0.07407407407407408,74.07407407407408,0)" xlink:href="#B"/></g><path fill="#19967d" d="M205 0l-28-72H64L36 0H1l101-248h38L239 0h-34zm-38-99l-47-123c-12 45-31 82-46 123h93" id="C"/><path fill="#19967d" d="M30-248c87 1 191-15 191 75 0 78-77 80-158 76V0H30v-248zm33 125c57 0 124 11 124-50 0-59-68-47-124-48v98" id="D"/><path fill="#19967d" d="M33 0v-248h34V0H33" id="E"/><g id="d"><use transform="matrix(0.07407407407407408,0,0,0.07407407407407408,0,0)" xlink:href="#C"/><use transform="matrix(0.07407407407407408,0,0,0.07407407407407408,17.77777777777778,0)" xlink:href="#D"/><use transform="matrix(0.07407407407407408,0,0,0.07407407407407408,35.55555555555556,0)" xlink:href="#E"/></g><path fill="#19967d" d="M210-169c-67 3-38 105-44 169h-31v-121c0-29-5-50-35-48C34-165 62-65 56 0H25l-1-190h30c1 10-1 24 2 32 10-44 99-50 107 0 11-21 27-35 58-36 85-2 47 119 55 194h-31v-121c0-29-5-49-35-48" id="F"/><path fill="#19967d" d="M24-231v-30h32v30H24zM24 0v-190h32V0H24" id="G"/><path fill="#19967d" d="M117-194c89-4 53 116 60 194h-32v-121c0-31-8-49-39-48C34-167 62-67 57 0H25l-1-190h30c1 10-1 24 2 32 11-22 29-35 61-36" id="H"/><g id="e"><use transform="matrix(0.07407407407407408,0,0,0.07407407407407408,0,0)" xlink:href="#C"/><use transform="matrix(0.07407407407407408,0,0,0.07407407407407408,17.77777777777778,0)" xlink:href="#z"/><use transform="matrix(0.07407407407407408,0,0,0.07407407407407408,32.592592592592595,0)" xlink:href="#F"/><use transform="matrix(0.07407407407407408,0,0,0.07407407407407408,54.74074074074075,0)" xlink:href="#G"/><use transform="matrix(0.07407407407407408,0,0,0.07407407407407408,60.5925925925926,0)" xlink:href="#H"/></g><path d="M210-169c-67 3-38 105-44 169h-31v-121c0-29-5-50-35-48C34-165 62-65 56 0H25l-1-190h30c1 10-1 24 2 32 10-44 99-50 107 0 11-21 27-35 58-36 85-2 47 119 55 194h-31v-121c0-29-5-49-35-48" id="I"/><path d="M179-190L93 31C79 59 56 82 12 73V49c39 6 53-20 64-50L1-190h34L92-34l54-156h33" id="J"/><path d="M85-194c31 0 48 13 60 33l-1-100h32l1 261h-30c-2-10 0-23-3-31C134-8 116 4 85 4 32 4 16-35 15-94c0-66 23-100 70-100zm9 24c-40 0-46 34-46 75 0 40 6 74 45 74 42 0 51-32 51-76 0-42-9-74-50-73" id="K"/><path d="M100-194c62-1 85 37 85 99 1 63-27 99-86 99S16-35 15-95c0-66 28-99 85-99zM99-20c44 1 53-31 53-75 0-43-8-75-51-75s-53 32-53 75 10 74 51 75" id="L"/><g id="f"><use transform="matrix(0.06172839506172839,0,0,0.06172839506172839,0,0)" xlink:href="#I"/><use transform="matrix(0.06172839506172839,0,0,0.06172839506172839,18.456790123456788,0)" xlink:href="#J"/><use transform="matrix(0.06172839506172839,0,0,0.06172839506172839,29.5679012345679,0)" xlink:href="#K"/><use transform="matrix(0.06172839506172839,0,0,0.06172839506172839,41.913580246913575,0)" xlink:href="#L"/><use transform="matrix(0.06172839506172839,0,0,0.06172839506172839,54.25925925925925,0)" xlink:href="#I"/><use transform="matrix(0.06172839506172839,0,0,0.06172839506172839,72.71604938271604,0)" xlink:href="#n"/><use transform="matrix(0.06172839506172839,0,0,0.06172839506172839,85.06172839506172,0)" xlink:href="#q"/><use transform="matrix(0.06172839506172839,0,0,0.06172839506172839,89.93827160493827,0)" xlink:href="#s"/></g><path d="M101-251c82-7 93 87 43 132L82-64C71-53 59-42 53-27h129V0H18c2-99 128-94 128-182 0-28-16-43-45-43s-46 15-49 41l-32-3c6-41 34-60 81-64" id="M"/><g id="g"><use transform="matrix(0.06172839506172839,0,0,0.06172839506172839,0,0)" xlink:href="#m"/><use transform="matrix(0.06172839506172839,0,0,0.06172839506172839,12.345679012345679,0)" xlink:href="#n"/><use transform="matrix(0.06172839506172839,0,0,0.06172839506172839,24.691358024691358,0)" xlink:href="#o"/><use transform="matrix(0.06172839506172839,0,0,0.06172839506172839,32.03703703703704,0)" xlink:href="#p"/><use transform="matrix(0.06172839506172839,0,0,0.06172839506172839,38.20987654320988,0)" xlink:href="#q"/><use transform="matrix(0.06172839506172839,0,0,0.06172839506172839,43.086419753086425,0)" xlink:href="#r"/><use transform="matrix(0.06172839506172839,0,0,0.06172839506172839,54.19753086419753,0)" xlink:href="#q"/><use transform="matrix(0.06172839506172839,0,0,0.06172839506172839,59.074074074074076,0)" xlink:href="#m"/><use transform="matrix(0.06172839506172839,0,0,0.06172839506172839,71.41975308641976,0)" xlink:href="#n"/><use transform="matrix(0.06172839506172839,0,0,0.06172839506172839,83.76543209876544,0)" xlink:href="#s"/><use transform="matrix(0.06172839506172839,0,0,0.06172839506172839,96.11111111111113,0)" xlink:href="#p"/><use transform="matrix(0.06172839506172839,0,0,0.06172839506172839,102.28395061728396,0)" xlink:href="#M"/></g><path d="M160-131c35 5 61 23 61 61C221 17 115-2 30 0v-248c76 3 177-17 177 60 0 33-19 50-47 57zm-97-11c50-1 110 9 110-42 0-47-63-36-110-37v79zm0 115c55-2 124 14 124-45 0-56-70-42-124-44v89" id="N"/><path d="M115-194c53 0 69 39 70 98 0 66-23 100-70 100C84 3 66-7 56-30L54 0H23l1-261h32v101c10-23 28-34 59-34zm-8 174c40 0 45-34 45-75 0-40-5-75-45-74-42 0-51 32-51 76 0 43 10 73 51 73" id="O"/><g id="h"><use transform="matrix(0.06172839506172839,0,0,0.06172839506172839,0,0)" xlink:href="#N"/><use transform="matrix(0.06172839506172839,0,0,0.06172839506172839,14.814814814814813,0)" xlink:href="#L"/><use transform="matrix(0.06172839506172839,0,0,0.06172839506172839,27.160493827160494,0)" xlink:href="#O"/></g><path d="M143 0L79-87 56-68V0H24v-261h32v163l83-92h37l-77 82L181 0h-38" id="P"/><g id="i"><use transform="matrix(0.06172839506172839,0,0,0.06172839506172839,0,0)" xlink:href="#N"/><use transform="matrix(0.06172839506172839,0,0,0.06172839506172839,14.814814814814813,0)" xlink:href="#n"/><use transform="matrix(0.06172839506172839,0,0,0.06172839506172839,27.160493827160494,0)" xlink:href="#s"/><use transform="matrix(0.06172839506172839,0,0,0.06172839506172839,39.50617283950617,0)" xlink:href="#P"/></g><path d="M233-177c-1 41-23 64-60 70L243 0h-38l-65-103H63V0H30v-248c88 3 205-21 203 71zM63-129c60-2 137 13 137-47 0-61-80-42-137-45v92" id="Q"/><path d="M30 0v-248h187v28H63v79h144v27H63v87h162V0H30" id="R"/><path d="M30-248c87 1 191-15 191 75 0 78-77 80-158 76V0H30v-248zm33 125c57 0 124 11 124-50 0-59-68-47-124-48v98" id="S"/><path d="M30 0v-248h33v221h125V0H30" id="T"/><g id="j"><use transform="matrix(0.06172839506172839,0,0,0.06172839506172839,0,0)" xlink:href="#Q"/><use transform="matrix(0.06172839506172839,0,0,0.06172839506172839,15.987654320987653,0)" xlink:href="#R"/><use transform="matrix(0.06172839506172839,0,0,0.06172839506172839,30.80246913580247,0)" xlink:href="#S"/><use transform="matrix(0.06172839506172839,0,0,0.06172839506172839,45.61728395061728,0)" xlink:href="#T"/></g><path fill="#19967d" d="M84 4C-5 8 30-112 23-190h32v120c0 31 7 50 39 49 72-2 45-101 50-169h31l1 190h-30c-1-10 1-25-2-33-11 22-28 36-60 37" id="U"/><path fill="#19967d" d="M115-194c53 0 69 39 70 98 0 66-23 100-70 100C84 3 66-7 56-30L54 0H23l1-261h32v101c10-23 28-34 59-34zm-8 174c40 0 45-34 45-75 0-40-5-75-45-74-42 0-51 32-51 76 0 43 10 73 51 73" id="V"/><path fill="#19967d" d="M24 0v-261h32V0H24" id="W"/><path fill="#19967d" d="M96-169c-40 0-48 33-48 73s9 75 48 75c24 0 41-14 43-38l32 2c-6 37-31 61-74 61-59 0-76-41-82-99-10-93 101-131 147-64 4 7 5 14 7 22l-32 3c-4-21-16-35-41-35" id="X"/><g id="k"><use transform="matrix(0.07407407407407408,0,0,0.07407407407407408,0,0)" xlink:href="#D"/><use transform="matrix(0.07407407407407408,0,0,0.07407407407407408,17.77777777777778,0)" xlink:href="#U"/><use transform="matrix(0.07407407407407408,0,0,0.07407407407407408,32.592592592592595,0)" xlink:href="#V"/><use transform="matrix(0.07407407407407408,0,0,0.07407407407407408,47.40740740740741,0)" xlink:href="#W"/><use transform="matrix(0.07407407407407408,0,0,0.07407407407407408,53.25925925925927,0)" xlink:href="#G"/><use transform="matrix(0.07407407407407408,0,0,0.07407407407407408,59.11111111111112,0)" xlink:href="#X"/></g><g id="l"><use transform="matrix(0.07407407407407408,0,0,0.07407407407407408,0,0)" xlink:href="#C"/><use transform="matrix(0.07407407407407408,0,0,0.07407407407407408,17.77777777777778,0)" xlink:href="#D"/><use transform="matrix(0.07407407407407408,0,0,0.07407407407407408,35.55555555555556,0)" xlink:href="#E"/></g></defs></g></svg>